%TF.GenerationSoftware,KiCad,Pcbnew,5.1.9+dfsg1-1+deb11u1*%
%TF.CreationDate,2023-01-12T13:46:45+03:00*%
%TF.ProjectId,Anemometr,416e656d-6f6d-4657-9472-2e6b69636164,rev?*%
%TF.SameCoordinates,Original*%
%TF.FileFunction,Soldermask,Bot*%
%TF.FilePolarity,Negative*%
%FSLAX46Y46*%
G04 Gerber Fmt 4.6, Leading zero omitted, Abs format (unit mm)*
G04 Created by KiCad (PCBNEW 5.1.9+dfsg1-1+deb11u1) date 2023-01-12 13:46:45*
%MOMM*%
%LPD*%
G01*
G04 APERTURE LIST*
%ADD10C,1.000000*%
%ADD11R,0.400000X1.900000*%
%ADD12R,0.250000X1.300000*%
%ADD13R,1.300000X0.250000*%
%ADD14R,1.800000X2.500000*%
%ADD15R,1.060000X0.650000*%
%ADD16R,2.000000X1.500000*%
%ADD17R,2.000000X3.800000*%
%ADD18R,1.550000X1.270000*%
%ADD19R,0.900000X0.800000*%
%ADD20R,0.700000X1.670000*%
%ADD21C,1.524000*%
%ADD22R,1.200000X0.900000*%
G04 APERTURE END LIST*
D10*
%TO.C,J24*%
X25040000Y-63360000D03*
%TD*%
%TO.C,J9*%
X41200000Y-77410000D03*
%TD*%
%TO.C,J8*%
X44430000Y-82470000D03*
%TD*%
%TO.C,J5*%
X48200000Y-68000000D03*
%TD*%
%TO.C,J4*%
X40400000Y-72250000D03*
%TD*%
%TO.C,J3*%
X41220000Y-73540000D03*
%TD*%
%TO.C,J2*%
X40350000Y-74800000D03*
%TD*%
%TO.C,J1*%
X41220000Y-75960000D03*
%TD*%
%TO.C,R40*%
G36*
G01*
X45713974Y-91853420D02*
X45343974Y-91853420D01*
G75*
G02*
X45208974Y-91718420I0J135000D01*
G01*
X45208974Y-91448420D01*
G75*
G02*
X45343974Y-91313420I135000J0D01*
G01*
X45713974Y-91313420D01*
G75*
G02*
X45848974Y-91448420I0J-135000D01*
G01*
X45848974Y-91718420D01*
G75*
G02*
X45713974Y-91853420I-135000J0D01*
G01*
G37*
G36*
G01*
X45713974Y-92873420D02*
X45343974Y-92873420D01*
G75*
G02*
X45208974Y-92738420I0J135000D01*
G01*
X45208974Y-92468420D01*
G75*
G02*
X45343974Y-92333420I135000J0D01*
G01*
X45713974Y-92333420D01*
G75*
G02*
X45848974Y-92468420I0J-135000D01*
G01*
X45848974Y-92738420D01*
G75*
G02*
X45713974Y-92873420I-135000J0D01*
G01*
G37*
%TD*%
%TO.C,R36*%
G36*
G01*
X47189150Y-91853420D02*
X46819150Y-91853420D01*
G75*
G02*
X46684150Y-91718420I0J135000D01*
G01*
X46684150Y-91448420D01*
G75*
G02*
X46819150Y-91313420I135000J0D01*
G01*
X47189150Y-91313420D01*
G75*
G02*
X47324150Y-91448420I0J-135000D01*
G01*
X47324150Y-91718420D01*
G75*
G02*
X47189150Y-91853420I-135000J0D01*
G01*
G37*
G36*
G01*
X47189150Y-92873420D02*
X46819150Y-92873420D01*
G75*
G02*
X46684150Y-92738420I0J135000D01*
G01*
X46684150Y-92468420D01*
G75*
G02*
X46819150Y-92333420I135000J0D01*
G01*
X47189150Y-92333420D01*
G75*
G02*
X47324150Y-92468420I0J-135000D01*
G01*
X47324150Y-92738420D01*
G75*
G02*
X47189150Y-92873420I-135000J0D01*
G01*
G37*
%TD*%
%TO.C,R35*%
G36*
G01*
X48564702Y-91853420D02*
X48194702Y-91853420D01*
G75*
G02*
X48059702Y-91718420I0J135000D01*
G01*
X48059702Y-91448420D01*
G75*
G02*
X48194702Y-91313420I135000J0D01*
G01*
X48564702Y-91313420D01*
G75*
G02*
X48699702Y-91448420I0J-135000D01*
G01*
X48699702Y-91718420D01*
G75*
G02*
X48564702Y-91853420I-135000J0D01*
G01*
G37*
G36*
G01*
X48564702Y-92873420D02*
X48194702Y-92873420D01*
G75*
G02*
X48059702Y-92738420I0J135000D01*
G01*
X48059702Y-92468420D01*
G75*
G02*
X48194702Y-92333420I135000J0D01*
G01*
X48564702Y-92333420D01*
G75*
G02*
X48699702Y-92468420I0J-135000D01*
G01*
X48699702Y-92738420D01*
G75*
G02*
X48564702Y-92873420I-135000J0D01*
G01*
G37*
%TD*%
%TO.C,R32*%
G36*
G01*
X49972426Y-91853420D02*
X49602426Y-91853420D01*
G75*
G02*
X49467426Y-91718420I0J135000D01*
G01*
X49467426Y-91448420D01*
G75*
G02*
X49602426Y-91313420I135000J0D01*
G01*
X49972426Y-91313420D01*
G75*
G02*
X50107426Y-91448420I0J-135000D01*
G01*
X50107426Y-91718420D01*
G75*
G02*
X49972426Y-91853420I-135000J0D01*
G01*
G37*
G36*
G01*
X49972426Y-92873420D02*
X49602426Y-92873420D01*
G75*
G02*
X49467426Y-92738420I0J135000D01*
G01*
X49467426Y-92468420D01*
G75*
G02*
X49602426Y-92333420I135000J0D01*
G01*
X49972426Y-92333420D01*
G75*
G02*
X50107426Y-92468420I0J-135000D01*
G01*
X50107426Y-92738420D01*
G75*
G02*
X49972426Y-92873420I-135000J0D01*
G01*
G37*
%TD*%
%TO.C,C48*%
G36*
G01*
X45348974Y-94309820D02*
X45688974Y-94309820D01*
G75*
G02*
X45828974Y-94449820I0J-140000D01*
G01*
X45828974Y-94729820D01*
G75*
G02*
X45688974Y-94869820I-140000J0D01*
G01*
X45348974Y-94869820D01*
G75*
G02*
X45208974Y-94729820I0J140000D01*
G01*
X45208974Y-94449820D01*
G75*
G02*
X45348974Y-94309820I140000J0D01*
G01*
G37*
G36*
G01*
X45348974Y-93349820D02*
X45688974Y-93349820D01*
G75*
G02*
X45828974Y-93489820I0J-140000D01*
G01*
X45828974Y-93769820D01*
G75*
G02*
X45688974Y-93909820I-140000J0D01*
G01*
X45348974Y-93909820D01*
G75*
G02*
X45208974Y-93769820I0J140000D01*
G01*
X45208974Y-93489820D01*
G75*
G02*
X45348974Y-93349820I140000J0D01*
G01*
G37*
%TD*%
%TO.C,C46*%
G36*
G01*
X46824150Y-94309820D02*
X47164150Y-94309820D01*
G75*
G02*
X47304150Y-94449820I0J-140000D01*
G01*
X47304150Y-94729820D01*
G75*
G02*
X47164150Y-94869820I-140000J0D01*
G01*
X46824150Y-94869820D01*
G75*
G02*
X46684150Y-94729820I0J140000D01*
G01*
X46684150Y-94449820D01*
G75*
G02*
X46824150Y-94309820I140000J0D01*
G01*
G37*
G36*
G01*
X46824150Y-93349820D02*
X47164150Y-93349820D01*
G75*
G02*
X47304150Y-93489820I0J-140000D01*
G01*
X47304150Y-93769820D01*
G75*
G02*
X47164150Y-93909820I-140000J0D01*
G01*
X46824150Y-93909820D01*
G75*
G02*
X46684150Y-93769820I0J140000D01*
G01*
X46684150Y-93489820D01*
G75*
G02*
X46824150Y-93349820I140000J0D01*
G01*
G37*
%TD*%
%TO.C,C45*%
G36*
G01*
X48199702Y-94276800D02*
X48539702Y-94276800D01*
G75*
G02*
X48679702Y-94416800I0J-140000D01*
G01*
X48679702Y-94696800D01*
G75*
G02*
X48539702Y-94836800I-140000J0D01*
G01*
X48199702Y-94836800D01*
G75*
G02*
X48059702Y-94696800I0J140000D01*
G01*
X48059702Y-94416800D01*
G75*
G02*
X48199702Y-94276800I140000J0D01*
G01*
G37*
G36*
G01*
X48199702Y-93316800D02*
X48539702Y-93316800D01*
G75*
G02*
X48679702Y-93456800I0J-140000D01*
G01*
X48679702Y-93736800D01*
G75*
G02*
X48539702Y-93876800I-140000J0D01*
G01*
X48199702Y-93876800D01*
G75*
G02*
X48059702Y-93736800I0J140000D01*
G01*
X48059702Y-93456800D01*
G75*
G02*
X48199702Y-93316800I140000J0D01*
G01*
G37*
%TD*%
%TO.C,C42*%
G36*
G01*
X49607426Y-94309820D02*
X49947426Y-94309820D01*
G75*
G02*
X50087426Y-94449820I0J-140000D01*
G01*
X50087426Y-94729820D01*
G75*
G02*
X49947426Y-94869820I-140000J0D01*
G01*
X49607426Y-94869820D01*
G75*
G02*
X49467426Y-94729820I0J140000D01*
G01*
X49467426Y-94449820D01*
G75*
G02*
X49607426Y-94309820I140000J0D01*
G01*
G37*
G36*
G01*
X49607426Y-93349820D02*
X49947426Y-93349820D01*
G75*
G02*
X50087426Y-93489820I0J-140000D01*
G01*
X50087426Y-93769820D01*
G75*
G02*
X49947426Y-93909820I-140000J0D01*
G01*
X49607426Y-93909820D01*
G75*
G02*
X49467426Y-93769820I0J140000D01*
G01*
X49467426Y-93489820D01*
G75*
G02*
X49607426Y-93349820I140000J0D01*
G01*
G37*
%TD*%
D11*
%TO.C,Y1*%
X46860000Y-66990000D03*
X45660000Y-66990000D03*
X44460000Y-66990000D03*
%TD*%
%TO.C,C55*%
G36*
G01*
X29385000Y-72650000D02*
X29385000Y-72150000D01*
G75*
G02*
X29610000Y-71925000I225000J0D01*
G01*
X30060000Y-71925000D01*
G75*
G02*
X30285000Y-72150000I0J-225000D01*
G01*
X30285000Y-72650000D01*
G75*
G02*
X30060000Y-72875000I-225000J0D01*
G01*
X29610000Y-72875000D01*
G75*
G02*
X29385000Y-72650000I0J225000D01*
G01*
G37*
G36*
G01*
X27835000Y-72650000D02*
X27835000Y-72150000D01*
G75*
G02*
X28060000Y-71925000I225000J0D01*
G01*
X28510000Y-71925000D01*
G75*
G02*
X28735000Y-72150000I0J-225000D01*
G01*
X28735000Y-72650000D01*
G75*
G02*
X28510000Y-72875000I-225000J0D01*
G01*
X28060000Y-72875000D01*
G75*
G02*
X27835000Y-72650000I0J225000D01*
G01*
G37*
%TD*%
%TO.C,C59*%
G36*
G01*
X29050000Y-75840000D02*
X29050000Y-76180000D01*
G75*
G02*
X28910000Y-76320000I-140000J0D01*
G01*
X28630000Y-76320000D01*
G75*
G02*
X28490000Y-76180000I0J140000D01*
G01*
X28490000Y-75840000D01*
G75*
G02*
X28630000Y-75700000I140000J0D01*
G01*
X28910000Y-75700000D01*
G75*
G02*
X29050000Y-75840000I0J-140000D01*
G01*
G37*
G36*
G01*
X30010000Y-75840000D02*
X30010000Y-76180000D01*
G75*
G02*
X29870000Y-76320000I-140000J0D01*
G01*
X29590000Y-76320000D01*
G75*
G02*
X29450000Y-76180000I0J140000D01*
G01*
X29450000Y-75840000D01*
G75*
G02*
X29590000Y-75700000I140000J0D01*
G01*
X29870000Y-75700000D01*
G75*
G02*
X30010000Y-75840000I0J-140000D01*
G01*
G37*
%TD*%
%TO.C,C32*%
G36*
G01*
X29040000Y-66130000D02*
X29040000Y-66470000D01*
G75*
G02*
X28900000Y-66610000I-140000J0D01*
G01*
X28620000Y-66610000D01*
G75*
G02*
X28480000Y-66470000I0J140000D01*
G01*
X28480000Y-66130000D01*
G75*
G02*
X28620000Y-65990000I140000J0D01*
G01*
X28900000Y-65990000D01*
G75*
G02*
X29040000Y-66130000I0J-140000D01*
G01*
G37*
G36*
G01*
X30000000Y-66130000D02*
X30000000Y-66470000D01*
G75*
G02*
X29860000Y-66610000I-140000J0D01*
G01*
X29580000Y-66610000D01*
G75*
G02*
X29440000Y-66470000I0J140000D01*
G01*
X29440000Y-66130000D01*
G75*
G02*
X29580000Y-65990000I140000J0D01*
G01*
X29860000Y-65990000D01*
G75*
G02*
X30000000Y-66130000I0J-140000D01*
G01*
G37*
%TD*%
%TO.C,C2*%
G36*
G01*
X32330000Y-66890000D02*
X32670000Y-66890000D01*
G75*
G02*
X32810000Y-67030000I0J-140000D01*
G01*
X32810000Y-67310000D01*
G75*
G02*
X32670000Y-67450000I-140000J0D01*
G01*
X32330000Y-67450000D01*
G75*
G02*
X32190000Y-67310000I0J140000D01*
G01*
X32190000Y-67030000D01*
G75*
G02*
X32330000Y-66890000I140000J0D01*
G01*
G37*
G36*
G01*
X32330000Y-65930000D02*
X32670000Y-65930000D01*
G75*
G02*
X32810000Y-66070000I0J-140000D01*
G01*
X32810000Y-66350000D01*
G75*
G02*
X32670000Y-66490000I-140000J0D01*
G01*
X32330000Y-66490000D01*
G75*
G02*
X32190000Y-66350000I0J140000D01*
G01*
X32190000Y-66070000D01*
G75*
G02*
X32330000Y-65930000I140000J0D01*
G01*
G37*
%TD*%
%TO.C,C1*%
G36*
G01*
X32850000Y-75980000D02*
X32510000Y-75980000D01*
G75*
G02*
X32370000Y-75840000I0J140000D01*
G01*
X32370000Y-75560000D01*
G75*
G02*
X32510000Y-75420000I140000J0D01*
G01*
X32850000Y-75420000D01*
G75*
G02*
X32990000Y-75560000I0J-140000D01*
G01*
X32990000Y-75840000D01*
G75*
G02*
X32850000Y-75980000I-140000J0D01*
G01*
G37*
G36*
G01*
X32850000Y-76940000D02*
X32510000Y-76940000D01*
G75*
G02*
X32370000Y-76800000I0J140000D01*
G01*
X32370000Y-76520000D01*
G75*
G02*
X32510000Y-76380000I140000J0D01*
G01*
X32850000Y-76380000D01*
G75*
G02*
X32990000Y-76520000I0J-140000D01*
G01*
X32990000Y-76800000D01*
G75*
G02*
X32850000Y-76940000I-140000J0D01*
G01*
G37*
%TD*%
D12*
%TO.C,U1*%
X44430000Y-70310000D03*
X44930000Y-70310000D03*
X45430000Y-70310000D03*
X45930000Y-70310000D03*
X46430000Y-70310000D03*
X46930000Y-70310000D03*
X47430000Y-70310000D03*
X47930000Y-70310000D03*
X48430000Y-70310000D03*
X48930000Y-70310000D03*
X49430000Y-70310000D03*
X49930000Y-70310000D03*
D13*
X51530000Y-71910000D03*
X51530000Y-72410000D03*
X51530000Y-72910000D03*
X51530000Y-73410000D03*
X51530000Y-73910000D03*
X51530000Y-74410000D03*
X51530000Y-74910000D03*
X51530000Y-75410000D03*
X51530000Y-75910000D03*
X51530000Y-76410000D03*
X51530000Y-76910000D03*
X51530000Y-77410000D03*
D12*
X49930000Y-79010000D03*
X49430000Y-79010000D03*
X48930000Y-79010000D03*
X48430000Y-79010000D03*
X47930000Y-79010000D03*
X47430000Y-79010000D03*
X46930000Y-79010000D03*
X46430000Y-79010000D03*
X45930000Y-79010000D03*
X45430000Y-79010000D03*
X44930000Y-79010000D03*
X44430000Y-79010000D03*
D13*
X42830000Y-77410000D03*
X42830000Y-76910000D03*
X42830000Y-76410000D03*
X42830000Y-75910000D03*
X42830000Y-75410000D03*
X42830000Y-74910000D03*
X42830000Y-74410000D03*
X42830000Y-73910000D03*
X42830000Y-73410000D03*
X42830000Y-72910000D03*
X42830000Y-72410000D03*
X42830000Y-71910000D03*
%TD*%
%TO.C,C5*%
G36*
G01*
X33240000Y-79790000D02*
X32900000Y-79790000D01*
G75*
G02*
X32760000Y-79650000I0J140000D01*
G01*
X32760000Y-79370000D01*
G75*
G02*
X32900000Y-79230000I140000J0D01*
G01*
X33240000Y-79230000D01*
G75*
G02*
X33380000Y-79370000I0J-140000D01*
G01*
X33380000Y-79650000D01*
G75*
G02*
X33240000Y-79790000I-140000J0D01*
G01*
G37*
G36*
G01*
X33240000Y-80750000D02*
X32900000Y-80750000D01*
G75*
G02*
X32760000Y-80610000I0J140000D01*
G01*
X32760000Y-80330000D01*
G75*
G02*
X32900000Y-80190000I140000J0D01*
G01*
X33240000Y-80190000D01*
G75*
G02*
X33380000Y-80330000I0J-140000D01*
G01*
X33380000Y-80610000D01*
G75*
G02*
X33240000Y-80750000I-140000J0D01*
G01*
G37*
%TD*%
%TO.C,C17*%
G36*
G01*
X35090000Y-69610000D02*
X35090000Y-69950000D01*
G75*
G02*
X34950000Y-70090000I-140000J0D01*
G01*
X34670000Y-70090000D01*
G75*
G02*
X34530000Y-69950000I0J140000D01*
G01*
X34530000Y-69610000D01*
G75*
G02*
X34670000Y-69470000I140000J0D01*
G01*
X34950000Y-69470000D01*
G75*
G02*
X35090000Y-69610000I0J-140000D01*
G01*
G37*
G36*
G01*
X36050000Y-69610000D02*
X36050000Y-69950000D01*
G75*
G02*
X35910000Y-70090000I-140000J0D01*
G01*
X35630000Y-70090000D01*
G75*
G02*
X35490000Y-69950000I0J140000D01*
G01*
X35490000Y-69610000D01*
G75*
G02*
X35630000Y-69470000I140000J0D01*
G01*
X35910000Y-69470000D01*
G75*
G02*
X36050000Y-69610000I0J-140000D01*
G01*
G37*
%TD*%
%TO.C,C53*%
G36*
G01*
X59100000Y-81785000D02*
X59100000Y-80835000D01*
G75*
G02*
X59350000Y-80585000I250000J0D01*
G01*
X59850000Y-80585000D01*
G75*
G02*
X60100000Y-80835000I0J-250000D01*
G01*
X60100000Y-81785000D01*
G75*
G02*
X59850000Y-82035000I-250000J0D01*
G01*
X59350000Y-82035000D01*
G75*
G02*
X59100000Y-81785000I0J250000D01*
G01*
G37*
G36*
G01*
X57200000Y-81785000D02*
X57200000Y-80835000D01*
G75*
G02*
X57450000Y-80585000I250000J0D01*
G01*
X57950000Y-80585000D01*
G75*
G02*
X58200000Y-80835000I0J-250000D01*
G01*
X58200000Y-81785000D01*
G75*
G02*
X57950000Y-82035000I-250000J0D01*
G01*
X57450000Y-82035000D01*
G75*
G02*
X57200000Y-81785000I0J250000D01*
G01*
G37*
%TD*%
%TO.C,L5*%
G36*
G01*
X60290000Y-78385000D02*
X60290000Y-75455000D01*
G75*
G02*
X60525000Y-75220000I235000J0D01*
G01*
X62405000Y-75220000D01*
G75*
G02*
X62640000Y-75455000I0J-235000D01*
G01*
X62640000Y-78385000D01*
G75*
G02*
X62405000Y-78620000I-235000J0D01*
G01*
X60525000Y-78620000D01*
G75*
G02*
X60290000Y-78385000I0J235000D01*
G01*
G37*
G36*
G01*
X54240000Y-78385000D02*
X54240000Y-75455000D01*
G75*
G02*
X54475000Y-75220000I235000J0D01*
G01*
X56355000Y-75220000D01*
G75*
G02*
X56590000Y-75455000I0J-235000D01*
G01*
X56590000Y-78385000D01*
G75*
G02*
X56355000Y-78620000I-235000J0D01*
G01*
X54475000Y-78620000D01*
G75*
G02*
X54240000Y-78385000I0J235000D01*
G01*
G37*
%TD*%
D14*
%TO.C,D17*%
X55020000Y-86500000D03*
X55020000Y-82500000D03*
%TD*%
%TO.C,C11*%
G36*
G01*
X42165000Y-70380000D02*
X42165000Y-70880000D01*
G75*
G02*
X41940000Y-71105000I-225000J0D01*
G01*
X41490000Y-71105000D01*
G75*
G02*
X41265000Y-70880000I0J225000D01*
G01*
X41265000Y-70380000D01*
G75*
G02*
X41490000Y-70155000I225000J0D01*
G01*
X41940000Y-70155000D01*
G75*
G02*
X42165000Y-70380000I0J-225000D01*
G01*
G37*
G36*
G01*
X43715000Y-70380000D02*
X43715000Y-70880000D01*
G75*
G02*
X43490000Y-71105000I-225000J0D01*
G01*
X43040000Y-71105000D01*
G75*
G02*
X42815000Y-70880000I0J225000D01*
G01*
X42815000Y-70380000D01*
G75*
G02*
X43040000Y-70155000I225000J0D01*
G01*
X43490000Y-70155000D01*
G75*
G02*
X43715000Y-70380000I0J-225000D01*
G01*
G37*
%TD*%
%TO.C,C8*%
G36*
G01*
X52205000Y-79130000D02*
X52205000Y-78630000D01*
G75*
G02*
X52430000Y-78405000I225000J0D01*
G01*
X52880000Y-78405000D01*
G75*
G02*
X53105000Y-78630000I0J-225000D01*
G01*
X53105000Y-79130000D01*
G75*
G02*
X52880000Y-79355000I-225000J0D01*
G01*
X52430000Y-79355000D01*
G75*
G02*
X52205000Y-79130000I0J225000D01*
G01*
G37*
G36*
G01*
X50655000Y-79130000D02*
X50655000Y-78630000D01*
G75*
G02*
X50880000Y-78405000I225000J0D01*
G01*
X51330000Y-78405000D01*
G75*
G02*
X51555000Y-78630000I0J-225000D01*
G01*
X51555000Y-79130000D01*
G75*
G02*
X51330000Y-79355000I-225000J0D01*
G01*
X50880000Y-79355000D01*
G75*
G02*
X50655000Y-79130000I0J225000D01*
G01*
G37*
%TD*%
%TO.C,C13*%
G36*
G01*
X42880000Y-79735000D02*
X43380000Y-79735000D01*
G75*
G02*
X43605000Y-79960000I0J-225000D01*
G01*
X43605000Y-80410000D01*
G75*
G02*
X43380000Y-80635000I-225000J0D01*
G01*
X42880000Y-80635000D01*
G75*
G02*
X42655000Y-80410000I0J225000D01*
G01*
X42655000Y-79960000D01*
G75*
G02*
X42880000Y-79735000I225000J0D01*
G01*
G37*
G36*
G01*
X42880000Y-78185000D02*
X43380000Y-78185000D01*
G75*
G02*
X43605000Y-78410000I0J-225000D01*
G01*
X43605000Y-78860000D01*
G75*
G02*
X43380000Y-79085000I-225000J0D01*
G01*
X42880000Y-79085000D01*
G75*
G02*
X42655000Y-78860000I0J225000D01*
G01*
X42655000Y-78410000D01*
G75*
G02*
X42880000Y-78185000I225000J0D01*
G01*
G37*
%TD*%
%TO.C,C9*%
G36*
G01*
X51400000Y-69315000D02*
X50900000Y-69315000D01*
G75*
G02*
X50675000Y-69090000I0J225000D01*
G01*
X50675000Y-68640000D01*
G75*
G02*
X50900000Y-68415000I225000J0D01*
G01*
X51400000Y-68415000D01*
G75*
G02*
X51625000Y-68640000I0J-225000D01*
G01*
X51625000Y-69090000D01*
G75*
G02*
X51400000Y-69315000I-225000J0D01*
G01*
G37*
G36*
G01*
X51400000Y-70865000D02*
X50900000Y-70865000D01*
G75*
G02*
X50675000Y-70640000I0J225000D01*
G01*
X50675000Y-70190000D01*
G75*
G02*
X50900000Y-69965000I225000J0D01*
G01*
X51400000Y-69965000D01*
G75*
G02*
X51625000Y-70190000I0J-225000D01*
G01*
X51625000Y-70640000D01*
G75*
G02*
X51400000Y-70865000I-225000J0D01*
G01*
G37*
%TD*%
%TO.C,C3*%
G36*
G01*
X48030000Y-66930000D02*
X48370000Y-66930000D01*
G75*
G02*
X48510000Y-67070000I0J-140000D01*
G01*
X48510000Y-67350000D01*
G75*
G02*
X48370000Y-67490000I-140000J0D01*
G01*
X48030000Y-67490000D01*
G75*
G02*
X47890000Y-67350000I0J140000D01*
G01*
X47890000Y-67070000D01*
G75*
G02*
X48030000Y-66930000I140000J0D01*
G01*
G37*
G36*
G01*
X48030000Y-65970000D02*
X48370000Y-65970000D01*
G75*
G02*
X48510000Y-66110000I0J-140000D01*
G01*
X48510000Y-66390000D01*
G75*
G02*
X48370000Y-66530000I-140000J0D01*
G01*
X48030000Y-66530000D01*
G75*
G02*
X47890000Y-66390000I0J140000D01*
G01*
X47890000Y-66110000D01*
G75*
G02*
X48030000Y-65970000I140000J0D01*
G01*
G37*
%TD*%
%TO.C,C21*%
G36*
G01*
X31640000Y-70190000D02*
X31640000Y-70530000D01*
G75*
G02*
X31500000Y-70670000I-140000J0D01*
G01*
X31220000Y-70670000D01*
G75*
G02*
X31080000Y-70530000I0J140000D01*
G01*
X31080000Y-70190000D01*
G75*
G02*
X31220000Y-70050000I140000J0D01*
G01*
X31500000Y-70050000D01*
G75*
G02*
X31640000Y-70190000I0J-140000D01*
G01*
G37*
G36*
G01*
X32600000Y-70190000D02*
X32600000Y-70530000D01*
G75*
G02*
X32460000Y-70670000I-140000J0D01*
G01*
X32180000Y-70670000D01*
G75*
G02*
X32040000Y-70530000I0J140000D01*
G01*
X32040000Y-70190000D01*
G75*
G02*
X32180000Y-70050000I140000J0D01*
G01*
X32460000Y-70050000D01*
G75*
G02*
X32600000Y-70190000I0J-140000D01*
G01*
G37*
%TD*%
%TO.C,R17*%
G36*
G01*
X31630000Y-67985000D02*
X31630000Y-68355000D01*
G75*
G02*
X31495000Y-68490000I-135000J0D01*
G01*
X31225000Y-68490000D01*
G75*
G02*
X31090000Y-68355000I0J135000D01*
G01*
X31090000Y-67985000D01*
G75*
G02*
X31225000Y-67850000I135000J0D01*
G01*
X31495000Y-67850000D01*
G75*
G02*
X31630000Y-67985000I0J-135000D01*
G01*
G37*
G36*
G01*
X32650000Y-67985000D02*
X32650000Y-68355000D01*
G75*
G02*
X32515000Y-68490000I-135000J0D01*
G01*
X32245000Y-68490000D01*
G75*
G02*
X32110000Y-68355000I0J135000D01*
G01*
X32110000Y-67985000D01*
G75*
G02*
X32245000Y-67850000I135000J0D01*
G01*
X32515000Y-67850000D01*
G75*
G02*
X32650000Y-67985000I0J-135000D01*
G01*
G37*
%TD*%
%TO.C,R16*%
G36*
G01*
X30560000Y-69085000D02*
X30560000Y-69455000D01*
G75*
G02*
X30425000Y-69590000I-135000J0D01*
G01*
X30155000Y-69590000D01*
G75*
G02*
X30020000Y-69455000I0J135000D01*
G01*
X30020000Y-69085000D01*
G75*
G02*
X30155000Y-68950000I135000J0D01*
G01*
X30425000Y-68950000D01*
G75*
G02*
X30560000Y-69085000I0J-135000D01*
G01*
G37*
G36*
G01*
X31580000Y-69085000D02*
X31580000Y-69455000D01*
G75*
G02*
X31445000Y-69590000I-135000J0D01*
G01*
X31175000Y-69590000D01*
G75*
G02*
X31040000Y-69455000I0J135000D01*
G01*
X31040000Y-69085000D01*
G75*
G02*
X31175000Y-68950000I135000J0D01*
G01*
X31445000Y-68950000D01*
G75*
G02*
X31580000Y-69085000I0J-135000D01*
G01*
G37*
%TD*%
D15*
%TO.C,U4*%
X57584000Y-83770000D03*
X57584000Y-82820000D03*
X57584000Y-84720000D03*
X59784000Y-84720000D03*
X59784000Y-83770000D03*
X59784000Y-82820000D03*
%TD*%
D16*
%TO.C,D18*%
X28120000Y-80210000D03*
X28120000Y-84810000D03*
X28120000Y-82510000D03*
D17*
X21820000Y-82510000D03*
%TD*%
%TO.C,L2*%
G36*
G01*
X20508750Y-65575000D02*
X21271250Y-65575000D01*
G75*
G02*
X21490000Y-65793750I0J-218750D01*
G01*
X21490000Y-66231250D01*
G75*
G02*
X21271250Y-66450000I-218750J0D01*
G01*
X20508750Y-66450000D01*
G75*
G02*
X20290000Y-66231250I0J218750D01*
G01*
X20290000Y-65793750D01*
G75*
G02*
X20508750Y-65575000I218750J0D01*
G01*
G37*
G36*
G01*
X20508750Y-63450000D02*
X21271250Y-63450000D01*
G75*
G02*
X21490000Y-63668750I0J-218750D01*
G01*
X21490000Y-64106250D01*
G75*
G02*
X21271250Y-64325000I-218750J0D01*
G01*
X20508750Y-64325000D01*
G75*
G02*
X20290000Y-64106250I0J218750D01*
G01*
X20290000Y-63668750D01*
G75*
G02*
X20508750Y-63450000I218750J0D01*
G01*
G37*
%TD*%
D18*
%TO.C,D14*%
X21689300Y-98738700D03*
X21689300Y-96238700D03*
X21689300Y-93738700D03*
X21689300Y-91238700D03*
X21689300Y-88738700D03*
X38229300Y-88738700D03*
X38229300Y-91238700D03*
X38229300Y-93738700D03*
X38229300Y-96238700D03*
X38229300Y-98738700D03*
%TD*%
%TO.C,C38*%
G36*
G01*
X56760000Y-96730000D02*
X56420000Y-96730000D01*
G75*
G02*
X56280000Y-96590000I0J140000D01*
G01*
X56280000Y-96310000D01*
G75*
G02*
X56420000Y-96170000I140000J0D01*
G01*
X56760000Y-96170000D01*
G75*
G02*
X56900000Y-96310000I0J-140000D01*
G01*
X56900000Y-96590000D01*
G75*
G02*
X56760000Y-96730000I-140000J0D01*
G01*
G37*
G36*
G01*
X56760000Y-97690000D02*
X56420000Y-97690000D01*
G75*
G02*
X56280000Y-97550000I0J140000D01*
G01*
X56280000Y-97270000D01*
G75*
G02*
X56420000Y-97130000I140000J0D01*
G01*
X56760000Y-97130000D01*
G75*
G02*
X56900000Y-97270000I0J-140000D01*
G01*
X56900000Y-97550000D01*
G75*
G02*
X56760000Y-97690000I-140000J0D01*
G01*
G37*
%TD*%
%TO.C,C35*%
G36*
G01*
X54320000Y-96730000D02*
X53980000Y-96730000D01*
G75*
G02*
X53840000Y-96590000I0J140000D01*
G01*
X53840000Y-96310000D01*
G75*
G02*
X53980000Y-96170000I140000J0D01*
G01*
X54320000Y-96170000D01*
G75*
G02*
X54460000Y-96310000I0J-140000D01*
G01*
X54460000Y-96590000D01*
G75*
G02*
X54320000Y-96730000I-140000J0D01*
G01*
G37*
G36*
G01*
X54320000Y-97690000D02*
X53980000Y-97690000D01*
G75*
G02*
X53840000Y-97550000I0J140000D01*
G01*
X53840000Y-97270000D01*
G75*
G02*
X53980000Y-97130000I140000J0D01*
G01*
X54320000Y-97130000D01*
G75*
G02*
X54460000Y-97270000I0J-140000D01*
G01*
X54460000Y-97550000D01*
G75*
G02*
X54320000Y-97690000I-140000J0D01*
G01*
G37*
%TD*%
%TO.C,C31*%
G36*
G01*
X60241000Y-96739100D02*
X59901000Y-96739100D01*
G75*
G02*
X59761000Y-96599100I0J140000D01*
G01*
X59761000Y-96319100D01*
G75*
G02*
X59901000Y-96179100I140000J0D01*
G01*
X60241000Y-96179100D01*
G75*
G02*
X60381000Y-96319100I0J-140000D01*
G01*
X60381000Y-96599100D01*
G75*
G02*
X60241000Y-96739100I-140000J0D01*
G01*
G37*
G36*
G01*
X60241000Y-97699100D02*
X59901000Y-97699100D01*
G75*
G02*
X59761000Y-97559100I0J140000D01*
G01*
X59761000Y-97279100D01*
G75*
G02*
X59901000Y-97139100I140000J0D01*
G01*
X60241000Y-97139100D01*
G75*
G02*
X60381000Y-97279100I0J-140000D01*
G01*
X60381000Y-97559100D01*
G75*
G02*
X60241000Y-97699100I-140000J0D01*
G01*
G37*
%TD*%
%TO.C,C27*%
G36*
G01*
X57790000Y-96730000D02*
X57450000Y-96730000D01*
G75*
G02*
X57310000Y-96590000I0J140000D01*
G01*
X57310000Y-96310000D01*
G75*
G02*
X57450000Y-96170000I140000J0D01*
G01*
X57790000Y-96170000D01*
G75*
G02*
X57930000Y-96310000I0J-140000D01*
G01*
X57930000Y-96590000D01*
G75*
G02*
X57790000Y-96730000I-140000J0D01*
G01*
G37*
G36*
G01*
X57790000Y-97690000D02*
X57450000Y-97690000D01*
G75*
G02*
X57310000Y-97550000I0J140000D01*
G01*
X57310000Y-97270000D01*
G75*
G02*
X57450000Y-97130000I140000J0D01*
G01*
X57790000Y-97130000D01*
G75*
G02*
X57930000Y-97270000I0J-140000D01*
G01*
X57930000Y-97550000D01*
G75*
G02*
X57790000Y-97690000I-140000J0D01*
G01*
G37*
%TD*%
%TO.C,C54*%
G36*
G01*
X59475000Y-73005000D02*
X59475000Y-70855000D01*
G75*
G02*
X59725000Y-70605000I250000J0D01*
G01*
X60475000Y-70605000D01*
G75*
G02*
X60725000Y-70855000I0J-250000D01*
G01*
X60725000Y-73005000D01*
G75*
G02*
X60475000Y-73255000I-250000J0D01*
G01*
X59725000Y-73255000D01*
G75*
G02*
X59475000Y-73005000I0J250000D01*
G01*
G37*
G36*
G01*
X56675000Y-73005000D02*
X56675000Y-70855000D01*
G75*
G02*
X56925000Y-70605000I250000J0D01*
G01*
X57675000Y-70605000D01*
G75*
G02*
X57925000Y-70855000I0J-250000D01*
G01*
X57925000Y-73005000D01*
G75*
G02*
X57675000Y-73255000I-250000J0D01*
G01*
X56925000Y-73255000D01*
G75*
G02*
X56675000Y-73005000I0J250000D01*
G01*
G37*
%TD*%
D19*
%TO.C,U9*%
X54600000Y-69660000D03*
X52600000Y-68710000D03*
X52600000Y-70610000D03*
%TD*%
%TO.C,R42*%
G36*
G01*
X61093750Y-84120000D02*
X61606250Y-84120000D01*
G75*
G02*
X61825000Y-84338750I0J-218750D01*
G01*
X61825000Y-84776250D01*
G75*
G02*
X61606250Y-84995000I-218750J0D01*
G01*
X61093750Y-84995000D01*
G75*
G02*
X60875000Y-84776250I0J218750D01*
G01*
X60875000Y-84338750D01*
G75*
G02*
X61093750Y-84120000I218750J0D01*
G01*
G37*
G36*
G01*
X61093750Y-82545000D02*
X61606250Y-82545000D01*
G75*
G02*
X61825000Y-82763750I0J-218750D01*
G01*
X61825000Y-83201250D01*
G75*
G02*
X61606250Y-83420000I-218750J0D01*
G01*
X61093750Y-83420000D01*
G75*
G02*
X60875000Y-83201250I0J218750D01*
G01*
X60875000Y-82763750D01*
G75*
G02*
X61093750Y-82545000I218750J0D01*
G01*
G37*
%TD*%
%TO.C,R41*%
G36*
G01*
X59100000Y-85823750D02*
X59100000Y-86336250D01*
G75*
G02*
X58881250Y-86555000I-218750J0D01*
G01*
X58443750Y-86555000D01*
G75*
G02*
X58225000Y-86336250I0J218750D01*
G01*
X58225000Y-85823750D01*
G75*
G02*
X58443750Y-85605000I218750J0D01*
G01*
X58881250Y-85605000D01*
G75*
G02*
X59100000Y-85823750I0J-218750D01*
G01*
G37*
G36*
G01*
X60675000Y-85823750D02*
X60675000Y-86336250D01*
G75*
G02*
X60456250Y-86555000I-218750J0D01*
G01*
X60018750Y-86555000D01*
G75*
G02*
X59800000Y-86336250I0J218750D01*
G01*
X59800000Y-85823750D01*
G75*
G02*
X60018750Y-85605000I218750J0D01*
G01*
X60456250Y-85605000D01*
G75*
G02*
X60675000Y-85823750I0J-218750D01*
G01*
G37*
%TD*%
%TO.C,C30*%
G36*
G01*
X39943750Y-92050000D02*
X40856250Y-92050000D01*
G75*
G02*
X41100000Y-92293750I0J-243750D01*
G01*
X41100000Y-92781250D01*
G75*
G02*
X40856250Y-93025000I-243750J0D01*
G01*
X39943750Y-93025000D01*
G75*
G02*
X39700000Y-92781250I0J243750D01*
G01*
X39700000Y-92293750D01*
G75*
G02*
X39943750Y-92050000I243750J0D01*
G01*
G37*
G36*
G01*
X39943750Y-90175000D02*
X40856250Y-90175000D01*
G75*
G02*
X41100000Y-90418750I0J-243750D01*
G01*
X41100000Y-90906250D01*
G75*
G02*
X40856250Y-91150000I-243750J0D01*
G01*
X39943750Y-91150000D01*
G75*
G02*
X39700000Y-90906250I0J243750D01*
G01*
X39700000Y-90418750D01*
G75*
G02*
X39943750Y-90175000I243750J0D01*
G01*
G37*
%TD*%
%TO.C,C49*%
G36*
G01*
X44325000Y-95275000D02*
X43075000Y-95275000D01*
G75*
G02*
X42825000Y-95025000I0J250000D01*
G01*
X42825000Y-94275000D01*
G75*
G02*
X43075000Y-94025000I250000J0D01*
G01*
X44325000Y-94025000D01*
G75*
G02*
X44575000Y-94275000I0J-250000D01*
G01*
X44575000Y-95025000D01*
G75*
G02*
X44325000Y-95275000I-250000J0D01*
G01*
G37*
G36*
G01*
X44325000Y-98075000D02*
X43075000Y-98075000D01*
G75*
G02*
X42825000Y-97825000I0J250000D01*
G01*
X42825000Y-97075000D01*
G75*
G02*
X43075000Y-96825000I250000J0D01*
G01*
X44325000Y-96825000D01*
G75*
G02*
X44575000Y-97075000I0J-250000D01*
G01*
X44575000Y-97825000D01*
G75*
G02*
X44325000Y-98075000I-250000J0D01*
G01*
G37*
%TD*%
D20*
%TO.C,D10*%
X60845700Y-101559700D03*
X59575700Y-101559700D03*
X58305700Y-101559700D03*
X57035700Y-101559700D03*
X55765700Y-101559700D03*
X54495700Y-101559700D03*
X53225700Y-101559700D03*
X51955700Y-101559700D03*
X51955700Y-93029700D03*
X53225700Y-93029700D03*
X54495700Y-93029700D03*
X55765700Y-93029700D03*
X58305700Y-93029700D03*
X59575700Y-93029700D03*
X60845700Y-93029700D03*
X57035700Y-93029700D03*
%TD*%
D21*
%TO.C,J6*%
X41480000Y-79110000D03*
%TD*%
%TO.C,C50*%
G36*
G01*
X40850000Y-101975000D02*
X40850000Y-99925000D01*
G75*
G02*
X41100000Y-99675000I250000J0D01*
G01*
X42675000Y-99675000D01*
G75*
G02*
X42925000Y-99925000I0J-250000D01*
G01*
X42925000Y-101975000D01*
G75*
G02*
X42675000Y-102225000I-250000J0D01*
G01*
X41100000Y-102225000D01*
G75*
G02*
X40850000Y-101975000I0J250000D01*
G01*
G37*
G36*
G01*
X47075000Y-101975000D02*
X47075000Y-99925000D01*
G75*
G02*
X47325000Y-99675000I250000J0D01*
G01*
X48900000Y-99675000D01*
G75*
G02*
X49150000Y-99925000I0J-250000D01*
G01*
X49150000Y-101975000D01*
G75*
G02*
X48900000Y-102225000I-250000J0D01*
G01*
X47325000Y-102225000D01*
G75*
G02*
X47075000Y-101975000I0J250000D01*
G01*
G37*
%TD*%
%TO.C,J16*%
X41310000Y-83070000D03*
%TD*%
%TO.C,J23*%
X44510000Y-89800000D03*
%TD*%
%TO.C,J22*%
X51968400Y-90970100D03*
%TD*%
%TO.C,J21*%
X47230000Y-89790000D03*
%TD*%
%TO.C,J20*%
X54495700Y-90987034D03*
%TD*%
%TO.C,J19*%
X58293000Y-90953168D03*
%TD*%
%TO.C,J18*%
X60833000Y-90944700D03*
%TD*%
D22*
%TO.C,D16*%
X40400000Y-94400000D03*
X40400000Y-97700000D03*
%TD*%
%TO.C,C37*%
G36*
G01*
X40146250Y-81625000D02*
X39233750Y-81625000D01*
G75*
G02*
X38990000Y-81381250I0J243750D01*
G01*
X38990000Y-80893750D01*
G75*
G02*
X39233750Y-80650000I243750J0D01*
G01*
X40146250Y-80650000D01*
G75*
G02*
X40390000Y-80893750I0J-243750D01*
G01*
X40390000Y-81381250D01*
G75*
G02*
X40146250Y-81625000I-243750J0D01*
G01*
G37*
G36*
G01*
X40146250Y-79750000D02*
X39233750Y-79750000D01*
G75*
G02*
X38990000Y-79506250I0J243750D01*
G01*
X38990000Y-79018750D01*
G75*
G02*
X39233750Y-78775000I243750J0D01*
G01*
X40146250Y-78775000D01*
G75*
G02*
X40390000Y-79018750I0J-243750D01*
G01*
X40390000Y-79506250D01*
G75*
G02*
X40146250Y-79750000I-243750J0D01*
G01*
G37*
%TD*%
%TO.C,C23*%
G36*
G01*
X30093750Y-80135000D02*
X31006250Y-80135000D01*
G75*
G02*
X31250000Y-80378750I0J-243750D01*
G01*
X31250000Y-80866250D01*
G75*
G02*
X31006250Y-81110000I-243750J0D01*
G01*
X30093750Y-81110000D01*
G75*
G02*
X29850000Y-80866250I0J243750D01*
G01*
X29850000Y-80378750D01*
G75*
G02*
X30093750Y-80135000I243750J0D01*
G01*
G37*
G36*
G01*
X30093750Y-82010000D02*
X31006250Y-82010000D01*
G75*
G02*
X31250000Y-82253750I0J-243750D01*
G01*
X31250000Y-82741250D01*
G75*
G02*
X31006250Y-82985000I-243750J0D01*
G01*
X30093750Y-82985000D01*
G75*
G02*
X29850000Y-82741250I0J243750D01*
G01*
X29850000Y-82253750D01*
G75*
G02*
X30093750Y-82010000I243750J0D01*
G01*
G37*
%TD*%
M02*
