%TF.GenerationSoftware,KiCad,Pcbnew,5.1.9+dfsg1-1+deb11u1*%
%TF.CreationDate,2023-01-12T13:46:45+03:00*%
%TF.ProjectId,Anemometr,416e656d-6f6d-4657-9472-2e6b69636164,rev?*%
%TF.SameCoordinates,Original*%
%TF.FileFunction,Soldermask,Top*%
%TF.FilePolarity,Negative*%
%FSLAX46Y46*%
G04 Gerber Fmt 4.6, Leading zero omitted, Abs format (unit mm)*
G04 Created by KiCad (PCBNEW 5.1.9+dfsg1-1+deb11u1) date 2023-01-12 13:46:45*
%MOMM*%
%LPD*%
G01*
G04 APERTURE LIST*
%ADD10C,1.000000*%
%ADD11R,0.650000X1.060000*%
%ADD12R,0.800000X0.900000*%
%ADD13R,1.400000X1.200000*%
%ADD14R,1.500000X2.000000*%
%ADD15R,3.800000X2.000000*%
%ADD16C,1.524000*%
%ADD17R,0.250000X1.300000*%
%ADD18R,1.300000X0.250000*%
%ADD19R,1.000000X0.800000*%
%ADD20R,0.900000X0.800000*%
%ADD21R,1.200000X0.900000*%
%ADD22R,0.600000X1.550000*%
%ADD23R,0.900000X1.200000*%
G04 APERTURE END LIST*
%TO.C,R5*%
G36*
G01*
X35460000Y-62265000D02*
X35460000Y-61895000D01*
G75*
G02*
X35595000Y-61760000I135000J0D01*
G01*
X35865000Y-61760000D01*
G75*
G02*
X36000000Y-61895000I0J-135000D01*
G01*
X36000000Y-62265000D01*
G75*
G02*
X35865000Y-62400000I-135000J0D01*
G01*
X35595000Y-62400000D01*
G75*
G02*
X35460000Y-62265000I0J135000D01*
G01*
G37*
G36*
G01*
X34440000Y-62265000D02*
X34440000Y-61895000D01*
G75*
G02*
X34575000Y-61760000I135000J0D01*
G01*
X34845000Y-61760000D01*
G75*
G02*
X34980000Y-61895000I0J-135000D01*
G01*
X34980000Y-62265000D01*
G75*
G02*
X34845000Y-62400000I-135000J0D01*
G01*
X34575000Y-62400000D01*
G75*
G02*
X34440000Y-62265000I0J135000D01*
G01*
G37*
%TD*%
D10*
%TO.C,J26*%
X27210000Y-72360000D03*
%TD*%
%TO.C,J25*%
X27260000Y-62690000D03*
%TD*%
%TO.C,C47*%
G36*
G01*
X28770000Y-62340000D02*
X28770000Y-62680000D01*
G75*
G02*
X28630000Y-62820000I-140000J0D01*
G01*
X28350000Y-62820000D01*
G75*
G02*
X28210000Y-62680000I0J140000D01*
G01*
X28210000Y-62340000D01*
G75*
G02*
X28350000Y-62200000I140000J0D01*
G01*
X28630000Y-62200000D01*
G75*
G02*
X28770000Y-62340000I0J-140000D01*
G01*
G37*
G36*
G01*
X29730000Y-62340000D02*
X29730000Y-62680000D01*
G75*
G02*
X29590000Y-62820000I-140000J0D01*
G01*
X29310000Y-62820000D01*
G75*
G02*
X29170000Y-62680000I0J140000D01*
G01*
X29170000Y-62340000D01*
G75*
G02*
X29310000Y-62200000I140000J0D01*
G01*
X29590000Y-62200000D01*
G75*
G02*
X29730000Y-62340000I0J-140000D01*
G01*
G37*
%TD*%
%TO.C,C41*%
G36*
G01*
X28690000Y-72090000D02*
X28690000Y-72430000D01*
G75*
G02*
X28550000Y-72570000I-140000J0D01*
G01*
X28270000Y-72570000D01*
G75*
G02*
X28130000Y-72430000I0J140000D01*
G01*
X28130000Y-72090000D01*
G75*
G02*
X28270000Y-71950000I140000J0D01*
G01*
X28550000Y-71950000D01*
G75*
G02*
X28690000Y-72090000I0J-140000D01*
G01*
G37*
G36*
G01*
X29650000Y-72090000D02*
X29650000Y-72430000D01*
G75*
G02*
X29510000Y-72570000I-140000J0D01*
G01*
X29230000Y-72570000D01*
G75*
G02*
X29090000Y-72430000I0J140000D01*
G01*
X29090000Y-72090000D01*
G75*
G02*
X29230000Y-71950000I140000J0D01*
G01*
X29510000Y-71950000D01*
G75*
G02*
X29650000Y-72090000I0J-140000D01*
G01*
G37*
%TD*%
D11*
%TO.C,U3*%
X35770000Y-68605166D03*
X34820000Y-68605166D03*
X33870000Y-68605166D03*
X33870000Y-70805166D03*
X35770000Y-70805166D03*
%TD*%
D12*
%TO.C,U8*%
X22910000Y-64060000D03*
X23860000Y-66060000D03*
X21960000Y-66060000D03*
%TD*%
%TO.C,C61*%
G36*
G01*
X23340000Y-68105000D02*
X23340000Y-67155000D01*
G75*
G02*
X23590000Y-66905000I250000J0D01*
G01*
X24090000Y-66905000D01*
G75*
G02*
X24340000Y-67155000I0J-250000D01*
G01*
X24340000Y-68105000D01*
G75*
G02*
X24090000Y-68355000I-250000J0D01*
G01*
X23590000Y-68355000D01*
G75*
G02*
X23340000Y-68105000I0J250000D01*
G01*
G37*
G36*
G01*
X21440000Y-68105000D02*
X21440000Y-67155000D01*
G75*
G02*
X21690000Y-66905000I250000J0D01*
G01*
X22190000Y-66905000D01*
G75*
G02*
X22440000Y-67155000I0J-250000D01*
G01*
X22440000Y-68105000D01*
G75*
G02*
X22190000Y-68355000I-250000J0D01*
G01*
X21690000Y-68355000D01*
G75*
G02*
X21440000Y-68105000I0J250000D01*
G01*
G37*
%TD*%
%TO.C,C60*%
G36*
G01*
X22620000Y-62525000D02*
X22620000Y-61575000D01*
G75*
G02*
X22870000Y-61325000I250000J0D01*
G01*
X23370000Y-61325000D01*
G75*
G02*
X23620000Y-61575000I0J-250000D01*
G01*
X23620000Y-62525000D01*
G75*
G02*
X23370000Y-62775000I-250000J0D01*
G01*
X22870000Y-62775000D01*
G75*
G02*
X22620000Y-62525000I0J250000D01*
G01*
G37*
G36*
G01*
X20720000Y-62525000D02*
X20720000Y-61575000D01*
G75*
G02*
X20970000Y-61325000I250000J0D01*
G01*
X21470000Y-61325000D01*
G75*
G02*
X21720000Y-61575000I0J-250000D01*
G01*
X21720000Y-62525000D01*
G75*
G02*
X21470000Y-62775000I-250000J0D01*
G01*
X20970000Y-62775000D01*
G75*
G02*
X20720000Y-62525000I0J250000D01*
G01*
G37*
%TD*%
%TO.C,D7*%
G36*
G01*
X30215000Y-64880000D02*
X30015000Y-64880000D01*
G75*
G02*
X29915000Y-64780000I0J100000D01*
G01*
X29915000Y-63355000D01*
G75*
G02*
X30015000Y-63255000I100000J0D01*
G01*
X30215000Y-63255000D01*
G75*
G02*
X30315000Y-63355000I0J-100000D01*
G01*
X30315000Y-64780000D01*
G75*
G02*
X30215000Y-64880000I-100000J0D01*
G01*
G37*
G36*
G01*
X30865000Y-64880000D02*
X30665000Y-64880000D01*
G75*
G02*
X30565000Y-64780000I0J100000D01*
G01*
X30565000Y-63355000D01*
G75*
G02*
X30665000Y-63255000I100000J0D01*
G01*
X30865000Y-63255000D01*
G75*
G02*
X30965000Y-63355000I0J-100000D01*
G01*
X30965000Y-64780000D01*
G75*
G02*
X30865000Y-64880000I-100000J0D01*
G01*
G37*
G36*
G01*
X31515000Y-64880000D02*
X31315000Y-64880000D01*
G75*
G02*
X31215000Y-64780000I0J100000D01*
G01*
X31215000Y-63355000D01*
G75*
G02*
X31315000Y-63255000I100000J0D01*
G01*
X31515000Y-63255000D01*
G75*
G02*
X31615000Y-63355000I0J-100000D01*
G01*
X31615000Y-64780000D01*
G75*
G02*
X31515000Y-64880000I-100000J0D01*
G01*
G37*
G36*
G01*
X32165000Y-64880000D02*
X31965000Y-64880000D01*
G75*
G02*
X31865000Y-64780000I0J100000D01*
G01*
X31865000Y-63355000D01*
G75*
G02*
X31965000Y-63255000I100000J0D01*
G01*
X32165000Y-63255000D01*
G75*
G02*
X32265000Y-63355000I0J-100000D01*
G01*
X32265000Y-64780000D01*
G75*
G02*
X32165000Y-64880000I-100000J0D01*
G01*
G37*
G36*
G01*
X32165000Y-69105000D02*
X31965000Y-69105000D01*
G75*
G02*
X31865000Y-69005000I0J100000D01*
G01*
X31865000Y-67580000D01*
G75*
G02*
X31965000Y-67480000I100000J0D01*
G01*
X32165000Y-67480000D01*
G75*
G02*
X32265000Y-67580000I0J-100000D01*
G01*
X32265000Y-69005000D01*
G75*
G02*
X32165000Y-69105000I-100000J0D01*
G01*
G37*
G36*
G01*
X31515000Y-69105000D02*
X31315000Y-69105000D01*
G75*
G02*
X31215000Y-69005000I0J100000D01*
G01*
X31215000Y-67580000D01*
G75*
G02*
X31315000Y-67480000I100000J0D01*
G01*
X31515000Y-67480000D01*
G75*
G02*
X31615000Y-67580000I0J-100000D01*
G01*
X31615000Y-69005000D01*
G75*
G02*
X31515000Y-69105000I-100000J0D01*
G01*
G37*
G36*
G01*
X30865000Y-69105000D02*
X30665000Y-69105000D01*
G75*
G02*
X30565000Y-69005000I0J100000D01*
G01*
X30565000Y-67580000D01*
G75*
G02*
X30665000Y-67480000I100000J0D01*
G01*
X30865000Y-67480000D01*
G75*
G02*
X30965000Y-67580000I0J-100000D01*
G01*
X30965000Y-69005000D01*
G75*
G02*
X30865000Y-69105000I-100000J0D01*
G01*
G37*
G36*
G01*
X30215000Y-69105000D02*
X30015000Y-69105000D01*
G75*
G02*
X29915000Y-69005000I0J100000D01*
G01*
X29915000Y-67580000D01*
G75*
G02*
X30015000Y-67480000I100000J0D01*
G01*
X30215000Y-67480000D01*
G75*
G02*
X30315000Y-67580000I0J-100000D01*
G01*
X30315000Y-69005000D01*
G75*
G02*
X30215000Y-69105000I-100000J0D01*
G01*
G37*
%TD*%
%TO.C,R37*%
G36*
G01*
X27695000Y-68950000D02*
X28065000Y-68950000D01*
G75*
G02*
X28200000Y-69085000I0J-135000D01*
G01*
X28200000Y-69355000D01*
G75*
G02*
X28065000Y-69490000I-135000J0D01*
G01*
X27695000Y-69490000D01*
G75*
G02*
X27560000Y-69355000I0J135000D01*
G01*
X27560000Y-69085000D01*
G75*
G02*
X27695000Y-68950000I135000J0D01*
G01*
G37*
G36*
G01*
X27695000Y-67930000D02*
X28065000Y-67930000D01*
G75*
G02*
X28200000Y-68065000I0J-135000D01*
G01*
X28200000Y-68335000D01*
G75*
G02*
X28065000Y-68470000I-135000J0D01*
G01*
X27695000Y-68470000D01*
G75*
G02*
X27560000Y-68335000I0J135000D01*
G01*
X27560000Y-68065000D01*
G75*
G02*
X27695000Y-67930000I135000J0D01*
G01*
G37*
%TD*%
%TO.C,R49*%
G36*
G01*
X26930000Y-77555000D02*
X26930000Y-77925000D01*
G75*
G02*
X26795000Y-78060000I-135000J0D01*
G01*
X26525000Y-78060000D01*
G75*
G02*
X26390000Y-77925000I0J135000D01*
G01*
X26390000Y-77555000D01*
G75*
G02*
X26525000Y-77420000I135000J0D01*
G01*
X26795000Y-77420000D01*
G75*
G02*
X26930000Y-77555000I0J-135000D01*
G01*
G37*
G36*
G01*
X27950000Y-77555000D02*
X27950000Y-77925000D01*
G75*
G02*
X27815000Y-78060000I-135000J0D01*
G01*
X27545000Y-78060000D01*
G75*
G02*
X27410000Y-77925000I0J135000D01*
G01*
X27410000Y-77555000D01*
G75*
G02*
X27545000Y-77420000I135000J0D01*
G01*
X27815000Y-77420000D01*
G75*
G02*
X27950000Y-77555000I0J-135000D01*
G01*
G37*
%TD*%
%TO.C,R51*%
G36*
G01*
X26570000Y-68405000D02*
X26570000Y-68035000D01*
G75*
G02*
X26705000Y-67900000I135000J0D01*
G01*
X26975000Y-67900000D01*
G75*
G02*
X27110000Y-68035000I0J-135000D01*
G01*
X27110000Y-68405000D01*
G75*
G02*
X26975000Y-68540000I-135000J0D01*
G01*
X26705000Y-68540000D01*
G75*
G02*
X26570000Y-68405000I0J135000D01*
G01*
G37*
G36*
G01*
X25550000Y-68405000D02*
X25550000Y-68035000D01*
G75*
G02*
X25685000Y-67900000I135000J0D01*
G01*
X25955000Y-67900000D01*
G75*
G02*
X26090000Y-68035000I0J-135000D01*
G01*
X26090000Y-68405000D01*
G75*
G02*
X25955000Y-68540000I-135000J0D01*
G01*
X25685000Y-68540000D01*
G75*
G02*
X25550000Y-68405000I0J135000D01*
G01*
G37*
%TD*%
%TO.C,R50*%
G36*
G01*
X24125000Y-75860000D02*
X24495000Y-75860000D01*
G75*
G02*
X24630000Y-75995000I0J-135000D01*
G01*
X24630000Y-76265000D01*
G75*
G02*
X24495000Y-76400000I-135000J0D01*
G01*
X24125000Y-76400000D01*
G75*
G02*
X23990000Y-76265000I0J135000D01*
G01*
X23990000Y-75995000D01*
G75*
G02*
X24125000Y-75860000I135000J0D01*
G01*
G37*
G36*
G01*
X24125000Y-74840000D02*
X24495000Y-74840000D01*
G75*
G02*
X24630000Y-74975000I0J-135000D01*
G01*
X24630000Y-75245000D01*
G75*
G02*
X24495000Y-75380000I-135000J0D01*
G01*
X24125000Y-75380000D01*
G75*
G02*
X23990000Y-75245000I0J135000D01*
G01*
X23990000Y-74975000D01*
G75*
G02*
X24125000Y-74840000I135000J0D01*
G01*
G37*
%TD*%
%TO.C,C52*%
G36*
G01*
X26540000Y-69460000D02*
X26540000Y-69120000D01*
G75*
G02*
X26680000Y-68980000I140000J0D01*
G01*
X26960000Y-68980000D01*
G75*
G02*
X27100000Y-69120000I0J-140000D01*
G01*
X27100000Y-69460000D01*
G75*
G02*
X26960000Y-69600000I-140000J0D01*
G01*
X26680000Y-69600000D01*
G75*
G02*
X26540000Y-69460000I0J140000D01*
G01*
G37*
G36*
G01*
X25580000Y-69460000D02*
X25580000Y-69120000D01*
G75*
G02*
X25720000Y-68980000I140000J0D01*
G01*
X26000000Y-68980000D01*
G75*
G02*
X26140000Y-69120000I0J-140000D01*
G01*
X26140000Y-69460000D01*
G75*
G02*
X26000000Y-69600000I-140000J0D01*
G01*
X25720000Y-69600000D01*
G75*
G02*
X25580000Y-69460000I0J140000D01*
G01*
G37*
%TD*%
D11*
%TO.C,U7*%
X35810000Y-81440000D03*
X33910000Y-81440000D03*
X33910000Y-79240000D03*
X34860000Y-79240000D03*
X35810000Y-79240000D03*
%TD*%
%TO.C,U5*%
X35810000Y-76050000D03*
X33910000Y-76050000D03*
X33910000Y-73850000D03*
X34860000Y-73850000D03*
X35810000Y-73850000D03*
%TD*%
%TO.C,R48*%
G36*
G01*
X30570000Y-72065000D02*
X30570000Y-72435000D01*
G75*
G02*
X30435000Y-72570000I-135000J0D01*
G01*
X30165000Y-72570000D01*
G75*
G02*
X30030000Y-72435000I0J135000D01*
G01*
X30030000Y-72065000D01*
G75*
G02*
X30165000Y-71930000I135000J0D01*
G01*
X30435000Y-71930000D01*
G75*
G02*
X30570000Y-72065000I0J-135000D01*
G01*
G37*
G36*
G01*
X31590000Y-72065000D02*
X31590000Y-72435000D01*
G75*
G02*
X31455000Y-72570000I-135000J0D01*
G01*
X31185000Y-72570000D01*
G75*
G02*
X31050000Y-72435000I0J135000D01*
G01*
X31050000Y-72065000D01*
G75*
G02*
X31185000Y-71930000I135000J0D01*
G01*
X31455000Y-71930000D01*
G75*
G02*
X31590000Y-72065000I0J-135000D01*
G01*
G37*
%TD*%
%TO.C,R47*%
G36*
G01*
X28665000Y-76720000D02*
X29035000Y-76720000D01*
G75*
G02*
X29170000Y-76855000I0J-135000D01*
G01*
X29170000Y-77125000D01*
G75*
G02*
X29035000Y-77260000I-135000J0D01*
G01*
X28665000Y-77260000D01*
G75*
G02*
X28530000Y-77125000I0J135000D01*
G01*
X28530000Y-76855000D01*
G75*
G02*
X28665000Y-76720000I135000J0D01*
G01*
G37*
G36*
G01*
X28665000Y-75700000D02*
X29035000Y-75700000D01*
G75*
G02*
X29170000Y-75835000I0J-135000D01*
G01*
X29170000Y-76105000D01*
G75*
G02*
X29035000Y-76240000I-135000J0D01*
G01*
X28665000Y-76240000D01*
G75*
G02*
X28530000Y-76105000I0J135000D01*
G01*
X28530000Y-75835000D01*
G75*
G02*
X28665000Y-75700000I135000J0D01*
G01*
G37*
%TD*%
%TO.C,R46*%
G36*
G01*
X29905000Y-79920000D02*
X29535000Y-79920000D01*
G75*
G02*
X29400000Y-79785000I0J135000D01*
G01*
X29400000Y-79515000D01*
G75*
G02*
X29535000Y-79380000I135000J0D01*
G01*
X29905000Y-79380000D01*
G75*
G02*
X30040000Y-79515000I0J-135000D01*
G01*
X30040000Y-79785000D01*
G75*
G02*
X29905000Y-79920000I-135000J0D01*
G01*
G37*
G36*
G01*
X29905000Y-80940000D02*
X29535000Y-80940000D01*
G75*
G02*
X29400000Y-80805000I0J135000D01*
G01*
X29400000Y-80535000D01*
G75*
G02*
X29535000Y-80400000I135000J0D01*
G01*
X29905000Y-80400000D01*
G75*
G02*
X30040000Y-80535000I0J-135000D01*
G01*
X30040000Y-80805000D01*
G75*
G02*
X29905000Y-80940000I-135000J0D01*
G01*
G37*
%TD*%
%TO.C,R45*%
G36*
G01*
X30975000Y-79920000D02*
X30605000Y-79920000D01*
G75*
G02*
X30470000Y-79785000I0J135000D01*
G01*
X30470000Y-79515000D01*
G75*
G02*
X30605000Y-79380000I135000J0D01*
G01*
X30975000Y-79380000D01*
G75*
G02*
X31110000Y-79515000I0J-135000D01*
G01*
X31110000Y-79785000D01*
G75*
G02*
X30975000Y-79920000I-135000J0D01*
G01*
G37*
G36*
G01*
X30975000Y-80940000D02*
X30605000Y-80940000D01*
G75*
G02*
X30470000Y-80805000I0J135000D01*
G01*
X30470000Y-80535000D01*
G75*
G02*
X30605000Y-80400000I135000J0D01*
G01*
X30975000Y-80400000D01*
G75*
G02*
X31110000Y-80535000I0J-135000D01*
G01*
X31110000Y-80805000D01*
G75*
G02*
X30975000Y-80940000I-135000J0D01*
G01*
G37*
%TD*%
%TO.C,R31*%
G36*
G01*
X32590000Y-79795000D02*
X32590000Y-79425000D01*
G75*
G02*
X32725000Y-79290000I135000J0D01*
G01*
X32995000Y-79290000D01*
G75*
G02*
X33130000Y-79425000I0J-135000D01*
G01*
X33130000Y-79795000D01*
G75*
G02*
X32995000Y-79930000I-135000J0D01*
G01*
X32725000Y-79930000D01*
G75*
G02*
X32590000Y-79795000I0J135000D01*
G01*
G37*
G36*
G01*
X31570000Y-79795000D02*
X31570000Y-79425000D01*
G75*
G02*
X31705000Y-79290000I135000J0D01*
G01*
X31975000Y-79290000D01*
G75*
G02*
X32110000Y-79425000I0J-135000D01*
G01*
X32110000Y-79795000D01*
G75*
G02*
X31975000Y-79930000I-135000J0D01*
G01*
X31705000Y-79930000D01*
G75*
G02*
X31570000Y-79795000I0J135000D01*
G01*
G37*
%TD*%
%TO.C,R8*%
G36*
G01*
X35285000Y-78025000D02*
X35285000Y-77475000D01*
G75*
G02*
X35485000Y-77275000I200000J0D01*
G01*
X35885000Y-77275000D01*
G75*
G02*
X36085000Y-77475000I0J-200000D01*
G01*
X36085000Y-78025000D01*
G75*
G02*
X35885000Y-78225000I-200000J0D01*
G01*
X35485000Y-78225000D01*
G75*
G02*
X35285000Y-78025000I0J200000D01*
G01*
G37*
G36*
G01*
X33635000Y-78025000D02*
X33635000Y-77475000D01*
G75*
G02*
X33835000Y-77275000I200000J0D01*
G01*
X34235000Y-77275000D01*
G75*
G02*
X34435000Y-77475000I0J-200000D01*
G01*
X34435000Y-78025000D01*
G75*
G02*
X34235000Y-78225000I-200000J0D01*
G01*
X33835000Y-78225000D01*
G75*
G02*
X33635000Y-78025000I0J200000D01*
G01*
G37*
%TD*%
%TO.C,R7*%
G36*
G01*
X35245000Y-72655000D02*
X35245000Y-72105000D01*
G75*
G02*
X35445000Y-71905000I200000J0D01*
G01*
X35845000Y-71905000D01*
G75*
G02*
X36045000Y-72105000I0J-200000D01*
G01*
X36045000Y-72655000D01*
G75*
G02*
X35845000Y-72855000I-200000J0D01*
G01*
X35445000Y-72855000D01*
G75*
G02*
X35245000Y-72655000I0J200000D01*
G01*
G37*
G36*
G01*
X33595000Y-72655000D02*
X33595000Y-72105000D01*
G75*
G02*
X33795000Y-71905000I200000J0D01*
G01*
X34195000Y-71905000D01*
G75*
G02*
X34395000Y-72105000I0J-200000D01*
G01*
X34395000Y-72655000D01*
G75*
G02*
X34195000Y-72855000I-200000J0D01*
G01*
X33795000Y-72855000D01*
G75*
G02*
X33595000Y-72655000I0J200000D01*
G01*
G37*
%TD*%
%TO.C,D21*%
X26650000Y-73920000D03*
X25700000Y-73920000D03*
X27600000Y-73920000D03*
X27600000Y-76120000D03*
X26650000Y-76120000D03*
X25700000Y-76120000D03*
%TD*%
%TO.C,D20*%
X26820000Y-64700000D03*
X25870000Y-64700000D03*
X27770000Y-64700000D03*
X27770000Y-66900000D03*
X26820000Y-66900000D03*
X25870000Y-66900000D03*
%TD*%
%TO.C,D19*%
G36*
G01*
X30115000Y-74600000D02*
X29915000Y-74600000D01*
G75*
G02*
X29815000Y-74500000I0J100000D01*
G01*
X29815000Y-73075000D01*
G75*
G02*
X29915000Y-72975000I100000J0D01*
G01*
X30115000Y-72975000D01*
G75*
G02*
X30215000Y-73075000I0J-100000D01*
G01*
X30215000Y-74500000D01*
G75*
G02*
X30115000Y-74600000I-100000J0D01*
G01*
G37*
G36*
G01*
X30765000Y-74600000D02*
X30565000Y-74600000D01*
G75*
G02*
X30465000Y-74500000I0J100000D01*
G01*
X30465000Y-73075000D01*
G75*
G02*
X30565000Y-72975000I100000J0D01*
G01*
X30765000Y-72975000D01*
G75*
G02*
X30865000Y-73075000I0J-100000D01*
G01*
X30865000Y-74500000D01*
G75*
G02*
X30765000Y-74600000I-100000J0D01*
G01*
G37*
G36*
G01*
X31415000Y-74600000D02*
X31215000Y-74600000D01*
G75*
G02*
X31115000Y-74500000I0J100000D01*
G01*
X31115000Y-73075000D01*
G75*
G02*
X31215000Y-72975000I100000J0D01*
G01*
X31415000Y-72975000D01*
G75*
G02*
X31515000Y-73075000I0J-100000D01*
G01*
X31515000Y-74500000D01*
G75*
G02*
X31415000Y-74600000I-100000J0D01*
G01*
G37*
G36*
G01*
X32065000Y-74600000D02*
X31865000Y-74600000D01*
G75*
G02*
X31765000Y-74500000I0J100000D01*
G01*
X31765000Y-73075000D01*
G75*
G02*
X31865000Y-72975000I100000J0D01*
G01*
X32065000Y-72975000D01*
G75*
G02*
X32165000Y-73075000I0J-100000D01*
G01*
X32165000Y-74500000D01*
G75*
G02*
X32065000Y-74600000I-100000J0D01*
G01*
G37*
G36*
G01*
X32065000Y-78825000D02*
X31865000Y-78825000D01*
G75*
G02*
X31765000Y-78725000I0J100000D01*
G01*
X31765000Y-77300000D01*
G75*
G02*
X31865000Y-77200000I100000J0D01*
G01*
X32065000Y-77200000D01*
G75*
G02*
X32165000Y-77300000I0J-100000D01*
G01*
X32165000Y-78725000D01*
G75*
G02*
X32065000Y-78825000I-100000J0D01*
G01*
G37*
G36*
G01*
X31415000Y-78825000D02*
X31215000Y-78825000D01*
G75*
G02*
X31115000Y-78725000I0J100000D01*
G01*
X31115000Y-77300000D01*
G75*
G02*
X31215000Y-77200000I100000J0D01*
G01*
X31415000Y-77200000D01*
G75*
G02*
X31515000Y-77300000I0J-100000D01*
G01*
X31515000Y-78725000D01*
G75*
G02*
X31415000Y-78825000I-100000J0D01*
G01*
G37*
G36*
G01*
X30765000Y-78825000D02*
X30565000Y-78825000D01*
G75*
G02*
X30465000Y-78725000I0J100000D01*
G01*
X30465000Y-77300000D01*
G75*
G02*
X30565000Y-77200000I100000J0D01*
G01*
X30765000Y-77200000D01*
G75*
G02*
X30865000Y-77300000I0J-100000D01*
G01*
X30865000Y-78725000D01*
G75*
G02*
X30765000Y-78825000I-100000J0D01*
G01*
G37*
G36*
G01*
X30115000Y-78825000D02*
X29915000Y-78825000D01*
G75*
G02*
X29815000Y-78725000I0J100000D01*
G01*
X29815000Y-77300000D01*
G75*
G02*
X29915000Y-77200000I100000J0D01*
G01*
X30115000Y-77200000D01*
G75*
G02*
X30215000Y-77300000I0J-100000D01*
G01*
X30215000Y-78725000D01*
G75*
G02*
X30115000Y-78825000I-100000J0D01*
G01*
G37*
%TD*%
%TO.C,C57*%
G36*
G01*
X22430000Y-75160000D02*
X22430000Y-75500000D01*
G75*
G02*
X22290000Y-75640000I-140000J0D01*
G01*
X22010000Y-75640000D01*
G75*
G02*
X21870000Y-75500000I0J140000D01*
G01*
X21870000Y-75160000D01*
G75*
G02*
X22010000Y-75020000I140000J0D01*
G01*
X22290000Y-75020000D01*
G75*
G02*
X22430000Y-75160000I0J-140000D01*
G01*
G37*
G36*
G01*
X23390000Y-75160000D02*
X23390000Y-75500000D01*
G75*
G02*
X23250000Y-75640000I-140000J0D01*
G01*
X22970000Y-75640000D01*
G75*
G02*
X22830000Y-75500000I0J140000D01*
G01*
X22830000Y-75160000D01*
G75*
G02*
X22970000Y-75020000I140000J0D01*
G01*
X23250000Y-75020000D01*
G75*
G02*
X23390000Y-75160000I0J-140000D01*
G01*
G37*
%TD*%
%TO.C,C40*%
G36*
G01*
X28690000Y-78630000D02*
X29030000Y-78630000D01*
G75*
G02*
X29170000Y-78770000I0J-140000D01*
G01*
X29170000Y-79050000D01*
G75*
G02*
X29030000Y-79190000I-140000J0D01*
G01*
X28690000Y-79190000D01*
G75*
G02*
X28550000Y-79050000I0J140000D01*
G01*
X28550000Y-78770000D01*
G75*
G02*
X28690000Y-78630000I140000J0D01*
G01*
G37*
G36*
G01*
X28690000Y-77670000D02*
X29030000Y-77670000D01*
G75*
G02*
X29170000Y-77810000I0J-140000D01*
G01*
X29170000Y-78090000D01*
G75*
G02*
X29030000Y-78230000I-140000J0D01*
G01*
X28690000Y-78230000D01*
G75*
G02*
X28550000Y-78090000I0J140000D01*
G01*
X28550000Y-77810000D01*
G75*
G02*
X28690000Y-77670000I140000J0D01*
G01*
G37*
%TD*%
%TO.C,C6*%
G36*
G01*
X32550000Y-80850000D02*
X32550000Y-80510000D01*
G75*
G02*
X32690000Y-80370000I140000J0D01*
G01*
X32970000Y-80370000D01*
G75*
G02*
X33110000Y-80510000I0J-140000D01*
G01*
X33110000Y-80850000D01*
G75*
G02*
X32970000Y-80990000I-140000J0D01*
G01*
X32690000Y-80990000D01*
G75*
G02*
X32550000Y-80850000I0J140000D01*
G01*
G37*
G36*
G01*
X31590000Y-80850000D02*
X31590000Y-80510000D01*
G75*
G02*
X31730000Y-80370000I140000J0D01*
G01*
X32010000Y-80370000D01*
G75*
G02*
X32150000Y-80510000I0J-140000D01*
G01*
X32150000Y-80850000D01*
G75*
G02*
X32010000Y-80990000I-140000J0D01*
G01*
X31730000Y-80990000D01*
G75*
G02*
X31590000Y-80850000I0J140000D01*
G01*
G37*
%TD*%
%TO.C,C51*%
G36*
G01*
X23150000Y-68940000D02*
X23150000Y-69280000D01*
G75*
G02*
X23010000Y-69420000I-140000J0D01*
G01*
X22730000Y-69420000D01*
G75*
G02*
X22590000Y-69280000I0J140000D01*
G01*
X22590000Y-68940000D01*
G75*
G02*
X22730000Y-68800000I140000J0D01*
G01*
X23010000Y-68800000D01*
G75*
G02*
X23150000Y-68940000I0J-140000D01*
G01*
G37*
G36*
G01*
X24110000Y-68940000D02*
X24110000Y-69280000D01*
G75*
G02*
X23970000Y-69420000I-140000J0D01*
G01*
X23690000Y-69420000D01*
G75*
G02*
X23550000Y-69280000I0J140000D01*
G01*
X23550000Y-68940000D01*
G75*
G02*
X23690000Y-68800000I140000J0D01*
G01*
X23970000Y-68800000D01*
G75*
G02*
X24110000Y-68940000I0J-140000D01*
G01*
G37*
%TD*%
%TO.C,R4*%
G36*
G01*
X53405000Y-74400000D02*
X53035000Y-74400000D01*
G75*
G02*
X52900000Y-74265000I0J135000D01*
G01*
X52900000Y-73995000D01*
G75*
G02*
X53035000Y-73860000I135000J0D01*
G01*
X53405000Y-73860000D01*
G75*
G02*
X53540000Y-73995000I0J-135000D01*
G01*
X53540000Y-74265000D01*
G75*
G02*
X53405000Y-74400000I-135000J0D01*
G01*
G37*
G36*
G01*
X53405000Y-75420000D02*
X53035000Y-75420000D01*
G75*
G02*
X52900000Y-75285000I0J135000D01*
G01*
X52900000Y-75015000D01*
G75*
G02*
X53035000Y-74880000I135000J0D01*
G01*
X53405000Y-74880000D01*
G75*
G02*
X53540000Y-75015000I0J-135000D01*
G01*
X53540000Y-75285000D01*
G75*
G02*
X53405000Y-75420000I-135000J0D01*
G01*
G37*
%TD*%
%TO.C,C34*%
G36*
G01*
X28850000Y-68800000D02*
X29190000Y-68800000D01*
G75*
G02*
X29330000Y-68940000I0J-140000D01*
G01*
X29330000Y-69220000D01*
G75*
G02*
X29190000Y-69360000I-140000J0D01*
G01*
X28850000Y-69360000D01*
G75*
G02*
X28710000Y-69220000I0J140000D01*
G01*
X28710000Y-68940000D01*
G75*
G02*
X28850000Y-68800000I140000J0D01*
G01*
G37*
G36*
G01*
X28850000Y-67840000D02*
X29190000Y-67840000D01*
G75*
G02*
X29330000Y-67980000I0J-140000D01*
G01*
X29330000Y-68260000D01*
G75*
G02*
X29190000Y-68400000I-140000J0D01*
G01*
X28850000Y-68400000D01*
G75*
G02*
X28710000Y-68260000I0J140000D01*
G01*
X28710000Y-67980000D01*
G75*
G02*
X28850000Y-67840000I140000J0D01*
G01*
G37*
%TD*%
%TO.C,C18*%
G36*
G01*
X32420000Y-71230000D02*
X32420000Y-70890000D01*
G75*
G02*
X32560000Y-70750000I140000J0D01*
G01*
X32840000Y-70750000D01*
G75*
G02*
X32980000Y-70890000I0J-140000D01*
G01*
X32980000Y-71230000D01*
G75*
G02*
X32840000Y-71370000I-140000J0D01*
G01*
X32560000Y-71370000D01*
G75*
G02*
X32420000Y-71230000I0J140000D01*
G01*
G37*
G36*
G01*
X31460000Y-71230000D02*
X31460000Y-70890000D01*
G75*
G02*
X31600000Y-70750000I140000J0D01*
G01*
X31880000Y-70750000D01*
G75*
G02*
X32020000Y-70890000I0J-140000D01*
G01*
X32020000Y-71230000D01*
G75*
G02*
X31880000Y-71370000I-140000J0D01*
G01*
X31600000Y-71370000D01*
G75*
G02*
X31460000Y-71230000I0J140000D01*
G01*
G37*
%TD*%
%TO.C,R33*%
G36*
G01*
X30660000Y-62325000D02*
X30660000Y-62695000D01*
G75*
G02*
X30525000Y-62830000I-135000J0D01*
G01*
X30255000Y-62830000D01*
G75*
G02*
X30120000Y-62695000I0J135000D01*
G01*
X30120000Y-62325000D01*
G75*
G02*
X30255000Y-62190000I135000J0D01*
G01*
X30525000Y-62190000D01*
G75*
G02*
X30660000Y-62325000I0J-135000D01*
G01*
G37*
G36*
G01*
X31680000Y-62325000D02*
X31680000Y-62695000D01*
G75*
G02*
X31545000Y-62830000I-135000J0D01*
G01*
X31275000Y-62830000D01*
G75*
G02*
X31140000Y-62695000I0J135000D01*
G01*
X31140000Y-62325000D01*
G75*
G02*
X31275000Y-62190000I135000J0D01*
G01*
X31545000Y-62190000D01*
G75*
G02*
X31680000Y-62325000I0J-135000D01*
G01*
G37*
%TD*%
%TO.C,R29*%
G36*
G01*
X28805000Y-66910000D02*
X29175000Y-66910000D01*
G75*
G02*
X29310000Y-67045000I0J-135000D01*
G01*
X29310000Y-67315000D01*
G75*
G02*
X29175000Y-67450000I-135000J0D01*
G01*
X28805000Y-67450000D01*
G75*
G02*
X28670000Y-67315000I0J135000D01*
G01*
X28670000Y-67045000D01*
G75*
G02*
X28805000Y-66910000I135000J0D01*
G01*
G37*
G36*
G01*
X28805000Y-65890000D02*
X29175000Y-65890000D01*
G75*
G02*
X29310000Y-66025000I0J-135000D01*
G01*
X29310000Y-66295000D01*
G75*
G02*
X29175000Y-66430000I-135000J0D01*
G01*
X28805000Y-66430000D01*
G75*
G02*
X28670000Y-66295000I0J135000D01*
G01*
X28670000Y-66025000D01*
G75*
G02*
X28805000Y-65890000I135000J0D01*
G01*
G37*
%TD*%
%TO.C,R25*%
G36*
G01*
X29835000Y-70280000D02*
X29465000Y-70280000D01*
G75*
G02*
X29330000Y-70145000I0J135000D01*
G01*
X29330000Y-69875000D01*
G75*
G02*
X29465000Y-69740000I135000J0D01*
G01*
X29835000Y-69740000D01*
G75*
G02*
X29970000Y-69875000I0J-135000D01*
G01*
X29970000Y-70145000D01*
G75*
G02*
X29835000Y-70280000I-135000J0D01*
G01*
G37*
G36*
G01*
X29835000Y-71300000D02*
X29465000Y-71300000D01*
G75*
G02*
X29330000Y-71165000I0J135000D01*
G01*
X29330000Y-70895000D01*
G75*
G02*
X29465000Y-70760000I135000J0D01*
G01*
X29835000Y-70760000D01*
G75*
G02*
X29970000Y-70895000I0J-135000D01*
G01*
X29970000Y-71165000D01*
G75*
G02*
X29835000Y-71300000I-135000J0D01*
G01*
G37*
%TD*%
%TO.C,R20*%
G36*
G01*
X30895000Y-70290000D02*
X30525000Y-70290000D01*
G75*
G02*
X30390000Y-70155000I0J135000D01*
G01*
X30390000Y-69885000D01*
G75*
G02*
X30525000Y-69750000I135000J0D01*
G01*
X30895000Y-69750000D01*
G75*
G02*
X31030000Y-69885000I0J-135000D01*
G01*
X31030000Y-70155000D01*
G75*
G02*
X30895000Y-70290000I-135000J0D01*
G01*
G37*
G36*
G01*
X30895000Y-71310000D02*
X30525000Y-71310000D01*
G75*
G02*
X30390000Y-71175000I0J135000D01*
G01*
X30390000Y-70905000D01*
G75*
G02*
X30525000Y-70770000I135000J0D01*
G01*
X30895000Y-70770000D01*
G75*
G02*
X31030000Y-70905000I0J-135000D01*
G01*
X31030000Y-71175000D01*
G75*
G02*
X30895000Y-71310000I-135000J0D01*
G01*
G37*
%TD*%
%TO.C,R13*%
G36*
G01*
X32460000Y-70125000D02*
X32460000Y-69755000D01*
G75*
G02*
X32595000Y-69620000I135000J0D01*
G01*
X32865000Y-69620000D01*
G75*
G02*
X33000000Y-69755000I0J-135000D01*
G01*
X33000000Y-70125000D01*
G75*
G02*
X32865000Y-70260000I-135000J0D01*
G01*
X32595000Y-70260000D01*
G75*
G02*
X32460000Y-70125000I0J135000D01*
G01*
G37*
G36*
G01*
X31440000Y-70125000D02*
X31440000Y-69755000D01*
G75*
G02*
X31575000Y-69620000I135000J0D01*
G01*
X31845000Y-69620000D01*
G75*
G02*
X31980000Y-69755000I0J-135000D01*
G01*
X31980000Y-70125000D01*
G75*
G02*
X31845000Y-70260000I-135000J0D01*
G01*
X31575000Y-70260000D01*
G75*
G02*
X31440000Y-70125000I0J135000D01*
G01*
G37*
%TD*%
D13*
%TO.C,Y2*%
X54670000Y-83535000D03*
X56870000Y-83535000D03*
X56870000Y-85135000D03*
X54670000Y-85135000D03*
%TD*%
%TO.C,R18*%
G36*
G01*
X59840220Y-99698880D02*
X59470220Y-99698880D01*
G75*
G02*
X59335220Y-99563880I0J135000D01*
G01*
X59335220Y-99293880D01*
G75*
G02*
X59470220Y-99158880I135000J0D01*
G01*
X59840220Y-99158880D01*
G75*
G02*
X59975220Y-99293880I0J-135000D01*
G01*
X59975220Y-99563880D01*
G75*
G02*
X59840220Y-99698880I-135000J0D01*
G01*
G37*
G36*
G01*
X59840220Y-100718880D02*
X59470220Y-100718880D01*
G75*
G02*
X59335220Y-100583880I0J135000D01*
G01*
X59335220Y-100313880D01*
G75*
G02*
X59470220Y-100178880I135000J0D01*
G01*
X59840220Y-100178880D01*
G75*
G02*
X59975220Y-100313880I0J-135000D01*
G01*
X59975220Y-100583880D01*
G75*
G02*
X59840220Y-100718880I-135000J0D01*
G01*
G37*
%TD*%
%TO.C,R14*%
G36*
G01*
X51138660Y-99876360D02*
X50768660Y-99876360D01*
G75*
G02*
X50633660Y-99741360I0J135000D01*
G01*
X50633660Y-99471360D01*
G75*
G02*
X50768660Y-99336360I135000J0D01*
G01*
X51138660Y-99336360D01*
G75*
G02*
X51273660Y-99471360I0J-135000D01*
G01*
X51273660Y-99741360D01*
G75*
G02*
X51138660Y-99876360I-135000J0D01*
G01*
G37*
G36*
G01*
X51138660Y-100896360D02*
X50768660Y-100896360D01*
G75*
G02*
X50633660Y-100761360I0J135000D01*
G01*
X50633660Y-100491360D01*
G75*
G02*
X50768660Y-100356360I135000J0D01*
G01*
X51138660Y-100356360D01*
G75*
G02*
X51273660Y-100491360I0J-135000D01*
G01*
X51273660Y-100761360D01*
G75*
G02*
X51138660Y-100896360I-135000J0D01*
G01*
G37*
%TD*%
%TO.C,R12*%
G36*
G01*
X53493240Y-99876360D02*
X53123240Y-99876360D01*
G75*
G02*
X52988240Y-99741360I0J135000D01*
G01*
X52988240Y-99471360D01*
G75*
G02*
X53123240Y-99336360I135000J0D01*
G01*
X53493240Y-99336360D01*
G75*
G02*
X53628240Y-99471360I0J-135000D01*
G01*
X53628240Y-99741360D01*
G75*
G02*
X53493240Y-99876360I-135000J0D01*
G01*
G37*
G36*
G01*
X53493240Y-100896360D02*
X53123240Y-100896360D01*
G75*
G02*
X52988240Y-100761360I0J135000D01*
G01*
X52988240Y-100491360D01*
G75*
G02*
X53123240Y-100356360I135000J0D01*
G01*
X53493240Y-100356360D01*
G75*
G02*
X53628240Y-100491360I0J-135000D01*
G01*
X53628240Y-100761360D01*
G75*
G02*
X53493240Y-100896360I-135000J0D01*
G01*
G37*
%TD*%
%TO.C,R11*%
G36*
G01*
X57556760Y-99698880D02*
X57186760Y-99698880D01*
G75*
G02*
X57051760Y-99563880I0J135000D01*
G01*
X57051760Y-99293880D01*
G75*
G02*
X57186760Y-99158880I135000J0D01*
G01*
X57556760Y-99158880D01*
G75*
G02*
X57691760Y-99293880I0J-135000D01*
G01*
X57691760Y-99563880D01*
G75*
G02*
X57556760Y-99698880I-135000J0D01*
G01*
G37*
G36*
G01*
X57556760Y-100718880D02*
X57186760Y-100718880D01*
G75*
G02*
X57051760Y-100583880I0J135000D01*
G01*
X57051760Y-100313880D01*
G75*
G02*
X57186760Y-100178880I135000J0D01*
G01*
X57556760Y-100178880D01*
G75*
G02*
X57691760Y-100313880I0J-135000D01*
G01*
X57691760Y-100583880D01*
G75*
G02*
X57556760Y-100718880I-135000J0D01*
G01*
G37*
%TD*%
%TO.C,R10*%
G36*
G01*
X61130540Y-99698880D02*
X60760540Y-99698880D01*
G75*
G02*
X60625540Y-99563880I0J135000D01*
G01*
X60625540Y-99293880D01*
G75*
G02*
X60760540Y-99158880I135000J0D01*
G01*
X61130540Y-99158880D01*
G75*
G02*
X61265540Y-99293880I0J-135000D01*
G01*
X61265540Y-99563880D01*
G75*
G02*
X61130540Y-99698880I-135000J0D01*
G01*
G37*
G36*
G01*
X61130540Y-100718880D02*
X60760540Y-100718880D01*
G75*
G02*
X60625540Y-100583880I0J135000D01*
G01*
X60625540Y-100313880D01*
G75*
G02*
X60760540Y-100178880I135000J0D01*
G01*
X61130540Y-100178880D01*
G75*
G02*
X61265540Y-100313880I0J-135000D01*
G01*
X61265540Y-100583880D01*
G75*
G02*
X61130540Y-100718880I-135000J0D01*
G01*
G37*
%TD*%
%TO.C,R9*%
G36*
G01*
X58638800Y-99698880D02*
X58268800Y-99698880D01*
G75*
G02*
X58133800Y-99563880I0J135000D01*
G01*
X58133800Y-99293880D01*
G75*
G02*
X58268800Y-99158880I135000J0D01*
G01*
X58638800Y-99158880D01*
G75*
G02*
X58773800Y-99293880I0J-135000D01*
G01*
X58773800Y-99563880D01*
G75*
G02*
X58638800Y-99698880I-135000J0D01*
G01*
G37*
G36*
G01*
X58638800Y-100718880D02*
X58268800Y-100718880D01*
G75*
G02*
X58133800Y-100583880I0J135000D01*
G01*
X58133800Y-100313880D01*
G75*
G02*
X58268800Y-100178880I135000J0D01*
G01*
X58638800Y-100178880D01*
G75*
G02*
X58773800Y-100313880I0J-135000D01*
G01*
X58773800Y-100583880D01*
G75*
G02*
X58638800Y-100718880I-135000J0D01*
G01*
G37*
%TD*%
%TO.C,C26*%
G36*
G01*
X51860620Y-100296360D02*
X52200620Y-100296360D01*
G75*
G02*
X52340620Y-100436360I0J-140000D01*
G01*
X52340620Y-100716360D01*
G75*
G02*
X52200620Y-100856360I-140000J0D01*
G01*
X51860620Y-100856360D01*
G75*
G02*
X51720620Y-100716360I0J140000D01*
G01*
X51720620Y-100436360D01*
G75*
G02*
X51860620Y-100296360I140000J0D01*
G01*
G37*
G36*
G01*
X51860620Y-99336360D02*
X52200620Y-99336360D01*
G75*
G02*
X52340620Y-99476360I0J-140000D01*
G01*
X52340620Y-99756360D01*
G75*
G02*
X52200620Y-99896360I-140000J0D01*
G01*
X51860620Y-99896360D01*
G75*
G02*
X51720620Y-99756360I0J140000D01*
G01*
X51720620Y-99476360D01*
G75*
G02*
X51860620Y-99336360I140000J0D01*
G01*
G37*
%TD*%
%TO.C,C25*%
G36*
G01*
X54408240Y-100296360D02*
X54748240Y-100296360D01*
G75*
G02*
X54888240Y-100436360I0J-140000D01*
G01*
X54888240Y-100716360D01*
G75*
G02*
X54748240Y-100856360I-140000J0D01*
G01*
X54408240Y-100856360D01*
G75*
G02*
X54268240Y-100716360I0J140000D01*
G01*
X54268240Y-100436360D01*
G75*
G02*
X54408240Y-100296360I140000J0D01*
G01*
G37*
G36*
G01*
X54408240Y-99336360D02*
X54748240Y-99336360D01*
G75*
G02*
X54888240Y-99476360I0J-140000D01*
G01*
X54888240Y-99756360D01*
G75*
G02*
X54748240Y-99896360I-140000J0D01*
G01*
X54408240Y-99896360D01*
G75*
G02*
X54268240Y-99756360I0J140000D01*
G01*
X54268240Y-99476360D01*
G75*
G02*
X54408240Y-99336360I140000J0D01*
G01*
G37*
%TD*%
%TO.C,C20*%
G36*
G01*
X58885480Y-101960860D02*
X58885480Y-102300860D01*
G75*
G02*
X58745480Y-102440860I-140000J0D01*
G01*
X58465480Y-102440860D01*
G75*
G02*
X58325480Y-102300860I0J140000D01*
G01*
X58325480Y-101960860D01*
G75*
G02*
X58465480Y-101820860I140000J0D01*
G01*
X58745480Y-101820860D01*
G75*
G02*
X58885480Y-101960860I0J-140000D01*
G01*
G37*
G36*
G01*
X59845480Y-101960860D02*
X59845480Y-102300860D01*
G75*
G02*
X59705480Y-102440860I-140000J0D01*
G01*
X59425480Y-102440860D01*
G75*
G02*
X59285480Y-102300860I0J140000D01*
G01*
X59285480Y-101960860D01*
G75*
G02*
X59425480Y-101820860I140000J0D01*
G01*
X59705480Y-101820860D01*
G75*
G02*
X59845480Y-101960860I0J-140000D01*
G01*
G37*
%TD*%
%TO.C,C16*%
G36*
G01*
X53493060Y-101988800D02*
X53493060Y-102328800D01*
G75*
G02*
X53353060Y-102468800I-140000J0D01*
G01*
X53073060Y-102468800D01*
G75*
G02*
X52933060Y-102328800I0J140000D01*
G01*
X52933060Y-101988800D01*
G75*
G02*
X53073060Y-101848800I140000J0D01*
G01*
X53353060Y-101848800D01*
G75*
G02*
X53493060Y-101988800I0J-140000D01*
G01*
G37*
G36*
G01*
X54453060Y-101988800D02*
X54453060Y-102328800D01*
G75*
G02*
X54313060Y-102468800I-140000J0D01*
G01*
X54033060Y-102468800D01*
G75*
G02*
X53893060Y-102328800I0J140000D01*
G01*
X53893060Y-101988800D01*
G75*
G02*
X54033060Y-101848800I140000J0D01*
G01*
X54313060Y-101848800D01*
G75*
G02*
X54453060Y-101988800I0J-140000D01*
G01*
G37*
%TD*%
%TO.C,C43*%
G36*
G01*
X62252200Y-94124600D02*
X62252200Y-93784600D01*
G75*
G02*
X62392200Y-93644600I140000J0D01*
G01*
X62672200Y-93644600D01*
G75*
G02*
X62812200Y-93784600I0J-140000D01*
G01*
X62812200Y-94124600D01*
G75*
G02*
X62672200Y-94264600I-140000J0D01*
G01*
X62392200Y-94264600D01*
G75*
G02*
X62252200Y-94124600I0J140000D01*
G01*
G37*
G36*
G01*
X61292200Y-94124600D02*
X61292200Y-93784600D01*
G75*
G02*
X61432200Y-93644600I140000J0D01*
G01*
X61712200Y-93644600D01*
G75*
G02*
X61852200Y-93784600I0J-140000D01*
G01*
X61852200Y-94124600D01*
G75*
G02*
X61712200Y-94264600I-140000J0D01*
G01*
X61432200Y-94264600D01*
G75*
G02*
X61292200Y-94124600I0J140000D01*
G01*
G37*
%TD*%
%TO.C,C15*%
G36*
G01*
X50014850Y-96246400D02*
X49502350Y-96246400D01*
G75*
G02*
X49283600Y-96027650I0J218750D01*
G01*
X49283600Y-95590150D01*
G75*
G02*
X49502350Y-95371400I218750J0D01*
G01*
X50014850Y-95371400D01*
G75*
G02*
X50233600Y-95590150I0J-218750D01*
G01*
X50233600Y-96027650D01*
G75*
G02*
X50014850Y-96246400I-218750J0D01*
G01*
G37*
G36*
G01*
X50014850Y-94671400D02*
X49502350Y-94671400D01*
G75*
G02*
X49283600Y-94452650I0J218750D01*
G01*
X49283600Y-94015150D01*
G75*
G02*
X49502350Y-93796400I218750J0D01*
G01*
X50014850Y-93796400D01*
G75*
G02*
X50233600Y-94015150I0J-218750D01*
G01*
X50233600Y-94452650D01*
G75*
G02*
X50014850Y-94671400I-218750J0D01*
G01*
G37*
%TD*%
%TO.C,R1*%
G36*
G01*
X55310000Y-86405000D02*
X55310000Y-86775000D01*
G75*
G02*
X55175000Y-86910000I-135000J0D01*
G01*
X54905000Y-86910000D01*
G75*
G02*
X54770000Y-86775000I0J135000D01*
G01*
X54770000Y-86405000D01*
G75*
G02*
X54905000Y-86270000I135000J0D01*
G01*
X55175000Y-86270000D01*
G75*
G02*
X55310000Y-86405000I0J-135000D01*
G01*
G37*
G36*
G01*
X56330000Y-86405000D02*
X56330000Y-86775000D01*
G75*
G02*
X56195000Y-86910000I-135000J0D01*
G01*
X55925000Y-86910000D01*
G75*
G02*
X55790000Y-86775000I0J135000D01*
G01*
X55790000Y-86405000D01*
G75*
G02*
X55925000Y-86270000I135000J0D01*
G01*
X56195000Y-86270000D01*
G75*
G02*
X56330000Y-86405000I0J-135000D01*
G01*
G37*
%TD*%
%TO.C,C7*%
G36*
G01*
X58210000Y-84520000D02*
X58550000Y-84520000D01*
G75*
G02*
X58690000Y-84660000I0J-140000D01*
G01*
X58690000Y-84940000D01*
G75*
G02*
X58550000Y-85080000I-140000J0D01*
G01*
X58210000Y-85080000D01*
G75*
G02*
X58070000Y-84940000I0J140000D01*
G01*
X58070000Y-84660000D01*
G75*
G02*
X58210000Y-84520000I140000J0D01*
G01*
G37*
G36*
G01*
X58210000Y-83560000D02*
X58550000Y-83560000D01*
G75*
G02*
X58690000Y-83700000I0J-140000D01*
G01*
X58690000Y-83980000D01*
G75*
G02*
X58550000Y-84120000I-140000J0D01*
G01*
X58210000Y-84120000D01*
G75*
G02*
X58070000Y-83980000I0J140000D01*
G01*
X58070000Y-83700000D01*
G75*
G02*
X58210000Y-83560000I140000J0D01*
G01*
G37*
%TD*%
%TO.C,C4*%
G36*
G01*
X53300000Y-84140000D02*
X52960000Y-84140000D01*
G75*
G02*
X52820000Y-84000000I0J140000D01*
G01*
X52820000Y-83720000D01*
G75*
G02*
X52960000Y-83580000I140000J0D01*
G01*
X53300000Y-83580000D01*
G75*
G02*
X53440000Y-83720000I0J-140000D01*
G01*
X53440000Y-84000000D01*
G75*
G02*
X53300000Y-84140000I-140000J0D01*
G01*
G37*
G36*
G01*
X53300000Y-85100000D02*
X52960000Y-85100000D01*
G75*
G02*
X52820000Y-84960000I0J140000D01*
G01*
X52820000Y-84680000D01*
G75*
G02*
X52960000Y-84540000I140000J0D01*
G01*
X53300000Y-84540000D01*
G75*
G02*
X53440000Y-84680000I0J-140000D01*
G01*
X53440000Y-84960000D01*
G75*
G02*
X53300000Y-85100000I-140000J0D01*
G01*
G37*
%TD*%
%TO.C,C14*%
G36*
G01*
X57080000Y-87225000D02*
X57420000Y-87225000D01*
G75*
G02*
X57560000Y-87365000I0J-140000D01*
G01*
X57560000Y-87645000D01*
G75*
G02*
X57420000Y-87785000I-140000J0D01*
G01*
X57080000Y-87785000D01*
G75*
G02*
X56940000Y-87645000I0J140000D01*
G01*
X56940000Y-87365000D01*
G75*
G02*
X57080000Y-87225000I140000J0D01*
G01*
G37*
G36*
G01*
X57080000Y-86265000D02*
X57420000Y-86265000D01*
G75*
G02*
X57560000Y-86405000I0J-140000D01*
G01*
X57560000Y-86685000D01*
G75*
G02*
X57420000Y-86825000I-140000J0D01*
G01*
X57080000Y-86825000D01*
G75*
G02*
X56940000Y-86685000I0J140000D01*
G01*
X56940000Y-86405000D01*
G75*
G02*
X57080000Y-86265000I140000J0D01*
G01*
G37*
%TD*%
%TO.C,C28*%
G36*
G01*
X60314180Y-97553600D02*
X60314180Y-97213600D01*
G75*
G02*
X60454180Y-97073600I140000J0D01*
G01*
X60734180Y-97073600D01*
G75*
G02*
X60874180Y-97213600I0J-140000D01*
G01*
X60874180Y-97553600D01*
G75*
G02*
X60734180Y-97693600I-140000J0D01*
G01*
X60454180Y-97693600D01*
G75*
G02*
X60314180Y-97553600I0J140000D01*
G01*
G37*
G36*
G01*
X59354180Y-97553600D02*
X59354180Y-97213600D01*
G75*
G02*
X59494180Y-97073600I140000J0D01*
G01*
X59774180Y-97073600D01*
G75*
G02*
X59914180Y-97213600I0J-140000D01*
G01*
X59914180Y-97553600D01*
G75*
G02*
X59774180Y-97693600I-140000J0D01*
G01*
X59494180Y-97693600D01*
G75*
G02*
X59354180Y-97553600I0J140000D01*
G01*
G37*
%TD*%
%TO.C,R2*%
G36*
G01*
X58885000Y-87530000D02*
X59255000Y-87530000D01*
G75*
G02*
X59390000Y-87665000I0J-135000D01*
G01*
X59390000Y-87935000D01*
G75*
G02*
X59255000Y-88070000I-135000J0D01*
G01*
X58885000Y-88070000D01*
G75*
G02*
X58750000Y-87935000I0J135000D01*
G01*
X58750000Y-87665000D01*
G75*
G02*
X58885000Y-87530000I135000J0D01*
G01*
G37*
G36*
G01*
X58885000Y-86510000D02*
X59255000Y-86510000D01*
G75*
G02*
X59390000Y-86645000I0J-135000D01*
G01*
X59390000Y-86915000D01*
G75*
G02*
X59255000Y-87050000I-135000J0D01*
G01*
X58885000Y-87050000D01*
G75*
G02*
X58750000Y-86915000I0J135000D01*
G01*
X58750000Y-86645000D01*
G75*
G02*
X58885000Y-86510000I135000J0D01*
G01*
G37*
%TD*%
%TO.C,C39*%
G36*
G01*
X62250000Y-95470000D02*
X62250000Y-95130000D01*
G75*
G02*
X62390000Y-94990000I140000J0D01*
G01*
X62670000Y-94990000D01*
G75*
G02*
X62810000Y-95130000I0J-140000D01*
G01*
X62810000Y-95470000D01*
G75*
G02*
X62670000Y-95610000I-140000J0D01*
G01*
X62390000Y-95610000D01*
G75*
G02*
X62250000Y-95470000I0J140000D01*
G01*
G37*
G36*
G01*
X61290000Y-95470000D02*
X61290000Y-95130000D01*
G75*
G02*
X61430000Y-94990000I140000J0D01*
G01*
X61710000Y-94990000D01*
G75*
G02*
X61850000Y-95130000I0J-140000D01*
G01*
X61850000Y-95470000D01*
G75*
G02*
X61710000Y-95610000I-140000J0D01*
G01*
X61430000Y-95610000D01*
G75*
G02*
X61290000Y-95470000I0J140000D01*
G01*
G37*
%TD*%
%TO.C,R3*%
G36*
G01*
X59650000Y-88715000D02*
X59650000Y-89085000D01*
G75*
G02*
X59515000Y-89220000I-135000J0D01*
G01*
X59245000Y-89220000D01*
G75*
G02*
X59110000Y-89085000I0J135000D01*
G01*
X59110000Y-88715000D01*
G75*
G02*
X59245000Y-88580000I135000J0D01*
G01*
X59515000Y-88580000D01*
G75*
G02*
X59650000Y-88715000I0J-135000D01*
G01*
G37*
G36*
G01*
X60670000Y-88715000D02*
X60670000Y-89085000D01*
G75*
G02*
X60535000Y-89220000I-135000J0D01*
G01*
X60265000Y-89220000D01*
G75*
G02*
X60130000Y-89085000I0J135000D01*
G01*
X60130000Y-88715000D01*
G75*
G02*
X60265000Y-88580000I135000J0D01*
G01*
X60535000Y-88580000D01*
G75*
G02*
X60670000Y-88715000I0J-135000D01*
G01*
G37*
%TD*%
%TO.C,C12*%
G36*
G01*
X61850000Y-92380000D02*
X61850000Y-92720000D01*
G75*
G02*
X61710000Y-92860000I-140000J0D01*
G01*
X61430000Y-92860000D01*
G75*
G02*
X61290000Y-92720000I0J140000D01*
G01*
X61290000Y-92380000D01*
G75*
G02*
X61430000Y-92240000I140000J0D01*
G01*
X61710000Y-92240000D01*
G75*
G02*
X61850000Y-92380000I0J-140000D01*
G01*
G37*
G36*
G01*
X62810000Y-92380000D02*
X62810000Y-92720000D01*
G75*
G02*
X62670000Y-92860000I-140000J0D01*
G01*
X62390000Y-92860000D01*
G75*
G02*
X62250000Y-92720000I0J140000D01*
G01*
X62250000Y-92380000D01*
G75*
G02*
X62390000Y-92240000I140000J0D01*
G01*
X62670000Y-92240000D01*
G75*
G02*
X62810000Y-92380000I0J-140000D01*
G01*
G37*
%TD*%
%TO.C,C10*%
G36*
G01*
X61850000Y-91360000D02*
X61850000Y-91700000D01*
G75*
G02*
X61710000Y-91840000I-140000J0D01*
G01*
X61430000Y-91840000D01*
G75*
G02*
X61290000Y-91700000I0J140000D01*
G01*
X61290000Y-91360000D01*
G75*
G02*
X61430000Y-91220000I140000J0D01*
G01*
X61710000Y-91220000D01*
G75*
G02*
X61850000Y-91360000I0J-140000D01*
G01*
G37*
G36*
G01*
X62810000Y-91360000D02*
X62810000Y-91700000D01*
G75*
G02*
X62670000Y-91840000I-140000J0D01*
G01*
X62390000Y-91840000D01*
G75*
G02*
X62250000Y-91700000I0J140000D01*
G01*
X62250000Y-91360000D01*
G75*
G02*
X62390000Y-91220000I140000J0D01*
G01*
X62670000Y-91220000D01*
G75*
G02*
X62810000Y-91360000I0J-140000D01*
G01*
G37*
%TD*%
%TO.C,D4*%
G36*
G01*
X53496250Y-76660000D02*
X52983750Y-76660000D01*
G75*
G02*
X52765000Y-76441250I0J218750D01*
G01*
X52765000Y-76003750D01*
G75*
G02*
X52983750Y-75785000I218750J0D01*
G01*
X53496250Y-75785000D01*
G75*
G02*
X53715000Y-76003750I0J-218750D01*
G01*
X53715000Y-76441250D01*
G75*
G02*
X53496250Y-76660000I-218750J0D01*
G01*
G37*
G36*
G01*
X53496250Y-78235000D02*
X52983750Y-78235000D01*
G75*
G02*
X52765000Y-78016250I0J218750D01*
G01*
X52765000Y-77578750D01*
G75*
G02*
X52983750Y-77360000I218750J0D01*
G01*
X53496250Y-77360000D01*
G75*
G02*
X53715000Y-77578750I0J-218750D01*
G01*
X53715000Y-78016250D01*
G75*
G02*
X53496250Y-78235000I-218750J0D01*
G01*
G37*
%TD*%
%TO.C,R15*%
G36*
G01*
X57200000Y-64233750D02*
X57200000Y-64746250D01*
G75*
G02*
X56981250Y-64965000I-218750J0D01*
G01*
X56543750Y-64965000D01*
G75*
G02*
X56325000Y-64746250I0J218750D01*
G01*
X56325000Y-64233750D01*
G75*
G02*
X56543750Y-64015000I218750J0D01*
G01*
X56981250Y-64015000D01*
G75*
G02*
X57200000Y-64233750I0J-218750D01*
G01*
G37*
G36*
G01*
X55625000Y-64233750D02*
X55625000Y-64746250D01*
G75*
G02*
X55406250Y-64965000I-218750J0D01*
G01*
X54968750Y-64965000D01*
G75*
G02*
X54750000Y-64746250I0J218750D01*
G01*
X54750000Y-64233750D01*
G75*
G02*
X54968750Y-64015000I218750J0D01*
G01*
X55406250Y-64015000D01*
G75*
G02*
X55625000Y-64233750I0J-218750D01*
G01*
G37*
%TD*%
%TO.C,D5*%
G36*
G01*
X58475000Y-64233750D02*
X58475000Y-64746250D01*
G75*
G02*
X58256250Y-64965000I-218750J0D01*
G01*
X57818750Y-64965000D01*
G75*
G02*
X57600000Y-64746250I0J218750D01*
G01*
X57600000Y-64233750D01*
G75*
G02*
X57818750Y-64015000I218750J0D01*
G01*
X58256250Y-64015000D01*
G75*
G02*
X58475000Y-64233750I0J-218750D01*
G01*
G37*
G36*
G01*
X60050000Y-64233750D02*
X60050000Y-64746250D01*
G75*
G02*
X59831250Y-64965000I-218750J0D01*
G01*
X59393750Y-64965000D01*
G75*
G02*
X59175000Y-64746250I0J218750D01*
G01*
X59175000Y-64233750D01*
G75*
G02*
X59393750Y-64015000I218750J0D01*
G01*
X59831250Y-64015000D01*
G75*
G02*
X60050000Y-64233750I0J-218750D01*
G01*
G37*
%TD*%
%TO.C,C58*%
G36*
G01*
X60775000Y-69375000D02*
X60775000Y-67325000D01*
G75*
G02*
X61025000Y-67075000I250000J0D01*
G01*
X62600000Y-67075000D01*
G75*
G02*
X62850000Y-67325000I0J-250000D01*
G01*
X62850000Y-69375000D01*
G75*
G02*
X62600000Y-69625000I-250000J0D01*
G01*
X61025000Y-69625000D01*
G75*
G02*
X60775000Y-69375000I0J250000D01*
G01*
G37*
G36*
G01*
X54550000Y-69375000D02*
X54550000Y-67325000D01*
G75*
G02*
X54800000Y-67075000I250000J0D01*
G01*
X56375000Y-67075000D01*
G75*
G02*
X56625000Y-67325000I0J-250000D01*
G01*
X56625000Y-69375000D01*
G75*
G02*
X56375000Y-69625000I-250000J0D01*
G01*
X54800000Y-69625000D01*
G75*
G02*
X54550000Y-69375000I0J250000D01*
G01*
G37*
%TD*%
%TO.C,C56*%
G36*
G01*
X61175000Y-84556250D02*
X61175000Y-83643750D01*
G75*
G02*
X61418750Y-83400000I243750J0D01*
G01*
X61906250Y-83400000D01*
G75*
G02*
X62150000Y-83643750I0J-243750D01*
G01*
X62150000Y-84556250D01*
G75*
G02*
X61906250Y-84800000I-243750J0D01*
G01*
X61418750Y-84800000D01*
G75*
G02*
X61175000Y-84556250I0J243750D01*
G01*
G37*
G36*
G01*
X59300000Y-84556250D02*
X59300000Y-83643750D01*
G75*
G02*
X59543750Y-83400000I243750J0D01*
G01*
X60031250Y-83400000D01*
G75*
G02*
X60275000Y-83643750I0J-243750D01*
G01*
X60275000Y-84556250D01*
G75*
G02*
X60031250Y-84800000I-243750J0D01*
G01*
X59543750Y-84800000D01*
G75*
G02*
X59300000Y-84556250I0J243750D01*
G01*
G37*
%TD*%
D14*
%TO.C,U6*%
X60725000Y-73825000D03*
X56125000Y-73825000D03*
X58425000Y-73825000D03*
D15*
X58425000Y-80125000D03*
%TD*%
%TO.C,C22*%
G36*
G01*
X55680000Y-62063750D02*
X55680000Y-62976250D01*
G75*
G02*
X55436250Y-63220000I-243750J0D01*
G01*
X54948750Y-63220000D01*
G75*
G02*
X54705000Y-62976250I0J243750D01*
G01*
X54705000Y-62063750D01*
G75*
G02*
X54948750Y-61820000I243750J0D01*
G01*
X55436250Y-61820000D01*
G75*
G02*
X55680000Y-62063750I0J-243750D01*
G01*
G37*
G36*
G01*
X57555000Y-62063750D02*
X57555000Y-62976250D01*
G75*
G02*
X57311250Y-63220000I-243750J0D01*
G01*
X56823750Y-63220000D01*
G75*
G02*
X56580000Y-62976250I0J243750D01*
G01*
X56580000Y-62063750D01*
G75*
G02*
X56823750Y-61820000I243750J0D01*
G01*
X57311250Y-61820000D01*
G75*
G02*
X57555000Y-62063750I0J-243750D01*
G01*
G37*
%TD*%
D16*
%TO.C,J7*%
X33140000Y-72500000D03*
%TD*%
D11*
%TO.C,U2*%
X35770000Y-63356000D03*
X34820000Y-63356000D03*
X33870000Y-63356000D03*
X33870000Y-65556000D03*
X35770000Y-65556000D03*
%TD*%
D17*
%TO.C,D3*%
X53015700Y-97834700D03*
X53515700Y-97834700D03*
X54015700Y-97834700D03*
X54515700Y-97834700D03*
X55015700Y-97834700D03*
X55515700Y-97834700D03*
X56015700Y-97834700D03*
X56515700Y-97834700D03*
X57015700Y-97834700D03*
X57515700Y-97834700D03*
X58015700Y-97834700D03*
X58515700Y-97834700D03*
D18*
X60115700Y-96234700D03*
X60115700Y-95734700D03*
X60115700Y-95234700D03*
X60115700Y-94734700D03*
X60115700Y-94234700D03*
X60115700Y-93734700D03*
X60115700Y-93234700D03*
X60115700Y-92734700D03*
X60115700Y-92234700D03*
X60115700Y-91734700D03*
X60115700Y-91234700D03*
X60115700Y-90734700D03*
D17*
X58515700Y-89134700D03*
X58015700Y-89134700D03*
X57515700Y-89134700D03*
X57015700Y-89134700D03*
X56515700Y-89134700D03*
X56015700Y-89134700D03*
X55515700Y-89134700D03*
X55015700Y-89134700D03*
X54515700Y-89134700D03*
X54015700Y-89134700D03*
X53515700Y-89134700D03*
X53015700Y-89134700D03*
D18*
X51415700Y-90734700D03*
X51415700Y-91234700D03*
X51415700Y-91734700D03*
X51415700Y-92234700D03*
X51415700Y-92734700D03*
X51415700Y-93234700D03*
X51415700Y-93734700D03*
X51415700Y-94234700D03*
X51415700Y-94734700D03*
X51415700Y-95234700D03*
X51415700Y-95734700D03*
X51415700Y-96234700D03*
%TD*%
%TO.C,R24*%
G36*
G01*
X32844450Y-97630700D02*
X32331950Y-97630700D01*
G75*
G02*
X32113200Y-97411950I0J218750D01*
G01*
X32113200Y-96974450D01*
G75*
G02*
X32331950Y-96755700I218750J0D01*
G01*
X32844450Y-96755700D01*
G75*
G02*
X33063200Y-96974450I0J-218750D01*
G01*
X33063200Y-97411950D01*
G75*
G02*
X32844450Y-97630700I-218750J0D01*
G01*
G37*
G36*
G01*
X32844450Y-96055700D02*
X32331950Y-96055700D01*
G75*
G02*
X32113200Y-95836950I0J218750D01*
G01*
X32113200Y-95399450D01*
G75*
G02*
X32331950Y-95180700I218750J0D01*
G01*
X32844450Y-95180700D01*
G75*
G02*
X33063200Y-95399450I0J-218750D01*
G01*
X33063200Y-95836950D01*
G75*
G02*
X32844450Y-96055700I-218750J0D01*
G01*
G37*
%TD*%
%TO.C,R21*%
G36*
G01*
X27141682Y-87147500D02*
X27654182Y-87147500D01*
G75*
G02*
X27872932Y-87366250I0J-218750D01*
G01*
X27872932Y-87803750D01*
G75*
G02*
X27654182Y-88022500I-218750J0D01*
G01*
X27141682Y-88022500D01*
G75*
G02*
X26922932Y-87803750I0J218750D01*
G01*
X26922932Y-87366250D01*
G75*
G02*
X27141682Y-87147500I218750J0D01*
G01*
G37*
G36*
G01*
X27141682Y-88722500D02*
X27654182Y-88722500D01*
G75*
G02*
X27872932Y-88941250I0J-218750D01*
G01*
X27872932Y-89378750D01*
G75*
G02*
X27654182Y-89597500I-218750J0D01*
G01*
X27141682Y-89597500D01*
G75*
G02*
X26922932Y-89378750I0J218750D01*
G01*
X26922932Y-88941250D01*
G75*
G02*
X27141682Y-88722500I218750J0D01*
G01*
G37*
%TD*%
%TO.C,R28*%
G36*
G01*
X23637356Y-89597500D02*
X23124856Y-89597500D01*
G75*
G02*
X22906106Y-89378750I0J218750D01*
G01*
X22906106Y-88941250D01*
G75*
G02*
X23124856Y-88722500I218750J0D01*
G01*
X23637356Y-88722500D01*
G75*
G02*
X23856106Y-88941250I0J-218750D01*
G01*
X23856106Y-89378750D01*
G75*
G02*
X23637356Y-89597500I-218750J0D01*
G01*
G37*
G36*
G01*
X23637356Y-88022500D02*
X23124856Y-88022500D01*
G75*
G02*
X22906106Y-87803750I0J218750D01*
G01*
X22906106Y-87366250D01*
G75*
G02*
X23124856Y-87147500I218750J0D01*
G01*
X23637356Y-87147500D01*
G75*
G02*
X23856106Y-87366250I0J-218750D01*
G01*
X23856106Y-87803750D01*
G75*
G02*
X23637356Y-88022500I-218750J0D01*
G01*
G37*
%TD*%
%TO.C,R22*%
G36*
G01*
X26315240Y-89597500D02*
X25802740Y-89597500D01*
G75*
G02*
X25583990Y-89378750I0J218750D01*
G01*
X25583990Y-88941250D01*
G75*
G02*
X25802740Y-88722500I218750J0D01*
G01*
X26315240Y-88722500D01*
G75*
G02*
X26533990Y-88941250I0J-218750D01*
G01*
X26533990Y-89378750D01*
G75*
G02*
X26315240Y-89597500I-218750J0D01*
G01*
G37*
G36*
G01*
X26315240Y-88022500D02*
X25802740Y-88022500D01*
G75*
G02*
X25583990Y-87803750I0J218750D01*
G01*
X25583990Y-87366250D01*
G75*
G02*
X25802740Y-87147500I218750J0D01*
G01*
X26315240Y-87147500D01*
G75*
G02*
X26533990Y-87366250I0J-218750D01*
G01*
X26533990Y-87803750D01*
G75*
G02*
X26315240Y-88022500I-218750J0D01*
G01*
G37*
%TD*%
D19*
%TO.C,D15*%
X40336800Y-88988900D03*
X40336800Y-86448900D03*
X34186800Y-86448900D03*
X34186800Y-88988900D03*
%TD*%
%TO.C,R30*%
G36*
G01*
X32497450Y-87147500D02*
X33009950Y-87147500D01*
G75*
G02*
X33228700Y-87366250I0J-218750D01*
G01*
X33228700Y-87803750D01*
G75*
G02*
X33009950Y-88022500I-218750J0D01*
G01*
X32497450Y-88022500D01*
G75*
G02*
X32278700Y-87803750I0J218750D01*
G01*
X32278700Y-87366250D01*
G75*
G02*
X32497450Y-87147500I218750J0D01*
G01*
G37*
G36*
G01*
X32497450Y-88722500D02*
X33009950Y-88722500D01*
G75*
G02*
X33228700Y-88941250I0J-218750D01*
G01*
X33228700Y-89378750D01*
G75*
G02*
X33009950Y-89597500I-218750J0D01*
G01*
X32497450Y-89597500D01*
G75*
G02*
X32278700Y-89378750I0J218750D01*
G01*
X32278700Y-88941250D01*
G75*
G02*
X32497450Y-88722500I218750J0D01*
G01*
G37*
%TD*%
%TO.C,R23*%
G36*
G01*
X32733700Y-98600550D02*
X32733700Y-99113050D01*
G75*
G02*
X32514950Y-99331800I-218750J0D01*
G01*
X32077450Y-99331800D01*
G75*
G02*
X31858700Y-99113050I0J218750D01*
G01*
X31858700Y-98600550D01*
G75*
G02*
X32077450Y-98381800I218750J0D01*
G01*
X32514950Y-98381800D01*
G75*
G02*
X32733700Y-98600550I0J-218750D01*
G01*
G37*
G36*
G01*
X31158700Y-98600550D02*
X31158700Y-99113050D01*
G75*
G02*
X30939950Y-99331800I-218750J0D01*
G01*
X30502450Y-99331800D01*
G75*
G02*
X30283700Y-99113050I0J218750D01*
G01*
X30283700Y-98600550D01*
G75*
G02*
X30502450Y-98381800I218750J0D01*
G01*
X30939950Y-98381800D01*
G75*
G02*
X31158700Y-98600550I0J-218750D01*
G01*
G37*
%TD*%
D20*
%TO.C,Q1*%
X31226000Y-97266800D03*
X31226000Y-95366800D03*
X29226000Y-96316800D03*
%TD*%
D21*
%TO.C,D9*%
X31661100Y-93953600D03*
X31661100Y-90653600D03*
%TD*%
%TO.C,D6*%
X29210000Y-102157800D03*
X29210000Y-98857800D03*
%TD*%
%TO.C,C29*%
G36*
G01*
X24976298Y-89597500D02*
X24463798Y-89597500D01*
G75*
G02*
X24245048Y-89378750I0J218750D01*
G01*
X24245048Y-88941250D01*
G75*
G02*
X24463798Y-88722500I218750J0D01*
G01*
X24976298Y-88722500D01*
G75*
G02*
X25195048Y-88941250I0J-218750D01*
G01*
X25195048Y-89378750D01*
G75*
G02*
X24976298Y-89597500I-218750J0D01*
G01*
G37*
G36*
G01*
X24976298Y-88022500D02*
X24463798Y-88022500D01*
G75*
G02*
X24245048Y-87803750I0J218750D01*
G01*
X24245048Y-87366250D01*
G75*
G02*
X24463798Y-87147500I218750J0D01*
G01*
X24976298Y-87147500D01*
G75*
G02*
X25195048Y-87366250I0J-218750D01*
G01*
X25195048Y-87803750D01*
G75*
G02*
X24976298Y-88022500I-218750J0D01*
G01*
G37*
%TD*%
%TO.C,C19*%
G36*
G01*
X41026000Y-100199100D02*
X41026000Y-101299100D01*
G75*
G02*
X40776000Y-101549100I-250000J0D01*
G01*
X37776000Y-101549100D01*
G75*
G02*
X37526000Y-101299100I0J250000D01*
G01*
X37526000Y-100199100D01*
G75*
G02*
X37776000Y-99949100I250000J0D01*
G01*
X40776000Y-99949100D01*
G75*
G02*
X41026000Y-100199100I0J-250000D01*
G01*
G37*
G36*
G01*
X35626000Y-100199100D02*
X35626000Y-101299100D01*
G75*
G02*
X35376000Y-101549100I-250000J0D01*
G01*
X32376000Y-101549100D01*
G75*
G02*
X32126000Y-101299100I0J250000D01*
G01*
X32126000Y-100199100D01*
G75*
G02*
X32376000Y-99949100I250000J0D01*
G01*
X35376000Y-99949100D01*
G75*
G02*
X35626000Y-100199100I0J-250000D01*
G01*
G37*
%TD*%
%TO.C,R6*%
G36*
G01*
X33695000Y-67376250D02*
X33695000Y-66863750D01*
G75*
G02*
X33913750Y-66645000I218750J0D01*
G01*
X34351250Y-66645000D01*
G75*
G02*
X34570000Y-66863750I0J-218750D01*
G01*
X34570000Y-67376250D01*
G75*
G02*
X34351250Y-67595000I-218750J0D01*
G01*
X33913750Y-67595000D01*
G75*
G02*
X33695000Y-67376250I0J218750D01*
G01*
G37*
G36*
G01*
X35270000Y-67376250D02*
X35270000Y-66863750D01*
G75*
G02*
X35488750Y-66645000I218750J0D01*
G01*
X35926250Y-66645000D01*
G75*
G02*
X36145000Y-66863750I0J-218750D01*
G01*
X36145000Y-67376250D01*
G75*
G02*
X35926250Y-67595000I-218750J0D01*
G01*
X35488750Y-67595000D01*
G75*
G02*
X35270000Y-67376250I0J218750D01*
G01*
G37*
%TD*%
D16*
%TO.C,J17*%
X33070000Y-77780000D03*
%TD*%
%TO.C,J13*%
X37240000Y-77770000D03*
%TD*%
%TO.C,J12*%
X37240000Y-71530000D03*
%TD*%
%TO.C,J15*%
X32990000Y-62390000D03*
%TD*%
%TO.C,J11*%
X37230000Y-67230000D03*
%TD*%
%TO.C,J14*%
X33090000Y-67180000D03*
%TD*%
%TO.C,J10*%
X37160000Y-63140000D03*
%TD*%
%TO.C,R34*%
G36*
G01*
X21342900Y-100781830D02*
X21342900Y-100269330D01*
G75*
G02*
X21561650Y-100050580I218750J0D01*
G01*
X21999150Y-100050580D01*
G75*
G02*
X22217900Y-100269330I0J-218750D01*
G01*
X22217900Y-100781830D01*
G75*
G02*
X21999150Y-101000580I-218750J0D01*
G01*
X21561650Y-101000580D01*
G75*
G02*
X21342900Y-100781830I0J218750D01*
G01*
G37*
G36*
G01*
X22917900Y-100781830D02*
X22917900Y-100269330D01*
G75*
G02*
X23136650Y-100050580I218750J0D01*
G01*
X23574150Y-100050580D01*
G75*
G02*
X23792900Y-100269330I0J-218750D01*
G01*
X23792900Y-100781830D01*
G75*
G02*
X23574150Y-101000580I-218750J0D01*
G01*
X23136650Y-101000580D01*
G75*
G02*
X22917900Y-100781830I0J218750D01*
G01*
G37*
%TD*%
%TO.C,R27*%
G36*
G01*
X28993124Y-89597500D02*
X28480624Y-89597500D01*
G75*
G02*
X28261874Y-89378750I0J218750D01*
G01*
X28261874Y-88941250D01*
G75*
G02*
X28480624Y-88722500I218750J0D01*
G01*
X28993124Y-88722500D01*
G75*
G02*
X29211874Y-88941250I0J-218750D01*
G01*
X29211874Y-89378750D01*
G75*
G02*
X28993124Y-89597500I-218750J0D01*
G01*
G37*
G36*
G01*
X28993124Y-88022500D02*
X28480624Y-88022500D01*
G75*
G02*
X28261874Y-87803750I0J218750D01*
G01*
X28261874Y-87366250D01*
G75*
G02*
X28480624Y-87147500I218750J0D01*
G01*
X28993124Y-87147500D01*
G75*
G02*
X29211874Y-87366250I0J-218750D01*
G01*
X29211874Y-87803750D01*
G75*
G02*
X28993124Y-88022500I-218750J0D01*
G01*
G37*
%TD*%
%TO.C,R26*%
G36*
G01*
X29819566Y-87147500D02*
X30332066Y-87147500D01*
G75*
G02*
X30550816Y-87366250I0J-218750D01*
G01*
X30550816Y-87803750D01*
G75*
G02*
X30332066Y-88022500I-218750J0D01*
G01*
X29819566Y-88022500D01*
G75*
G02*
X29600816Y-87803750I0J218750D01*
G01*
X29600816Y-87366250D01*
G75*
G02*
X29819566Y-87147500I218750J0D01*
G01*
G37*
G36*
G01*
X29819566Y-88722500D02*
X30332066Y-88722500D01*
G75*
G02*
X30550816Y-88941250I0J-218750D01*
G01*
X30550816Y-89378750D01*
G75*
G02*
X30332066Y-89597500I-218750J0D01*
G01*
X29819566Y-89597500D01*
G75*
G02*
X29600816Y-89378750I0J218750D01*
G01*
X29600816Y-88941250D01*
G75*
G02*
X29819566Y-88722500I218750J0D01*
G01*
G37*
%TD*%
%TO.C,R19*%
G36*
G01*
X31158508Y-87147500D02*
X31671008Y-87147500D01*
G75*
G02*
X31889758Y-87366250I0J-218750D01*
G01*
X31889758Y-87803750D01*
G75*
G02*
X31671008Y-88022500I-218750J0D01*
G01*
X31158508Y-88022500D01*
G75*
G02*
X30939758Y-87803750I0J218750D01*
G01*
X30939758Y-87366250D01*
G75*
G02*
X31158508Y-87147500I218750J0D01*
G01*
G37*
G36*
G01*
X31158508Y-88722500D02*
X31671008Y-88722500D01*
G75*
G02*
X31889758Y-88941250I0J-218750D01*
G01*
X31889758Y-89378750D01*
G75*
G02*
X31671008Y-89597500I-218750J0D01*
G01*
X31158508Y-89597500D01*
G75*
G02*
X30939758Y-89378750I0J218750D01*
G01*
X30939758Y-88941250D01*
G75*
G02*
X31158508Y-88722500I218750J0D01*
G01*
G37*
%TD*%
%TO.C,C44*%
G36*
G01*
X21342900Y-102275350D02*
X21342900Y-101762850D01*
G75*
G02*
X21561650Y-101544100I218750J0D01*
G01*
X21999150Y-101544100D01*
G75*
G02*
X22217900Y-101762850I0J-218750D01*
G01*
X22217900Y-102275350D01*
G75*
G02*
X21999150Y-102494100I-218750J0D01*
G01*
X21561650Y-102494100D01*
G75*
G02*
X21342900Y-102275350I0J218750D01*
G01*
G37*
G36*
G01*
X22917900Y-102275350D02*
X22917900Y-101762850D01*
G75*
G02*
X23136650Y-101544100I218750J0D01*
G01*
X23574150Y-101544100D01*
G75*
G02*
X23792900Y-101762850I0J-218750D01*
G01*
X23792900Y-102275350D01*
G75*
G02*
X23574150Y-102494100I-218750J0D01*
G01*
X23136650Y-102494100D01*
G75*
G02*
X22917900Y-102275350I0J218750D01*
G01*
G37*
%TD*%
%TO.C,C33*%
G36*
G01*
X28124000Y-85982650D02*
X28124000Y-86495150D01*
G75*
G02*
X27905250Y-86713900I-218750J0D01*
G01*
X27467750Y-86713900D01*
G75*
G02*
X27249000Y-86495150I0J218750D01*
G01*
X27249000Y-85982650D01*
G75*
G02*
X27467750Y-85763900I218750J0D01*
G01*
X27905250Y-85763900D01*
G75*
G02*
X28124000Y-85982650I0J-218750D01*
G01*
G37*
G36*
G01*
X26549000Y-85982650D02*
X26549000Y-86495150D01*
G75*
G02*
X26330250Y-86713900I-218750J0D01*
G01*
X25892750Y-86713900D01*
G75*
G02*
X25674000Y-86495150I0J218750D01*
G01*
X25674000Y-85982650D01*
G75*
G02*
X25892750Y-85763900I218750J0D01*
G01*
X26330250Y-85763900D01*
G75*
G02*
X26549000Y-85982650I0J-218750D01*
G01*
G37*
%TD*%
%TO.C,D1*%
G36*
G01*
X59875000Y-86556250D02*
X59875000Y-86043750D01*
G75*
G02*
X60093750Y-85825000I218750J0D01*
G01*
X60531250Y-85825000D01*
G75*
G02*
X60750000Y-86043750I0J-218750D01*
G01*
X60750000Y-86556250D01*
G75*
G02*
X60531250Y-86775000I-218750J0D01*
G01*
X60093750Y-86775000D01*
G75*
G02*
X59875000Y-86556250I0J218750D01*
G01*
G37*
G36*
G01*
X61450000Y-86556250D02*
X61450000Y-86043750D01*
G75*
G02*
X61668750Y-85825000I218750J0D01*
G01*
X62106250Y-85825000D01*
G75*
G02*
X62325000Y-86043750I0J-218750D01*
G01*
X62325000Y-86556250D01*
G75*
G02*
X62106250Y-86775000I-218750J0D01*
G01*
X61668750Y-86775000D01*
G75*
G02*
X61450000Y-86556250I0J218750D01*
G01*
G37*
%TD*%
%TO.C,D2*%
G36*
G01*
X59875000Y-87926250D02*
X59875000Y-87413750D01*
G75*
G02*
X60093750Y-87195000I218750J0D01*
G01*
X60531250Y-87195000D01*
G75*
G02*
X60750000Y-87413750I0J-218750D01*
G01*
X60750000Y-87926250D01*
G75*
G02*
X60531250Y-88145000I-218750J0D01*
G01*
X60093750Y-88145000D01*
G75*
G02*
X59875000Y-87926250I0J218750D01*
G01*
G37*
G36*
G01*
X61450000Y-87926250D02*
X61450000Y-87413750D01*
G75*
G02*
X61668750Y-87195000I218750J0D01*
G01*
X62106250Y-87195000D01*
G75*
G02*
X62325000Y-87413750I0J-218750D01*
G01*
X62325000Y-87926250D01*
G75*
G02*
X62106250Y-88145000I-218750J0D01*
G01*
X61668750Y-88145000D01*
G75*
G02*
X61450000Y-87926250I0J218750D01*
G01*
G37*
%TD*%
%TO.C,L1*%
G36*
G01*
X47524350Y-93736100D02*
X48436850Y-93736100D01*
G75*
G02*
X48680600Y-93979850I0J-243750D01*
G01*
X48680600Y-94467350D01*
G75*
G02*
X48436850Y-94711100I-243750J0D01*
G01*
X47524350Y-94711100D01*
G75*
G02*
X47280600Y-94467350I0J243750D01*
G01*
X47280600Y-93979850D01*
G75*
G02*
X47524350Y-93736100I243750J0D01*
G01*
G37*
G36*
G01*
X47524350Y-95611100D02*
X48436850Y-95611100D01*
G75*
G02*
X48680600Y-95854850I0J-243750D01*
G01*
X48680600Y-96342350D01*
G75*
G02*
X48436850Y-96586100I-243750J0D01*
G01*
X47524350Y-96586100D01*
G75*
G02*
X47280600Y-96342350I0J243750D01*
G01*
X47280600Y-95854850D01*
G75*
G02*
X47524350Y-95611100I243750J0D01*
G01*
G37*
%TD*%
D21*
%TO.C,D13*%
X25184100Y-102030800D03*
X25184100Y-98730800D03*
%TD*%
D22*
%TO.C,D11*%
X27711400Y-91191100D03*
X26441400Y-91191100D03*
X25171400Y-91191100D03*
X23901400Y-91191100D03*
X23901400Y-96591100D03*
X25171400Y-96591100D03*
X27711400Y-96591100D03*
%TD*%
D23*
%TO.C,D8*%
X32300000Y-85750000D03*
X29000000Y-85750000D03*
%TD*%
D19*
%TO.C,D12*%
X40298700Y-94386400D03*
X40298700Y-91846400D03*
X34148700Y-91846400D03*
X34148700Y-94386400D03*
%TD*%
%TO.C,C24*%
G36*
G01*
X29045850Y-90675400D02*
X29958350Y-90675400D01*
G75*
G02*
X30202100Y-90919150I0J-243750D01*
G01*
X30202100Y-91406650D01*
G75*
G02*
X29958350Y-91650400I-243750J0D01*
G01*
X29045850Y-91650400D01*
G75*
G02*
X28802100Y-91406650I0J243750D01*
G01*
X28802100Y-90919150D01*
G75*
G02*
X29045850Y-90675400I243750J0D01*
G01*
G37*
G36*
G01*
X29045850Y-92550400D02*
X29958350Y-92550400D01*
G75*
G02*
X30202100Y-92794150I0J-243750D01*
G01*
X30202100Y-93281650D01*
G75*
G02*
X29958350Y-93525400I-243750J0D01*
G01*
X29045850Y-93525400D01*
G75*
G02*
X28802100Y-93281650I0J243750D01*
G01*
X28802100Y-92794150D01*
G75*
G02*
X29045850Y-92550400I243750J0D01*
G01*
G37*
%TD*%
%TO.C,C36*%
G36*
G01*
X62645000Y-71133750D02*
X62645000Y-72046250D01*
G75*
G02*
X62401250Y-72290000I-243750J0D01*
G01*
X61913750Y-72290000D01*
G75*
G02*
X61670000Y-72046250I0J243750D01*
G01*
X61670000Y-71133750D01*
G75*
G02*
X61913750Y-70890000I243750J0D01*
G01*
X62401250Y-70890000D01*
G75*
G02*
X62645000Y-71133750I0J-243750D01*
G01*
G37*
G36*
G01*
X60770000Y-71133750D02*
X60770000Y-72046250D01*
G75*
G02*
X60526250Y-72290000I-243750J0D01*
G01*
X60038750Y-72290000D01*
G75*
G02*
X59795000Y-72046250I0J243750D01*
G01*
X59795000Y-71133750D01*
G75*
G02*
X60038750Y-70890000I243750J0D01*
G01*
X60526250Y-70890000D01*
G75*
G02*
X60770000Y-71133750I0J-243750D01*
G01*
G37*
%TD*%
M02*
