M48
; DRILL file {KiCad 5.1.9+dfsg1-1} date Tue Oct 18 14:52:11 2022
; FORMAT={3:3/ absolute / metric / keep zeros}
; #@! TF.CreationDate,2022-10-18T14:52:11+03:00
; #@! TF.GenerationSoftware,Kicad,Pcbnew,5.1.9+dfsg1-1
FMAT,2
METRIC
T1C0.400
%
G90
G05
T1
X021690Y-071490
X021770Y-088739
X021770Y-091262
X021770Y-093785
X021770Y-096308
X021770Y-098831
X022320Y-063970
X023380Y-074570
X023960Y-076540
X024500Y-068290
X024800Y-079610
X024890Y-069570
X024920Y-072430
X024940Y-063460
X025240Y-073870
X025680Y-064730
X025690Y-083070
X027660Y-070600
X029400Y-074290
X029880Y-065250
X031320Y-075790
X031370Y-066740
X032920Y-078200
X033050Y-068110
X033150Y-062080
X033230Y-072990
X033890Y-075280
X033930Y-065680
X034560Y-081410
X035770Y-070730
X035810Y-076060
X035850Y-064780
X036630Y-081490
X036730Y-074940
X037260Y-073530
X037460Y-065630
X039940Y-064710
X039970Y-066550
X041200Y-081330
X041790Y-069440
X042920Y-066130
X042980Y-062480
X044250Y-075400
X044250Y-076720
X044870Y-085500
X045540Y-090929
X046440Y-073180
X046440Y-085550
X046940Y-084210
X047000Y-090929
X047440Y-082890
X047930Y-081600
X047993Y-096088
X048161Y-098692
X048397Y-090929
X049030Y-071960
X049280Y-081610
X049730Y-082940
X049797Y-090929
X049820Y-074550
X049870Y-075940
X050200Y-084330
X050370Y-063770
X050482Y-098501
X050630Y-085600
X051290Y-064950
X051765Y-097511
X051940Y-101077
X053210Y-080080
X053224Y-101077
X053230Y-073510
X053880Y-095370
X054020Y-071660
X054508Y-101077
X055530Y-096450
X055824Y-068986
X056410Y-103560
X057100Y-095400
X057630Y-086160
X058308Y-101077
X058669Y-096383
X059370Y-066590
X059560Y-101077
X060200Y-071580
X060813Y-101077
X061867Y-096774
X062830Y-080190
T0
M30
