M48
; DRILL file {KiCad 5.1.9+dfsg1-1} date Tue Mar  7 18:30:07 2023
; FORMAT={-:-/ absolute / inch / decimal}
; #@! TF.CreationDate,2023-03-07T18:30:07+03:00
; #@! TF.GenerationSoftware,Kicad,Pcbnew,5.1.9+dfsg1-1
; #@! TF.FileFunction,Plated,1,2,PTH
FMAT,2
INCH
T1C0.0157
%
G90
G05
T1
X1.0244Y-2.8027
X1.0244Y-2.902
X1.0244Y-3.0014
X1.0244Y-3.1007
X1.0244Y-3.2
X1.3996Y-2.1197
X1.4406Y-2.1587
X1.4488Y-2.385
X1.4488Y-2.4408
X1.4488Y-2.4966
X1.4488Y-2.5524
X1.4673Y-2.0547
X1.5331Y-2.6031
X1.5693Y-2.5327
X1.5811Y-1.9752
X1.5913Y-2.4756
X1.5996Y-2.0783
X1.6Y-2.1346
X1.6142Y-2.4181
X1.6358Y-2.3598
X1.7382Y-2.0587
X1.8748Y-1.8039
X1.8795Y-2.0673
X1.8795Y-2.1717
X1.9575Y-2.885
X2.0256Y-2.8626
X2.0457Y-2.915
X2.0568Y-3.0921
X2.0634Y-3.1946
X2.1059Y-2.9291
X2.1548Y-3.1871
X2.2053Y-3.1481
X2.2122Y-3.2885
X2.2628Y-3.2885
X2.2933Y-3.0799
X2.3133Y-3.2885
X2.3457Y-1.9811
X2.3535Y-3.1063
X2.3559Y-2.3039
X2.377Y-2.1443
X2.3882Y-3.3862
X2.4165Y-3.0866
X2.4629Y-3.2885
X2.4771Y-3.1037
X2.4811Y-2.6709
X2.5035Y-2.361
X2.5122Y-3.2885
X2.5615Y-3.2885
X2.603Y-3.1191
X2.6299Y-1.9646
X2.6299Y-2.4768
X2.6382Y-2.8571
T0
M30
