M48
; DRILL file {KiCad 5.1.9+dfsg1-1+deb11u1} date Thu Jan 12 13:46:55 2023
; FORMAT={-:-/ absolute / metric / decimal}
; #@! TF.CreationDate,2023-01-12T13:46:55+03:00
; #@! TF.GenerationSoftware,Kicad,Pcbnew,5.1.9+dfsg1-1+deb11u1
FMAT,2
METRIC
T1C0.400
%
G90
G05
T1
X21.69Y-71.49
X21.77Y-88.739
X21.77Y-91.262
X21.77Y-93.785
X21.77Y-96.308
X21.77Y-98.831
X22.32Y-63.97
X23.38Y-74.57
X23.96Y-76.54
X24.5Y-68.29
X24.8Y-79.61
X24.89Y-69.57
X24.92Y-72.43
X24.94Y-63.46
X25.24Y-73.87
X25.68Y-64.73
X25.69Y-83.07
X27.66Y-70.6
X29.4Y-74.29
X29.88Y-65.25
X31.32Y-75.79
X31.37Y-66.74
X32.92Y-78.2
X33.05Y-68.11
X33.15Y-62.08
X33.23Y-72.99
X33.89Y-75.28
X33.93Y-65.68
X34.56Y-81.41
X35.77Y-70.73
X35.81Y-76.06
X35.85Y-64.78
X36.63Y-81.49
X36.73Y-74.94
X37.26Y-73.53
X37.46Y-65.63
X39.94Y-64.71
X39.97Y-66.55
X41.2Y-81.33
X41.79Y-69.44
X42.92Y-66.13
X42.98Y-62.48
X44.25Y-75.4
X44.25Y-76.72
X44.87Y-85.5
X45.54Y-90.929
X46.44Y-73.18
X46.44Y-85.55
X46.94Y-84.21
X47.0Y-90.929
X47.44Y-82.89
X47.93Y-81.6
X47.993Y-96.088
X48.161Y-98.692
X48.397Y-90.929
X49.03Y-71.96
X49.28Y-81.61
X49.73Y-82.94
X49.797Y-90.929
X49.82Y-74.55
X49.87Y-75.94
X50.2Y-84.33
X50.37Y-63.77
X50.482Y-98.501
X50.63Y-85.6
X51.29Y-64.95
X51.765Y-97.511
X51.94Y-101.077
X53.21Y-80.08
X53.224Y-101.077
X53.23Y-73.51
X53.88Y-95.37
X54.02Y-71.66
X54.508Y-101.077
X55.53Y-96.45
X55.824Y-68.986
X56.41Y-103.56
X57.1Y-95.4
X57.63Y-86.16
X58.308Y-101.077
X58.669Y-96.383
X59.37Y-66.59
X59.56Y-101.077
X60.2Y-71.58
X60.813Y-101.077
X61.867Y-96.774
X62.83Y-80.19
T0
M30
