%TF.GenerationSoftware,KiCad,Pcbnew,5.1.9+dfsg1-1~bpo10+1*%
%TF.CreationDate,2022-04-20T18:47:25+03:00*%
%TF.ProjectId,Anemometr,416e656d-6f6d-4657-9472-2e6b69636164,rev?*%
%TF.SameCoordinates,Original*%
%TF.FileFunction,Soldermask,Top*%
%TF.FilePolarity,Negative*%
%FSLAX46Y46*%
G04 Gerber Fmt 4.6, Leading zero omitted, Abs format (unit mm)*
G04 Created by KiCad (PCBNEW 5.1.9+dfsg1-1~bpo10+1) date 2022-04-20 18:47:25*
%MOMM*%
%LPD*%
G01*
G04 APERTURE LIST*
%ADD10C,0.500000*%
%ADD11R,0.900000X0.800000*%
%ADD12R,1.500000X2.000000*%
%ADD13R,3.800000X2.000000*%
%ADD14R,1.900000X0.400000*%
%ADD15C,1.524000*%
%ADD16R,1.300000X0.250000*%
%ADD17R,0.250000X1.300000*%
%ADD18R,1.670000X0.700000*%
%ADD19R,2.000000X2.000000*%
G04 APERTURE END LIST*
D10*
X42096500Y-98298000D02*
G75*
G03*
X42096500Y-98298000I-250000J0D01*
G01*
X42121900Y-95465900D02*
G75*
G03*
X42121900Y-95465900I-250000J0D01*
G01*
%TO.C,C58*%
G36*
G01*
X59007900Y-68470600D02*
X61057900Y-68470600D01*
G75*
G02*
X61307900Y-68720600I0J-250000D01*
G01*
X61307900Y-70295600D01*
G75*
G02*
X61057900Y-70545600I-250000J0D01*
G01*
X59007900Y-70545600D01*
G75*
G02*
X58757900Y-70295600I0J250000D01*
G01*
X58757900Y-68720600D01*
G75*
G02*
X59007900Y-68470600I250000J0D01*
G01*
G37*
G36*
G01*
X59007900Y-62245600D02*
X61057900Y-62245600D01*
G75*
G02*
X61307900Y-62495600I0J-250000D01*
G01*
X61307900Y-64070600D01*
G75*
G02*
X61057900Y-64320600I-250000J0D01*
G01*
X59007900Y-64320600D01*
G75*
G02*
X58757900Y-64070600I0J250000D01*
G01*
X58757900Y-62495600D01*
G75*
G02*
X59007900Y-62245600I250000J0D01*
G01*
G37*
%TD*%
D11*
%TO.C,U9*%
X26508200Y-63500000D03*
X28508200Y-62550000D03*
X28508200Y-64450000D03*
%TD*%
%TO.C,U7*%
X26457400Y-75158600D03*
X28457400Y-74208600D03*
X28457400Y-76108600D03*
%TD*%
%TO.C,C56*%
G36*
G01*
X53593050Y-97098700D02*
X52680550Y-97098700D01*
G75*
G02*
X52436800Y-96854950I0J243750D01*
G01*
X52436800Y-96367450D01*
G75*
G02*
X52680550Y-96123700I243750J0D01*
G01*
X53593050Y-96123700D01*
G75*
G02*
X53836800Y-96367450I0J-243750D01*
G01*
X53836800Y-96854950D01*
G75*
G02*
X53593050Y-97098700I-243750J0D01*
G01*
G37*
G36*
G01*
X53593050Y-98973700D02*
X52680550Y-98973700D01*
G75*
G02*
X52436800Y-98729950I0J243750D01*
G01*
X52436800Y-98242450D01*
G75*
G02*
X52680550Y-97998700I243750J0D01*
G01*
X53593050Y-97998700D01*
G75*
G02*
X53836800Y-98242450I0J-243750D01*
G01*
X53836800Y-98729950D01*
G75*
G02*
X53593050Y-98973700I-243750J0D01*
G01*
G37*
%TD*%
D12*
%TO.C,U6*%
X55535800Y-84480800D03*
X60135800Y-84480800D03*
X57835800Y-84480800D03*
D13*
X57835800Y-78180800D03*
%TD*%
%TO.C,C22*%
G36*
G01*
X60560800Y-86360950D02*
X60560800Y-87273450D01*
G75*
G02*
X60317050Y-87517200I-243750J0D01*
G01*
X59829550Y-87517200D01*
G75*
G02*
X59585800Y-87273450I0J243750D01*
G01*
X59585800Y-86360950D01*
G75*
G02*
X59829550Y-86117200I243750J0D01*
G01*
X60317050Y-86117200D01*
G75*
G02*
X60560800Y-86360950I0J-243750D01*
G01*
G37*
G36*
G01*
X62435800Y-86360950D02*
X62435800Y-87273450D01*
G75*
G02*
X62192050Y-87517200I-243750J0D01*
G01*
X61704550Y-87517200D01*
G75*
G02*
X61460800Y-87273450I0J243750D01*
G01*
X61460800Y-86360950D01*
G75*
G02*
X61704550Y-86117200I243750J0D01*
G01*
X62192050Y-86117200D01*
G75*
G02*
X62435800Y-86360950I0J-243750D01*
G01*
G37*
%TD*%
D14*
%TO.C,Y1*%
X30594300Y-68471900D03*
X30594300Y-67271900D03*
X30594300Y-66071900D03*
%TD*%
D15*
%TO.C,J7*%
X32207200Y-61531500D03*
%TD*%
%TO.C,C49*%
G36*
G01*
X22430900Y-98653300D02*
X21180900Y-98653300D01*
G75*
G02*
X20930900Y-98403300I0J250000D01*
G01*
X20930900Y-97653300D01*
G75*
G02*
X21180900Y-97403300I250000J0D01*
G01*
X22430900Y-97403300D01*
G75*
G02*
X22680900Y-97653300I0J-250000D01*
G01*
X22680900Y-98403300D01*
G75*
G02*
X22430900Y-98653300I-250000J0D01*
G01*
G37*
G36*
G01*
X22430900Y-101453300D02*
X21180900Y-101453300D01*
G75*
G02*
X20930900Y-101203300I0J250000D01*
G01*
X20930900Y-100453300D01*
G75*
G02*
X21180900Y-100203300I250000J0D01*
G01*
X22430900Y-100203300D01*
G75*
G02*
X22680900Y-100453300I0J-250000D01*
G01*
X22680900Y-101203300D01*
G75*
G02*
X22430900Y-101453300I-250000J0D01*
G01*
G37*
%TD*%
%TO.C,R1*%
G36*
G01*
X60047150Y-90315300D02*
X59534650Y-90315300D01*
G75*
G02*
X59315900Y-90096550I0J218750D01*
G01*
X59315900Y-89659050D01*
G75*
G02*
X59534650Y-89440300I218750J0D01*
G01*
X60047150Y-89440300D01*
G75*
G02*
X60265900Y-89659050I0J-218750D01*
G01*
X60265900Y-90096550D01*
G75*
G02*
X60047150Y-90315300I-218750J0D01*
G01*
G37*
G36*
G01*
X60047150Y-91890300D02*
X59534650Y-91890300D01*
G75*
G02*
X59315900Y-91671550I0J218750D01*
G01*
X59315900Y-91234050D01*
G75*
G02*
X59534650Y-91015300I218750J0D01*
G01*
X60047150Y-91015300D01*
G75*
G02*
X60265900Y-91234050I0J-218750D01*
G01*
X60265900Y-91671550D01*
G75*
G02*
X60047150Y-91890300I-218750J0D01*
G01*
G37*
%TD*%
%TO.C,R4*%
G36*
G01*
X46386000Y-66952150D02*
X46386000Y-67464650D01*
G75*
G02*
X46167250Y-67683400I-218750J0D01*
G01*
X45729750Y-67683400D01*
G75*
G02*
X45511000Y-67464650I0J218750D01*
G01*
X45511000Y-66952150D01*
G75*
G02*
X45729750Y-66733400I218750J0D01*
G01*
X46167250Y-66733400D01*
G75*
G02*
X46386000Y-66952150I0J-218750D01*
G01*
G37*
G36*
G01*
X47961000Y-66952150D02*
X47961000Y-67464650D01*
G75*
G02*
X47742250Y-67683400I-218750J0D01*
G01*
X47304750Y-67683400D01*
G75*
G02*
X47086000Y-67464650I0J218750D01*
G01*
X47086000Y-66952150D01*
G75*
G02*
X47304750Y-66733400I218750J0D01*
G01*
X47742250Y-66733400D01*
G75*
G02*
X47961000Y-66952150I0J-218750D01*
G01*
G37*
%TD*%
D16*
%TO.C,D3*%
X44479100Y-89647900D03*
X44479100Y-90147900D03*
X44479100Y-90647900D03*
X44479100Y-91147900D03*
X44479100Y-91647900D03*
X44479100Y-92147900D03*
X44479100Y-92647900D03*
X44479100Y-93147900D03*
X44479100Y-93647900D03*
X44479100Y-94147900D03*
X44479100Y-94647900D03*
X44479100Y-95147900D03*
D17*
X46079100Y-96747900D03*
X46579100Y-96747900D03*
X47079100Y-96747900D03*
X47579100Y-96747900D03*
X48079100Y-96747900D03*
X48579100Y-96747900D03*
X49079100Y-96747900D03*
X49579100Y-96747900D03*
X50079100Y-96747900D03*
X50579100Y-96747900D03*
X51079100Y-96747900D03*
X51579100Y-96747900D03*
D16*
X53179100Y-95147900D03*
X53179100Y-94647900D03*
X53179100Y-94147900D03*
X53179100Y-93647900D03*
X53179100Y-93147900D03*
X53179100Y-92647900D03*
X53179100Y-92147900D03*
X53179100Y-91647900D03*
X53179100Y-91147900D03*
X53179100Y-90647900D03*
X53179100Y-90147900D03*
X53179100Y-89647900D03*
D17*
X51579100Y-88047900D03*
X51079100Y-88047900D03*
X50579100Y-88047900D03*
X50079100Y-88047900D03*
X49579100Y-88047900D03*
X49079100Y-88047900D03*
X48579100Y-88047900D03*
X48079100Y-88047900D03*
X47579100Y-88047900D03*
X47079100Y-88047900D03*
X46579100Y-88047900D03*
X46079100Y-88047900D03*
%TD*%
%TO.C,R40*%
G36*
G01*
X21579550Y-92919000D02*
X21067050Y-92919000D01*
G75*
G02*
X20848300Y-92700250I0J218750D01*
G01*
X20848300Y-92262750D01*
G75*
G02*
X21067050Y-92044000I218750J0D01*
G01*
X21579550Y-92044000D01*
G75*
G02*
X21798300Y-92262750I0J-218750D01*
G01*
X21798300Y-92700250D01*
G75*
G02*
X21579550Y-92919000I-218750J0D01*
G01*
G37*
G36*
G01*
X21579550Y-91344000D02*
X21067050Y-91344000D01*
G75*
G02*
X20848300Y-91125250I0J218750D01*
G01*
X20848300Y-90687750D01*
G75*
G02*
X21067050Y-90469000I218750J0D01*
G01*
X21579550Y-90469000D01*
G75*
G02*
X21798300Y-90687750I0J-218750D01*
G01*
X21798300Y-91125250D01*
G75*
G02*
X21579550Y-91344000I-218750J0D01*
G01*
G37*
%TD*%
%TO.C,R36*%
G36*
G01*
X26244000Y-87119750D02*
X26244000Y-87632250D01*
G75*
G02*
X26025250Y-87851000I-218750J0D01*
G01*
X25587750Y-87851000D01*
G75*
G02*
X25369000Y-87632250I0J218750D01*
G01*
X25369000Y-87119750D01*
G75*
G02*
X25587750Y-86901000I218750J0D01*
G01*
X26025250Y-86901000D01*
G75*
G02*
X26244000Y-87119750I0J-218750D01*
G01*
G37*
G36*
G01*
X24669000Y-87119750D02*
X24669000Y-87632250D01*
G75*
G02*
X24450250Y-87851000I-218750J0D01*
G01*
X24012750Y-87851000D01*
G75*
G02*
X23794000Y-87632250I0J218750D01*
G01*
X23794000Y-87119750D01*
G75*
G02*
X24012750Y-86901000I218750J0D01*
G01*
X24450250Y-86901000D01*
G75*
G02*
X24669000Y-87119750I0J-218750D01*
G01*
G37*
%TD*%
%TO.C,R32*%
G36*
G01*
X26244000Y-91221850D02*
X26244000Y-91734350D01*
G75*
G02*
X26025250Y-91953100I-218750J0D01*
G01*
X25587750Y-91953100D01*
G75*
G02*
X25369000Y-91734350I0J218750D01*
G01*
X25369000Y-91221850D01*
G75*
G02*
X25587750Y-91003100I218750J0D01*
G01*
X26025250Y-91003100D01*
G75*
G02*
X26244000Y-91221850I0J-218750D01*
G01*
G37*
G36*
G01*
X24669000Y-91221850D02*
X24669000Y-91734350D01*
G75*
G02*
X24450250Y-91953100I-218750J0D01*
G01*
X24012750Y-91953100D01*
G75*
G02*
X23794000Y-91734350I0J218750D01*
G01*
X23794000Y-91221850D01*
G75*
G02*
X24012750Y-91003100I218750J0D01*
G01*
X24450250Y-91003100D01*
G75*
G02*
X24669000Y-91221850I0J-218750D01*
G01*
G37*
%TD*%
%TO.C,R35*%
G36*
G01*
X26193200Y-96492350D02*
X26193200Y-97004850D01*
G75*
G02*
X25974450Y-97223600I-218750J0D01*
G01*
X25536950Y-97223600D01*
G75*
G02*
X25318200Y-97004850I0J218750D01*
G01*
X25318200Y-96492350D01*
G75*
G02*
X25536950Y-96273600I218750J0D01*
G01*
X25974450Y-96273600D01*
G75*
G02*
X26193200Y-96492350I0J-218750D01*
G01*
G37*
G36*
G01*
X24618200Y-96492350D02*
X24618200Y-97004850D01*
G75*
G02*
X24399450Y-97223600I-218750J0D01*
G01*
X23961950Y-97223600D01*
G75*
G02*
X23743200Y-97004850I0J218750D01*
G01*
X23743200Y-96492350D01*
G75*
G02*
X23961950Y-96273600I218750J0D01*
G01*
X24399450Y-96273600D01*
G75*
G02*
X24618200Y-96492350I0J-218750D01*
G01*
G37*
%TD*%
%TO.C,R2*%
G36*
G01*
X56415650Y-99992900D02*
X55903150Y-99992900D01*
G75*
G02*
X55684400Y-99774150I0J218750D01*
G01*
X55684400Y-99336650D01*
G75*
G02*
X55903150Y-99117900I218750J0D01*
G01*
X56415650Y-99117900D01*
G75*
G02*
X56634400Y-99336650I0J-218750D01*
G01*
X56634400Y-99774150D01*
G75*
G02*
X56415650Y-99992900I-218750J0D01*
G01*
G37*
G36*
G01*
X56415650Y-98417900D02*
X55903150Y-98417900D01*
G75*
G02*
X55684400Y-98199150I0J218750D01*
G01*
X55684400Y-97761650D01*
G75*
G02*
X55903150Y-97542900I218750J0D01*
G01*
X56415650Y-97542900D01*
G75*
G02*
X56634400Y-97761650I0J-218750D01*
G01*
X56634400Y-98199150D01*
G75*
G02*
X56415650Y-98417900I-218750J0D01*
G01*
G37*
%TD*%
%TO.C,R3*%
G36*
G01*
X54980550Y-99980200D02*
X54468050Y-99980200D01*
G75*
G02*
X54249300Y-99761450I0J218750D01*
G01*
X54249300Y-99323950D01*
G75*
G02*
X54468050Y-99105200I218750J0D01*
G01*
X54980550Y-99105200D01*
G75*
G02*
X55199300Y-99323950I0J-218750D01*
G01*
X55199300Y-99761450D01*
G75*
G02*
X54980550Y-99980200I-218750J0D01*
G01*
G37*
G36*
G01*
X54980550Y-98405200D02*
X54468050Y-98405200D01*
G75*
G02*
X54249300Y-98186450I0J218750D01*
G01*
X54249300Y-97748950D01*
G75*
G02*
X54468050Y-97530200I218750J0D01*
G01*
X54980550Y-97530200D01*
G75*
G02*
X55199300Y-97748950I0J-218750D01*
G01*
X55199300Y-98186450D01*
G75*
G02*
X54980550Y-98405200I-218750J0D01*
G01*
G37*
%TD*%
%TO.C,C3*%
G36*
G01*
X28564550Y-71875100D02*
X28052050Y-71875100D01*
G75*
G02*
X27833300Y-71656350I0J218750D01*
G01*
X27833300Y-71218850D01*
G75*
G02*
X28052050Y-71000100I218750J0D01*
G01*
X28564550Y-71000100D01*
G75*
G02*
X28783300Y-71218850I0J-218750D01*
G01*
X28783300Y-71656350D01*
G75*
G02*
X28564550Y-71875100I-218750J0D01*
G01*
G37*
G36*
G01*
X28564550Y-70300100D02*
X28052050Y-70300100D01*
G75*
G02*
X27833300Y-70081350I0J218750D01*
G01*
X27833300Y-69643850D01*
G75*
G02*
X28052050Y-69425100I218750J0D01*
G01*
X28564550Y-69425100D01*
G75*
G02*
X28783300Y-69643850I0J-218750D01*
G01*
X28783300Y-70081350D01*
G75*
G02*
X28564550Y-70300100I-218750J0D01*
G01*
G37*
%TD*%
%TO.C,R11*%
G36*
G01*
X40507200Y-94414050D02*
X40507200Y-93901550D01*
G75*
G02*
X40725950Y-93682800I218750J0D01*
G01*
X41163450Y-93682800D01*
G75*
G02*
X41382200Y-93901550I0J-218750D01*
G01*
X41382200Y-94414050D01*
G75*
G02*
X41163450Y-94632800I-218750J0D01*
G01*
X40725950Y-94632800D01*
G75*
G02*
X40507200Y-94414050I0J218750D01*
G01*
G37*
G36*
G01*
X42082200Y-94414050D02*
X42082200Y-93901550D01*
G75*
G02*
X42300950Y-93682800I218750J0D01*
G01*
X42738450Y-93682800D01*
G75*
G02*
X42957200Y-93901550I0J-218750D01*
G01*
X42957200Y-94414050D01*
G75*
G02*
X42738450Y-94632800I-218750J0D01*
G01*
X42300950Y-94632800D01*
G75*
G02*
X42082200Y-94414050I0J218750D01*
G01*
G37*
%TD*%
%TO.C,R18*%
G36*
G01*
X41002500Y-97157250D02*
X41002500Y-96644750D01*
G75*
G02*
X41221250Y-96426000I218750J0D01*
G01*
X41658750Y-96426000D01*
G75*
G02*
X41877500Y-96644750I0J-218750D01*
G01*
X41877500Y-97157250D01*
G75*
G02*
X41658750Y-97376000I-218750J0D01*
G01*
X41221250Y-97376000D01*
G75*
G02*
X41002500Y-97157250I0J218750D01*
G01*
G37*
G36*
G01*
X42577500Y-97157250D02*
X42577500Y-96644750D01*
G75*
G02*
X42796250Y-96426000I218750J0D01*
G01*
X43233750Y-96426000D01*
G75*
G02*
X43452500Y-96644750I0J-218750D01*
G01*
X43452500Y-97157250D01*
G75*
G02*
X43233750Y-97376000I-218750J0D01*
G01*
X42796250Y-97376000D01*
G75*
G02*
X42577500Y-97157250I0J218750D01*
G01*
G37*
%TD*%
%TO.C,R12*%
G36*
G01*
X40507200Y-90807250D02*
X40507200Y-90294750D01*
G75*
G02*
X40725950Y-90076000I218750J0D01*
G01*
X41163450Y-90076000D01*
G75*
G02*
X41382200Y-90294750I0J-218750D01*
G01*
X41382200Y-90807250D01*
G75*
G02*
X41163450Y-91026000I-218750J0D01*
G01*
X40725950Y-91026000D01*
G75*
G02*
X40507200Y-90807250I0J218750D01*
G01*
G37*
G36*
G01*
X42082200Y-90807250D02*
X42082200Y-90294750D01*
G75*
G02*
X42300950Y-90076000I218750J0D01*
G01*
X42738450Y-90076000D01*
G75*
G02*
X42957200Y-90294750I0J-218750D01*
G01*
X42957200Y-90807250D01*
G75*
G02*
X42738450Y-91026000I-218750J0D01*
G01*
X42300950Y-91026000D01*
G75*
G02*
X42082200Y-90807250I0J218750D01*
G01*
G37*
%TD*%
%TO.C,R14*%
G36*
G01*
X40507200Y-88089450D02*
X40507200Y-87576950D01*
G75*
G02*
X40725950Y-87358200I218750J0D01*
G01*
X41163450Y-87358200D01*
G75*
G02*
X41382200Y-87576950I0J-218750D01*
G01*
X41382200Y-88089450D01*
G75*
G02*
X41163450Y-88308200I-218750J0D01*
G01*
X40725950Y-88308200D01*
G75*
G02*
X40507200Y-88089450I0J218750D01*
G01*
G37*
G36*
G01*
X42082200Y-88089450D02*
X42082200Y-87576950D01*
G75*
G02*
X42300950Y-87358200I218750J0D01*
G01*
X42738450Y-87358200D01*
G75*
G02*
X42957200Y-87576950I0J-218750D01*
G01*
X42957200Y-88089450D01*
G75*
G02*
X42738450Y-88308200I-218750J0D01*
G01*
X42300950Y-88308200D01*
G75*
G02*
X42082200Y-88089450I0J218750D01*
G01*
G37*
%TD*%
D18*
%TO.C,D10*%
X39164600Y-98310700D03*
X39164600Y-97040700D03*
X39164600Y-95770700D03*
X39164600Y-94500700D03*
X39164600Y-93230700D03*
X39164600Y-91960700D03*
X39164600Y-90690700D03*
X39164600Y-89420700D03*
X30634600Y-89420700D03*
X30634600Y-90690700D03*
X30634600Y-91960700D03*
X30634600Y-93230700D03*
X30634600Y-95770700D03*
X30634600Y-97040700D03*
X30634600Y-98310700D03*
X30634600Y-94500700D03*
%TD*%
D15*
%TO.C,J6*%
X30060900Y-62496700D03*
%TD*%
%TO.C,J4*%
X34556700Y-61887100D03*
%TD*%
%TO.C,J3*%
X36584466Y-61887100D03*
%TD*%
%TO.C,C48*%
G36*
G01*
X21041650Y-93390000D02*
X21554150Y-93390000D01*
G75*
G02*
X21772900Y-93608750I0J-218750D01*
G01*
X21772900Y-94046250D01*
G75*
G02*
X21554150Y-94265000I-218750J0D01*
G01*
X21041650Y-94265000D01*
G75*
G02*
X20822900Y-94046250I0J218750D01*
G01*
X20822900Y-93608750D01*
G75*
G02*
X21041650Y-93390000I218750J0D01*
G01*
G37*
G36*
G01*
X21041650Y-94965000D02*
X21554150Y-94965000D01*
G75*
G02*
X21772900Y-95183750I0J-218750D01*
G01*
X21772900Y-95621250D01*
G75*
G02*
X21554150Y-95840000I-218750J0D01*
G01*
X21041650Y-95840000D01*
G75*
G02*
X20822900Y-95621250I0J218750D01*
G01*
X20822900Y-95183750D01*
G75*
G02*
X21041650Y-94965000I218750J0D01*
G01*
G37*
%TD*%
%TO.C,C46*%
G36*
G01*
X26244000Y-88478650D02*
X26244000Y-88991150D01*
G75*
G02*
X26025250Y-89209900I-218750J0D01*
G01*
X25587750Y-89209900D01*
G75*
G02*
X25369000Y-88991150I0J218750D01*
G01*
X25369000Y-88478650D01*
G75*
G02*
X25587750Y-88259900I218750J0D01*
G01*
X26025250Y-88259900D01*
G75*
G02*
X26244000Y-88478650I0J-218750D01*
G01*
G37*
G36*
G01*
X24669000Y-88478650D02*
X24669000Y-88991150D01*
G75*
G02*
X24450250Y-89209900I-218750J0D01*
G01*
X24012750Y-89209900D01*
G75*
G02*
X23794000Y-88991150I0J218750D01*
G01*
X23794000Y-88478650D01*
G75*
G02*
X24012750Y-88259900I218750J0D01*
G01*
X24450250Y-88259900D01*
G75*
G02*
X24669000Y-88478650I0J-218750D01*
G01*
G37*
%TD*%
%TO.C,C45*%
G36*
G01*
X26193200Y-97851250D02*
X26193200Y-98363750D01*
G75*
G02*
X25974450Y-98582500I-218750J0D01*
G01*
X25536950Y-98582500D01*
G75*
G02*
X25318200Y-98363750I0J218750D01*
G01*
X25318200Y-97851250D01*
G75*
G02*
X25536950Y-97632500I218750J0D01*
G01*
X25974450Y-97632500D01*
G75*
G02*
X26193200Y-97851250I0J-218750D01*
G01*
G37*
G36*
G01*
X24618200Y-97851250D02*
X24618200Y-98363750D01*
G75*
G02*
X24399450Y-98582500I-218750J0D01*
G01*
X23961950Y-98582500D01*
G75*
G02*
X23743200Y-98363750I0J218750D01*
G01*
X23743200Y-97851250D01*
G75*
G02*
X23961950Y-97632500I218750J0D01*
G01*
X24399450Y-97632500D01*
G75*
G02*
X24618200Y-97851250I0J-218750D01*
G01*
G37*
%TD*%
%TO.C,C42*%
G36*
G01*
X26244000Y-89875650D02*
X26244000Y-90388150D01*
G75*
G02*
X26025250Y-90606900I-218750J0D01*
G01*
X25587750Y-90606900D01*
G75*
G02*
X25369000Y-90388150I0J218750D01*
G01*
X25369000Y-89875650D01*
G75*
G02*
X25587750Y-89656900I218750J0D01*
G01*
X26025250Y-89656900D01*
G75*
G02*
X26244000Y-89875650I0J-218750D01*
G01*
G37*
G36*
G01*
X24669000Y-89875650D02*
X24669000Y-90388150D01*
G75*
G02*
X24450250Y-90606900I-218750J0D01*
G01*
X24012750Y-90606900D01*
G75*
G02*
X23794000Y-90388150I0J218750D01*
G01*
X23794000Y-89875650D01*
G75*
G02*
X24012750Y-89656900I218750J0D01*
G01*
X24450250Y-89656900D01*
G75*
G02*
X24669000Y-89875650I0J-218750D01*
G01*
G37*
%TD*%
%TO.C,R8*%
G36*
G01*
X43169550Y-82276400D02*
X42657050Y-82276400D01*
G75*
G02*
X42438300Y-82057650I0J218750D01*
G01*
X42438300Y-81620150D01*
G75*
G02*
X42657050Y-81401400I218750J0D01*
G01*
X43169550Y-81401400D01*
G75*
G02*
X43388300Y-81620150I0J-218750D01*
G01*
X43388300Y-82057650D01*
G75*
G02*
X43169550Y-82276400I-218750J0D01*
G01*
G37*
G36*
G01*
X43169550Y-80701400D02*
X42657050Y-80701400D01*
G75*
G02*
X42438300Y-80482650I0J218750D01*
G01*
X42438300Y-80045150D01*
G75*
G02*
X42657050Y-79826400I218750J0D01*
G01*
X43169550Y-79826400D01*
G75*
G02*
X43388300Y-80045150I0J-218750D01*
G01*
X43388300Y-80482650D01*
G75*
G02*
X43169550Y-80701400I-218750J0D01*
G01*
G37*
%TD*%
%TO.C,R7*%
G36*
G01*
X39257950Y-82276400D02*
X38745450Y-82276400D01*
G75*
G02*
X38526700Y-82057650I0J218750D01*
G01*
X38526700Y-81620150D01*
G75*
G02*
X38745450Y-81401400I218750J0D01*
G01*
X39257950Y-81401400D01*
G75*
G02*
X39476700Y-81620150I0J-218750D01*
G01*
X39476700Y-82057650D01*
G75*
G02*
X39257950Y-82276400I-218750J0D01*
G01*
G37*
G36*
G01*
X39257950Y-80701400D02*
X38745450Y-80701400D01*
G75*
G02*
X38526700Y-80482650I0J218750D01*
G01*
X38526700Y-80045150D01*
G75*
G02*
X38745450Y-79826400I218750J0D01*
G01*
X39257950Y-79826400D01*
G75*
G02*
X39476700Y-80045150I0J-218750D01*
G01*
X39476700Y-80482650D01*
G75*
G02*
X39257950Y-80701400I-218750J0D01*
G01*
G37*
%TD*%
%TO.C,R6*%
G36*
G01*
X35346350Y-82276400D02*
X34833850Y-82276400D01*
G75*
G02*
X34615100Y-82057650I0J218750D01*
G01*
X34615100Y-81620150D01*
G75*
G02*
X34833850Y-81401400I218750J0D01*
G01*
X35346350Y-81401400D01*
G75*
G02*
X35565100Y-81620150I0J-218750D01*
G01*
X35565100Y-82057650D01*
G75*
G02*
X35346350Y-82276400I-218750J0D01*
G01*
G37*
G36*
G01*
X35346350Y-80701400D02*
X34833850Y-80701400D01*
G75*
G02*
X34615100Y-80482650I0J218750D01*
G01*
X34615100Y-80045150D01*
G75*
G02*
X34833850Y-79826400I218750J0D01*
G01*
X35346350Y-79826400D01*
G75*
G02*
X35565100Y-80045150I0J-218750D01*
G01*
X35565100Y-80482650D01*
G75*
G02*
X35346350Y-80701400I-218750J0D01*
G01*
G37*
%TD*%
%TO.C,R5*%
G36*
G01*
X31434750Y-82276400D02*
X30922250Y-82276400D01*
G75*
G02*
X30703500Y-82057650I0J218750D01*
G01*
X30703500Y-81620150D01*
G75*
G02*
X30922250Y-81401400I218750J0D01*
G01*
X31434750Y-81401400D01*
G75*
G02*
X31653500Y-81620150I0J-218750D01*
G01*
X31653500Y-82057650D01*
G75*
G02*
X31434750Y-82276400I-218750J0D01*
G01*
G37*
G36*
G01*
X31434750Y-80701400D02*
X30922250Y-80701400D01*
G75*
G02*
X30703500Y-80482650I0J218750D01*
G01*
X30703500Y-80045150D01*
G75*
G02*
X30922250Y-79826400I218750J0D01*
G01*
X31434750Y-79826400D01*
G75*
G02*
X31653500Y-80045150I0J-218750D01*
G01*
X31653500Y-80482650D01*
G75*
G02*
X31434750Y-80701400I-218750J0D01*
G01*
G37*
%TD*%
%TO.C,J17*%
X39789100Y-82219800D03*
%TD*%
%TO.C,J13*%
X42926000Y-79070200D03*
%TD*%
%TO.C,J16*%
X43688000Y-82219800D03*
%TD*%
%TO.C,J12*%
X39005932Y-79070200D03*
%TD*%
%TO.C,J15*%
X31991300Y-82219800D03*
%TD*%
%TO.C,J11*%
X35085866Y-79070200D03*
%TD*%
%TO.C,J14*%
X35890200Y-82219800D03*
%TD*%
%TO.C,J10*%
X31165800Y-79070200D03*
%TD*%
%TO.C,R10*%
G36*
G01*
X41002500Y-98541550D02*
X41002500Y-98029050D01*
G75*
G02*
X41221250Y-97810300I218750J0D01*
G01*
X41658750Y-97810300D01*
G75*
G02*
X41877500Y-98029050I0J-218750D01*
G01*
X41877500Y-98541550D01*
G75*
G02*
X41658750Y-98760300I-218750J0D01*
G01*
X41221250Y-98760300D01*
G75*
G02*
X41002500Y-98541550I0J218750D01*
G01*
G37*
G36*
G01*
X42577500Y-98541550D02*
X42577500Y-98029050D01*
G75*
G02*
X42796250Y-97810300I218750J0D01*
G01*
X43233750Y-97810300D01*
G75*
G02*
X43452500Y-98029050I0J-218750D01*
G01*
X43452500Y-98541550D01*
G75*
G02*
X43233750Y-98760300I-218750J0D01*
G01*
X42796250Y-98760300D01*
G75*
G02*
X42577500Y-98541550I0J218750D01*
G01*
G37*
%TD*%
%TO.C,R9*%
G36*
G01*
X41002500Y-95785650D02*
X41002500Y-95273150D01*
G75*
G02*
X41221250Y-95054400I218750J0D01*
G01*
X41658750Y-95054400D01*
G75*
G02*
X41877500Y-95273150I0J-218750D01*
G01*
X41877500Y-95785650D01*
G75*
G02*
X41658750Y-96004400I-218750J0D01*
G01*
X41221250Y-96004400D01*
G75*
G02*
X41002500Y-95785650I0J218750D01*
G01*
G37*
G36*
G01*
X42577500Y-95785650D02*
X42577500Y-95273150D01*
G75*
G02*
X42796250Y-95054400I218750J0D01*
G01*
X43233750Y-95054400D01*
G75*
G02*
X43452500Y-95273150I0J-218750D01*
G01*
X43452500Y-95785650D01*
G75*
G02*
X43233750Y-96004400I-218750J0D01*
G01*
X42796250Y-96004400D01*
G75*
G02*
X42577500Y-95785650I0J218750D01*
G01*
G37*
%TD*%
%TO.C,C15*%
G36*
G01*
X46057100Y-86705150D02*
X46057100Y-86192650D01*
G75*
G02*
X46275850Y-85973900I218750J0D01*
G01*
X46713350Y-85973900D01*
G75*
G02*
X46932100Y-86192650I0J-218750D01*
G01*
X46932100Y-86705150D01*
G75*
G02*
X46713350Y-86923900I-218750J0D01*
G01*
X46275850Y-86923900D01*
G75*
G02*
X46057100Y-86705150I0J218750D01*
G01*
G37*
G36*
G01*
X47632100Y-86705150D02*
X47632100Y-86192650D01*
G75*
G02*
X47850850Y-85973900I218750J0D01*
G01*
X48288350Y-85973900D01*
G75*
G02*
X48507100Y-86192650I0J-218750D01*
G01*
X48507100Y-86705150D01*
G75*
G02*
X48288350Y-86923900I-218750J0D01*
G01*
X47850850Y-86923900D01*
G75*
G02*
X47632100Y-86705150I0J218750D01*
G01*
G37*
%TD*%
%TO.C,C39*%
G36*
G01*
X44587450Y-96438000D02*
X45099950Y-96438000D01*
G75*
G02*
X45318700Y-96656750I0J-218750D01*
G01*
X45318700Y-97094250D01*
G75*
G02*
X45099950Y-97313000I-218750J0D01*
G01*
X44587450Y-97313000D01*
G75*
G02*
X44368700Y-97094250I0J218750D01*
G01*
X44368700Y-96656750D01*
G75*
G02*
X44587450Y-96438000I218750J0D01*
G01*
G37*
G36*
G01*
X44587450Y-98013000D02*
X45099950Y-98013000D01*
G75*
G02*
X45318700Y-98231750I0J-218750D01*
G01*
X45318700Y-98669250D01*
G75*
G02*
X45099950Y-98888000I-218750J0D01*
G01*
X44587450Y-98888000D01*
G75*
G02*
X44368700Y-98669250I0J218750D01*
G01*
X44368700Y-98231750D01*
G75*
G02*
X44587450Y-98013000I218750J0D01*
G01*
G37*
%TD*%
%TO.C,C26*%
G36*
G01*
X42957200Y-88935850D02*
X42957200Y-89448350D01*
G75*
G02*
X42738450Y-89667100I-218750J0D01*
G01*
X42300950Y-89667100D01*
G75*
G02*
X42082200Y-89448350I0J218750D01*
G01*
X42082200Y-88935850D01*
G75*
G02*
X42300950Y-88717100I218750J0D01*
G01*
X42738450Y-88717100D01*
G75*
G02*
X42957200Y-88935850I0J-218750D01*
G01*
G37*
G36*
G01*
X41382200Y-88935850D02*
X41382200Y-89448350D01*
G75*
G02*
X41163450Y-89667100I-218750J0D01*
G01*
X40725950Y-89667100D01*
G75*
G02*
X40507200Y-89448350I0J218750D01*
G01*
X40507200Y-88935850D01*
G75*
G02*
X40725950Y-88717100I218750J0D01*
G01*
X41163450Y-88717100D01*
G75*
G02*
X41382200Y-88935850I0J-218750D01*
G01*
G37*
%TD*%
%TO.C,C25*%
G36*
G01*
X42957200Y-91653650D02*
X42957200Y-92166150D01*
G75*
G02*
X42738450Y-92384900I-218750J0D01*
G01*
X42300950Y-92384900D01*
G75*
G02*
X42082200Y-92166150I0J218750D01*
G01*
X42082200Y-91653650D01*
G75*
G02*
X42300950Y-91434900I218750J0D01*
G01*
X42738450Y-91434900D01*
G75*
G02*
X42957200Y-91653650I0J-218750D01*
G01*
G37*
G36*
G01*
X41382200Y-91653650D02*
X41382200Y-92166150D01*
G75*
G02*
X41163450Y-92384900I-218750J0D01*
G01*
X40725950Y-92384900D01*
G75*
G02*
X40507200Y-92166150I0J218750D01*
G01*
X40507200Y-91653650D01*
G75*
G02*
X40725950Y-91434900I218750J0D01*
G01*
X41163450Y-91434900D01*
G75*
G02*
X41382200Y-91653650I0J-218750D01*
G01*
G37*
%TD*%
%TO.C,C20*%
G36*
G01*
X38818100Y-100078250D02*
X38818100Y-99565750D01*
G75*
G02*
X39036850Y-99347000I218750J0D01*
G01*
X39474350Y-99347000D01*
G75*
G02*
X39693100Y-99565750I0J-218750D01*
G01*
X39693100Y-100078250D01*
G75*
G02*
X39474350Y-100297000I-218750J0D01*
G01*
X39036850Y-100297000D01*
G75*
G02*
X38818100Y-100078250I0J218750D01*
G01*
G37*
G36*
G01*
X40393100Y-100078250D02*
X40393100Y-99565750D01*
G75*
G02*
X40611850Y-99347000I218750J0D01*
G01*
X41049350Y-99347000D01*
G75*
G02*
X41268100Y-99565750I0J-218750D01*
G01*
X41268100Y-100078250D01*
G75*
G02*
X41049350Y-100297000I-218750J0D01*
G01*
X40611850Y-100297000D01*
G75*
G02*
X40393100Y-100078250I0J218750D01*
G01*
G37*
%TD*%
%TO.C,C16*%
G36*
G01*
X39278850Y-86138300D02*
X39791350Y-86138300D01*
G75*
G02*
X40010100Y-86357050I0J-218750D01*
G01*
X40010100Y-86794550D01*
G75*
G02*
X39791350Y-87013300I-218750J0D01*
G01*
X39278850Y-87013300D01*
G75*
G02*
X39060100Y-86794550I0J218750D01*
G01*
X39060100Y-86357050D01*
G75*
G02*
X39278850Y-86138300I218750J0D01*
G01*
G37*
G36*
G01*
X39278850Y-87713300D02*
X39791350Y-87713300D01*
G75*
G02*
X40010100Y-87932050I0J-218750D01*
G01*
X40010100Y-88369550D01*
G75*
G02*
X39791350Y-88588300I-218750J0D01*
G01*
X39278850Y-88588300D01*
G75*
G02*
X39060100Y-88369550I0J218750D01*
G01*
X39060100Y-87932050D01*
G75*
G02*
X39278850Y-87713300I218750J0D01*
G01*
G37*
%TD*%
%TO.C,C12*%
G36*
G01*
X49951350Y-100323100D02*
X49438850Y-100323100D01*
G75*
G02*
X49220100Y-100104350I0J218750D01*
G01*
X49220100Y-99666850D01*
G75*
G02*
X49438850Y-99448100I218750J0D01*
G01*
X49951350Y-99448100D01*
G75*
G02*
X50170100Y-99666850I0J-218750D01*
G01*
X50170100Y-100104350D01*
G75*
G02*
X49951350Y-100323100I-218750J0D01*
G01*
G37*
G36*
G01*
X49951350Y-98748100D02*
X49438850Y-98748100D01*
G75*
G02*
X49220100Y-98529350I0J218750D01*
G01*
X49220100Y-98091850D01*
G75*
G02*
X49438850Y-97873100I218750J0D01*
G01*
X49951350Y-97873100D01*
G75*
G02*
X50170100Y-98091850I0J-218750D01*
G01*
X50170100Y-98529350D01*
G75*
G02*
X49951350Y-98748100I-218750J0D01*
G01*
G37*
%TD*%
%TO.C,C10*%
G36*
G01*
X51361050Y-100323100D02*
X50848550Y-100323100D01*
G75*
G02*
X50629800Y-100104350I0J218750D01*
G01*
X50629800Y-99666850D01*
G75*
G02*
X50848550Y-99448100I218750J0D01*
G01*
X51361050Y-99448100D01*
G75*
G02*
X51579800Y-99666850I0J-218750D01*
G01*
X51579800Y-100104350D01*
G75*
G02*
X51361050Y-100323100I-218750J0D01*
G01*
G37*
G36*
G01*
X51361050Y-98748100D02*
X50848550Y-98748100D01*
G75*
G02*
X50629800Y-98529350I0J218750D01*
G01*
X50629800Y-98091850D01*
G75*
G02*
X50848550Y-97873100I218750J0D01*
G01*
X51361050Y-97873100D01*
G75*
G02*
X51579800Y-98091850I0J-218750D01*
G01*
X51579800Y-98529350D01*
G75*
G02*
X51361050Y-98748100I-218750J0D01*
G01*
G37*
%TD*%
D19*
%TO.C,Y2*%
X57404000Y-88839900D03*
X57404000Y-92439900D03*
%TD*%
D15*
%TO.C,J23*%
X21297900Y-86575900D03*
%TD*%
%TO.C,J22*%
X28587700Y-89408000D03*
%TD*%
%TO.C,J21*%
X21297900Y-89179400D03*
%TD*%
%TO.C,J20*%
X28575000Y-92121566D03*
%TD*%
%TO.C,J19*%
X28575000Y-95495532D03*
%TD*%
%TO.C,J18*%
X28575000Y-98298000D03*
%TD*%
%TO.C,C7*%
G36*
G01*
X59315900Y-93017050D02*
X59315900Y-92504550D01*
G75*
G02*
X59534650Y-92285800I218750J0D01*
G01*
X59972150Y-92285800D01*
G75*
G02*
X60190900Y-92504550I0J-218750D01*
G01*
X60190900Y-93017050D01*
G75*
G02*
X59972150Y-93235800I-218750J0D01*
G01*
X59534650Y-93235800D01*
G75*
G02*
X59315900Y-93017050I0J218750D01*
G01*
G37*
G36*
G01*
X60890900Y-93017050D02*
X60890900Y-92504550D01*
G75*
G02*
X61109650Y-92285800I218750J0D01*
G01*
X61547150Y-92285800D01*
G75*
G02*
X61765900Y-92504550I0J-218750D01*
G01*
X61765900Y-93017050D01*
G75*
G02*
X61547150Y-93235800I-218750J0D01*
G01*
X61109650Y-93235800D01*
G75*
G02*
X60890900Y-93017050I0J218750D01*
G01*
G37*
%TD*%
%TO.C,C4*%
G36*
G01*
X59315900Y-88826050D02*
X59315900Y-88313550D01*
G75*
G02*
X59534650Y-88094800I218750J0D01*
G01*
X59972150Y-88094800D01*
G75*
G02*
X60190900Y-88313550I0J-218750D01*
G01*
X60190900Y-88826050D01*
G75*
G02*
X59972150Y-89044800I-218750J0D01*
G01*
X59534650Y-89044800D01*
G75*
G02*
X59315900Y-88826050I0J218750D01*
G01*
G37*
G36*
G01*
X60890900Y-88826050D02*
X60890900Y-88313550D01*
G75*
G02*
X61109650Y-88094800I218750J0D01*
G01*
X61547150Y-88094800D01*
G75*
G02*
X61765900Y-88313550I0J-218750D01*
G01*
X61765900Y-88826050D01*
G75*
G02*
X61547150Y-89044800I-218750J0D01*
G01*
X61109650Y-89044800D01*
G75*
G02*
X60890900Y-88826050I0J218750D01*
G01*
G37*
%TD*%
%TO.C,C36*%
G36*
G01*
X22819300Y-64019750D02*
X22819300Y-63107250D01*
G75*
G02*
X23063050Y-62863500I243750J0D01*
G01*
X23550550Y-62863500D01*
G75*
G02*
X23794300Y-63107250I0J-243750D01*
G01*
X23794300Y-64019750D01*
G75*
G02*
X23550550Y-64263500I-243750J0D01*
G01*
X23063050Y-64263500D01*
G75*
G02*
X22819300Y-64019750I0J243750D01*
G01*
G37*
G36*
G01*
X24694300Y-64019750D02*
X24694300Y-63107250D01*
G75*
G02*
X24938050Y-62863500I243750J0D01*
G01*
X25425550Y-62863500D01*
G75*
G02*
X25669300Y-63107250I0J-243750D01*
G01*
X25669300Y-64019750D01*
G75*
G02*
X25425550Y-64263500I-243750J0D01*
G01*
X24938050Y-64263500D01*
G75*
G02*
X24694300Y-64019750I0J243750D01*
G01*
G37*
%TD*%
%TO.C,C37*%
G36*
G01*
X21917600Y-66940750D02*
X21917600Y-66028250D01*
G75*
G02*
X22161350Y-65784500I243750J0D01*
G01*
X22648850Y-65784500D01*
G75*
G02*
X22892600Y-66028250I0J-243750D01*
G01*
X22892600Y-66940750D01*
G75*
G02*
X22648850Y-67184500I-243750J0D01*
G01*
X22161350Y-67184500D01*
G75*
G02*
X21917600Y-66940750I0J243750D01*
G01*
G37*
G36*
G01*
X23792600Y-66940750D02*
X23792600Y-66028250D01*
G75*
G02*
X24036350Y-65784500I243750J0D01*
G01*
X24523850Y-65784500D01*
G75*
G02*
X24767600Y-66028250I0J-243750D01*
G01*
X24767600Y-66940750D01*
G75*
G02*
X24523850Y-67184500I-243750J0D01*
G01*
X24036350Y-67184500D01*
G75*
G02*
X23792600Y-66940750I0J243750D01*
G01*
G37*
%TD*%
%TO.C,C23*%
G36*
G01*
X22705000Y-75614850D02*
X22705000Y-74702350D01*
G75*
G02*
X22948750Y-74458600I243750J0D01*
G01*
X23436250Y-74458600D01*
G75*
G02*
X23680000Y-74702350I0J-243750D01*
G01*
X23680000Y-75614850D01*
G75*
G02*
X23436250Y-75858600I-243750J0D01*
G01*
X22948750Y-75858600D01*
G75*
G02*
X22705000Y-75614850I0J243750D01*
G01*
G37*
G36*
G01*
X24580000Y-75614850D02*
X24580000Y-74702350D01*
G75*
G02*
X24823750Y-74458600I243750J0D01*
G01*
X25311250Y-74458600D01*
G75*
G02*
X25555000Y-74702350I0J-243750D01*
G01*
X25555000Y-75614850D01*
G75*
G02*
X25311250Y-75858600I-243750J0D01*
G01*
X24823750Y-75858600D01*
G75*
G02*
X24580000Y-75614850I0J243750D01*
G01*
G37*
%TD*%
%TO.C,C13*%
G36*
G01*
X41234300Y-65365950D02*
X41234300Y-64453450D01*
G75*
G02*
X41478050Y-64209700I243750J0D01*
G01*
X41965550Y-64209700D01*
G75*
G02*
X42209300Y-64453450I0J-243750D01*
G01*
X42209300Y-65365950D01*
G75*
G02*
X41965550Y-65609700I-243750J0D01*
G01*
X41478050Y-65609700D01*
G75*
G02*
X41234300Y-65365950I0J243750D01*
G01*
G37*
G36*
G01*
X43109300Y-65365950D02*
X43109300Y-64453450D01*
G75*
G02*
X43353050Y-64209700I243750J0D01*
G01*
X43840550Y-64209700D01*
G75*
G02*
X44084300Y-64453450I0J-243750D01*
G01*
X44084300Y-65365950D01*
G75*
G02*
X43840550Y-65609700I-243750J0D01*
G01*
X43353050Y-65609700D01*
G75*
G02*
X43109300Y-65365950I0J243750D01*
G01*
G37*
%TD*%
%TO.C,C11*%
G36*
G01*
X33552450Y-65534600D02*
X32639950Y-65534600D01*
G75*
G02*
X32396200Y-65290850I0J243750D01*
G01*
X32396200Y-64803350D01*
G75*
G02*
X32639950Y-64559600I243750J0D01*
G01*
X33552450Y-64559600D01*
G75*
G02*
X33796200Y-64803350I0J-243750D01*
G01*
X33796200Y-65290850D01*
G75*
G02*
X33552450Y-65534600I-243750J0D01*
G01*
G37*
G36*
G01*
X33552450Y-63659600D02*
X32639950Y-63659600D01*
G75*
G02*
X32396200Y-63415850I0J243750D01*
G01*
X32396200Y-62928350D01*
G75*
G02*
X32639950Y-62684600I243750J0D01*
G01*
X33552450Y-62684600D01*
G75*
G02*
X33796200Y-62928350I0J-243750D01*
G01*
X33796200Y-63415850D01*
G75*
G02*
X33552450Y-63659600I-243750J0D01*
G01*
G37*
%TD*%
%TO.C,C9*%
G36*
G01*
X33581400Y-72556050D02*
X33581400Y-73468550D01*
G75*
G02*
X33337650Y-73712300I-243750J0D01*
G01*
X32850150Y-73712300D01*
G75*
G02*
X32606400Y-73468550I0J243750D01*
G01*
X32606400Y-72556050D01*
G75*
G02*
X32850150Y-72312300I243750J0D01*
G01*
X33337650Y-72312300D01*
G75*
G02*
X33581400Y-72556050I0J-243750D01*
G01*
G37*
G36*
G01*
X31706400Y-72556050D02*
X31706400Y-73468550D01*
G75*
G02*
X31462650Y-73712300I-243750J0D01*
G01*
X30975150Y-73712300D01*
G75*
G02*
X30731400Y-73468550I0J243750D01*
G01*
X30731400Y-72556050D01*
G75*
G02*
X30975150Y-72312300I243750J0D01*
G01*
X31462650Y-72312300D01*
G75*
G02*
X31706400Y-72556050I0J-243750D01*
G01*
G37*
%TD*%
%TO.C,C8*%
G36*
G01*
X40739000Y-73697150D02*
X40739000Y-72784650D01*
G75*
G02*
X40982750Y-72540900I243750J0D01*
G01*
X41470250Y-72540900D01*
G75*
G02*
X41714000Y-72784650I0J-243750D01*
G01*
X41714000Y-73697150D01*
G75*
G02*
X41470250Y-73940900I-243750J0D01*
G01*
X40982750Y-73940900D01*
G75*
G02*
X40739000Y-73697150I0J243750D01*
G01*
G37*
G36*
G01*
X42614000Y-73697150D02*
X42614000Y-72784650D01*
G75*
G02*
X42857750Y-72540900I243750J0D01*
G01*
X43345250Y-72540900D01*
G75*
G02*
X43589000Y-72784650I0J-243750D01*
G01*
X43589000Y-73697150D01*
G75*
G02*
X43345250Y-73940900I-243750J0D01*
G01*
X42857750Y-73940900D01*
G75*
G02*
X42614000Y-73697150I0J243750D01*
G01*
G37*
%TD*%
D16*
%TO.C,U1*%
X33165800Y-66172900D03*
X33165800Y-66672900D03*
X33165800Y-67172900D03*
X33165800Y-67672900D03*
X33165800Y-68172900D03*
X33165800Y-68672900D03*
X33165800Y-69172900D03*
X33165800Y-69672900D03*
X33165800Y-70172900D03*
X33165800Y-70672900D03*
X33165800Y-71172900D03*
X33165800Y-71672900D03*
D17*
X34765800Y-73272900D03*
X35265800Y-73272900D03*
X35765800Y-73272900D03*
X36265800Y-73272900D03*
X36765800Y-73272900D03*
X37265800Y-73272900D03*
X37765800Y-73272900D03*
X38265800Y-73272900D03*
X38765800Y-73272900D03*
X39265800Y-73272900D03*
X39765800Y-73272900D03*
X40265800Y-73272900D03*
D16*
X41865800Y-71672900D03*
X41865800Y-71172900D03*
X41865800Y-70672900D03*
X41865800Y-70172900D03*
X41865800Y-69672900D03*
X41865800Y-69172900D03*
X41865800Y-68672900D03*
X41865800Y-68172900D03*
X41865800Y-67672900D03*
X41865800Y-67172900D03*
X41865800Y-66672900D03*
X41865800Y-66172900D03*
D17*
X40265800Y-64572900D03*
X39765800Y-64572900D03*
X39265800Y-64572900D03*
X38765800Y-64572900D03*
X38265800Y-64572900D03*
X37765800Y-64572900D03*
X37265800Y-64572900D03*
X36765800Y-64572900D03*
X36265800Y-64572900D03*
X35765800Y-64572900D03*
X35265800Y-64572900D03*
X34765800Y-64572900D03*
%TD*%
D15*
%TO.C,J9*%
X43776900Y-63004700D03*
%TD*%
%TO.C,J8*%
X46736000Y-65468500D03*
%TD*%
%TO.C,J2*%
X38612232Y-61887100D03*
%TD*%
%TO.C,J1*%
X40640000Y-61887100D03*
%TD*%
%TO.C,J5*%
X28321000Y-69634100D03*
%TD*%
M02*
