%TF.GenerationSoftware,KiCad,Pcbnew,5.1.9+dfsg1-1~bpo10+1*%
%TF.CreationDate,2022-03-24T11:03:47+03:00*%
%TF.ProjectId,Anemometr,416e656d-6f6d-4657-9472-2e6b69636164,rev?*%
%TF.SameCoordinates,Original*%
%TF.FileFunction,Soldermask,Top*%
%TF.FilePolarity,Negative*%
%FSLAX46Y46*%
G04 Gerber Fmt 4.6, Leading zero omitted, Abs format (unit mm)*
G04 Created by KiCad (PCBNEW 5.1.9+dfsg1-1~bpo10+1) date 2022-03-24 11:03:47*
%MOMM*%
%LPD*%
G01*
G04 APERTURE LIST*
%ADD10R,0.900000X0.800000*%
%ADD11R,1.500000X2.000000*%
%ADD12R,3.800000X2.000000*%
%ADD13R,1.900000X0.400000*%
%ADD14C,1.524000*%
%ADD15R,1.300000X0.250000*%
%ADD16R,0.250000X1.300000*%
%ADD17R,1.670000X0.700000*%
%ADD18R,2.000000X2.000000*%
G04 APERTURE END LIST*
%TO.C,D4*%
G36*
G01*
X48778450Y-66301100D02*
X49290950Y-66301100D01*
G75*
G02*
X49509700Y-66519850I0J-218750D01*
G01*
X49509700Y-66957350D01*
G75*
G02*
X49290950Y-67176100I-218750J0D01*
G01*
X48778450Y-67176100D01*
G75*
G02*
X48559700Y-66957350I0J218750D01*
G01*
X48559700Y-66519850D01*
G75*
G02*
X48778450Y-66301100I218750J0D01*
G01*
G37*
G36*
G01*
X48778450Y-64726100D02*
X49290950Y-64726100D01*
G75*
G02*
X49509700Y-64944850I0J-218750D01*
G01*
X49509700Y-65382350D01*
G75*
G02*
X49290950Y-65601100I-218750J0D01*
G01*
X48778450Y-65601100D01*
G75*
G02*
X48559700Y-65382350I0J218750D01*
G01*
X48559700Y-64944850D01*
G75*
G02*
X48778450Y-64726100I218750J0D01*
G01*
G37*
%TD*%
%TO.C,R15*%
G36*
G01*
X54680400Y-62930750D02*
X54680400Y-62418250D01*
G75*
G02*
X54899150Y-62199500I218750J0D01*
G01*
X55336650Y-62199500D01*
G75*
G02*
X55555400Y-62418250I0J-218750D01*
G01*
X55555400Y-62930750D01*
G75*
G02*
X55336650Y-63149500I-218750J0D01*
G01*
X54899150Y-63149500D01*
G75*
G02*
X54680400Y-62930750I0J218750D01*
G01*
G37*
G36*
G01*
X56255400Y-62930750D02*
X56255400Y-62418250D01*
G75*
G02*
X56474150Y-62199500I218750J0D01*
G01*
X56911650Y-62199500D01*
G75*
G02*
X57130400Y-62418250I0J-218750D01*
G01*
X57130400Y-62930750D01*
G75*
G02*
X56911650Y-63149500I-218750J0D01*
G01*
X56474150Y-63149500D01*
G75*
G02*
X56255400Y-62930750I0J218750D01*
G01*
G37*
%TD*%
%TO.C,D5*%
G36*
G01*
X55361550Y-64445400D02*
X54849050Y-64445400D01*
G75*
G02*
X54630300Y-64226650I0J218750D01*
G01*
X54630300Y-63789150D01*
G75*
G02*
X54849050Y-63570400I218750J0D01*
G01*
X55361550Y-63570400D01*
G75*
G02*
X55580300Y-63789150I0J-218750D01*
G01*
X55580300Y-64226650D01*
G75*
G02*
X55361550Y-64445400I-218750J0D01*
G01*
G37*
G36*
G01*
X55361550Y-66020400D02*
X54849050Y-66020400D01*
G75*
G02*
X54630300Y-65801650I0J218750D01*
G01*
X54630300Y-65364150D01*
G75*
G02*
X54849050Y-65145400I218750J0D01*
G01*
X55361550Y-65145400D01*
G75*
G02*
X55580300Y-65364150I0J-218750D01*
G01*
X55580300Y-65801650D01*
G75*
G02*
X55361550Y-66020400I-218750J0D01*
G01*
G37*
%TD*%
%TO.C,C58*%
G36*
G01*
X59007900Y-68000700D02*
X61057900Y-68000700D01*
G75*
G02*
X61307900Y-68250700I0J-250000D01*
G01*
X61307900Y-69825700D01*
G75*
G02*
X61057900Y-70075700I-250000J0D01*
G01*
X59007900Y-70075700D01*
G75*
G02*
X58757900Y-69825700I0J250000D01*
G01*
X58757900Y-68250700D01*
G75*
G02*
X59007900Y-68000700I250000J0D01*
G01*
G37*
G36*
G01*
X59007900Y-61775700D02*
X61057900Y-61775700D01*
G75*
G02*
X61307900Y-62025700I0J-250000D01*
G01*
X61307900Y-63600700D01*
G75*
G02*
X61057900Y-63850700I-250000J0D01*
G01*
X59007900Y-63850700D01*
G75*
G02*
X58757900Y-63600700I0J250000D01*
G01*
X58757900Y-62025700D01*
G75*
G02*
X59007900Y-61775700I250000J0D01*
G01*
G37*
%TD*%
D10*
%TO.C,U9*%
X26508200Y-63030100D03*
X28508200Y-62080100D03*
X28508200Y-63980100D03*
%TD*%
%TO.C,U7*%
X26457400Y-74688700D03*
X28457400Y-73738700D03*
X28457400Y-75638700D03*
%TD*%
%TO.C,C56*%
G36*
G01*
X53440650Y-98013100D02*
X52528150Y-98013100D01*
G75*
G02*
X52284400Y-97769350I0J243750D01*
G01*
X52284400Y-97281850D01*
G75*
G02*
X52528150Y-97038100I243750J0D01*
G01*
X53440650Y-97038100D01*
G75*
G02*
X53684400Y-97281850I0J-243750D01*
G01*
X53684400Y-97769350D01*
G75*
G02*
X53440650Y-98013100I-243750J0D01*
G01*
G37*
G36*
G01*
X53440650Y-99888100D02*
X52528150Y-99888100D01*
G75*
G02*
X52284400Y-99644350I0J243750D01*
G01*
X52284400Y-99156850D01*
G75*
G02*
X52528150Y-98913100I243750J0D01*
G01*
X53440650Y-98913100D01*
G75*
G02*
X53684400Y-99156850I0J-243750D01*
G01*
X53684400Y-99644350D01*
G75*
G02*
X53440650Y-99888100I-243750J0D01*
G01*
G37*
%TD*%
D11*
%TO.C,U6*%
X55535800Y-84010900D03*
X60135800Y-84010900D03*
X57835800Y-84010900D03*
D12*
X57835800Y-77710900D03*
%TD*%
%TO.C,C22*%
G36*
G01*
X60560800Y-85891050D02*
X60560800Y-86803550D01*
G75*
G02*
X60317050Y-87047300I-243750J0D01*
G01*
X59829550Y-87047300D01*
G75*
G02*
X59585800Y-86803550I0J243750D01*
G01*
X59585800Y-85891050D01*
G75*
G02*
X59829550Y-85647300I243750J0D01*
G01*
X60317050Y-85647300D01*
G75*
G02*
X60560800Y-85891050I0J-243750D01*
G01*
G37*
G36*
G01*
X62435800Y-85891050D02*
X62435800Y-86803550D01*
G75*
G02*
X62192050Y-87047300I-243750J0D01*
G01*
X61704550Y-87047300D01*
G75*
G02*
X61460800Y-86803550I0J243750D01*
G01*
X61460800Y-85891050D01*
G75*
G02*
X61704550Y-85647300I243750J0D01*
G01*
X62192050Y-85647300D01*
G75*
G02*
X62435800Y-85891050I0J-243750D01*
G01*
G37*
%TD*%
D13*
%TO.C,Y1*%
X30594300Y-68002000D03*
X30594300Y-66802000D03*
X30594300Y-65602000D03*
%TD*%
D14*
%TO.C,J7*%
X21132800Y-61531500D03*
%TD*%
%TO.C,C49*%
G36*
G01*
X22430900Y-98183400D02*
X21180900Y-98183400D01*
G75*
G02*
X20930900Y-97933400I0J250000D01*
G01*
X20930900Y-97183400D01*
G75*
G02*
X21180900Y-96933400I250000J0D01*
G01*
X22430900Y-96933400D01*
G75*
G02*
X22680900Y-97183400I0J-250000D01*
G01*
X22680900Y-97933400D01*
G75*
G02*
X22430900Y-98183400I-250000J0D01*
G01*
G37*
G36*
G01*
X22430900Y-100983400D02*
X21180900Y-100983400D01*
G75*
G02*
X20930900Y-100733400I0J250000D01*
G01*
X20930900Y-99983400D01*
G75*
G02*
X21180900Y-99733400I250000J0D01*
G01*
X22430900Y-99733400D01*
G75*
G02*
X22680900Y-99983400I0J-250000D01*
G01*
X22680900Y-100733400D01*
G75*
G02*
X22430900Y-100983400I-250000J0D01*
G01*
G37*
%TD*%
%TO.C,R1*%
G36*
G01*
X60047150Y-89845400D02*
X59534650Y-89845400D01*
G75*
G02*
X59315900Y-89626650I0J218750D01*
G01*
X59315900Y-89189150D01*
G75*
G02*
X59534650Y-88970400I218750J0D01*
G01*
X60047150Y-88970400D01*
G75*
G02*
X60265900Y-89189150I0J-218750D01*
G01*
X60265900Y-89626650D01*
G75*
G02*
X60047150Y-89845400I-218750J0D01*
G01*
G37*
G36*
G01*
X60047150Y-91420400D02*
X59534650Y-91420400D01*
G75*
G02*
X59315900Y-91201650I0J218750D01*
G01*
X59315900Y-90764150D01*
G75*
G02*
X59534650Y-90545400I218750J0D01*
G01*
X60047150Y-90545400D01*
G75*
G02*
X60265900Y-90764150I0J-218750D01*
G01*
X60265900Y-91201650D01*
G75*
G02*
X60047150Y-91420400I-218750J0D01*
G01*
G37*
%TD*%
%TO.C,R4*%
G36*
G01*
X46386000Y-66482250D02*
X46386000Y-66994750D01*
G75*
G02*
X46167250Y-67213500I-218750J0D01*
G01*
X45729750Y-67213500D01*
G75*
G02*
X45511000Y-66994750I0J218750D01*
G01*
X45511000Y-66482250D01*
G75*
G02*
X45729750Y-66263500I218750J0D01*
G01*
X46167250Y-66263500D01*
G75*
G02*
X46386000Y-66482250I0J-218750D01*
G01*
G37*
G36*
G01*
X47961000Y-66482250D02*
X47961000Y-66994750D01*
G75*
G02*
X47742250Y-67213500I-218750J0D01*
G01*
X47304750Y-67213500D01*
G75*
G02*
X47086000Y-66994750I0J218750D01*
G01*
X47086000Y-66482250D01*
G75*
G02*
X47304750Y-66263500I218750J0D01*
G01*
X47742250Y-66263500D01*
G75*
G02*
X47961000Y-66482250I0J-218750D01*
G01*
G37*
%TD*%
D15*
%TO.C,D3*%
X44479100Y-89178000D03*
X44479100Y-89678000D03*
X44479100Y-90178000D03*
X44479100Y-90678000D03*
X44479100Y-91178000D03*
X44479100Y-91678000D03*
X44479100Y-92178000D03*
X44479100Y-92678000D03*
X44479100Y-93178000D03*
X44479100Y-93678000D03*
X44479100Y-94178000D03*
X44479100Y-94678000D03*
D16*
X46079100Y-96278000D03*
X46579100Y-96278000D03*
X47079100Y-96278000D03*
X47579100Y-96278000D03*
X48079100Y-96278000D03*
X48579100Y-96278000D03*
X49079100Y-96278000D03*
X49579100Y-96278000D03*
X50079100Y-96278000D03*
X50579100Y-96278000D03*
X51079100Y-96278000D03*
X51579100Y-96278000D03*
D15*
X53179100Y-94678000D03*
X53179100Y-94178000D03*
X53179100Y-93678000D03*
X53179100Y-93178000D03*
X53179100Y-92678000D03*
X53179100Y-92178000D03*
X53179100Y-91678000D03*
X53179100Y-91178000D03*
X53179100Y-90678000D03*
X53179100Y-90178000D03*
X53179100Y-89678000D03*
X53179100Y-89178000D03*
D16*
X51579100Y-87578000D03*
X51079100Y-87578000D03*
X50579100Y-87578000D03*
X50079100Y-87578000D03*
X49579100Y-87578000D03*
X49079100Y-87578000D03*
X48579100Y-87578000D03*
X48079100Y-87578000D03*
X47579100Y-87578000D03*
X47079100Y-87578000D03*
X46579100Y-87578000D03*
X46079100Y-87578000D03*
%TD*%
%TO.C,R40*%
G36*
G01*
X21579550Y-92449100D02*
X21067050Y-92449100D01*
G75*
G02*
X20848300Y-92230350I0J218750D01*
G01*
X20848300Y-91792850D01*
G75*
G02*
X21067050Y-91574100I218750J0D01*
G01*
X21579550Y-91574100D01*
G75*
G02*
X21798300Y-91792850I0J-218750D01*
G01*
X21798300Y-92230350D01*
G75*
G02*
X21579550Y-92449100I-218750J0D01*
G01*
G37*
G36*
G01*
X21579550Y-90874100D02*
X21067050Y-90874100D01*
G75*
G02*
X20848300Y-90655350I0J218750D01*
G01*
X20848300Y-90217850D01*
G75*
G02*
X21067050Y-89999100I218750J0D01*
G01*
X21579550Y-89999100D01*
G75*
G02*
X21798300Y-90217850I0J-218750D01*
G01*
X21798300Y-90655350D01*
G75*
G02*
X21579550Y-90874100I-218750J0D01*
G01*
G37*
%TD*%
%TO.C,R36*%
G36*
G01*
X26244000Y-86649850D02*
X26244000Y-87162350D01*
G75*
G02*
X26025250Y-87381100I-218750J0D01*
G01*
X25587750Y-87381100D01*
G75*
G02*
X25369000Y-87162350I0J218750D01*
G01*
X25369000Y-86649850D01*
G75*
G02*
X25587750Y-86431100I218750J0D01*
G01*
X26025250Y-86431100D01*
G75*
G02*
X26244000Y-86649850I0J-218750D01*
G01*
G37*
G36*
G01*
X24669000Y-86649850D02*
X24669000Y-87162350D01*
G75*
G02*
X24450250Y-87381100I-218750J0D01*
G01*
X24012750Y-87381100D01*
G75*
G02*
X23794000Y-87162350I0J218750D01*
G01*
X23794000Y-86649850D01*
G75*
G02*
X24012750Y-86431100I218750J0D01*
G01*
X24450250Y-86431100D01*
G75*
G02*
X24669000Y-86649850I0J-218750D01*
G01*
G37*
%TD*%
%TO.C,R32*%
G36*
G01*
X26244000Y-90751950D02*
X26244000Y-91264450D01*
G75*
G02*
X26025250Y-91483200I-218750J0D01*
G01*
X25587750Y-91483200D01*
G75*
G02*
X25369000Y-91264450I0J218750D01*
G01*
X25369000Y-90751950D01*
G75*
G02*
X25587750Y-90533200I218750J0D01*
G01*
X26025250Y-90533200D01*
G75*
G02*
X26244000Y-90751950I0J-218750D01*
G01*
G37*
G36*
G01*
X24669000Y-90751950D02*
X24669000Y-91264450D01*
G75*
G02*
X24450250Y-91483200I-218750J0D01*
G01*
X24012750Y-91483200D01*
G75*
G02*
X23794000Y-91264450I0J218750D01*
G01*
X23794000Y-90751950D01*
G75*
G02*
X24012750Y-90533200I218750J0D01*
G01*
X24450250Y-90533200D01*
G75*
G02*
X24669000Y-90751950I0J-218750D01*
G01*
G37*
%TD*%
%TO.C,R35*%
G36*
G01*
X26193200Y-96022450D02*
X26193200Y-96534950D01*
G75*
G02*
X25974450Y-96753700I-218750J0D01*
G01*
X25536950Y-96753700D01*
G75*
G02*
X25318200Y-96534950I0J218750D01*
G01*
X25318200Y-96022450D01*
G75*
G02*
X25536950Y-95803700I218750J0D01*
G01*
X25974450Y-95803700D01*
G75*
G02*
X26193200Y-96022450I0J-218750D01*
G01*
G37*
G36*
G01*
X24618200Y-96022450D02*
X24618200Y-96534950D01*
G75*
G02*
X24399450Y-96753700I-218750J0D01*
G01*
X23961950Y-96753700D01*
G75*
G02*
X23743200Y-96534950I0J218750D01*
G01*
X23743200Y-96022450D01*
G75*
G02*
X23961950Y-95803700I218750J0D01*
G01*
X24399450Y-95803700D01*
G75*
G02*
X24618200Y-96022450I0J-218750D01*
G01*
G37*
%TD*%
%TO.C,R2*%
G36*
G01*
X56415650Y-97211600D02*
X55903150Y-97211600D01*
G75*
G02*
X55684400Y-96992850I0J218750D01*
G01*
X55684400Y-96555350D01*
G75*
G02*
X55903150Y-96336600I218750J0D01*
G01*
X56415650Y-96336600D01*
G75*
G02*
X56634400Y-96555350I0J-218750D01*
G01*
X56634400Y-96992850D01*
G75*
G02*
X56415650Y-97211600I-218750J0D01*
G01*
G37*
G36*
G01*
X56415650Y-95636600D02*
X55903150Y-95636600D01*
G75*
G02*
X55684400Y-95417850I0J218750D01*
G01*
X55684400Y-94980350D01*
G75*
G02*
X55903150Y-94761600I218750J0D01*
G01*
X56415650Y-94761600D01*
G75*
G02*
X56634400Y-94980350I0J-218750D01*
G01*
X56634400Y-95417850D01*
G75*
G02*
X56415650Y-95636600I-218750J0D01*
G01*
G37*
%TD*%
%TO.C,R3*%
G36*
G01*
X54980550Y-97198900D02*
X54468050Y-97198900D01*
G75*
G02*
X54249300Y-96980150I0J218750D01*
G01*
X54249300Y-96542650D01*
G75*
G02*
X54468050Y-96323900I218750J0D01*
G01*
X54980550Y-96323900D01*
G75*
G02*
X55199300Y-96542650I0J-218750D01*
G01*
X55199300Y-96980150D01*
G75*
G02*
X54980550Y-97198900I-218750J0D01*
G01*
G37*
G36*
G01*
X54980550Y-95623900D02*
X54468050Y-95623900D01*
G75*
G02*
X54249300Y-95405150I0J218750D01*
G01*
X54249300Y-94967650D01*
G75*
G02*
X54468050Y-94748900I218750J0D01*
G01*
X54980550Y-94748900D01*
G75*
G02*
X55199300Y-94967650I0J-218750D01*
G01*
X55199300Y-95405150D01*
G75*
G02*
X54980550Y-95623900I-218750J0D01*
G01*
G37*
%TD*%
%TO.C,C3*%
G36*
G01*
X28564550Y-71405200D02*
X28052050Y-71405200D01*
G75*
G02*
X27833300Y-71186450I0J218750D01*
G01*
X27833300Y-70748950D01*
G75*
G02*
X28052050Y-70530200I218750J0D01*
G01*
X28564550Y-70530200D01*
G75*
G02*
X28783300Y-70748950I0J-218750D01*
G01*
X28783300Y-71186450D01*
G75*
G02*
X28564550Y-71405200I-218750J0D01*
G01*
G37*
G36*
G01*
X28564550Y-69830200D02*
X28052050Y-69830200D01*
G75*
G02*
X27833300Y-69611450I0J218750D01*
G01*
X27833300Y-69173950D01*
G75*
G02*
X28052050Y-68955200I218750J0D01*
G01*
X28564550Y-68955200D01*
G75*
G02*
X28783300Y-69173950I0J-218750D01*
G01*
X28783300Y-69611450D01*
G75*
G02*
X28564550Y-69830200I-218750J0D01*
G01*
G37*
%TD*%
%TO.C,R11*%
G36*
G01*
X40507200Y-93944150D02*
X40507200Y-93431650D01*
G75*
G02*
X40725950Y-93212900I218750J0D01*
G01*
X41163450Y-93212900D01*
G75*
G02*
X41382200Y-93431650I0J-218750D01*
G01*
X41382200Y-93944150D01*
G75*
G02*
X41163450Y-94162900I-218750J0D01*
G01*
X40725950Y-94162900D01*
G75*
G02*
X40507200Y-93944150I0J218750D01*
G01*
G37*
G36*
G01*
X42082200Y-93944150D02*
X42082200Y-93431650D01*
G75*
G02*
X42300950Y-93212900I218750J0D01*
G01*
X42738450Y-93212900D01*
G75*
G02*
X42957200Y-93431650I0J-218750D01*
G01*
X42957200Y-93944150D01*
G75*
G02*
X42738450Y-94162900I-218750J0D01*
G01*
X42300950Y-94162900D01*
G75*
G02*
X42082200Y-93944150I0J218750D01*
G01*
G37*
%TD*%
%TO.C,R18*%
G36*
G01*
X41002500Y-96687350D02*
X41002500Y-96174850D01*
G75*
G02*
X41221250Y-95956100I218750J0D01*
G01*
X41658750Y-95956100D01*
G75*
G02*
X41877500Y-96174850I0J-218750D01*
G01*
X41877500Y-96687350D01*
G75*
G02*
X41658750Y-96906100I-218750J0D01*
G01*
X41221250Y-96906100D01*
G75*
G02*
X41002500Y-96687350I0J218750D01*
G01*
G37*
G36*
G01*
X42577500Y-96687350D02*
X42577500Y-96174850D01*
G75*
G02*
X42796250Y-95956100I218750J0D01*
G01*
X43233750Y-95956100D01*
G75*
G02*
X43452500Y-96174850I0J-218750D01*
G01*
X43452500Y-96687350D01*
G75*
G02*
X43233750Y-96906100I-218750J0D01*
G01*
X42796250Y-96906100D01*
G75*
G02*
X42577500Y-96687350I0J218750D01*
G01*
G37*
%TD*%
%TO.C,R12*%
G36*
G01*
X40507200Y-90337350D02*
X40507200Y-89824850D01*
G75*
G02*
X40725950Y-89606100I218750J0D01*
G01*
X41163450Y-89606100D01*
G75*
G02*
X41382200Y-89824850I0J-218750D01*
G01*
X41382200Y-90337350D01*
G75*
G02*
X41163450Y-90556100I-218750J0D01*
G01*
X40725950Y-90556100D01*
G75*
G02*
X40507200Y-90337350I0J218750D01*
G01*
G37*
G36*
G01*
X42082200Y-90337350D02*
X42082200Y-89824850D01*
G75*
G02*
X42300950Y-89606100I218750J0D01*
G01*
X42738450Y-89606100D01*
G75*
G02*
X42957200Y-89824850I0J-218750D01*
G01*
X42957200Y-90337350D01*
G75*
G02*
X42738450Y-90556100I-218750J0D01*
G01*
X42300950Y-90556100D01*
G75*
G02*
X42082200Y-90337350I0J218750D01*
G01*
G37*
%TD*%
%TO.C,R14*%
G36*
G01*
X40507200Y-87619550D02*
X40507200Y-87107050D01*
G75*
G02*
X40725950Y-86888300I218750J0D01*
G01*
X41163450Y-86888300D01*
G75*
G02*
X41382200Y-87107050I0J-218750D01*
G01*
X41382200Y-87619550D01*
G75*
G02*
X41163450Y-87838300I-218750J0D01*
G01*
X40725950Y-87838300D01*
G75*
G02*
X40507200Y-87619550I0J218750D01*
G01*
G37*
G36*
G01*
X42082200Y-87619550D02*
X42082200Y-87107050D01*
G75*
G02*
X42300950Y-86888300I218750J0D01*
G01*
X42738450Y-86888300D01*
G75*
G02*
X42957200Y-87107050I0J-218750D01*
G01*
X42957200Y-87619550D01*
G75*
G02*
X42738450Y-87838300I-218750J0D01*
G01*
X42300950Y-87838300D01*
G75*
G02*
X42082200Y-87619550I0J218750D01*
G01*
G37*
%TD*%
D17*
%TO.C,D10*%
X39164600Y-97840800D03*
X39164600Y-96570800D03*
X39164600Y-95300800D03*
X39164600Y-94030800D03*
X39164600Y-92760800D03*
X39164600Y-91490800D03*
X39164600Y-90220800D03*
X39164600Y-88950800D03*
X30634600Y-88950800D03*
X30634600Y-90220800D03*
X30634600Y-91490800D03*
X30634600Y-92760800D03*
X30634600Y-95300800D03*
X30634600Y-96570800D03*
X30634600Y-97840800D03*
X30634600Y-94030800D03*
%TD*%
D14*
%TO.C,J6*%
X30060900Y-62026800D03*
%TD*%
%TO.C,J4*%
X34556700Y-61417200D03*
%TD*%
%TO.C,J3*%
X36584466Y-61417200D03*
%TD*%
%TO.C,C48*%
G36*
G01*
X21041650Y-92920100D02*
X21554150Y-92920100D01*
G75*
G02*
X21772900Y-93138850I0J-218750D01*
G01*
X21772900Y-93576350D01*
G75*
G02*
X21554150Y-93795100I-218750J0D01*
G01*
X21041650Y-93795100D01*
G75*
G02*
X20822900Y-93576350I0J218750D01*
G01*
X20822900Y-93138850D01*
G75*
G02*
X21041650Y-92920100I218750J0D01*
G01*
G37*
G36*
G01*
X21041650Y-94495100D02*
X21554150Y-94495100D01*
G75*
G02*
X21772900Y-94713850I0J-218750D01*
G01*
X21772900Y-95151350D01*
G75*
G02*
X21554150Y-95370100I-218750J0D01*
G01*
X21041650Y-95370100D01*
G75*
G02*
X20822900Y-95151350I0J218750D01*
G01*
X20822900Y-94713850D01*
G75*
G02*
X21041650Y-94495100I218750J0D01*
G01*
G37*
%TD*%
%TO.C,C46*%
G36*
G01*
X26244000Y-88008750D02*
X26244000Y-88521250D01*
G75*
G02*
X26025250Y-88740000I-218750J0D01*
G01*
X25587750Y-88740000D01*
G75*
G02*
X25369000Y-88521250I0J218750D01*
G01*
X25369000Y-88008750D01*
G75*
G02*
X25587750Y-87790000I218750J0D01*
G01*
X26025250Y-87790000D01*
G75*
G02*
X26244000Y-88008750I0J-218750D01*
G01*
G37*
G36*
G01*
X24669000Y-88008750D02*
X24669000Y-88521250D01*
G75*
G02*
X24450250Y-88740000I-218750J0D01*
G01*
X24012750Y-88740000D01*
G75*
G02*
X23794000Y-88521250I0J218750D01*
G01*
X23794000Y-88008750D01*
G75*
G02*
X24012750Y-87790000I218750J0D01*
G01*
X24450250Y-87790000D01*
G75*
G02*
X24669000Y-88008750I0J-218750D01*
G01*
G37*
%TD*%
%TO.C,C45*%
G36*
G01*
X26193200Y-97381350D02*
X26193200Y-97893850D01*
G75*
G02*
X25974450Y-98112600I-218750J0D01*
G01*
X25536950Y-98112600D01*
G75*
G02*
X25318200Y-97893850I0J218750D01*
G01*
X25318200Y-97381350D01*
G75*
G02*
X25536950Y-97162600I218750J0D01*
G01*
X25974450Y-97162600D01*
G75*
G02*
X26193200Y-97381350I0J-218750D01*
G01*
G37*
G36*
G01*
X24618200Y-97381350D02*
X24618200Y-97893850D01*
G75*
G02*
X24399450Y-98112600I-218750J0D01*
G01*
X23961950Y-98112600D01*
G75*
G02*
X23743200Y-97893850I0J218750D01*
G01*
X23743200Y-97381350D01*
G75*
G02*
X23961950Y-97162600I218750J0D01*
G01*
X24399450Y-97162600D01*
G75*
G02*
X24618200Y-97381350I0J-218750D01*
G01*
G37*
%TD*%
%TO.C,C42*%
G36*
G01*
X26244000Y-89405750D02*
X26244000Y-89918250D01*
G75*
G02*
X26025250Y-90137000I-218750J0D01*
G01*
X25587750Y-90137000D01*
G75*
G02*
X25369000Y-89918250I0J218750D01*
G01*
X25369000Y-89405750D01*
G75*
G02*
X25587750Y-89187000I218750J0D01*
G01*
X26025250Y-89187000D01*
G75*
G02*
X26244000Y-89405750I0J-218750D01*
G01*
G37*
G36*
G01*
X24669000Y-89405750D02*
X24669000Y-89918250D01*
G75*
G02*
X24450250Y-90137000I-218750J0D01*
G01*
X24012750Y-90137000D01*
G75*
G02*
X23794000Y-89918250I0J218750D01*
G01*
X23794000Y-89405750D01*
G75*
G02*
X24012750Y-89187000I218750J0D01*
G01*
X24450250Y-89187000D01*
G75*
G02*
X24669000Y-89405750I0J-218750D01*
G01*
G37*
%TD*%
%TO.C,R8*%
G36*
G01*
X43169550Y-81806500D02*
X42657050Y-81806500D01*
G75*
G02*
X42438300Y-81587750I0J218750D01*
G01*
X42438300Y-81150250D01*
G75*
G02*
X42657050Y-80931500I218750J0D01*
G01*
X43169550Y-80931500D01*
G75*
G02*
X43388300Y-81150250I0J-218750D01*
G01*
X43388300Y-81587750D01*
G75*
G02*
X43169550Y-81806500I-218750J0D01*
G01*
G37*
G36*
G01*
X43169550Y-80231500D02*
X42657050Y-80231500D01*
G75*
G02*
X42438300Y-80012750I0J218750D01*
G01*
X42438300Y-79575250D01*
G75*
G02*
X42657050Y-79356500I218750J0D01*
G01*
X43169550Y-79356500D01*
G75*
G02*
X43388300Y-79575250I0J-218750D01*
G01*
X43388300Y-80012750D01*
G75*
G02*
X43169550Y-80231500I-218750J0D01*
G01*
G37*
%TD*%
%TO.C,R7*%
G36*
G01*
X39257950Y-81806500D02*
X38745450Y-81806500D01*
G75*
G02*
X38526700Y-81587750I0J218750D01*
G01*
X38526700Y-81150250D01*
G75*
G02*
X38745450Y-80931500I218750J0D01*
G01*
X39257950Y-80931500D01*
G75*
G02*
X39476700Y-81150250I0J-218750D01*
G01*
X39476700Y-81587750D01*
G75*
G02*
X39257950Y-81806500I-218750J0D01*
G01*
G37*
G36*
G01*
X39257950Y-80231500D02*
X38745450Y-80231500D01*
G75*
G02*
X38526700Y-80012750I0J218750D01*
G01*
X38526700Y-79575250D01*
G75*
G02*
X38745450Y-79356500I218750J0D01*
G01*
X39257950Y-79356500D01*
G75*
G02*
X39476700Y-79575250I0J-218750D01*
G01*
X39476700Y-80012750D01*
G75*
G02*
X39257950Y-80231500I-218750J0D01*
G01*
G37*
%TD*%
%TO.C,R6*%
G36*
G01*
X35346350Y-81806500D02*
X34833850Y-81806500D01*
G75*
G02*
X34615100Y-81587750I0J218750D01*
G01*
X34615100Y-81150250D01*
G75*
G02*
X34833850Y-80931500I218750J0D01*
G01*
X35346350Y-80931500D01*
G75*
G02*
X35565100Y-81150250I0J-218750D01*
G01*
X35565100Y-81587750D01*
G75*
G02*
X35346350Y-81806500I-218750J0D01*
G01*
G37*
G36*
G01*
X35346350Y-80231500D02*
X34833850Y-80231500D01*
G75*
G02*
X34615100Y-80012750I0J218750D01*
G01*
X34615100Y-79575250D01*
G75*
G02*
X34833850Y-79356500I218750J0D01*
G01*
X35346350Y-79356500D01*
G75*
G02*
X35565100Y-79575250I0J-218750D01*
G01*
X35565100Y-80012750D01*
G75*
G02*
X35346350Y-80231500I-218750J0D01*
G01*
G37*
%TD*%
%TO.C,R5*%
G36*
G01*
X31434750Y-81806500D02*
X30922250Y-81806500D01*
G75*
G02*
X30703500Y-81587750I0J218750D01*
G01*
X30703500Y-81150250D01*
G75*
G02*
X30922250Y-80931500I218750J0D01*
G01*
X31434750Y-80931500D01*
G75*
G02*
X31653500Y-81150250I0J-218750D01*
G01*
X31653500Y-81587750D01*
G75*
G02*
X31434750Y-81806500I-218750J0D01*
G01*
G37*
G36*
G01*
X31434750Y-80231500D02*
X30922250Y-80231500D01*
G75*
G02*
X30703500Y-80012750I0J218750D01*
G01*
X30703500Y-79575250D01*
G75*
G02*
X30922250Y-79356500I218750J0D01*
G01*
X31434750Y-79356500D01*
G75*
G02*
X31653500Y-79575250I0J-218750D01*
G01*
X31653500Y-80012750D01*
G75*
G02*
X31434750Y-80231500I-218750J0D01*
G01*
G37*
%TD*%
%TO.C,J17*%
X39789100Y-81749900D03*
%TD*%
%TO.C,J13*%
X42926000Y-78600300D03*
%TD*%
%TO.C,J16*%
X43688000Y-81749900D03*
%TD*%
%TO.C,J12*%
X39005932Y-78600300D03*
%TD*%
%TO.C,J15*%
X31991300Y-81749900D03*
%TD*%
%TO.C,J11*%
X35085866Y-78600300D03*
%TD*%
%TO.C,J14*%
X35890200Y-81749900D03*
%TD*%
%TO.C,J10*%
X31165800Y-78600300D03*
%TD*%
%TO.C,R10*%
G36*
G01*
X41002500Y-98071650D02*
X41002500Y-97559150D01*
G75*
G02*
X41221250Y-97340400I218750J0D01*
G01*
X41658750Y-97340400D01*
G75*
G02*
X41877500Y-97559150I0J-218750D01*
G01*
X41877500Y-98071650D01*
G75*
G02*
X41658750Y-98290400I-218750J0D01*
G01*
X41221250Y-98290400D01*
G75*
G02*
X41002500Y-98071650I0J218750D01*
G01*
G37*
G36*
G01*
X42577500Y-98071650D02*
X42577500Y-97559150D01*
G75*
G02*
X42796250Y-97340400I218750J0D01*
G01*
X43233750Y-97340400D01*
G75*
G02*
X43452500Y-97559150I0J-218750D01*
G01*
X43452500Y-98071650D01*
G75*
G02*
X43233750Y-98290400I-218750J0D01*
G01*
X42796250Y-98290400D01*
G75*
G02*
X42577500Y-98071650I0J218750D01*
G01*
G37*
%TD*%
%TO.C,R9*%
G36*
G01*
X41002500Y-95315750D02*
X41002500Y-94803250D01*
G75*
G02*
X41221250Y-94584500I218750J0D01*
G01*
X41658750Y-94584500D01*
G75*
G02*
X41877500Y-94803250I0J-218750D01*
G01*
X41877500Y-95315750D01*
G75*
G02*
X41658750Y-95534500I-218750J0D01*
G01*
X41221250Y-95534500D01*
G75*
G02*
X41002500Y-95315750I0J218750D01*
G01*
G37*
G36*
G01*
X42577500Y-95315750D02*
X42577500Y-94803250D01*
G75*
G02*
X42796250Y-94584500I218750J0D01*
G01*
X43233750Y-94584500D01*
G75*
G02*
X43452500Y-94803250I0J-218750D01*
G01*
X43452500Y-95315750D01*
G75*
G02*
X43233750Y-95534500I-218750J0D01*
G01*
X42796250Y-95534500D01*
G75*
G02*
X42577500Y-95315750I0J218750D01*
G01*
G37*
%TD*%
%TO.C,C15*%
G36*
G01*
X46057100Y-86235250D02*
X46057100Y-85722750D01*
G75*
G02*
X46275850Y-85504000I218750J0D01*
G01*
X46713350Y-85504000D01*
G75*
G02*
X46932100Y-85722750I0J-218750D01*
G01*
X46932100Y-86235250D01*
G75*
G02*
X46713350Y-86454000I-218750J0D01*
G01*
X46275850Y-86454000D01*
G75*
G02*
X46057100Y-86235250I0J218750D01*
G01*
G37*
G36*
G01*
X47632100Y-86235250D02*
X47632100Y-85722750D01*
G75*
G02*
X47850850Y-85504000I218750J0D01*
G01*
X48288350Y-85504000D01*
G75*
G02*
X48507100Y-85722750I0J-218750D01*
G01*
X48507100Y-86235250D01*
G75*
G02*
X48288350Y-86454000I-218750J0D01*
G01*
X47850850Y-86454000D01*
G75*
G02*
X47632100Y-86235250I0J218750D01*
G01*
G37*
%TD*%
%TO.C,D1*%
G36*
G01*
X55890450Y-97631800D02*
X56402950Y-97631800D01*
G75*
G02*
X56621700Y-97850550I0J-218750D01*
G01*
X56621700Y-98288050D01*
G75*
G02*
X56402950Y-98506800I-218750J0D01*
G01*
X55890450Y-98506800D01*
G75*
G02*
X55671700Y-98288050I0J218750D01*
G01*
X55671700Y-97850550D01*
G75*
G02*
X55890450Y-97631800I218750J0D01*
G01*
G37*
G36*
G01*
X55890450Y-99206800D02*
X56402950Y-99206800D01*
G75*
G02*
X56621700Y-99425550I0J-218750D01*
G01*
X56621700Y-99863050D01*
G75*
G02*
X56402950Y-100081800I-218750J0D01*
G01*
X55890450Y-100081800D01*
G75*
G02*
X55671700Y-99863050I0J218750D01*
G01*
X55671700Y-99425550D01*
G75*
G02*
X55890450Y-99206800I218750J0D01*
G01*
G37*
%TD*%
%TO.C,D2*%
G36*
G01*
X54468050Y-97619100D02*
X54980550Y-97619100D01*
G75*
G02*
X55199300Y-97837850I0J-218750D01*
G01*
X55199300Y-98275350D01*
G75*
G02*
X54980550Y-98494100I-218750J0D01*
G01*
X54468050Y-98494100D01*
G75*
G02*
X54249300Y-98275350I0J218750D01*
G01*
X54249300Y-97837850D01*
G75*
G02*
X54468050Y-97619100I218750J0D01*
G01*
G37*
G36*
G01*
X54468050Y-99194100D02*
X54980550Y-99194100D01*
G75*
G02*
X55199300Y-99412850I0J-218750D01*
G01*
X55199300Y-99850350D01*
G75*
G02*
X54980550Y-100069100I-218750J0D01*
G01*
X54468050Y-100069100D01*
G75*
G02*
X54249300Y-99850350I0J218750D01*
G01*
X54249300Y-99412850D01*
G75*
G02*
X54468050Y-99194100I218750J0D01*
G01*
G37*
%TD*%
%TO.C,C39*%
G36*
G01*
X44587450Y-95968100D02*
X45099950Y-95968100D01*
G75*
G02*
X45318700Y-96186850I0J-218750D01*
G01*
X45318700Y-96624350D01*
G75*
G02*
X45099950Y-96843100I-218750J0D01*
G01*
X44587450Y-96843100D01*
G75*
G02*
X44368700Y-96624350I0J218750D01*
G01*
X44368700Y-96186850D01*
G75*
G02*
X44587450Y-95968100I218750J0D01*
G01*
G37*
G36*
G01*
X44587450Y-97543100D02*
X45099950Y-97543100D01*
G75*
G02*
X45318700Y-97761850I0J-218750D01*
G01*
X45318700Y-98199350D01*
G75*
G02*
X45099950Y-98418100I-218750J0D01*
G01*
X44587450Y-98418100D01*
G75*
G02*
X44368700Y-98199350I0J218750D01*
G01*
X44368700Y-97761850D01*
G75*
G02*
X44587450Y-97543100I218750J0D01*
G01*
G37*
%TD*%
%TO.C,C26*%
G36*
G01*
X42957200Y-88465950D02*
X42957200Y-88978450D01*
G75*
G02*
X42738450Y-89197200I-218750J0D01*
G01*
X42300950Y-89197200D01*
G75*
G02*
X42082200Y-88978450I0J218750D01*
G01*
X42082200Y-88465950D01*
G75*
G02*
X42300950Y-88247200I218750J0D01*
G01*
X42738450Y-88247200D01*
G75*
G02*
X42957200Y-88465950I0J-218750D01*
G01*
G37*
G36*
G01*
X41382200Y-88465950D02*
X41382200Y-88978450D01*
G75*
G02*
X41163450Y-89197200I-218750J0D01*
G01*
X40725950Y-89197200D01*
G75*
G02*
X40507200Y-88978450I0J218750D01*
G01*
X40507200Y-88465950D01*
G75*
G02*
X40725950Y-88247200I218750J0D01*
G01*
X41163450Y-88247200D01*
G75*
G02*
X41382200Y-88465950I0J-218750D01*
G01*
G37*
%TD*%
%TO.C,C25*%
G36*
G01*
X42957200Y-91183750D02*
X42957200Y-91696250D01*
G75*
G02*
X42738450Y-91915000I-218750J0D01*
G01*
X42300950Y-91915000D01*
G75*
G02*
X42082200Y-91696250I0J218750D01*
G01*
X42082200Y-91183750D01*
G75*
G02*
X42300950Y-90965000I218750J0D01*
G01*
X42738450Y-90965000D01*
G75*
G02*
X42957200Y-91183750I0J-218750D01*
G01*
G37*
G36*
G01*
X41382200Y-91183750D02*
X41382200Y-91696250D01*
G75*
G02*
X41163450Y-91915000I-218750J0D01*
G01*
X40725950Y-91915000D01*
G75*
G02*
X40507200Y-91696250I0J218750D01*
G01*
X40507200Y-91183750D01*
G75*
G02*
X40725950Y-90965000I218750J0D01*
G01*
X41163450Y-90965000D01*
G75*
G02*
X41382200Y-91183750I0J-218750D01*
G01*
G37*
%TD*%
%TO.C,C20*%
G36*
G01*
X38818100Y-99608350D02*
X38818100Y-99095850D01*
G75*
G02*
X39036850Y-98877100I218750J0D01*
G01*
X39474350Y-98877100D01*
G75*
G02*
X39693100Y-99095850I0J-218750D01*
G01*
X39693100Y-99608350D01*
G75*
G02*
X39474350Y-99827100I-218750J0D01*
G01*
X39036850Y-99827100D01*
G75*
G02*
X38818100Y-99608350I0J218750D01*
G01*
G37*
G36*
G01*
X40393100Y-99608350D02*
X40393100Y-99095850D01*
G75*
G02*
X40611850Y-98877100I218750J0D01*
G01*
X41049350Y-98877100D01*
G75*
G02*
X41268100Y-99095850I0J-218750D01*
G01*
X41268100Y-99608350D01*
G75*
G02*
X41049350Y-99827100I-218750J0D01*
G01*
X40611850Y-99827100D01*
G75*
G02*
X40393100Y-99608350I0J218750D01*
G01*
G37*
%TD*%
%TO.C,C16*%
G36*
G01*
X39278850Y-85668400D02*
X39791350Y-85668400D01*
G75*
G02*
X40010100Y-85887150I0J-218750D01*
G01*
X40010100Y-86324650D01*
G75*
G02*
X39791350Y-86543400I-218750J0D01*
G01*
X39278850Y-86543400D01*
G75*
G02*
X39060100Y-86324650I0J218750D01*
G01*
X39060100Y-85887150D01*
G75*
G02*
X39278850Y-85668400I218750J0D01*
G01*
G37*
G36*
G01*
X39278850Y-87243400D02*
X39791350Y-87243400D01*
G75*
G02*
X40010100Y-87462150I0J-218750D01*
G01*
X40010100Y-87899650D01*
G75*
G02*
X39791350Y-88118400I-218750J0D01*
G01*
X39278850Y-88118400D01*
G75*
G02*
X39060100Y-87899650I0J218750D01*
G01*
X39060100Y-87462150D01*
G75*
G02*
X39278850Y-87243400I218750J0D01*
G01*
G37*
%TD*%
%TO.C,C12*%
G36*
G01*
X49951350Y-99853200D02*
X49438850Y-99853200D01*
G75*
G02*
X49220100Y-99634450I0J218750D01*
G01*
X49220100Y-99196950D01*
G75*
G02*
X49438850Y-98978200I218750J0D01*
G01*
X49951350Y-98978200D01*
G75*
G02*
X50170100Y-99196950I0J-218750D01*
G01*
X50170100Y-99634450D01*
G75*
G02*
X49951350Y-99853200I-218750J0D01*
G01*
G37*
G36*
G01*
X49951350Y-98278200D02*
X49438850Y-98278200D01*
G75*
G02*
X49220100Y-98059450I0J218750D01*
G01*
X49220100Y-97621950D01*
G75*
G02*
X49438850Y-97403200I218750J0D01*
G01*
X49951350Y-97403200D01*
G75*
G02*
X50170100Y-97621950I0J-218750D01*
G01*
X50170100Y-98059450D01*
G75*
G02*
X49951350Y-98278200I-218750J0D01*
G01*
G37*
%TD*%
%TO.C,C10*%
G36*
G01*
X51361050Y-99853200D02*
X50848550Y-99853200D01*
G75*
G02*
X50629800Y-99634450I0J218750D01*
G01*
X50629800Y-99196950D01*
G75*
G02*
X50848550Y-98978200I218750J0D01*
G01*
X51361050Y-98978200D01*
G75*
G02*
X51579800Y-99196950I0J-218750D01*
G01*
X51579800Y-99634450D01*
G75*
G02*
X51361050Y-99853200I-218750J0D01*
G01*
G37*
G36*
G01*
X51361050Y-98278200D02*
X50848550Y-98278200D01*
G75*
G02*
X50629800Y-98059450I0J218750D01*
G01*
X50629800Y-97621950D01*
G75*
G02*
X50848550Y-97403200I218750J0D01*
G01*
X51361050Y-97403200D01*
G75*
G02*
X51579800Y-97621950I0J-218750D01*
G01*
X51579800Y-98059450D01*
G75*
G02*
X51361050Y-98278200I-218750J0D01*
G01*
G37*
%TD*%
D18*
%TO.C,Y2*%
X57404000Y-88370000D03*
X57404000Y-91970000D03*
%TD*%
D14*
%TO.C,J23*%
X21297900Y-86106000D03*
%TD*%
%TO.C,J22*%
X28587700Y-88938100D03*
%TD*%
%TO.C,J21*%
X21297900Y-88709500D03*
%TD*%
%TO.C,J20*%
X28575000Y-91651666D03*
%TD*%
%TO.C,J19*%
X28575000Y-95025632D03*
%TD*%
%TO.C,J18*%
X28575000Y-97828100D03*
%TD*%
%TO.C,C7*%
G36*
G01*
X59315900Y-92547150D02*
X59315900Y-92034650D01*
G75*
G02*
X59534650Y-91815900I218750J0D01*
G01*
X59972150Y-91815900D01*
G75*
G02*
X60190900Y-92034650I0J-218750D01*
G01*
X60190900Y-92547150D01*
G75*
G02*
X59972150Y-92765900I-218750J0D01*
G01*
X59534650Y-92765900D01*
G75*
G02*
X59315900Y-92547150I0J218750D01*
G01*
G37*
G36*
G01*
X60890900Y-92547150D02*
X60890900Y-92034650D01*
G75*
G02*
X61109650Y-91815900I218750J0D01*
G01*
X61547150Y-91815900D01*
G75*
G02*
X61765900Y-92034650I0J-218750D01*
G01*
X61765900Y-92547150D01*
G75*
G02*
X61547150Y-92765900I-218750J0D01*
G01*
X61109650Y-92765900D01*
G75*
G02*
X60890900Y-92547150I0J218750D01*
G01*
G37*
%TD*%
%TO.C,C4*%
G36*
G01*
X59315900Y-88356150D02*
X59315900Y-87843650D01*
G75*
G02*
X59534650Y-87624900I218750J0D01*
G01*
X59972150Y-87624900D01*
G75*
G02*
X60190900Y-87843650I0J-218750D01*
G01*
X60190900Y-88356150D01*
G75*
G02*
X59972150Y-88574900I-218750J0D01*
G01*
X59534650Y-88574900D01*
G75*
G02*
X59315900Y-88356150I0J218750D01*
G01*
G37*
G36*
G01*
X60890900Y-88356150D02*
X60890900Y-87843650D01*
G75*
G02*
X61109650Y-87624900I218750J0D01*
G01*
X61547150Y-87624900D01*
G75*
G02*
X61765900Y-87843650I0J-218750D01*
G01*
X61765900Y-88356150D01*
G75*
G02*
X61547150Y-88574900I-218750J0D01*
G01*
X61109650Y-88574900D01*
G75*
G02*
X60890900Y-88356150I0J218750D01*
G01*
G37*
%TD*%
%TO.C,C36*%
G36*
G01*
X22819300Y-63549850D02*
X22819300Y-62637350D01*
G75*
G02*
X23063050Y-62393600I243750J0D01*
G01*
X23550550Y-62393600D01*
G75*
G02*
X23794300Y-62637350I0J-243750D01*
G01*
X23794300Y-63549850D01*
G75*
G02*
X23550550Y-63793600I-243750J0D01*
G01*
X23063050Y-63793600D01*
G75*
G02*
X22819300Y-63549850I0J243750D01*
G01*
G37*
G36*
G01*
X24694300Y-63549850D02*
X24694300Y-62637350D01*
G75*
G02*
X24938050Y-62393600I243750J0D01*
G01*
X25425550Y-62393600D01*
G75*
G02*
X25669300Y-62637350I0J-243750D01*
G01*
X25669300Y-63549850D01*
G75*
G02*
X25425550Y-63793600I-243750J0D01*
G01*
X24938050Y-63793600D01*
G75*
G02*
X24694300Y-63549850I0J243750D01*
G01*
G37*
%TD*%
%TO.C,C37*%
G36*
G01*
X21917600Y-66470850D02*
X21917600Y-65558350D01*
G75*
G02*
X22161350Y-65314600I243750J0D01*
G01*
X22648850Y-65314600D01*
G75*
G02*
X22892600Y-65558350I0J-243750D01*
G01*
X22892600Y-66470850D01*
G75*
G02*
X22648850Y-66714600I-243750J0D01*
G01*
X22161350Y-66714600D01*
G75*
G02*
X21917600Y-66470850I0J243750D01*
G01*
G37*
G36*
G01*
X23792600Y-66470850D02*
X23792600Y-65558350D01*
G75*
G02*
X24036350Y-65314600I243750J0D01*
G01*
X24523850Y-65314600D01*
G75*
G02*
X24767600Y-65558350I0J-243750D01*
G01*
X24767600Y-66470850D01*
G75*
G02*
X24523850Y-66714600I-243750J0D01*
G01*
X24036350Y-66714600D01*
G75*
G02*
X23792600Y-66470850I0J243750D01*
G01*
G37*
%TD*%
%TO.C,C23*%
G36*
G01*
X22705000Y-75144950D02*
X22705000Y-74232450D01*
G75*
G02*
X22948750Y-73988700I243750J0D01*
G01*
X23436250Y-73988700D01*
G75*
G02*
X23680000Y-74232450I0J-243750D01*
G01*
X23680000Y-75144950D01*
G75*
G02*
X23436250Y-75388700I-243750J0D01*
G01*
X22948750Y-75388700D01*
G75*
G02*
X22705000Y-75144950I0J243750D01*
G01*
G37*
G36*
G01*
X24580000Y-75144950D02*
X24580000Y-74232450D01*
G75*
G02*
X24823750Y-73988700I243750J0D01*
G01*
X25311250Y-73988700D01*
G75*
G02*
X25555000Y-74232450I0J-243750D01*
G01*
X25555000Y-75144950D01*
G75*
G02*
X25311250Y-75388700I-243750J0D01*
G01*
X24823750Y-75388700D01*
G75*
G02*
X24580000Y-75144950I0J243750D01*
G01*
G37*
%TD*%
%TO.C,C13*%
G36*
G01*
X41234300Y-64896050D02*
X41234300Y-63983550D01*
G75*
G02*
X41478050Y-63739800I243750J0D01*
G01*
X41965550Y-63739800D01*
G75*
G02*
X42209300Y-63983550I0J-243750D01*
G01*
X42209300Y-64896050D01*
G75*
G02*
X41965550Y-65139800I-243750J0D01*
G01*
X41478050Y-65139800D01*
G75*
G02*
X41234300Y-64896050I0J243750D01*
G01*
G37*
G36*
G01*
X43109300Y-64896050D02*
X43109300Y-63983550D01*
G75*
G02*
X43353050Y-63739800I243750J0D01*
G01*
X43840550Y-63739800D01*
G75*
G02*
X44084300Y-63983550I0J-243750D01*
G01*
X44084300Y-64896050D01*
G75*
G02*
X43840550Y-65139800I-243750J0D01*
G01*
X43353050Y-65139800D01*
G75*
G02*
X43109300Y-64896050I0J243750D01*
G01*
G37*
%TD*%
%TO.C,C11*%
G36*
G01*
X33552450Y-65064700D02*
X32639950Y-65064700D01*
G75*
G02*
X32396200Y-64820950I0J243750D01*
G01*
X32396200Y-64333450D01*
G75*
G02*
X32639950Y-64089700I243750J0D01*
G01*
X33552450Y-64089700D01*
G75*
G02*
X33796200Y-64333450I0J-243750D01*
G01*
X33796200Y-64820950D01*
G75*
G02*
X33552450Y-65064700I-243750J0D01*
G01*
G37*
G36*
G01*
X33552450Y-63189700D02*
X32639950Y-63189700D01*
G75*
G02*
X32396200Y-62945950I0J243750D01*
G01*
X32396200Y-62458450D01*
G75*
G02*
X32639950Y-62214700I243750J0D01*
G01*
X33552450Y-62214700D01*
G75*
G02*
X33796200Y-62458450I0J-243750D01*
G01*
X33796200Y-62945950D01*
G75*
G02*
X33552450Y-63189700I-243750J0D01*
G01*
G37*
%TD*%
%TO.C,C9*%
G36*
G01*
X33581400Y-72086150D02*
X33581400Y-72998650D01*
G75*
G02*
X33337650Y-73242400I-243750J0D01*
G01*
X32850150Y-73242400D01*
G75*
G02*
X32606400Y-72998650I0J243750D01*
G01*
X32606400Y-72086150D01*
G75*
G02*
X32850150Y-71842400I243750J0D01*
G01*
X33337650Y-71842400D01*
G75*
G02*
X33581400Y-72086150I0J-243750D01*
G01*
G37*
G36*
G01*
X31706400Y-72086150D02*
X31706400Y-72998650D01*
G75*
G02*
X31462650Y-73242400I-243750J0D01*
G01*
X30975150Y-73242400D01*
G75*
G02*
X30731400Y-72998650I0J243750D01*
G01*
X30731400Y-72086150D01*
G75*
G02*
X30975150Y-71842400I243750J0D01*
G01*
X31462650Y-71842400D01*
G75*
G02*
X31706400Y-72086150I0J-243750D01*
G01*
G37*
%TD*%
%TO.C,C8*%
G36*
G01*
X40739000Y-73227250D02*
X40739000Y-72314750D01*
G75*
G02*
X40982750Y-72071000I243750J0D01*
G01*
X41470250Y-72071000D01*
G75*
G02*
X41714000Y-72314750I0J-243750D01*
G01*
X41714000Y-73227250D01*
G75*
G02*
X41470250Y-73471000I-243750J0D01*
G01*
X40982750Y-73471000D01*
G75*
G02*
X40739000Y-73227250I0J243750D01*
G01*
G37*
G36*
G01*
X42614000Y-73227250D02*
X42614000Y-72314750D01*
G75*
G02*
X42857750Y-72071000I243750J0D01*
G01*
X43345250Y-72071000D01*
G75*
G02*
X43589000Y-72314750I0J-243750D01*
G01*
X43589000Y-73227250D01*
G75*
G02*
X43345250Y-73471000I-243750J0D01*
G01*
X42857750Y-73471000D01*
G75*
G02*
X42614000Y-73227250I0J243750D01*
G01*
G37*
%TD*%
D15*
%TO.C,U1*%
X33165800Y-65703000D03*
X33165800Y-66203000D03*
X33165800Y-66703000D03*
X33165800Y-67203000D03*
X33165800Y-67703000D03*
X33165800Y-68203000D03*
X33165800Y-68703000D03*
X33165800Y-69203000D03*
X33165800Y-69703000D03*
X33165800Y-70203000D03*
X33165800Y-70703000D03*
X33165800Y-71203000D03*
D16*
X34765800Y-72803000D03*
X35265800Y-72803000D03*
X35765800Y-72803000D03*
X36265800Y-72803000D03*
X36765800Y-72803000D03*
X37265800Y-72803000D03*
X37765800Y-72803000D03*
X38265800Y-72803000D03*
X38765800Y-72803000D03*
X39265800Y-72803000D03*
X39765800Y-72803000D03*
X40265800Y-72803000D03*
D15*
X41865800Y-71203000D03*
X41865800Y-70703000D03*
X41865800Y-70203000D03*
X41865800Y-69703000D03*
X41865800Y-69203000D03*
X41865800Y-68703000D03*
X41865800Y-68203000D03*
X41865800Y-67703000D03*
X41865800Y-67203000D03*
X41865800Y-66703000D03*
X41865800Y-66203000D03*
X41865800Y-65703000D03*
D16*
X40265800Y-64103000D03*
X39765800Y-64103000D03*
X39265800Y-64103000D03*
X38765800Y-64103000D03*
X38265800Y-64103000D03*
X37765800Y-64103000D03*
X37265800Y-64103000D03*
X36765800Y-64103000D03*
X36265800Y-64103000D03*
X35765800Y-64103000D03*
X35265800Y-64103000D03*
X34765800Y-64103000D03*
%TD*%
D14*
%TO.C,J9*%
X43776900Y-62534800D03*
%TD*%
%TO.C,J8*%
X46736000Y-64998600D03*
%TD*%
%TO.C,J2*%
X38612232Y-61417200D03*
%TD*%
%TO.C,J1*%
X40640000Y-61417200D03*
%TD*%
%TO.C,J5*%
X28321000Y-69164200D03*
%TD*%
M02*
