%TF.GenerationSoftware,KiCad,Pcbnew,5.1.9+dfsg1-1*%
%TF.CreationDate,2022-04-21T18:50:00+03:00*%
%TF.ProjectId,Anemometr,416e656d-6f6d-4657-9472-2e6b69636164,rev?*%
%TF.SameCoordinates,Original*%
%TF.FileFunction,Soldermask,Bot*%
%TF.FilePolarity,Negative*%
%FSLAX46Y46*%
G04 Gerber Fmt 4.6, Leading zero omitted, Abs format (unit mm)*
G04 Created by KiCad (PCBNEW 5.1.9+dfsg1-1) date 2022-04-21 18:50:00*
%MOMM*%
%LPD*%
G01*
G04 APERTURE LIST*
%ADD10C,0.100000*%
%ADD11R,0.775000X0.890000*%
%ADD12R,2.790000X0.870000*%
%ADD13R,1.060000X0.650000*%
%ADD14R,1.550000X1.270000*%
%ADD15R,1.000000X0.800000*%
%ADD16R,0.900000X0.800000*%
%ADD17R,1.200000X0.900000*%
%ADD18R,0.900000X1.200000*%
%ADD19R,0.600000X1.550000*%
%ADD20C,1.524000*%
%ADD21R,1.450000X0.450000*%
G04 APERTURE END LIST*
%TO.C,C59*%
G36*
G01*
X25445200Y-72849450D02*
X25445200Y-72336950D01*
G75*
G02*
X25663950Y-72118200I218750J0D01*
G01*
X26101450Y-72118200D01*
G75*
G02*
X26320200Y-72336950I0J-218750D01*
G01*
X26320200Y-72849450D01*
G75*
G02*
X26101450Y-73068200I-218750J0D01*
G01*
X25663950Y-73068200D01*
G75*
G02*
X25445200Y-72849450I0J218750D01*
G01*
G37*
G36*
G01*
X23870200Y-72849450D02*
X23870200Y-72336950D01*
G75*
G02*
X24088950Y-72118200I218750J0D01*
G01*
X24526450Y-72118200D01*
G75*
G02*
X24745200Y-72336950I0J-218750D01*
G01*
X24745200Y-72849450D01*
G75*
G02*
X24526450Y-73068200I-218750J0D01*
G01*
X24088950Y-73068200D01*
G75*
G02*
X23870200Y-72849450I0J218750D01*
G01*
G37*
%TD*%
D10*
%TO.C,L5*%
G36*
X62171221Y-84517550D02*
G01*
X61618204Y-85080305D01*
X61261579Y-84729850D01*
X61814596Y-84167095D01*
X62171221Y-84517550D01*
G37*
G36*
X61742874Y-83987932D02*
G01*
X61148133Y-84568315D01*
X60798926Y-84210468D01*
X61393667Y-83630085D01*
X61742874Y-83987932D01*
G37*
D11*
X61780900Y-84075200D03*
D10*
G36*
X58828596Y-85080305D02*
G01*
X58275579Y-84517550D01*
X58632204Y-84167095D01*
X59185221Y-84729850D01*
X58828596Y-85080305D01*
G37*
G36*
X59298667Y-84568315D02*
G01*
X58703926Y-83987932D01*
X59053133Y-83630085D01*
X59647874Y-84210468D01*
X59298667Y-84568315D01*
G37*
D11*
X58665900Y-84075200D03*
D12*
X60223400Y-84645200D03*
D10*
G36*
X61393667Y-82130315D02*
G01*
X60798926Y-81549932D01*
X61148133Y-81192085D01*
X61742874Y-81772468D01*
X61393667Y-82130315D01*
G37*
D11*
X61780900Y-81685200D03*
D10*
G36*
X61814596Y-81593305D02*
G01*
X61261579Y-81030550D01*
X61618204Y-80680095D01*
X62171221Y-81242850D01*
X61814596Y-81593305D01*
G37*
G36*
X59185221Y-81030550D02*
G01*
X58632204Y-81593305D01*
X58275579Y-81242850D01*
X58828596Y-80680095D01*
X59185221Y-81030550D01*
G37*
G36*
X59647874Y-81549932D02*
G01*
X59053133Y-82130315D01*
X58703926Y-81772468D01*
X59298667Y-81192085D01*
X59647874Y-81549932D01*
G37*
D11*
X58665900Y-81685200D03*
D12*
X60223400Y-81115200D03*
%TD*%
%TO.C,D4*%
G36*
G01*
X47986200Y-66952150D02*
X47986200Y-67464650D01*
G75*
G02*
X47767450Y-67683400I-218750J0D01*
G01*
X47329950Y-67683400D01*
G75*
G02*
X47111200Y-67464650I0J218750D01*
G01*
X47111200Y-66952150D01*
G75*
G02*
X47329950Y-66733400I218750J0D01*
G01*
X47767450Y-66733400D01*
G75*
G02*
X47986200Y-66952150I0J-218750D01*
G01*
G37*
G36*
G01*
X49561200Y-66952150D02*
X49561200Y-67464650D01*
G75*
G02*
X49342450Y-67683400I-218750J0D01*
G01*
X48904950Y-67683400D01*
G75*
G02*
X48686200Y-67464650I0J218750D01*
G01*
X48686200Y-66952150D01*
G75*
G02*
X48904950Y-66733400I218750J0D01*
G01*
X49342450Y-66733400D01*
G75*
G02*
X49561200Y-66952150I0J-218750D01*
G01*
G37*
%TD*%
%TO.C,R15*%
G36*
G01*
X58528500Y-63400650D02*
X58528500Y-62888150D01*
G75*
G02*
X58747250Y-62669400I218750J0D01*
G01*
X59184750Y-62669400D01*
G75*
G02*
X59403500Y-62888150I0J-218750D01*
G01*
X59403500Y-63400650D01*
G75*
G02*
X59184750Y-63619400I-218750J0D01*
G01*
X58747250Y-63619400D01*
G75*
G02*
X58528500Y-63400650I0J218750D01*
G01*
G37*
G36*
G01*
X60103500Y-63400650D02*
X60103500Y-62888150D01*
G75*
G02*
X60322250Y-62669400I218750J0D01*
G01*
X60759750Y-62669400D01*
G75*
G02*
X60978500Y-62888150I0J-218750D01*
G01*
X60978500Y-63400650D01*
G75*
G02*
X60759750Y-63619400I-218750J0D01*
G01*
X60322250Y-63619400D01*
G75*
G02*
X60103500Y-63400650I0J218750D01*
G01*
G37*
%TD*%
%TO.C,D5*%
G36*
G01*
X57157100Y-63426050D02*
X57157100Y-62913550D01*
G75*
G02*
X57375850Y-62694800I218750J0D01*
G01*
X57813350Y-62694800D01*
G75*
G02*
X58032100Y-62913550I0J-218750D01*
G01*
X58032100Y-63426050D01*
G75*
G02*
X57813350Y-63644800I-218750J0D01*
G01*
X57375850Y-63644800D01*
G75*
G02*
X57157100Y-63426050I0J218750D01*
G01*
G37*
G36*
G01*
X55582100Y-63426050D02*
X55582100Y-62913550D01*
G75*
G02*
X55800850Y-62694800I218750J0D01*
G01*
X56238350Y-62694800D01*
G75*
G02*
X56457100Y-62913550I0J-218750D01*
G01*
X56457100Y-63426050D01*
G75*
G02*
X56238350Y-63644800I-218750J0D01*
G01*
X55800850Y-63644800D01*
G75*
G02*
X55582100Y-63426050I0J218750D01*
G01*
G37*
%TD*%
%TO.C,C54*%
G36*
G01*
X61463500Y-86982000D02*
X59313500Y-86982000D01*
G75*
G02*
X59063500Y-86732000I0J250000D01*
G01*
X59063500Y-85982000D01*
G75*
G02*
X59313500Y-85732000I250000J0D01*
G01*
X61463500Y-85732000D01*
G75*
G02*
X61713500Y-85982000I0J-250000D01*
G01*
X61713500Y-86732000D01*
G75*
G02*
X61463500Y-86982000I-250000J0D01*
G01*
G37*
G36*
G01*
X61463500Y-89782000D02*
X59313500Y-89782000D01*
G75*
G02*
X59063500Y-89532000I0J250000D01*
G01*
X59063500Y-88782000D01*
G75*
G02*
X59313500Y-88532000I250000J0D01*
G01*
X61463500Y-88532000D01*
G75*
G02*
X61713500Y-88782000I0J-250000D01*
G01*
X61713500Y-89532000D01*
G75*
G02*
X61463500Y-89782000I-250000J0D01*
G01*
G37*
%TD*%
%TO.C,R42*%
G36*
G01*
X47440100Y-82738250D02*
X47440100Y-83250750D01*
G75*
G02*
X47221350Y-83469500I-218750J0D01*
G01*
X46783850Y-83469500D01*
G75*
G02*
X46565100Y-83250750I0J218750D01*
G01*
X46565100Y-82738250D01*
G75*
G02*
X46783850Y-82519500I218750J0D01*
G01*
X47221350Y-82519500D01*
G75*
G02*
X47440100Y-82738250I0J-218750D01*
G01*
G37*
G36*
G01*
X49015100Y-82738250D02*
X49015100Y-83250750D01*
G75*
G02*
X48796350Y-83469500I-218750J0D01*
G01*
X48358850Y-83469500D01*
G75*
G02*
X48140100Y-83250750I0J218750D01*
G01*
X48140100Y-82738250D01*
G75*
G02*
X48358850Y-82519500I218750J0D01*
G01*
X48796350Y-82519500D01*
G75*
G02*
X49015100Y-82738250I0J-218750D01*
G01*
G37*
%TD*%
%TO.C,R41*%
G36*
G01*
X47452800Y-81392050D02*
X47452800Y-81904550D01*
G75*
G02*
X47234050Y-82123300I-218750J0D01*
G01*
X46796550Y-82123300D01*
G75*
G02*
X46577800Y-81904550I0J218750D01*
G01*
X46577800Y-81392050D01*
G75*
G02*
X46796550Y-81173300I218750J0D01*
G01*
X47234050Y-81173300D01*
G75*
G02*
X47452800Y-81392050I0J-218750D01*
G01*
G37*
G36*
G01*
X49027800Y-81392050D02*
X49027800Y-81904550D01*
G75*
G02*
X48809050Y-82123300I-218750J0D01*
G01*
X48371550Y-82123300D01*
G75*
G02*
X48152800Y-81904550I0J218750D01*
G01*
X48152800Y-81392050D01*
G75*
G02*
X48371550Y-81173300I218750J0D01*
G01*
X48809050Y-81173300D01*
G75*
G02*
X49027800Y-81392050I0J-218750D01*
G01*
G37*
%TD*%
%TO.C,D17*%
G36*
G01*
X54720100Y-83030200D02*
X54720100Y-82730200D01*
G75*
G02*
X54870100Y-82580200I150000J0D01*
G01*
X56170100Y-82580200D01*
G75*
G02*
X56320100Y-82730200I0J-150000D01*
G01*
X56320100Y-83030200D01*
G75*
G02*
X56170100Y-83180200I-150000J0D01*
G01*
X54870100Y-83180200D01*
G75*
G02*
X54720100Y-83030200I0J150000D01*
G01*
G37*
G36*
G01*
X54720100Y-81760200D02*
X54720100Y-81460200D01*
G75*
G02*
X54870100Y-81310200I150000J0D01*
G01*
X56170100Y-81310200D01*
G75*
G02*
X56320100Y-81460200I0J-150000D01*
G01*
X56320100Y-81760200D01*
G75*
G02*
X56170100Y-81910200I-150000J0D01*
G01*
X54870100Y-81910200D01*
G75*
G02*
X54720100Y-81760200I0J150000D01*
G01*
G37*
G36*
G01*
X54720100Y-80490200D02*
X54720100Y-80190200D01*
G75*
G02*
X54870100Y-80040200I150000J0D01*
G01*
X56170100Y-80040200D01*
G75*
G02*
X56320100Y-80190200I0J-150000D01*
G01*
X56320100Y-80490200D01*
G75*
G02*
X56170100Y-80640200I-150000J0D01*
G01*
X54870100Y-80640200D01*
G75*
G02*
X54720100Y-80490200I0J150000D01*
G01*
G37*
G36*
G01*
X54720100Y-79220200D02*
X54720100Y-78920200D01*
G75*
G02*
X54870100Y-78770200I150000J0D01*
G01*
X56170100Y-78770200D01*
G75*
G02*
X56320100Y-78920200I0J-150000D01*
G01*
X56320100Y-79220200D01*
G75*
G02*
X56170100Y-79370200I-150000J0D01*
G01*
X54870100Y-79370200D01*
G75*
G02*
X54720100Y-79220200I0J150000D01*
G01*
G37*
G36*
G01*
X49420100Y-79220200D02*
X49420100Y-78920200D01*
G75*
G02*
X49570100Y-78770200I150000J0D01*
G01*
X50870100Y-78770200D01*
G75*
G02*
X51020100Y-78920200I0J-150000D01*
G01*
X51020100Y-79220200D01*
G75*
G02*
X50870100Y-79370200I-150000J0D01*
G01*
X49570100Y-79370200D01*
G75*
G02*
X49420100Y-79220200I0J150000D01*
G01*
G37*
G36*
G01*
X49420100Y-80490200D02*
X49420100Y-80190200D01*
G75*
G02*
X49570100Y-80040200I150000J0D01*
G01*
X50870100Y-80040200D01*
G75*
G02*
X51020100Y-80190200I0J-150000D01*
G01*
X51020100Y-80490200D01*
G75*
G02*
X50870100Y-80640200I-150000J0D01*
G01*
X49570100Y-80640200D01*
G75*
G02*
X49420100Y-80490200I0J150000D01*
G01*
G37*
G36*
G01*
X49420100Y-81760200D02*
X49420100Y-81460200D01*
G75*
G02*
X49570100Y-81310200I150000J0D01*
G01*
X50870100Y-81310200D01*
G75*
G02*
X51020100Y-81460200I0J-150000D01*
G01*
X51020100Y-81760200D01*
G75*
G02*
X50870100Y-81910200I-150000J0D01*
G01*
X49570100Y-81910200D01*
G75*
G02*
X49420100Y-81760200I0J150000D01*
G01*
G37*
G36*
G01*
X49420100Y-83030200D02*
X49420100Y-82730200D01*
G75*
G02*
X49570100Y-82580200I150000J0D01*
G01*
X50870100Y-82580200D01*
G75*
G02*
X51020100Y-82730200I0J-150000D01*
G01*
X51020100Y-83030200D01*
G75*
G02*
X50870100Y-83180200I-150000J0D01*
G01*
X49570100Y-83180200D01*
G75*
G02*
X49420100Y-83030200I0J150000D01*
G01*
G37*
G36*
G01*
X51665100Y-82275203D02*
X51665100Y-79675197D01*
G75*
G02*
X51915097Y-79425200I249997J0D01*
G01*
X53825103Y-79425200D01*
G75*
G02*
X54075100Y-79675197I0J-249997D01*
G01*
X54075100Y-82275203D01*
G75*
G02*
X53825103Y-82525200I-249997J0D01*
G01*
X51915097Y-82525200D01*
G75*
G02*
X51665100Y-82275203I0J249997D01*
G01*
G37*
%TD*%
%TO.C,C57*%
G36*
G01*
X48140100Y-84622350D02*
X48140100Y-84109850D01*
G75*
G02*
X48358850Y-83891100I218750J0D01*
G01*
X48796350Y-83891100D01*
G75*
G02*
X49015100Y-84109850I0J-218750D01*
G01*
X49015100Y-84622350D01*
G75*
G02*
X48796350Y-84841100I-218750J0D01*
G01*
X48358850Y-84841100D01*
G75*
G02*
X48140100Y-84622350I0J218750D01*
G01*
G37*
G36*
G01*
X46565100Y-84622350D02*
X46565100Y-84109850D01*
G75*
G02*
X46783850Y-83891100I218750J0D01*
G01*
X47221350Y-83891100D01*
G75*
G02*
X47440100Y-84109850I0J-218750D01*
G01*
X47440100Y-84622350D01*
G75*
G02*
X47221350Y-84841100I-218750J0D01*
G01*
X46783850Y-84841100D01*
G75*
G02*
X46565100Y-84622350I0J218750D01*
G01*
G37*
%TD*%
%TO.C,C55*%
G36*
G01*
X29551950Y-80893500D02*
X28639450Y-80893500D01*
G75*
G02*
X28395700Y-80649750I0J243750D01*
G01*
X28395700Y-80162250D01*
G75*
G02*
X28639450Y-79918500I243750J0D01*
G01*
X29551950Y-79918500D01*
G75*
G02*
X29795700Y-80162250I0J-243750D01*
G01*
X29795700Y-80649750D01*
G75*
G02*
X29551950Y-80893500I-243750J0D01*
G01*
G37*
G36*
G01*
X29551950Y-82768500D02*
X28639450Y-82768500D01*
G75*
G02*
X28395700Y-82524750I0J243750D01*
G01*
X28395700Y-82037250D01*
G75*
G02*
X28639450Y-81793500I243750J0D01*
G01*
X29551950Y-81793500D01*
G75*
G02*
X29795700Y-82037250I0J-243750D01*
G01*
X29795700Y-82524750D01*
G75*
G02*
X29551950Y-82768500I-243750J0D01*
G01*
G37*
%TD*%
%TO.C,C53*%
G36*
G01*
X57469750Y-80650600D02*
X56957250Y-80650600D01*
G75*
G02*
X56738500Y-80431850I0J218750D01*
G01*
X56738500Y-79994350D01*
G75*
G02*
X56957250Y-79775600I218750J0D01*
G01*
X57469750Y-79775600D01*
G75*
G02*
X57688500Y-79994350I0J-218750D01*
G01*
X57688500Y-80431850D01*
G75*
G02*
X57469750Y-80650600I-218750J0D01*
G01*
G37*
G36*
G01*
X57469750Y-82225600D02*
X56957250Y-82225600D01*
G75*
G02*
X56738500Y-82006850I0J218750D01*
G01*
X56738500Y-81569350D01*
G75*
G02*
X56957250Y-81350600I218750J0D01*
G01*
X57469750Y-81350600D01*
G75*
G02*
X57688500Y-81569350I0J-218750D01*
G01*
X57688500Y-82006850D01*
G75*
G02*
X57469750Y-82225600I-218750J0D01*
G01*
G37*
%TD*%
%TO.C,C52*%
G36*
G01*
X48152800Y-79161350D02*
X48152800Y-78648850D01*
G75*
G02*
X48371550Y-78430100I218750J0D01*
G01*
X48809050Y-78430100D01*
G75*
G02*
X49027800Y-78648850I0J-218750D01*
G01*
X49027800Y-79161350D01*
G75*
G02*
X48809050Y-79380100I-218750J0D01*
G01*
X48371550Y-79380100D01*
G75*
G02*
X48152800Y-79161350I0J218750D01*
G01*
G37*
G36*
G01*
X46577800Y-79161350D02*
X46577800Y-78648850D01*
G75*
G02*
X46796550Y-78430100I218750J0D01*
G01*
X47234050Y-78430100D01*
G75*
G02*
X47452800Y-78648850I0J-218750D01*
G01*
X47452800Y-79161350D01*
G75*
G02*
X47234050Y-79380100I-218750J0D01*
G01*
X46796550Y-79380100D01*
G75*
G02*
X46577800Y-79161350I0J218750D01*
G01*
G37*
%TD*%
%TO.C,C32*%
G36*
G01*
X48152800Y-80532950D02*
X48152800Y-80020450D01*
G75*
G02*
X48371550Y-79801700I218750J0D01*
G01*
X48809050Y-79801700D01*
G75*
G02*
X49027800Y-80020450I0J-218750D01*
G01*
X49027800Y-80532950D01*
G75*
G02*
X48809050Y-80751700I-218750J0D01*
G01*
X48371550Y-80751700D01*
G75*
G02*
X48152800Y-80532950I0J218750D01*
G01*
G37*
G36*
G01*
X46577800Y-80532950D02*
X46577800Y-80020450D01*
G75*
G02*
X46796550Y-79801700I218750J0D01*
G01*
X47234050Y-79801700D01*
G75*
G02*
X47452800Y-80020450I0J-218750D01*
G01*
X47452800Y-80532950D01*
G75*
G02*
X47234050Y-80751700I-218750J0D01*
G01*
X46796550Y-80751700D01*
G75*
G02*
X46577800Y-80532950I0J218750D01*
G01*
G37*
%TD*%
%TO.C,C30*%
G36*
G01*
X59847900Y-100392550D02*
X59847900Y-99480050D01*
G75*
G02*
X60091650Y-99236300I243750J0D01*
G01*
X60579150Y-99236300D01*
G75*
G02*
X60822900Y-99480050I0J-243750D01*
G01*
X60822900Y-100392550D01*
G75*
G02*
X60579150Y-100636300I-243750J0D01*
G01*
X60091650Y-100636300D01*
G75*
G02*
X59847900Y-100392550I0J243750D01*
G01*
G37*
G36*
G01*
X57972900Y-100392550D02*
X57972900Y-99480050D01*
G75*
G02*
X58216650Y-99236300I243750J0D01*
G01*
X58704150Y-99236300D01*
G75*
G02*
X58947900Y-99480050I0J-243750D01*
G01*
X58947900Y-100392550D01*
G75*
G02*
X58704150Y-100636300I-243750J0D01*
G01*
X58216650Y-100636300D01*
G75*
G02*
X57972900Y-100392550I0J243750D01*
G01*
G37*
%TD*%
D13*
%TO.C,U2*%
X30091200Y-78229500D03*
X30091200Y-77279500D03*
X30091200Y-76329500D03*
X32291200Y-76329500D03*
X32291200Y-78229500D03*
%TD*%
%TO.C,C50*%
G36*
G01*
X61324600Y-98472900D02*
X59274600Y-98472900D01*
G75*
G02*
X59024600Y-98222900I0J250000D01*
G01*
X59024600Y-96647900D01*
G75*
G02*
X59274600Y-96397900I250000J0D01*
G01*
X61324600Y-96397900D01*
G75*
G02*
X61574600Y-96647900I0J-250000D01*
G01*
X61574600Y-98222900D01*
G75*
G02*
X61324600Y-98472900I-250000J0D01*
G01*
G37*
G36*
G01*
X61324600Y-92247900D02*
X59274600Y-92247900D01*
G75*
G02*
X59024600Y-91997900I0J250000D01*
G01*
X59024600Y-90422900D01*
G75*
G02*
X59274600Y-90172900I250000J0D01*
G01*
X61324600Y-90172900D01*
G75*
G02*
X61574600Y-90422900I0J-250000D01*
G01*
X61574600Y-91997900D01*
G75*
G02*
X61324600Y-92247900I-250000J0D01*
G01*
G37*
%TD*%
%TO.C,R24*%
G36*
G01*
X29313850Y-97795800D02*
X28801350Y-97795800D01*
G75*
G02*
X28582600Y-97577050I0J218750D01*
G01*
X28582600Y-97139550D01*
G75*
G02*
X28801350Y-96920800I218750J0D01*
G01*
X29313850Y-96920800D01*
G75*
G02*
X29532600Y-97139550I0J-218750D01*
G01*
X29532600Y-97577050D01*
G75*
G02*
X29313850Y-97795800I-218750J0D01*
G01*
G37*
G36*
G01*
X29313850Y-96220800D02*
X28801350Y-96220800D01*
G75*
G02*
X28582600Y-96002050I0J218750D01*
G01*
X28582600Y-95564550D01*
G75*
G02*
X28801350Y-95345800I218750J0D01*
G01*
X29313850Y-95345800D01*
G75*
G02*
X29532600Y-95564550I0J-218750D01*
G01*
X29532600Y-96002050D01*
G75*
G02*
X29313850Y-96220800I-218750J0D01*
G01*
G37*
%TD*%
D14*
%TO.C,D14*%
X39875700Y-98903800D03*
X39875700Y-96403800D03*
X39875700Y-93903800D03*
X39875700Y-91403800D03*
X39875700Y-88903800D03*
X56415700Y-88903800D03*
X56415700Y-91403800D03*
X56415700Y-93903800D03*
X56415700Y-96403800D03*
X56415700Y-98903800D03*
%TD*%
%TO.C,R21*%
G36*
G01*
X33966618Y-86887600D02*
X34479118Y-86887600D01*
G75*
G02*
X34697868Y-87106350I0J-218750D01*
G01*
X34697868Y-87543850D01*
G75*
G02*
X34479118Y-87762600I-218750J0D01*
G01*
X33966618Y-87762600D01*
G75*
G02*
X33747868Y-87543850I0J218750D01*
G01*
X33747868Y-87106350D01*
G75*
G02*
X33966618Y-86887600I218750J0D01*
G01*
G37*
G36*
G01*
X33966618Y-88462600D02*
X34479118Y-88462600D01*
G75*
G02*
X34697868Y-88681350I0J-218750D01*
G01*
X34697868Y-89118850D01*
G75*
G02*
X34479118Y-89337600I-218750J0D01*
G01*
X33966618Y-89337600D01*
G75*
G02*
X33747868Y-89118850I0J218750D01*
G01*
X33747868Y-88681350D01*
G75*
G02*
X33966618Y-88462600I218750J0D01*
G01*
G37*
%TD*%
%TO.C,R28*%
G36*
G01*
X38495944Y-89337600D02*
X37983444Y-89337600D01*
G75*
G02*
X37764694Y-89118850I0J218750D01*
G01*
X37764694Y-88681350D01*
G75*
G02*
X37983444Y-88462600I218750J0D01*
G01*
X38495944Y-88462600D01*
G75*
G02*
X38714694Y-88681350I0J-218750D01*
G01*
X38714694Y-89118850D01*
G75*
G02*
X38495944Y-89337600I-218750J0D01*
G01*
G37*
G36*
G01*
X38495944Y-87762600D02*
X37983444Y-87762600D01*
G75*
G02*
X37764694Y-87543850I0J218750D01*
G01*
X37764694Y-87106350D01*
G75*
G02*
X37983444Y-86887600I218750J0D01*
G01*
X38495944Y-86887600D01*
G75*
G02*
X38714694Y-87106350I0J-218750D01*
G01*
X38714694Y-87543850D01*
G75*
G02*
X38495944Y-87762600I-218750J0D01*
G01*
G37*
%TD*%
%TO.C,R22*%
G36*
G01*
X35818060Y-89337600D02*
X35305560Y-89337600D01*
G75*
G02*
X35086810Y-89118850I0J218750D01*
G01*
X35086810Y-88681350D01*
G75*
G02*
X35305560Y-88462600I218750J0D01*
G01*
X35818060Y-88462600D01*
G75*
G02*
X36036810Y-88681350I0J-218750D01*
G01*
X36036810Y-89118850D01*
G75*
G02*
X35818060Y-89337600I-218750J0D01*
G01*
G37*
G36*
G01*
X35818060Y-87762600D02*
X35305560Y-87762600D01*
G75*
G02*
X35086810Y-87543850I0J218750D01*
G01*
X35086810Y-87106350D01*
G75*
G02*
X35305560Y-86887600I218750J0D01*
G01*
X35818060Y-86887600D01*
G75*
G02*
X36036810Y-87106350I0J-218750D01*
G01*
X36036810Y-87543850D01*
G75*
G02*
X35818060Y-87762600I-218750J0D01*
G01*
G37*
%TD*%
D15*
%TO.C,D15*%
X21309000Y-89154000D03*
X21309000Y-86614000D03*
X27459000Y-86614000D03*
X27459000Y-89154000D03*
%TD*%
%TO.C,R30*%
G36*
G01*
X28610850Y-86887600D02*
X29123350Y-86887600D01*
G75*
G02*
X29342100Y-87106350I0J-218750D01*
G01*
X29342100Y-87543850D01*
G75*
G02*
X29123350Y-87762600I-218750J0D01*
G01*
X28610850Y-87762600D01*
G75*
G02*
X28392100Y-87543850I0J218750D01*
G01*
X28392100Y-87106350D01*
G75*
G02*
X28610850Y-86887600I218750J0D01*
G01*
G37*
G36*
G01*
X28610850Y-88462600D02*
X29123350Y-88462600D01*
G75*
G02*
X29342100Y-88681350I0J-218750D01*
G01*
X29342100Y-89118850D01*
G75*
G02*
X29123350Y-89337600I-218750J0D01*
G01*
X28610850Y-89337600D01*
G75*
G02*
X28392100Y-89118850I0J218750D01*
G01*
X28392100Y-88681350D01*
G75*
G02*
X28610850Y-88462600I218750J0D01*
G01*
G37*
%TD*%
%TO.C,R23*%
G36*
G01*
X28912100Y-99278150D02*
X28912100Y-98765650D01*
G75*
G02*
X29130850Y-98546900I218750J0D01*
G01*
X29568350Y-98546900D01*
G75*
G02*
X29787100Y-98765650I0J-218750D01*
G01*
X29787100Y-99278150D01*
G75*
G02*
X29568350Y-99496900I-218750J0D01*
G01*
X29130850Y-99496900D01*
G75*
G02*
X28912100Y-99278150I0J218750D01*
G01*
G37*
G36*
G01*
X30487100Y-99278150D02*
X30487100Y-98765650D01*
G75*
G02*
X30705850Y-98546900I218750J0D01*
G01*
X31143350Y-98546900D01*
G75*
G02*
X31362100Y-98765650I0J-218750D01*
G01*
X31362100Y-99278150D01*
G75*
G02*
X31143350Y-99496900I-218750J0D01*
G01*
X30705850Y-99496900D01*
G75*
G02*
X30487100Y-99278150I0J218750D01*
G01*
G37*
%TD*%
D16*
%TO.C,Q1*%
X30419800Y-97431900D03*
X30419800Y-95531900D03*
X32419800Y-96481900D03*
%TD*%
D17*
%TO.C,D9*%
X29984700Y-94118700D03*
X29984700Y-90818700D03*
%TD*%
%TO.C,D6*%
X32435800Y-102322900D03*
X32435800Y-99022900D03*
%TD*%
%TO.C,C29*%
G36*
G01*
X37157002Y-89337600D02*
X36644502Y-89337600D01*
G75*
G02*
X36425752Y-89118850I0J218750D01*
G01*
X36425752Y-88681350D01*
G75*
G02*
X36644502Y-88462600I218750J0D01*
G01*
X37157002Y-88462600D01*
G75*
G02*
X37375752Y-88681350I0J-218750D01*
G01*
X37375752Y-89118850D01*
G75*
G02*
X37157002Y-89337600I-218750J0D01*
G01*
G37*
G36*
G01*
X37157002Y-87762600D02*
X36644502Y-87762600D01*
G75*
G02*
X36425752Y-87543850I0J218750D01*
G01*
X36425752Y-87106350D01*
G75*
G02*
X36644502Y-86887600I218750J0D01*
G01*
X37157002Y-86887600D01*
G75*
G02*
X37375752Y-87106350I0J-218750D01*
G01*
X37375752Y-87543850D01*
G75*
G02*
X37157002Y-87762600I-218750J0D01*
G01*
G37*
%TD*%
%TO.C,C19*%
G36*
G01*
X20619800Y-101464200D02*
X20619800Y-100364200D01*
G75*
G02*
X20869800Y-100114200I250000J0D01*
G01*
X23869800Y-100114200D01*
G75*
G02*
X24119800Y-100364200I0J-250000D01*
G01*
X24119800Y-101464200D01*
G75*
G02*
X23869800Y-101714200I-250000J0D01*
G01*
X20869800Y-101714200D01*
G75*
G02*
X20619800Y-101464200I0J250000D01*
G01*
G37*
G36*
G01*
X26019800Y-101464200D02*
X26019800Y-100364200D01*
G75*
G02*
X26269800Y-100114200I250000J0D01*
G01*
X29269800Y-100114200D01*
G75*
G02*
X29519800Y-100364200I0J-250000D01*
G01*
X29519800Y-101464200D01*
G75*
G02*
X29269800Y-101714200I-250000J0D01*
G01*
X26269800Y-101714200D01*
G75*
G02*
X26019800Y-101464200I0J250000D01*
G01*
G37*
%TD*%
%TO.C,R16*%
G36*
G01*
X33614650Y-70796700D02*
X34127150Y-70796700D01*
G75*
G02*
X34345900Y-71015450I0J-218750D01*
G01*
X34345900Y-71452950D01*
G75*
G02*
X34127150Y-71671700I-218750J0D01*
G01*
X33614650Y-71671700D01*
G75*
G02*
X33395900Y-71452950I0J218750D01*
G01*
X33395900Y-71015450D01*
G75*
G02*
X33614650Y-70796700I218750J0D01*
G01*
G37*
G36*
G01*
X33614650Y-72371700D02*
X34127150Y-72371700D01*
G75*
G02*
X34345900Y-72590450I0J-218750D01*
G01*
X34345900Y-73027950D01*
G75*
G02*
X34127150Y-73246700I-218750J0D01*
G01*
X33614650Y-73246700D01*
G75*
G02*
X33395900Y-73027950I0J218750D01*
G01*
X33395900Y-72590450D01*
G75*
G02*
X33614650Y-72371700I218750J0D01*
G01*
G37*
%TD*%
%TO.C,R39*%
G36*
G01*
X23870200Y-71376250D02*
X23870200Y-70863750D01*
G75*
G02*
X24088950Y-70645000I218750J0D01*
G01*
X24526450Y-70645000D01*
G75*
G02*
X24745200Y-70863750I0J-218750D01*
G01*
X24745200Y-71376250D01*
G75*
G02*
X24526450Y-71595000I-218750J0D01*
G01*
X24088950Y-71595000D01*
G75*
G02*
X23870200Y-71376250I0J218750D01*
G01*
G37*
G36*
G01*
X25445200Y-71376250D02*
X25445200Y-70863750D01*
G75*
G02*
X25663950Y-70645000I218750J0D01*
G01*
X26101450Y-70645000D01*
G75*
G02*
X26320200Y-70863750I0J-218750D01*
G01*
X26320200Y-71376250D01*
G75*
G02*
X26101450Y-71595000I-218750J0D01*
G01*
X25663950Y-71595000D01*
G75*
G02*
X25445200Y-71376250I0J218750D01*
G01*
G37*
%TD*%
%TO.C,R37*%
G36*
G01*
X30253650Y-70262200D02*
X29741150Y-70262200D01*
G75*
G02*
X29522400Y-70043450I0J218750D01*
G01*
X29522400Y-69605950D01*
G75*
G02*
X29741150Y-69387200I218750J0D01*
G01*
X30253650Y-69387200D01*
G75*
G02*
X30472400Y-69605950I0J-218750D01*
G01*
X30472400Y-70043450D01*
G75*
G02*
X30253650Y-70262200I-218750J0D01*
G01*
G37*
G36*
G01*
X30253650Y-68687200D02*
X29741150Y-68687200D01*
G75*
G02*
X29522400Y-68468450I0J218750D01*
G01*
X29522400Y-68030950D01*
G75*
G02*
X29741150Y-67812200I218750J0D01*
G01*
X30253650Y-67812200D01*
G75*
G02*
X30472400Y-68030950I0J-218750D01*
G01*
X30472400Y-68468450D01*
G75*
G02*
X30253650Y-68687200I-218750J0D01*
G01*
G37*
%TD*%
%TO.C,R31*%
G36*
G01*
X32725650Y-64497500D02*
X33238150Y-64497500D01*
G75*
G02*
X33456900Y-64716250I0J-218750D01*
G01*
X33456900Y-65153750D01*
G75*
G02*
X33238150Y-65372500I-218750J0D01*
G01*
X32725650Y-65372500D01*
G75*
G02*
X32506900Y-65153750I0J218750D01*
G01*
X32506900Y-64716250D01*
G75*
G02*
X32725650Y-64497500I218750J0D01*
G01*
G37*
G36*
G01*
X32725650Y-66072500D02*
X33238150Y-66072500D01*
G75*
G02*
X33456900Y-66291250I0J-218750D01*
G01*
X33456900Y-66728750D01*
G75*
G02*
X33238150Y-66947500I-218750J0D01*
G01*
X32725650Y-66947500D01*
G75*
G02*
X32506900Y-66728750I0J218750D01*
G01*
X32506900Y-66291250D01*
G75*
G02*
X32725650Y-66072500I218750J0D01*
G01*
G37*
%TD*%
%TO.C,R17*%
G36*
G01*
X42572650Y-71697300D02*
X42060150Y-71697300D01*
G75*
G02*
X41841400Y-71478550I0J218750D01*
G01*
X41841400Y-71041050D01*
G75*
G02*
X42060150Y-70822300I218750J0D01*
G01*
X42572650Y-70822300D01*
G75*
G02*
X42791400Y-71041050I0J-218750D01*
G01*
X42791400Y-71478550D01*
G75*
G02*
X42572650Y-71697300I-218750J0D01*
G01*
G37*
G36*
G01*
X42572650Y-70122300D02*
X42060150Y-70122300D01*
G75*
G02*
X41841400Y-69903550I0J218750D01*
G01*
X41841400Y-69466050D01*
G75*
G02*
X42060150Y-69247300I218750J0D01*
G01*
X42572650Y-69247300D01*
G75*
G02*
X42791400Y-69466050I0J-218750D01*
G01*
X42791400Y-69903550D01*
G75*
G02*
X42572650Y-70122300I-218750J0D01*
G01*
G37*
%TD*%
%TO.C,R13*%
G36*
G01*
X43944250Y-71697300D02*
X43431750Y-71697300D01*
G75*
G02*
X43213000Y-71478550I0J218750D01*
G01*
X43213000Y-71041050D01*
G75*
G02*
X43431750Y-70822300I218750J0D01*
G01*
X43944250Y-70822300D01*
G75*
G02*
X44163000Y-71041050I0J-218750D01*
G01*
X44163000Y-71478550D01*
G75*
G02*
X43944250Y-71697300I-218750J0D01*
G01*
G37*
G36*
G01*
X43944250Y-70122300D02*
X43431750Y-70122300D01*
G75*
G02*
X43213000Y-69903550I0J218750D01*
G01*
X43213000Y-69466050D01*
G75*
G02*
X43431750Y-69247300I218750J0D01*
G01*
X43944250Y-69247300D01*
G75*
G02*
X44163000Y-69466050I0J-218750D01*
G01*
X44163000Y-69903550D01*
G75*
G02*
X43944250Y-70122300I-218750J0D01*
G01*
G37*
%TD*%
%TO.C,R29*%
G36*
G01*
X37593982Y-64497500D02*
X38106482Y-64497500D01*
G75*
G02*
X38325232Y-64716250I0J-218750D01*
G01*
X38325232Y-65153750D01*
G75*
G02*
X38106482Y-65372500I-218750J0D01*
G01*
X37593982Y-65372500D01*
G75*
G02*
X37375232Y-65153750I0J218750D01*
G01*
X37375232Y-64716250D01*
G75*
G02*
X37593982Y-64497500I218750J0D01*
G01*
G37*
G36*
G01*
X37593982Y-66072500D02*
X38106482Y-66072500D01*
G75*
G02*
X38325232Y-66291250I0J-218750D01*
G01*
X38325232Y-66728750D01*
G75*
G02*
X38106482Y-66947500I-218750J0D01*
G01*
X37593982Y-66947500D01*
G75*
G02*
X37375232Y-66728750I0J218750D01*
G01*
X37375232Y-66291250D01*
G75*
G02*
X37593982Y-66072500I218750J0D01*
G01*
G37*
%TD*%
%TO.C,R20*%
G36*
G01*
X42060150Y-66265100D02*
X42572650Y-66265100D01*
G75*
G02*
X42791400Y-66483850I0J-218750D01*
G01*
X42791400Y-66921350D01*
G75*
G02*
X42572650Y-67140100I-218750J0D01*
G01*
X42060150Y-67140100D01*
G75*
G02*
X41841400Y-66921350I0J218750D01*
G01*
X41841400Y-66483850D01*
G75*
G02*
X42060150Y-66265100I218750J0D01*
G01*
G37*
G36*
G01*
X42060150Y-67840100D02*
X42572650Y-67840100D01*
G75*
G02*
X42791400Y-68058850I0J-218750D01*
G01*
X42791400Y-68496350D01*
G75*
G02*
X42572650Y-68715100I-218750J0D01*
G01*
X42060150Y-68715100D01*
G75*
G02*
X41841400Y-68496350I0J218750D01*
G01*
X41841400Y-68058850D01*
G75*
G02*
X42060150Y-67840100I218750J0D01*
G01*
G37*
%TD*%
%TO.C,R25*%
G36*
G01*
X40688550Y-66265100D02*
X41201050Y-66265100D01*
G75*
G02*
X41419800Y-66483850I0J-218750D01*
G01*
X41419800Y-66921350D01*
G75*
G02*
X41201050Y-67140100I-218750J0D01*
G01*
X40688550Y-67140100D01*
G75*
G02*
X40469800Y-66921350I0J218750D01*
G01*
X40469800Y-66483850D01*
G75*
G02*
X40688550Y-66265100I218750J0D01*
G01*
G37*
G36*
G01*
X40688550Y-67840100D02*
X41201050Y-67840100D01*
G75*
G02*
X41419800Y-68058850I0J-218750D01*
G01*
X41419800Y-68496350D01*
G75*
G02*
X41201050Y-68715100I-218750J0D01*
G01*
X40688550Y-68715100D01*
G75*
G02*
X40469800Y-68496350I0J218750D01*
G01*
X40469800Y-68058850D01*
G75*
G02*
X40688550Y-67840100I218750J0D01*
G01*
G37*
%TD*%
%TO.C,R38*%
G36*
G01*
X24051550Y-67558200D02*
X24564050Y-67558200D01*
G75*
G02*
X24782800Y-67776950I0J-218750D01*
G01*
X24782800Y-68214450D01*
G75*
G02*
X24564050Y-68433200I-218750J0D01*
G01*
X24051550Y-68433200D01*
G75*
G02*
X23832800Y-68214450I0J218750D01*
G01*
X23832800Y-67776950D01*
G75*
G02*
X24051550Y-67558200I218750J0D01*
G01*
G37*
G36*
G01*
X24051550Y-69133200D02*
X24564050Y-69133200D01*
G75*
G02*
X24782800Y-69351950I0J-218750D01*
G01*
X24782800Y-69789450D01*
G75*
G02*
X24564050Y-70008200I-218750J0D01*
G01*
X24051550Y-70008200D01*
G75*
G02*
X23832800Y-69789450I0J218750D01*
G01*
X23832800Y-69351950D01*
G75*
G02*
X24051550Y-69133200I218750J0D01*
G01*
G37*
%TD*%
%TO.C,R33*%
G36*
G01*
X33200050Y-70274900D02*
X32687550Y-70274900D01*
G75*
G02*
X32468800Y-70056150I0J218750D01*
G01*
X32468800Y-69618650D01*
G75*
G02*
X32687550Y-69399900I218750J0D01*
G01*
X33200050Y-69399900D01*
G75*
G02*
X33418800Y-69618650I0J-218750D01*
G01*
X33418800Y-70056150D01*
G75*
G02*
X33200050Y-70274900I-218750J0D01*
G01*
G37*
G36*
G01*
X33200050Y-68699900D02*
X32687550Y-68699900D01*
G75*
G02*
X32468800Y-68481150I0J218750D01*
G01*
X32468800Y-68043650D01*
G75*
G02*
X32687550Y-67824900I218750J0D01*
G01*
X33200050Y-67824900D01*
G75*
G02*
X33418800Y-68043650I0J-218750D01*
G01*
X33418800Y-68481150D01*
G75*
G02*
X33200050Y-68699900I-218750J0D01*
G01*
G37*
%TD*%
%TO.C,C21*%
G36*
G01*
X41201050Y-71697300D02*
X40688550Y-71697300D01*
G75*
G02*
X40469800Y-71478550I0J218750D01*
G01*
X40469800Y-71041050D01*
G75*
G02*
X40688550Y-70822300I218750J0D01*
G01*
X41201050Y-70822300D01*
G75*
G02*
X41419800Y-71041050I0J-218750D01*
G01*
X41419800Y-71478550D01*
G75*
G02*
X41201050Y-71697300I-218750J0D01*
G01*
G37*
G36*
G01*
X41201050Y-70122300D02*
X40688550Y-70122300D01*
G75*
G02*
X40469800Y-69903550I0J218750D01*
G01*
X40469800Y-69466050D01*
G75*
G02*
X40688550Y-69247300I218750J0D01*
G01*
X41201050Y-69247300D01*
G75*
G02*
X41419800Y-69466050I0J-218750D01*
G01*
X41419800Y-69903550D01*
G75*
G02*
X41201050Y-70122300I-218750J0D01*
G01*
G37*
%TD*%
%TO.C,C41*%
G36*
G01*
X36226616Y-64497500D02*
X36739116Y-64497500D01*
G75*
G02*
X36957866Y-64716250I0J-218750D01*
G01*
X36957866Y-65153750D01*
G75*
G02*
X36739116Y-65372500I-218750J0D01*
G01*
X36226616Y-65372500D01*
G75*
G02*
X36007866Y-65153750I0J218750D01*
G01*
X36007866Y-64716250D01*
G75*
G02*
X36226616Y-64497500I218750J0D01*
G01*
G37*
G36*
G01*
X36226616Y-66072500D02*
X36739116Y-66072500D01*
G75*
G02*
X36957866Y-66291250I0J-218750D01*
G01*
X36957866Y-66728750D01*
G75*
G02*
X36739116Y-66947500I-218750J0D01*
G01*
X36226616Y-66947500D01*
G75*
G02*
X36007866Y-66728750I0J218750D01*
G01*
X36007866Y-66291250D01*
G75*
G02*
X36226616Y-66072500I218750J0D01*
G01*
G37*
%TD*%
%TO.C,C34*%
G36*
G01*
X38961348Y-64497500D02*
X39473848Y-64497500D01*
G75*
G02*
X39692598Y-64716250I0J-218750D01*
G01*
X39692598Y-65153750D01*
G75*
G02*
X39473848Y-65372500I-218750J0D01*
G01*
X38961348Y-65372500D01*
G75*
G02*
X38742598Y-65153750I0J218750D01*
G01*
X38742598Y-64716250D01*
G75*
G02*
X38961348Y-64497500I218750J0D01*
G01*
G37*
G36*
G01*
X38961348Y-66072500D02*
X39473848Y-66072500D01*
G75*
G02*
X39692598Y-66291250I0J-218750D01*
G01*
X39692598Y-66728750D01*
G75*
G02*
X39473848Y-66947500I-218750J0D01*
G01*
X38961348Y-66947500D01*
G75*
G02*
X38742598Y-66728750I0J218750D01*
G01*
X38742598Y-66291250D01*
G75*
G02*
X38961348Y-66072500I218750J0D01*
G01*
G37*
%TD*%
%TO.C,C47*%
G36*
G01*
X31214350Y-67812200D02*
X31726850Y-67812200D01*
G75*
G02*
X31945600Y-68030950I0J-218750D01*
G01*
X31945600Y-68468450D01*
G75*
G02*
X31726850Y-68687200I-218750J0D01*
G01*
X31214350Y-68687200D01*
G75*
G02*
X30995600Y-68468450I0J218750D01*
G01*
X30995600Y-68030950D01*
G75*
G02*
X31214350Y-67812200I218750J0D01*
G01*
G37*
G36*
G01*
X31214350Y-69387200D02*
X31726850Y-69387200D01*
G75*
G02*
X31945600Y-69605950I0J-218750D01*
G01*
X31945600Y-70043450D01*
G75*
G02*
X31726850Y-70262200I-218750J0D01*
G01*
X31214350Y-70262200D01*
G75*
G02*
X30995600Y-70043450I0J218750D01*
G01*
X30995600Y-69605950D01*
G75*
G02*
X31214350Y-69387200I218750J0D01*
G01*
G37*
%TD*%
%TO.C,C18*%
G36*
G01*
X43431750Y-66265100D02*
X43944250Y-66265100D01*
G75*
G02*
X44163000Y-66483850I0J-218750D01*
G01*
X44163000Y-66921350D01*
G75*
G02*
X43944250Y-67140100I-218750J0D01*
G01*
X43431750Y-67140100D01*
G75*
G02*
X43213000Y-66921350I0J218750D01*
G01*
X43213000Y-66483850D01*
G75*
G02*
X43431750Y-66265100I218750J0D01*
G01*
G37*
G36*
G01*
X43431750Y-67840100D02*
X43944250Y-67840100D01*
G75*
G02*
X44163000Y-68058850I0J-218750D01*
G01*
X44163000Y-68496350D01*
G75*
G02*
X43944250Y-68715100I-218750J0D01*
G01*
X43431750Y-68715100D01*
G75*
G02*
X43213000Y-68496350I0J218750D01*
G01*
X43213000Y-68058850D01*
G75*
G02*
X43431750Y-67840100I218750J0D01*
G01*
G37*
%TD*%
%TO.C,C40*%
G36*
G01*
X34859250Y-64497500D02*
X35371750Y-64497500D01*
G75*
G02*
X35590500Y-64716250I0J-218750D01*
G01*
X35590500Y-65153750D01*
G75*
G02*
X35371750Y-65372500I-218750J0D01*
G01*
X34859250Y-65372500D01*
G75*
G02*
X34640500Y-65153750I0J218750D01*
G01*
X34640500Y-64716250D01*
G75*
G02*
X34859250Y-64497500I218750J0D01*
G01*
G37*
G36*
G01*
X34859250Y-66072500D02*
X35371750Y-66072500D01*
G75*
G02*
X35590500Y-66291250I0J-218750D01*
G01*
X35590500Y-66728750D01*
G75*
G02*
X35371750Y-66947500I-218750J0D01*
G01*
X34859250Y-66947500D01*
G75*
G02*
X34640500Y-66728750I0J218750D01*
G01*
X34640500Y-66291250D01*
G75*
G02*
X34859250Y-66072500I218750J0D01*
G01*
G37*
%TD*%
%TO.C,C51*%
G36*
G01*
X23882900Y-66855050D02*
X23882900Y-66342550D01*
G75*
G02*
X24101650Y-66123800I218750J0D01*
G01*
X24539150Y-66123800D01*
G75*
G02*
X24757900Y-66342550I0J-218750D01*
G01*
X24757900Y-66855050D01*
G75*
G02*
X24539150Y-67073800I-218750J0D01*
G01*
X24101650Y-67073800D01*
G75*
G02*
X23882900Y-66855050I0J218750D01*
G01*
G37*
G36*
G01*
X25457900Y-66855050D02*
X25457900Y-66342550D01*
G75*
G02*
X25676650Y-66123800I218750J0D01*
G01*
X26114150Y-66123800D01*
G75*
G02*
X26332900Y-66342550I0J-218750D01*
G01*
X26332900Y-66855050D01*
G75*
G02*
X26114150Y-67073800I-218750J0D01*
G01*
X25676650Y-67073800D01*
G75*
G02*
X25457900Y-66855050I0J218750D01*
G01*
G37*
%TD*%
%TO.C,C17*%
G36*
G01*
X34982700Y-72366850D02*
X34982700Y-71854350D01*
G75*
G02*
X35201450Y-71635600I218750J0D01*
G01*
X35638950Y-71635600D01*
G75*
G02*
X35857700Y-71854350I0J-218750D01*
G01*
X35857700Y-72366850D01*
G75*
G02*
X35638950Y-72585600I-218750J0D01*
G01*
X35201450Y-72585600D01*
G75*
G02*
X34982700Y-72366850I0J218750D01*
G01*
G37*
G36*
G01*
X36557700Y-72366850D02*
X36557700Y-71854350D01*
G75*
G02*
X36776450Y-71635600I218750J0D01*
G01*
X37213950Y-71635600D01*
G75*
G02*
X37432700Y-71854350I0J-218750D01*
G01*
X37432700Y-72366850D01*
G75*
G02*
X37213950Y-72585600I-218750J0D01*
G01*
X36776450Y-72585600D01*
G75*
G02*
X36557700Y-72366850I0J218750D01*
G01*
G37*
%TD*%
D13*
%TO.C,U4*%
X37855132Y-78229500D03*
X37855132Y-77279500D03*
X37855132Y-76329500D03*
X40055132Y-76329500D03*
X40055132Y-78229500D03*
%TD*%
%TO.C,R34*%
G36*
G01*
X40658500Y-100391250D02*
X40658500Y-100903750D01*
G75*
G02*
X40439750Y-101122500I-218750J0D01*
G01*
X40002250Y-101122500D01*
G75*
G02*
X39783500Y-100903750I0J218750D01*
G01*
X39783500Y-100391250D01*
G75*
G02*
X40002250Y-100172500I218750J0D01*
G01*
X40439750Y-100172500D01*
G75*
G02*
X40658500Y-100391250I0J-218750D01*
G01*
G37*
G36*
G01*
X39083500Y-100391250D02*
X39083500Y-100903750D01*
G75*
G02*
X38864750Y-101122500I-218750J0D01*
G01*
X38427250Y-101122500D01*
G75*
G02*
X38208500Y-100903750I0J218750D01*
G01*
X38208500Y-100391250D01*
G75*
G02*
X38427250Y-100172500I218750J0D01*
G01*
X38864750Y-100172500D01*
G75*
G02*
X39083500Y-100391250I0J-218750D01*
G01*
G37*
%TD*%
%TO.C,R27*%
G36*
G01*
X33140176Y-89337600D02*
X32627676Y-89337600D01*
G75*
G02*
X32408926Y-89118850I0J218750D01*
G01*
X32408926Y-88681350D01*
G75*
G02*
X32627676Y-88462600I218750J0D01*
G01*
X33140176Y-88462600D01*
G75*
G02*
X33358926Y-88681350I0J-218750D01*
G01*
X33358926Y-89118850D01*
G75*
G02*
X33140176Y-89337600I-218750J0D01*
G01*
G37*
G36*
G01*
X33140176Y-87762600D02*
X32627676Y-87762600D01*
G75*
G02*
X32408926Y-87543850I0J218750D01*
G01*
X32408926Y-87106350D01*
G75*
G02*
X32627676Y-86887600I218750J0D01*
G01*
X33140176Y-86887600D01*
G75*
G02*
X33358926Y-87106350I0J-218750D01*
G01*
X33358926Y-87543850D01*
G75*
G02*
X33140176Y-87762600I-218750J0D01*
G01*
G37*
%TD*%
%TO.C,R26*%
G36*
G01*
X31288734Y-86887600D02*
X31801234Y-86887600D01*
G75*
G02*
X32019984Y-87106350I0J-218750D01*
G01*
X32019984Y-87543850D01*
G75*
G02*
X31801234Y-87762600I-218750J0D01*
G01*
X31288734Y-87762600D01*
G75*
G02*
X31069984Y-87543850I0J218750D01*
G01*
X31069984Y-87106350D01*
G75*
G02*
X31288734Y-86887600I218750J0D01*
G01*
G37*
G36*
G01*
X31288734Y-88462600D02*
X31801234Y-88462600D01*
G75*
G02*
X32019984Y-88681350I0J-218750D01*
G01*
X32019984Y-89118850D01*
G75*
G02*
X31801234Y-89337600I-218750J0D01*
G01*
X31288734Y-89337600D01*
G75*
G02*
X31069984Y-89118850I0J218750D01*
G01*
X31069984Y-88681350D01*
G75*
G02*
X31288734Y-88462600I218750J0D01*
G01*
G37*
%TD*%
%TO.C,R19*%
G36*
G01*
X29949792Y-86887600D02*
X30462292Y-86887600D01*
G75*
G02*
X30681042Y-87106350I0J-218750D01*
G01*
X30681042Y-87543850D01*
G75*
G02*
X30462292Y-87762600I-218750J0D01*
G01*
X29949792Y-87762600D01*
G75*
G02*
X29731042Y-87543850I0J218750D01*
G01*
X29731042Y-87106350D01*
G75*
G02*
X29949792Y-86887600I218750J0D01*
G01*
G37*
G36*
G01*
X29949792Y-88462600D02*
X30462292Y-88462600D01*
G75*
G02*
X30681042Y-88681350I0J-218750D01*
G01*
X30681042Y-89118850D01*
G75*
G02*
X30462292Y-89337600I-218750J0D01*
G01*
X29949792Y-89337600D01*
G75*
G02*
X29731042Y-89118850I0J218750D01*
G01*
X29731042Y-88681350D01*
G75*
G02*
X29949792Y-88462600I218750J0D01*
G01*
G37*
%TD*%
%TO.C,C44*%
G36*
G01*
X40658500Y-101940650D02*
X40658500Y-102453150D01*
G75*
G02*
X40439750Y-102671900I-218750J0D01*
G01*
X40002250Y-102671900D01*
G75*
G02*
X39783500Y-102453150I0J218750D01*
G01*
X39783500Y-101940650D01*
G75*
G02*
X40002250Y-101721900I218750J0D01*
G01*
X40439750Y-101721900D01*
G75*
G02*
X40658500Y-101940650I0J-218750D01*
G01*
G37*
G36*
G01*
X39083500Y-101940650D02*
X39083500Y-102453150D01*
G75*
G02*
X38864750Y-102671900I-218750J0D01*
G01*
X38427250Y-102671900D01*
G75*
G02*
X38208500Y-102453150I0J218750D01*
G01*
X38208500Y-101940650D01*
G75*
G02*
X38427250Y-101721900I218750J0D01*
G01*
X38864750Y-101721900D01*
G75*
G02*
X39083500Y-101940650I0J-218750D01*
G01*
G37*
%TD*%
%TO.C,C33*%
G36*
G01*
X33496800Y-86235250D02*
X33496800Y-85722750D01*
G75*
G02*
X33715550Y-85504000I218750J0D01*
G01*
X34153050Y-85504000D01*
G75*
G02*
X34371800Y-85722750I0J-218750D01*
G01*
X34371800Y-86235250D01*
G75*
G02*
X34153050Y-86454000I-218750J0D01*
G01*
X33715550Y-86454000D01*
G75*
G02*
X33496800Y-86235250I0J218750D01*
G01*
G37*
G36*
G01*
X35071800Y-86235250D02*
X35071800Y-85722750D01*
G75*
G02*
X35290550Y-85504000I218750J0D01*
G01*
X35728050Y-85504000D01*
G75*
G02*
X35946800Y-85722750I0J-218750D01*
G01*
X35946800Y-86235250D01*
G75*
G02*
X35728050Y-86454000I-218750J0D01*
G01*
X35290550Y-86454000D01*
G75*
G02*
X35071800Y-86235250I0J218750D01*
G01*
G37*
%TD*%
%TO.C,C14*%
G36*
G01*
X51094350Y-93071400D02*
X50581850Y-93071400D01*
G75*
G02*
X50363100Y-92852650I0J218750D01*
G01*
X50363100Y-92415150D01*
G75*
G02*
X50581850Y-92196400I218750J0D01*
G01*
X51094350Y-92196400D01*
G75*
G02*
X51313100Y-92415150I0J-218750D01*
G01*
X51313100Y-92852650D01*
G75*
G02*
X51094350Y-93071400I-218750J0D01*
G01*
G37*
G36*
G01*
X51094350Y-91496400D02*
X50581850Y-91496400D01*
G75*
G02*
X50363100Y-91277650I0J218750D01*
G01*
X50363100Y-90840150D01*
G75*
G02*
X50581850Y-90621400I218750J0D01*
G01*
X51094350Y-90621400D01*
G75*
G02*
X51313100Y-90840150I0J-218750D01*
G01*
X51313100Y-91277650D01*
G75*
G02*
X51094350Y-91496400I-218750J0D01*
G01*
G37*
%TD*%
%TO.C,D1*%
G36*
G01*
X53320400Y-102207350D02*
X53320400Y-102719850D01*
G75*
G02*
X53101650Y-102938600I-218750J0D01*
G01*
X52664150Y-102938600D01*
G75*
G02*
X52445400Y-102719850I0J218750D01*
G01*
X52445400Y-102207350D01*
G75*
G02*
X52664150Y-101988600I218750J0D01*
G01*
X53101650Y-101988600D01*
G75*
G02*
X53320400Y-102207350I0J-218750D01*
G01*
G37*
G36*
G01*
X51745400Y-102207350D02*
X51745400Y-102719850D01*
G75*
G02*
X51526650Y-102938600I-218750J0D01*
G01*
X51089150Y-102938600D01*
G75*
G02*
X50870400Y-102719850I0J218750D01*
G01*
X50870400Y-102207350D01*
G75*
G02*
X51089150Y-101988600I218750J0D01*
G01*
X51526650Y-101988600D01*
G75*
G02*
X51745400Y-102207350I0J-218750D01*
G01*
G37*
%TD*%
%TO.C,D2*%
G36*
G01*
X53320400Y-100861150D02*
X53320400Y-101373650D01*
G75*
G02*
X53101650Y-101592400I-218750J0D01*
G01*
X52664150Y-101592400D01*
G75*
G02*
X52445400Y-101373650I0J218750D01*
G01*
X52445400Y-100861150D01*
G75*
G02*
X52664150Y-100642400I218750J0D01*
G01*
X53101650Y-100642400D01*
G75*
G02*
X53320400Y-100861150I0J-218750D01*
G01*
G37*
G36*
G01*
X51745400Y-100861150D02*
X51745400Y-101373650D01*
G75*
G02*
X51526650Y-101592400I-218750J0D01*
G01*
X51089150Y-101592400D01*
G75*
G02*
X50870400Y-101373650I0J218750D01*
G01*
X50870400Y-100861150D01*
G75*
G02*
X51089150Y-100642400I218750J0D01*
G01*
X51526650Y-100642400D01*
G75*
G02*
X51745400Y-100861150I0J-218750D01*
G01*
G37*
%TD*%
%TO.C,C43*%
G36*
G01*
X46276550Y-95218800D02*
X46789050Y-95218800D01*
G75*
G02*
X47007800Y-95437550I0J-218750D01*
G01*
X47007800Y-95875050D01*
G75*
G02*
X46789050Y-96093800I-218750J0D01*
G01*
X46276550Y-96093800D01*
G75*
G02*
X46057800Y-95875050I0J218750D01*
G01*
X46057800Y-95437550D01*
G75*
G02*
X46276550Y-95218800I218750J0D01*
G01*
G37*
G36*
G01*
X46276550Y-96793800D02*
X46789050Y-96793800D01*
G75*
G02*
X47007800Y-97012550I0J-218750D01*
G01*
X47007800Y-97450050D01*
G75*
G02*
X46789050Y-97668800I-218750J0D01*
G01*
X46276550Y-97668800D01*
G75*
G02*
X46057800Y-97450050I0J218750D01*
G01*
X46057800Y-97012550D01*
G75*
G02*
X46276550Y-96793800I218750J0D01*
G01*
G37*
%TD*%
%TO.C,C38*%
G36*
G01*
X46539700Y-92851950D02*
X46539700Y-92339450D01*
G75*
G02*
X46758450Y-92120700I218750J0D01*
G01*
X47195950Y-92120700D01*
G75*
G02*
X47414700Y-92339450I0J-218750D01*
G01*
X47414700Y-92851950D01*
G75*
G02*
X47195950Y-93070700I-218750J0D01*
G01*
X46758450Y-93070700D01*
G75*
G02*
X46539700Y-92851950I0J218750D01*
G01*
G37*
G36*
G01*
X48114700Y-92851950D02*
X48114700Y-92339450D01*
G75*
G02*
X48333450Y-92120700I218750J0D01*
G01*
X48770950Y-92120700D01*
G75*
G02*
X48989700Y-92339450I0J-218750D01*
G01*
X48989700Y-92851950D01*
G75*
G02*
X48770950Y-93070700I-218750J0D01*
G01*
X48333450Y-93070700D01*
G75*
G02*
X48114700Y-92851950I0J218750D01*
G01*
G37*
%TD*%
%TO.C,C35*%
G36*
G01*
X46539700Y-91429550D02*
X46539700Y-90917050D01*
G75*
G02*
X46758450Y-90698300I218750J0D01*
G01*
X47195950Y-90698300D01*
G75*
G02*
X47414700Y-90917050I0J-218750D01*
G01*
X47414700Y-91429550D01*
G75*
G02*
X47195950Y-91648300I-218750J0D01*
G01*
X46758450Y-91648300D01*
G75*
G02*
X46539700Y-91429550I0J218750D01*
G01*
G37*
G36*
G01*
X48114700Y-91429550D02*
X48114700Y-90917050D01*
G75*
G02*
X48333450Y-90698300I218750J0D01*
G01*
X48770950Y-90698300D01*
G75*
G02*
X48989700Y-90917050I0J-218750D01*
G01*
X48989700Y-91429550D01*
G75*
G02*
X48770950Y-91648300I-218750J0D01*
G01*
X48333450Y-91648300D01*
G75*
G02*
X48114700Y-91429550I0J218750D01*
G01*
G37*
%TD*%
%TO.C,C31*%
G36*
G01*
X48198750Y-96068600D02*
X47686250Y-96068600D01*
G75*
G02*
X47467500Y-95849850I0J218750D01*
G01*
X47467500Y-95412350D01*
G75*
G02*
X47686250Y-95193600I218750J0D01*
G01*
X48198750Y-95193600D01*
G75*
G02*
X48417500Y-95412350I0J-218750D01*
G01*
X48417500Y-95849850D01*
G75*
G02*
X48198750Y-96068600I-218750J0D01*
G01*
G37*
G36*
G01*
X48198750Y-94493600D02*
X47686250Y-94493600D01*
G75*
G02*
X47467500Y-94274850I0J218750D01*
G01*
X47467500Y-93837350D01*
G75*
G02*
X47686250Y-93618600I218750J0D01*
G01*
X48198750Y-93618600D01*
G75*
G02*
X48417500Y-93837350I0J-218750D01*
G01*
X48417500Y-94274850D01*
G75*
G02*
X48198750Y-94493600I-218750J0D01*
G01*
G37*
%TD*%
%TO.C,C28*%
G36*
G01*
X49646550Y-96068600D02*
X49134050Y-96068600D01*
G75*
G02*
X48915300Y-95849850I0J218750D01*
G01*
X48915300Y-95412350D01*
G75*
G02*
X49134050Y-95193600I218750J0D01*
G01*
X49646550Y-95193600D01*
G75*
G02*
X49865300Y-95412350I0J-218750D01*
G01*
X49865300Y-95849850D01*
G75*
G02*
X49646550Y-96068600I-218750J0D01*
G01*
G37*
G36*
G01*
X49646550Y-94493600D02*
X49134050Y-94493600D01*
G75*
G02*
X48915300Y-94274850I0J218750D01*
G01*
X48915300Y-93837350D01*
G75*
G02*
X49134050Y-93618600I218750J0D01*
G01*
X49646550Y-93618600D01*
G75*
G02*
X49865300Y-93837350I0J-218750D01*
G01*
X49865300Y-94274850D01*
G75*
G02*
X49646550Y-94493600I-218750J0D01*
G01*
G37*
%TD*%
%TO.C,C27*%
G36*
G01*
X51119750Y-96068600D02*
X50607250Y-96068600D01*
G75*
G02*
X50388500Y-95849850I0J218750D01*
G01*
X50388500Y-95412350D01*
G75*
G02*
X50607250Y-95193600I218750J0D01*
G01*
X51119750Y-95193600D01*
G75*
G02*
X51338500Y-95412350I0J-218750D01*
G01*
X51338500Y-95849850D01*
G75*
G02*
X51119750Y-96068600I-218750J0D01*
G01*
G37*
G36*
G01*
X51119750Y-94493600D02*
X50607250Y-94493600D01*
G75*
G02*
X50388500Y-94274850I0J218750D01*
G01*
X50388500Y-93837350D01*
G75*
G02*
X50607250Y-93618600I218750J0D01*
G01*
X51119750Y-93618600D01*
G75*
G02*
X51338500Y-93837350I0J-218750D01*
G01*
X51338500Y-94274850D01*
G75*
G02*
X51119750Y-94493600I-218750J0D01*
G01*
G37*
%TD*%
%TO.C,L1*%
G36*
G01*
X51551900Y-96774950D02*
X51551900Y-97687450D01*
G75*
G02*
X51308150Y-97931200I-243750J0D01*
G01*
X50820650Y-97931200D01*
G75*
G02*
X50576900Y-97687450I0J243750D01*
G01*
X50576900Y-96774950D01*
G75*
G02*
X50820650Y-96531200I243750J0D01*
G01*
X51308150Y-96531200D01*
G75*
G02*
X51551900Y-96774950I0J-243750D01*
G01*
G37*
G36*
G01*
X49676900Y-96774950D02*
X49676900Y-97687450D01*
G75*
G02*
X49433150Y-97931200I-243750J0D01*
G01*
X48945650Y-97931200D01*
G75*
G02*
X48701900Y-97687450I0J243750D01*
G01*
X48701900Y-96774950D01*
G75*
G02*
X48945650Y-96531200I243750J0D01*
G01*
X49433150Y-96531200D01*
G75*
G02*
X49676900Y-96774950I0J-243750D01*
G01*
G37*
%TD*%
D18*
%TO.C,D16*%
X60349400Y-102120700D03*
X57049400Y-102120700D03*
%TD*%
D17*
%TO.C,D13*%
X36461700Y-102195900D03*
X36461700Y-98895900D03*
%TD*%
D19*
%TO.C,D11*%
X33934400Y-91356200D03*
X35204400Y-91356200D03*
X36474400Y-91356200D03*
X37744400Y-91356200D03*
X37744400Y-96756200D03*
X36474400Y-96756200D03*
X33934400Y-96756200D03*
%TD*%
D18*
%TO.C,D8*%
X29261800Y-85496400D03*
X32561800Y-85496400D03*
%TD*%
D15*
%TO.C,D12*%
X21347100Y-94551500D03*
X21347100Y-92011500D03*
X27497100Y-92011500D03*
X27497100Y-94551500D03*
%TD*%
%TO.C,C24*%
G36*
G01*
X31687450Y-90840500D02*
X32599950Y-90840500D01*
G75*
G02*
X32843700Y-91084250I0J-243750D01*
G01*
X32843700Y-91571750D01*
G75*
G02*
X32599950Y-91815500I-243750J0D01*
G01*
X31687450Y-91815500D01*
G75*
G02*
X31443700Y-91571750I0J243750D01*
G01*
X31443700Y-91084250D01*
G75*
G02*
X31687450Y-90840500I243750J0D01*
G01*
G37*
G36*
G01*
X31687450Y-92715500D02*
X32599950Y-92715500D01*
G75*
G02*
X32843700Y-92959250I0J-243750D01*
G01*
X32843700Y-93446750D01*
G75*
G02*
X32599950Y-93690500I-243750J0D01*
G01*
X31687450Y-93690500D01*
G75*
G02*
X31443700Y-93446750I0J243750D01*
G01*
X31443700Y-92959250D01*
G75*
G02*
X31687450Y-92715500I243750J0D01*
G01*
G37*
%TD*%
%TO.C,C6*%
G36*
G01*
X39413282Y-79905800D02*
X40325782Y-79905800D01*
G75*
G02*
X40569532Y-80149550I0J-243750D01*
G01*
X40569532Y-80637050D01*
G75*
G02*
X40325782Y-80880800I-243750J0D01*
G01*
X39413282Y-80880800D01*
G75*
G02*
X39169532Y-80637050I0J243750D01*
G01*
X39169532Y-80149550D01*
G75*
G02*
X39413282Y-79905800I243750J0D01*
G01*
G37*
G36*
G01*
X39413282Y-81780800D02*
X40325782Y-81780800D01*
G75*
G02*
X40569532Y-82024550I0J-243750D01*
G01*
X40569532Y-82512050D01*
G75*
G02*
X40325782Y-82755800I-243750J0D01*
G01*
X39413282Y-82755800D01*
G75*
G02*
X39169532Y-82512050I0J243750D01*
G01*
X39169532Y-82024550D01*
G75*
G02*
X39413282Y-81780800I243750J0D01*
G01*
G37*
%TD*%
%TO.C,C5*%
G36*
G01*
X43295250Y-79905800D02*
X44207750Y-79905800D01*
G75*
G02*
X44451500Y-80149550I0J-243750D01*
G01*
X44451500Y-80637050D01*
G75*
G02*
X44207750Y-80880800I-243750J0D01*
G01*
X43295250Y-80880800D01*
G75*
G02*
X43051500Y-80637050I0J243750D01*
G01*
X43051500Y-80149550D01*
G75*
G02*
X43295250Y-79905800I243750J0D01*
G01*
G37*
G36*
G01*
X43295250Y-81780800D02*
X44207750Y-81780800D01*
G75*
G02*
X44451500Y-82024550I0J-243750D01*
G01*
X44451500Y-82512050D01*
G75*
G02*
X44207750Y-82755800I-243750J0D01*
G01*
X43295250Y-82755800D01*
G75*
G02*
X43051500Y-82512050I0J243750D01*
G01*
X43051500Y-82024550D01*
G75*
G02*
X43295250Y-81780800I243750J0D01*
G01*
G37*
%TD*%
%TO.C,C2*%
G36*
G01*
X31649350Y-79905800D02*
X32561850Y-79905800D01*
G75*
G02*
X32805600Y-80149550I0J-243750D01*
G01*
X32805600Y-80637050D01*
G75*
G02*
X32561850Y-80880800I-243750J0D01*
G01*
X31649350Y-80880800D01*
G75*
G02*
X31405600Y-80637050I0J243750D01*
G01*
X31405600Y-80149550D01*
G75*
G02*
X31649350Y-79905800I243750J0D01*
G01*
G37*
G36*
G01*
X31649350Y-81780800D02*
X32561850Y-81780800D01*
G75*
G02*
X32805600Y-82024550I0J-243750D01*
G01*
X32805600Y-82512050D01*
G75*
G02*
X32561850Y-82755800I-243750J0D01*
G01*
X31649350Y-82755800D01*
G75*
G02*
X31405600Y-82512050I0J243750D01*
G01*
X31405600Y-82024550D01*
G75*
G02*
X31649350Y-81780800I243750J0D01*
G01*
G37*
%TD*%
%TO.C,C1*%
G36*
G01*
X35531316Y-79905800D02*
X36443816Y-79905800D01*
G75*
G02*
X36687566Y-80149550I0J-243750D01*
G01*
X36687566Y-80637050D01*
G75*
G02*
X36443816Y-80880800I-243750J0D01*
G01*
X35531316Y-80880800D01*
G75*
G02*
X35287566Y-80637050I0J243750D01*
G01*
X35287566Y-80149550D01*
G75*
G02*
X35531316Y-79905800I243750J0D01*
G01*
G37*
G36*
G01*
X35531316Y-81780800D02*
X36443816Y-81780800D01*
G75*
G02*
X36687566Y-82024550I0J-243750D01*
G01*
X36687566Y-82512050D01*
G75*
G02*
X36443816Y-82755800I-243750J0D01*
G01*
X35531316Y-82755800D01*
G75*
G02*
X35287566Y-82512050I0J243750D01*
G01*
X35287566Y-82024550D01*
G75*
G02*
X35531316Y-81780800I243750J0D01*
G01*
G37*
%TD*%
D20*
%TO.C,J24*%
X28524200Y-71424800D03*
%TD*%
D13*
%TO.C,U5*%
X41737100Y-78229500D03*
X41737100Y-77279500D03*
X41737100Y-76329500D03*
X43937100Y-76329500D03*
X43937100Y-78229500D03*
%TD*%
%TO.C,U8*%
X28252600Y-67947500D03*
X28252600Y-68897500D03*
X28252600Y-69847500D03*
X26052600Y-69847500D03*
X26052600Y-67947500D03*
%TD*%
D21*
%TO.C,D7*%
X39220500Y-68100300D03*
X39220500Y-68750300D03*
X39220500Y-69400300D03*
X39220500Y-70050300D03*
X34820500Y-70050300D03*
X34820500Y-69400300D03*
X34820500Y-68750300D03*
X34820500Y-68100300D03*
%TD*%
D13*
%TO.C,U3*%
X33973166Y-78229500D03*
X33973166Y-77279500D03*
X33973166Y-76329500D03*
X36173166Y-76329500D03*
X36173166Y-78229500D03*
%TD*%
M02*
