M48
; DRILL file {KiCad 5.1.9+dfsg1-1~bpo10+1} date Sat Apr  9 10:50:47 2022
; FORMAT={-:-/ absolute / inch / decimal}
; #@! TF.CreationDate,2022-04-09T10:50:47+03:00
; #@! TF.GenerationSoftware,Kicad,Pcbnew,5.1.9+dfsg1-1~bpo10+1
; #@! TF.FileFunction,Plated,1,2,PTH
FMAT,2
INCH
T1C0.0157
%
G90
G05
T1
X0.8385Y-3.409
X0.839Y-3.5105
X0.955Y-3.6595
X0.955Y-3.719
X0.956Y-2.6235
X0.9914Y-2.5025
X1.0475Y-2.8735
X1.114Y-2.6115
X1.1245Y-2.926
X1.2065Y-2.938
X1.226Y-3.1135
X1.2323Y-3.2355
X1.2485Y-2.8028
X1.272Y-2.98
X1.303Y-2.4865
X1.379Y-3.1135
X1.3857Y-3.2355
X1.3935Y-2.798
X1.409Y-2.664
X1.424Y-2.98
X1.5295Y-2.7825
X1.532Y-3.1135
X1.539Y-3.2355
X1.576Y-2.98
X1.647Y-3.8705
X1.6475Y-3.7585
X1.685Y-3.1135
X1.6895Y-3.234
X1.6945Y-2.874
X1.7164Y-2.5555
X1.721Y-3.401
X1.7225Y-3.458
X1.729Y-2.9795
X1.8Y-2.9575
X1.803Y-3.7265
X1.8495Y-3.6295
X1.8545Y-3.889
X1.8755Y-2.785
X1.8755Y-2.8415
X1.8755Y-2.896
X1.8755Y-2.9515
X1.8935Y-3.754
X1.9235Y-3.64
X2.002Y-3.5605
X2.086Y-3.8575
X2.0955Y-2.784
X2.0955Y-2.8395
X2.0955Y-2.895
X2.0955Y-2.9505
X2.1415Y-3.071
X2.183Y-3.351
X2.1905Y-3.426
X2.3715Y-3.3365
X2.382Y-2.4845
X2.4005Y-3.711
T0
M30
