M48
; DRILL file {KiCad 5.1.9+dfsg1-1} date Thu Apr 21 18:50:05 2022
; FORMAT={3:3/ absolute / metric / keep zeros}
; #@! TF.CreationDate,2022-04-21T18:50:05+03:00
; #@! TF.GenerationSoftware,Kicad,Pcbnew,5.1.9+dfsg1-1
FMAT,2
METRIC
T1C0.400
%
G90
G05
T1
X021298Y-086589
X021311Y-089167
X024257Y-092951
X024257Y-094463
X024282Y-066637
X025182Y-063564
X026607Y-072987
X028296Y-066332
X028562Y-074320
X030645Y-074625
X031140Y-079083
X031301Y-082182
X031712Y-071190
X032309Y-075692
X033096Y-063157
X035027Y-079083
X035196Y-082182
X035395Y-071069
X035789Y-067666
X036170Y-075692
X038849Y-070676
X038913Y-079083
X039091Y-082182
X040030Y-075692
X041834Y-098311
X041847Y-095466
X042799Y-079083
X042913Y-082144
X043040Y-073000
X043597Y-064910
X043713Y-086385
X043752Y-087833
X043917Y-075679
X045720Y-075121
X045796Y-094653
X046977Y-092189
X047104Y-098781
X047549Y-067209
X047638Y-070739
X047638Y-072174
X047638Y-073558
X047638Y-074968
X048095Y-095352
X048857Y-092456
X050952Y-090373
X053137Y-096611
X053226Y-070714
X053226Y-072123
X053226Y-073533
X053226Y-074943
X053226Y-098616
X053734Y-101117
X053734Y-102387
X054394Y-078003
X054623Y-093510
X055448Y-085115
X055639Y-087020
X060236Y-084747
X060503Y-063106
X060973Y-094259
X061709Y-088100
T0
M30
