M48
; DRILL file {KiCad 5.1.9+dfsg1-1~bpo10+1} date Thu Mar 24 11:03:55 2022
; FORMAT={3:3/ absolute / metric / keep zeros}
; #@! TF.CreationDate,2022-03-24T11:03:55+03:00
; #@! TF.GenerationSoftware,Kicad,Pcbnew,5.1.9+dfsg1-1~bpo10+1
FMAT,2
METRIC
T1C0.400
%
G90
G05
T1
X021298Y-086119
X021311Y-088697
X024257Y-092481
X024257Y-093993
X024282Y-066167
X025182Y-063094
X026607Y-072517
X028296Y-065862
X028562Y-073851
X030645Y-074155
X031140Y-078613
X031301Y-081712
X031712Y-070720
X032309Y-075222
X033096Y-062687
X035027Y-078613
X035196Y-081712
X035395Y-070599
X035789Y-067196
X036170Y-075222
X038849Y-070206
X038913Y-078613
X039091Y-081712
X040030Y-075222
X041834Y-097841
X041847Y-094996
X042799Y-078613
X042913Y-081674
X043040Y-072530
X043597Y-064440
X043713Y-085916
X043752Y-087363
X043917Y-075209
X045720Y-074651
X045796Y-094183
X046977Y-091719
X047104Y-098311
X047638Y-070269
X047638Y-071704
X047638Y-073089
X047638Y-074498
X048095Y-094882
X048857Y-091986
X050851Y-089967
X052984Y-097511
X053226Y-070244
X053226Y-071653
X053226Y-073063
X053226Y-074473
X054394Y-077534
X055448Y-084646
X055639Y-086551
X060236Y-084277
X060503Y-062636
X060973Y-093789
T0
M30
