%TF.GenerationSoftware,KiCad,Pcbnew,5.1.9+dfsg1-1*%
%TF.CreationDate,2022-05-18T17:07:19+03:00*%
%TF.ProjectId,Anemometr,416e656d-6f6d-4657-9472-2e6b69636164,rev?*%
%TF.SameCoordinates,Original*%
%TF.FileFunction,Soldermask,Top*%
%TF.FilePolarity,Negative*%
%FSLAX46Y46*%
G04 Gerber Fmt 4.6, Leading zero omitted, Abs format (unit mm)*
G04 Created by KiCad (PCBNEW 5.1.9+dfsg1-1) date 2022-05-18 17:07:19*
%MOMM*%
%LPD*%
G01*
G04 APERTURE LIST*
%ADD10C,1.000000*%
%ADD11R,1.400000X1.200000*%
%ADD12R,0.900000X0.800000*%
%ADD13R,0.800000X0.900000*%
%ADD14R,2.000000X1.500000*%
%ADD15R,2.000000X3.800000*%
%ADD16R,1.900000X0.400000*%
%ADD17C,1.524000*%
%ADD18R,0.250000X1.300000*%
%ADD19R,1.300000X0.250000*%
%ADD20R,1.000000X0.800000*%
%ADD21R,1.200000X0.900000*%
%ADD22R,0.600000X1.550000*%
%ADD23R,0.900000X1.200000*%
G04 APERTURE END LIST*
D10*
X43596800Y-64909700D02*
X43596800Y-64909700D01*
D11*
%TO.C,Y2*%
X54650000Y-83275000D03*
X56850000Y-83275000D03*
X56850000Y-84875000D03*
X54650000Y-84875000D03*
%TD*%
%TO.C,R18*%
G36*
G01*
X59730220Y-100018880D02*
X59360220Y-100018880D01*
G75*
G02*
X59225220Y-99883880I0J135000D01*
G01*
X59225220Y-99613880D01*
G75*
G02*
X59360220Y-99478880I135000J0D01*
G01*
X59730220Y-99478880D01*
G75*
G02*
X59865220Y-99613880I0J-135000D01*
G01*
X59865220Y-99883880D01*
G75*
G02*
X59730220Y-100018880I-135000J0D01*
G01*
G37*
G36*
G01*
X59730220Y-101038880D02*
X59360220Y-101038880D01*
G75*
G02*
X59225220Y-100903880I0J135000D01*
G01*
X59225220Y-100633880D01*
G75*
G02*
X59360220Y-100498880I135000J0D01*
G01*
X59730220Y-100498880D01*
G75*
G02*
X59865220Y-100633880I0J-135000D01*
G01*
X59865220Y-100903880D01*
G75*
G02*
X59730220Y-101038880I-135000J0D01*
G01*
G37*
%TD*%
%TO.C,R14*%
G36*
G01*
X51058660Y-100176360D02*
X50688660Y-100176360D01*
G75*
G02*
X50553660Y-100041360I0J135000D01*
G01*
X50553660Y-99771360D01*
G75*
G02*
X50688660Y-99636360I135000J0D01*
G01*
X51058660Y-99636360D01*
G75*
G02*
X51193660Y-99771360I0J-135000D01*
G01*
X51193660Y-100041360D01*
G75*
G02*
X51058660Y-100176360I-135000J0D01*
G01*
G37*
G36*
G01*
X51058660Y-101196360D02*
X50688660Y-101196360D01*
G75*
G02*
X50553660Y-101061360I0J135000D01*
G01*
X50553660Y-100791360D01*
G75*
G02*
X50688660Y-100656360I135000J0D01*
G01*
X51058660Y-100656360D01*
G75*
G02*
X51193660Y-100791360I0J-135000D01*
G01*
X51193660Y-101061360D01*
G75*
G02*
X51058660Y-101196360I-135000J0D01*
G01*
G37*
%TD*%
%TO.C,R12*%
G36*
G01*
X53413240Y-100176360D02*
X53043240Y-100176360D01*
G75*
G02*
X52908240Y-100041360I0J135000D01*
G01*
X52908240Y-99771360D01*
G75*
G02*
X53043240Y-99636360I135000J0D01*
G01*
X53413240Y-99636360D01*
G75*
G02*
X53548240Y-99771360I0J-135000D01*
G01*
X53548240Y-100041360D01*
G75*
G02*
X53413240Y-100176360I-135000J0D01*
G01*
G37*
G36*
G01*
X53413240Y-101196360D02*
X53043240Y-101196360D01*
G75*
G02*
X52908240Y-101061360I0J135000D01*
G01*
X52908240Y-100791360D01*
G75*
G02*
X53043240Y-100656360I135000J0D01*
G01*
X53413240Y-100656360D01*
G75*
G02*
X53548240Y-100791360I0J-135000D01*
G01*
X53548240Y-101061360D01*
G75*
G02*
X53413240Y-101196360I-135000J0D01*
G01*
G37*
%TD*%
%TO.C,R11*%
G36*
G01*
X57446760Y-100018880D02*
X57076760Y-100018880D01*
G75*
G02*
X56941760Y-99883880I0J135000D01*
G01*
X56941760Y-99613880D01*
G75*
G02*
X57076760Y-99478880I135000J0D01*
G01*
X57446760Y-99478880D01*
G75*
G02*
X57581760Y-99613880I0J-135000D01*
G01*
X57581760Y-99883880D01*
G75*
G02*
X57446760Y-100018880I-135000J0D01*
G01*
G37*
G36*
G01*
X57446760Y-101038880D02*
X57076760Y-101038880D01*
G75*
G02*
X56941760Y-100903880I0J135000D01*
G01*
X56941760Y-100633880D01*
G75*
G02*
X57076760Y-100498880I135000J0D01*
G01*
X57446760Y-100498880D01*
G75*
G02*
X57581760Y-100633880I0J-135000D01*
G01*
X57581760Y-100903880D01*
G75*
G02*
X57446760Y-101038880I-135000J0D01*
G01*
G37*
%TD*%
%TO.C,R10*%
G36*
G01*
X61020540Y-100018880D02*
X60650540Y-100018880D01*
G75*
G02*
X60515540Y-99883880I0J135000D01*
G01*
X60515540Y-99613880D01*
G75*
G02*
X60650540Y-99478880I135000J0D01*
G01*
X61020540Y-99478880D01*
G75*
G02*
X61155540Y-99613880I0J-135000D01*
G01*
X61155540Y-99883880D01*
G75*
G02*
X61020540Y-100018880I-135000J0D01*
G01*
G37*
G36*
G01*
X61020540Y-101038880D02*
X60650540Y-101038880D01*
G75*
G02*
X60515540Y-100903880I0J135000D01*
G01*
X60515540Y-100633880D01*
G75*
G02*
X60650540Y-100498880I135000J0D01*
G01*
X61020540Y-100498880D01*
G75*
G02*
X61155540Y-100633880I0J-135000D01*
G01*
X61155540Y-100903880D01*
G75*
G02*
X61020540Y-101038880I-135000J0D01*
G01*
G37*
%TD*%
%TO.C,R9*%
G36*
G01*
X58528800Y-100018880D02*
X58158800Y-100018880D01*
G75*
G02*
X58023800Y-99883880I0J135000D01*
G01*
X58023800Y-99613880D01*
G75*
G02*
X58158800Y-99478880I135000J0D01*
G01*
X58528800Y-99478880D01*
G75*
G02*
X58663800Y-99613880I0J-135000D01*
G01*
X58663800Y-99883880D01*
G75*
G02*
X58528800Y-100018880I-135000J0D01*
G01*
G37*
G36*
G01*
X58528800Y-101038880D02*
X58158800Y-101038880D01*
G75*
G02*
X58023800Y-100903880I0J135000D01*
G01*
X58023800Y-100633880D01*
G75*
G02*
X58158800Y-100498880I135000J0D01*
G01*
X58528800Y-100498880D01*
G75*
G02*
X58663800Y-100633880I0J-135000D01*
G01*
X58663800Y-100903880D01*
G75*
G02*
X58528800Y-101038880I-135000J0D01*
G01*
G37*
%TD*%
%TO.C,C26*%
G36*
G01*
X51780620Y-100596360D02*
X52120620Y-100596360D01*
G75*
G02*
X52260620Y-100736360I0J-140000D01*
G01*
X52260620Y-101016360D01*
G75*
G02*
X52120620Y-101156360I-140000J0D01*
G01*
X51780620Y-101156360D01*
G75*
G02*
X51640620Y-101016360I0J140000D01*
G01*
X51640620Y-100736360D01*
G75*
G02*
X51780620Y-100596360I140000J0D01*
G01*
G37*
G36*
G01*
X51780620Y-99636360D02*
X52120620Y-99636360D01*
G75*
G02*
X52260620Y-99776360I0J-140000D01*
G01*
X52260620Y-100056360D01*
G75*
G02*
X52120620Y-100196360I-140000J0D01*
G01*
X51780620Y-100196360D01*
G75*
G02*
X51640620Y-100056360I0J140000D01*
G01*
X51640620Y-99776360D01*
G75*
G02*
X51780620Y-99636360I140000J0D01*
G01*
G37*
%TD*%
%TO.C,C25*%
G36*
G01*
X54328240Y-100596360D02*
X54668240Y-100596360D01*
G75*
G02*
X54808240Y-100736360I0J-140000D01*
G01*
X54808240Y-101016360D01*
G75*
G02*
X54668240Y-101156360I-140000J0D01*
G01*
X54328240Y-101156360D01*
G75*
G02*
X54188240Y-101016360I0J140000D01*
G01*
X54188240Y-100736360D01*
G75*
G02*
X54328240Y-100596360I140000J0D01*
G01*
G37*
G36*
G01*
X54328240Y-99636360D02*
X54668240Y-99636360D01*
G75*
G02*
X54808240Y-99776360I0J-140000D01*
G01*
X54808240Y-100056360D01*
G75*
G02*
X54668240Y-100196360I-140000J0D01*
G01*
X54328240Y-100196360D01*
G75*
G02*
X54188240Y-100056360I0J140000D01*
G01*
X54188240Y-99776360D01*
G75*
G02*
X54328240Y-99636360I140000J0D01*
G01*
G37*
%TD*%
%TO.C,C20*%
G36*
G01*
X58885480Y-101960860D02*
X58885480Y-102300860D01*
G75*
G02*
X58745480Y-102440860I-140000J0D01*
G01*
X58465480Y-102440860D01*
G75*
G02*
X58325480Y-102300860I0J140000D01*
G01*
X58325480Y-101960860D01*
G75*
G02*
X58465480Y-101820860I140000J0D01*
G01*
X58745480Y-101820860D01*
G75*
G02*
X58885480Y-101960860I0J-140000D01*
G01*
G37*
G36*
G01*
X59845480Y-101960860D02*
X59845480Y-102300860D01*
G75*
G02*
X59705480Y-102440860I-140000J0D01*
G01*
X59425480Y-102440860D01*
G75*
G02*
X59285480Y-102300860I0J140000D01*
G01*
X59285480Y-101960860D01*
G75*
G02*
X59425480Y-101820860I140000J0D01*
G01*
X59705480Y-101820860D01*
G75*
G02*
X59845480Y-101960860I0J-140000D01*
G01*
G37*
%TD*%
%TO.C,C16*%
G36*
G01*
X53493060Y-101988800D02*
X53493060Y-102328800D01*
G75*
G02*
X53353060Y-102468800I-140000J0D01*
G01*
X53073060Y-102468800D01*
G75*
G02*
X52933060Y-102328800I0J140000D01*
G01*
X52933060Y-101988800D01*
G75*
G02*
X53073060Y-101848800I140000J0D01*
G01*
X53353060Y-101848800D01*
G75*
G02*
X53493060Y-101988800I0J-140000D01*
G01*
G37*
G36*
G01*
X54453060Y-101988800D02*
X54453060Y-102328800D01*
G75*
G02*
X54313060Y-102468800I-140000J0D01*
G01*
X54033060Y-102468800D01*
G75*
G02*
X53893060Y-102328800I0J140000D01*
G01*
X53893060Y-101988800D01*
G75*
G02*
X54033060Y-101848800I140000J0D01*
G01*
X54313060Y-101848800D01*
G75*
G02*
X54453060Y-101988800I0J-140000D01*
G01*
G37*
%TD*%
%TO.C,C43*%
G36*
G01*
X62252200Y-94124600D02*
X62252200Y-93784600D01*
G75*
G02*
X62392200Y-93644600I140000J0D01*
G01*
X62672200Y-93644600D01*
G75*
G02*
X62812200Y-93784600I0J-140000D01*
G01*
X62812200Y-94124600D01*
G75*
G02*
X62672200Y-94264600I-140000J0D01*
G01*
X62392200Y-94264600D01*
G75*
G02*
X62252200Y-94124600I0J140000D01*
G01*
G37*
G36*
G01*
X61292200Y-94124600D02*
X61292200Y-93784600D01*
G75*
G02*
X61432200Y-93644600I140000J0D01*
G01*
X61712200Y-93644600D01*
G75*
G02*
X61852200Y-93784600I0J-140000D01*
G01*
X61852200Y-94124600D01*
G75*
G02*
X61712200Y-94264600I-140000J0D01*
G01*
X61432200Y-94264600D01*
G75*
G02*
X61292200Y-94124600I0J140000D01*
G01*
G37*
%TD*%
%TO.C,C15*%
G36*
G01*
X50014850Y-96246400D02*
X49502350Y-96246400D01*
G75*
G02*
X49283600Y-96027650I0J218750D01*
G01*
X49283600Y-95590150D01*
G75*
G02*
X49502350Y-95371400I218750J0D01*
G01*
X50014850Y-95371400D01*
G75*
G02*
X50233600Y-95590150I0J-218750D01*
G01*
X50233600Y-96027650D01*
G75*
G02*
X50014850Y-96246400I-218750J0D01*
G01*
G37*
G36*
G01*
X50014850Y-94671400D02*
X49502350Y-94671400D01*
G75*
G02*
X49283600Y-94452650I0J218750D01*
G01*
X49283600Y-94015150D01*
G75*
G02*
X49502350Y-93796400I218750J0D01*
G01*
X50014850Y-93796400D01*
G75*
G02*
X50233600Y-94015150I0J-218750D01*
G01*
X50233600Y-94452650D01*
G75*
G02*
X50014850Y-94671400I-218750J0D01*
G01*
G37*
%TD*%
%TO.C,R1*%
G36*
G01*
X55485000Y-86090000D02*
X55485000Y-86460000D01*
G75*
G02*
X55350000Y-86595000I-135000J0D01*
G01*
X55080000Y-86595000D01*
G75*
G02*
X54945000Y-86460000I0J135000D01*
G01*
X54945000Y-86090000D01*
G75*
G02*
X55080000Y-85955000I135000J0D01*
G01*
X55350000Y-85955000D01*
G75*
G02*
X55485000Y-86090000I0J-135000D01*
G01*
G37*
G36*
G01*
X56505000Y-86090000D02*
X56505000Y-86460000D01*
G75*
G02*
X56370000Y-86595000I-135000J0D01*
G01*
X56100000Y-86595000D01*
G75*
G02*
X55965000Y-86460000I0J135000D01*
G01*
X55965000Y-86090000D01*
G75*
G02*
X56100000Y-85955000I135000J0D01*
G01*
X56370000Y-85955000D01*
G75*
G02*
X56505000Y-86090000I0J-135000D01*
G01*
G37*
%TD*%
%TO.C,C7*%
G36*
G01*
X58205000Y-84375000D02*
X58545000Y-84375000D01*
G75*
G02*
X58685000Y-84515000I0J-140000D01*
G01*
X58685000Y-84795000D01*
G75*
G02*
X58545000Y-84935000I-140000J0D01*
G01*
X58205000Y-84935000D01*
G75*
G02*
X58065000Y-84795000I0J140000D01*
G01*
X58065000Y-84515000D01*
G75*
G02*
X58205000Y-84375000I140000J0D01*
G01*
G37*
G36*
G01*
X58205000Y-83415000D02*
X58545000Y-83415000D01*
G75*
G02*
X58685000Y-83555000I0J-140000D01*
G01*
X58685000Y-83835000D01*
G75*
G02*
X58545000Y-83975000I-140000J0D01*
G01*
X58205000Y-83975000D01*
G75*
G02*
X58065000Y-83835000I0J140000D01*
G01*
X58065000Y-83555000D01*
G75*
G02*
X58205000Y-83415000I140000J0D01*
G01*
G37*
%TD*%
%TO.C,C4*%
G36*
G01*
X53270000Y-83975000D02*
X52930000Y-83975000D01*
G75*
G02*
X52790000Y-83835000I0J140000D01*
G01*
X52790000Y-83555000D01*
G75*
G02*
X52930000Y-83415000I140000J0D01*
G01*
X53270000Y-83415000D01*
G75*
G02*
X53410000Y-83555000I0J-140000D01*
G01*
X53410000Y-83835000D01*
G75*
G02*
X53270000Y-83975000I-140000J0D01*
G01*
G37*
G36*
G01*
X53270000Y-84935000D02*
X52930000Y-84935000D01*
G75*
G02*
X52790000Y-84795000I0J140000D01*
G01*
X52790000Y-84515000D01*
G75*
G02*
X52930000Y-84375000I140000J0D01*
G01*
X53270000Y-84375000D01*
G75*
G02*
X53410000Y-84515000I0J-140000D01*
G01*
X53410000Y-84795000D01*
G75*
G02*
X53270000Y-84935000I-140000J0D01*
G01*
G37*
%TD*%
%TO.C,C14*%
G36*
G01*
X57080000Y-87225000D02*
X57420000Y-87225000D01*
G75*
G02*
X57560000Y-87365000I0J-140000D01*
G01*
X57560000Y-87645000D01*
G75*
G02*
X57420000Y-87785000I-140000J0D01*
G01*
X57080000Y-87785000D01*
G75*
G02*
X56940000Y-87645000I0J140000D01*
G01*
X56940000Y-87365000D01*
G75*
G02*
X57080000Y-87225000I140000J0D01*
G01*
G37*
G36*
G01*
X57080000Y-86265000D02*
X57420000Y-86265000D01*
G75*
G02*
X57560000Y-86405000I0J-140000D01*
G01*
X57560000Y-86685000D01*
G75*
G02*
X57420000Y-86825000I-140000J0D01*
G01*
X57080000Y-86825000D01*
G75*
G02*
X56940000Y-86685000I0J140000D01*
G01*
X56940000Y-86405000D01*
G75*
G02*
X57080000Y-86265000I140000J0D01*
G01*
G37*
%TD*%
%TO.C,C28*%
G36*
G01*
X60314180Y-97553600D02*
X60314180Y-97213600D01*
G75*
G02*
X60454180Y-97073600I140000J0D01*
G01*
X60734180Y-97073600D01*
G75*
G02*
X60874180Y-97213600I0J-140000D01*
G01*
X60874180Y-97553600D01*
G75*
G02*
X60734180Y-97693600I-140000J0D01*
G01*
X60454180Y-97693600D01*
G75*
G02*
X60314180Y-97553600I0J140000D01*
G01*
G37*
G36*
G01*
X59354180Y-97553600D02*
X59354180Y-97213600D01*
G75*
G02*
X59494180Y-97073600I140000J0D01*
G01*
X59774180Y-97073600D01*
G75*
G02*
X59914180Y-97213600I0J-140000D01*
G01*
X59914180Y-97553600D01*
G75*
G02*
X59774180Y-97693600I-140000J0D01*
G01*
X59494180Y-97693600D01*
G75*
G02*
X59354180Y-97553600I0J140000D01*
G01*
G37*
%TD*%
%TO.C,R2*%
G36*
G01*
X58510000Y-87508500D02*
X58510000Y-87878500D01*
G75*
G02*
X58375000Y-88013500I-135000J0D01*
G01*
X58105000Y-88013500D01*
G75*
G02*
X57970000Y-87878500I0J135000D01*
G01*
X57970000Y-87508500D01*
G75*
G02*
X58105000Y-87373500I135000J0D01*
G01*
X58375000Y-87373500D01*
G75*
G02*
X58510000Y-87508500I0J-135000D01*
G01*
G37*
G36*
G01*
X59530000Y-87508500D02*
X59530000Y-87878500D01*
G75*
G02*
X59395000Y-88013500I-135000J0D01*
G01*
X59125000Y-88013500D01*
G75*
G02*
X58990000Y-87878500I0J135000D01*
G01*
X58990000Y-87508500D01*
G75*
G02*
X59125000Y-87373500I135000J0D01*
G01*
X59395000Y-87373500D01*
G75*
G02*
X59530000Y-87508500I0J-135000D01*
G01*
G37*
%TD*%
%TO.C,C39*%
G36*
G01*
X62250000Y-95470000D02*
X62250000Y-95130000D01*
G75*
G02*
X62390000Y-94990000I140000J0D01*
G01*
X62670000Y-94990000D01*
G75*
G02*
X62810000Y-95130000I0J-140000D01*
G01*
X62810000Y-95470000D01*
G75*
G02*
X62670000Y-95610000I-140000J0D01*
G01*
X62390000Y-95610000D01*
G75*
G02*
X62250000Y-95470000I0J140000D01*
G01*
G37*
G36*
G01*
X61290000Y-95470000D02*
X61290000Y-95130000D01*
G75*
G02*
X61430000Y-94990000I140000J0D01*
G01*
X61710000Y-94990000D01*
G75*
G02*
X61850000Y-95130000I0J-140000D01*
G01*
X61850000Y-95470000D01*
G75*
G02*
X61710000Y-95610000I-140000J0D01*
G01*
X61430000Y-95610000D01*
G75*
G02*
X61290000Y-95470000I0J140000D01*
G01*
G37*
%TD*%
%TO.C,R3*%
G36*
G01*
X59627800Y-88626100D02*
X59627800Y-88996100D01*
G75*
G02*
X59492800Y-89131100I-135000J0D01*
G01*
X59222800Y-89131100D01*
G75*
G02*
X59087800Y-88996100I0J135000D01*
G01*
X59087800Y-88626100D01*
G75*
G02*
X59222800Y-88491100I135000J0D01*
G01*
X59492800Y-88491100D01*
G75*
G02*
X59627800Y-88626100I0J-135000D01*
G01*
G37*
G36*
G01*
X60647800Y-88626100D02*
X60647800Y-88996100D01*
G75*
G02*
X60512800Y-89131100I-135000J0D01*
G01*
X60242800Y-89131100D01*
G75*
G02*
X60107800Y-88996100I0J135000D01*
G01*
X60107800Y-88626100D01*
G75*
G02*
X60242800Y-88491100I135000J0D01*
G01*
X60512800Y-88491100D01*
G75*
G02*
X60647800Y-88626100I0J-135000D01*
G01*
G37*
%TD*%
%TO.C,C12*%
G36*
G01*
X61850000Y-92380000D02*
X61850000Y-92720000D01*
G75*
G02*
X61710000Y-92860000I-140000J0D01*
G01*
X61430000Y-92860000D01*
G75*
G02*
X61290000Y-92720000I0J140000D01*
G01*
X61290000Y-92380000D01*
G75*
G02*
X61430000Y-92240000I140000J0D01*
G01*
X61710000Y-92240000D01*
G75*
G02*
X61850000Y-92380000I0J-140000D01*
G01*
G37*
G36*
G01*
X62810000Y-92380000D02*
X62810000Y-92720000D01*
G75*
G02*
X62670000Y-92860000I-140000J0D01*
G01*
X62390000Y-92860000D01*
G75*
G02*
X62250000Y-92720000I0J140000D01*
G01*
X62250000Y-92380000D01*
G75*
G02*
X62390000Y-92240000I140000J0D01*
G01*
X62670000Y-92240000D01*
G75*
G02*
X62810000Y-92380000I0J-140000D01*
G01*
G37*
%TD*%
%TO.C,C10*%
G36*
G01*
X61852200Y-91330000D02*
X61852200Y-91670000D01*
G75*
G02*
X61712200Y-91810000I-140000J0D01*
G01*
X61432200Y-91810000D01*
G75*
G02*
X61292200Y-91670000I0J140000D01*
G01*
X61292200Y-91330000D01*
G75*
G02*
X61432200Y-91190000I140000J0D01*
G01*
X61712200Y-91190000D01*
G75*
G02*
X61852200Y-91330000I0J-140000D01*
G01*
G37*
G36*
G01*
X62812200Y-91330000D02*
X62812200Y-91670000D01*
G75*
G02*
X62672200Y-91810000I-140000J0D01*
G01*
X62392200Y-91810000D01*
G75*
G02*
X62252200Y-91670000I0J140000D01*
G01*
X62252200Y-91330000D01*
G75*
G02*
X62392200Y-91190000I140000J0D01*
G01*
X62672200Y-91190000D01*
G75*
G02*
X62812200Y-91330000I0J-140000D01*
G01*
G37*
%TD*%
%TO.C,D4*%
G36*
G01*
X48816550Y-66773540D02*
X49329050Y-66773540D01*
G75*
G02*
X49547800Y-66992290I0J-218750D01*
G01*
X49547800Y-67429790D01*
G75*
G02*
X49329050Y-67648540I-218750J0D01*
G01*
X48816550Y-67648540D01*
G75*
G02*
X48597800Y-67429790I0J218750D01*
G01*
X48597800Y-66992290D01*
G75*
G02*
X48816550Y-66773540I218750J0D01*
G01*
G37*
G36*
G01*
X48816550Y-65198540D02*
X49329050Y-65198540D01*
G75*
G02*
X49547800Y-65417290I0J-218750D01*
G01*
X49547800Y-65854790D01*
G75*
G02*
X49329050Y-66073540I-218750J0D01*
G01*
X48816550Y-66073540D01*
G75*
G02*
X48597800Y-65854790I0J218750D01*
G01*
X48597800Y-65417290D01*
G75*
G02*
X48816550Y-65198540I218750J0D01*
G01*
G37*
%TD*%
%TO.C,R15*%
G36*
G01*
X60106250Y-65850000D02*
X59593750Y-65850000D01*
G75*
G02*
X59375000Y-65631250I0J218750D01*
G01*
X59375000Y-65193750D01*
G75*
G02*
X59593750Y-64975000I218750J0D01*
G01*
X60106250Y-64975000D01*
G75*
G02*
X60325000Y-65193750I0J-218750D01*
G01*
X60325000Y-65631250D01*
G75*
G02*
X60106250Y-65850000I-218750J0D01*
G01*
G37*
G36*
G01*
X60106250Y-64275000D02*
X59593750Y-64275000D01*
G75*
G02*
X59375000Y-64056250I0J218750D01*
G01*
X59375000Y-63618750D01*
G75*
G02*
X59593750Y-63400000I218750J0D01*
G01*
X60106250Y-63400000D01*
G75*
G02*
X60325000Y-63618750I0J-218750D01*
G01*
X60325000Y-64056250D01*
G75*
G02*
X60106250Y-64275000I-218750J0D01*
G01*
G37*
%TD*%
%TO.C,D5*%
G36*
G01*
X60106250Y-67125000D02*
X59593750Y-67125000D01*
G75*
G02*
X59375000Y-66906250I0J218750D01*
G01*
X59375000Y-66468750D01*
G75*
G02*
X59593750Y-66250000I218750J0D01*
G01*
X60106250Y-66250000D01*
G75*
G02*
X60325000Y-66468750I0J-218750D01*
G01*
X60325000Y-66906250D01*
G75*
G02*
X60106250Y-67125000I-218750J0D01*
G01*
G37*
G36*
G01*
X60106250Y-68700000D02*
X59593750Y-68700000D01*
G75*
G02*
X59375000Y-68481250I0J218750D01*
G01*
X59375000Y-68043750D01*
G75*
G02*
X59593750Y-67825000I218750J0D01*
G01*
X60106250Y-67825000D01*
G75*
G02*
X60325000Y-68043750I0J-218750D01*
G01*
X60325000Y-68481250D01*
G75*
G02*
X60106250Y-68700000I-218750J0D01*
G01*
G37*
%TD*%
%TO.C,C58*%
G36*
G01*
X55332520Y-68894780D02*
X57382520Y-68894780D01*
G75*
G02*
X57632520Y-69144780I0J-250000D01*
G01*
X57632520Y-70719780D01*
G75*
G02*
X57382520Y-70969780I-250000J0D01*
G01*
X55332520Y-70969780D01*
G75*
G02*
X55082520Y-70719780I0J250000D01*
G01*
X55082520Y-69144780D01*
G75*
G02*
X55332520Y-68894780I250000J0D01*
G01*
G37*
G36*
G01*
X55332520Y-62669780D02*
X57382520Y-62669780D01*
G75*
G02*
X57632520Y-62919780I0J-250000D01*
G01*
X57632520Y-64494780D01*
G75*
G02*
X57382520Y-64744780I-250000J0D01*
G01*
X55332520Y-64744780D01*
G75*
G02*
X55082520Y-64494780I0J250000D01*
G01*
X55082520Y-62919780D01*
G75*
G02*
X55332520Y-62669780I250000J0D01*
G01*
G37*
%TD*%
D12*
%TO.C,U9*%
X26378660Y-66164460D03*
X28378660Y-65214460D03*
X28378660Y-67114460D03*
%TD*%
D13*
%TO.C,U7*%
X23850000Y-66175000D03*
X24800000Y-68175000D03*
X22900000Y-68175000D03*
%TD*%
%TO.C,C56*%
G36*
G01*
X61628440Y-84621690D02*
X61628440Y-83709190D01*
G75*
G02*
X61872190Y-83465440I243750J0D01*
G01*
X62359690Y-83465440D01*
G75*
G02*
X62603440Y-83709190I0J-243750D01*
G01*
X62603440Y-84621690D01*
G75*
G02*
X62359690Y-84865440I-243750J0D01*
G01*
X61872190Y-84865440D01*
G75*
G02*
X61628440Y-84621690I0J243750D01*
G01*
G37*
G36*
G01*
X59753440Y-84621690D02*
X59753440Y-83709190D01*
G75*
G02*
X59997190Y-83465440I243750J0D01*
G01*
X60484690Y-83465440D01*
G75*
G02*
X60728440Y-83709190I0J-243750D01*
G01*
X60728440Y-84621690D01*
G75*
G02*
X60484690Y-84865440I-243750J0D01*
G01*
X59997190Y-84865440D01*
G75*
G02*
X59753440Y-84621690I0J243750D01*
G01*
G37*
%TD*%
D14*
%TO.C,U6*%
X55978660Y-74281000D03*
X55978660Y-78881000D03*
X55978660Y-76581000D03*
D15*
X62278660Y-76581000D03*
%TD*%
D16*
%TO.C,Y1*%
X30594300Y-68471900D03*
X30594300Y-67271900D03*
X30594300Y-66071900D03*
%TD*%
D17*
%TO.C,J7*%
X32207200Y-61531500D03*
%TD*%
%TO.C,R4*%
G36*
G01*
X46386000Y-66952150D02*
X46386000Y-67464650D01*
G75*
G02*
X46167250Y-67683400I-218750J0D01*
G01*
X45729750Y-67683400D01*
G75*
G02*
X45511000Y-67464650I0J218750D01*
G01*
X45511000Y-66952150D01*
G75*
G02*
X45729750Y-66733400I218750J0D01*
G01*
X46167250Y-66733400D01*
G75*
G02*
X46386000Y-66952150I0J-218750D01*
G01*
G37*
G36*
G01*
X47961000Y-66952150D02*
X47961000Y-67464650D01*
G75*
G02*
X47742250Y-67683400I-218750J0D01*
G01*
X47304750Y-67683400D01*
G75*
G02*
X47086000Y-67464650I0J218750D01*
G01*
X47086000Y-66952150D01*
G75*
G02*
X47304750Y-66733400I218750J0D01*
G01*
X47742250Y-66733400D01*
G75*
G02*
X47961000Y-66952150I0J-218750D01*
G01*
G37*
%TD*%
D18*
%TO.C,D3*%
X53015700Y-97834700D03*
X53515700Y-97834700D03*
X54015700Y-97834700D03*
X54515700Y-97834700D03*
X55015700Y-97834700D03*
X55515700Y-97834700D03*
X56015700Y-97834700D03*
X56515700Y-97834700D03*
X57015700Y-97834700D03*
X57515700Y-97834700D03*
X58015700Y-97834700D03*
X58515700Y-97834700D03*
D19*
X60115700Y-96234700D03*
X60115700Y-95734700D03*
X60115700Y-95234700D03*
X60115700Y-94734700D03*
X60115700Y-94234700D03*
X60115700Y-93734700D03*
X60115700Y-93234700D03*
X60115700Y-92734700D03*
X60115700Y-92234700D03*
X60115700Y-91734700D03*
X60115700Y-91234700D03*
X60115700Y-90734700D03*
D18*
X58515700Y-89134700D03*
X58015700Y-89134700D03*
X57515700Y-89134700D03*
X57015700Y-89134700D03*
X56515700Y-89134700D03*
X56015700Y-89134700D03*
X55515700Y-89134700D03*
X55015700Y-89134700D03*
X54515700Y-89134700D03*
X54015700Y-89134700D03*
X53515700Y-89134700D03*
X53015700Y-89134700D03*
D19*
X51415700Y-90734700D03*
X51415700Y-91234700D03*
X51415700Y-91734700D03*
X51415700Y-92234700D03*
X51415700Y-92734700D03*
X51415700Y-93234700D03*
X51415700Y-93734700D03*
X51415700Y-94234700D03*
X51415700Y-94734700D03*
X51415700Y-95234700D03*
X51415700Y-95734700D03*
X51415700Y-96234700D03*
%TD*%
%TO.C,C3*%
G36*
G01*
X28686470Y-73361000D02*
X28173970Y-73361000D01*
G75*
G02*
X27955220Y-73142250I0J218750D01*
G01*
X27955220Y-72704750D01*
G75*
G02*
X28173970Y-72486000I218750J0D01*
G01*
X28686470Y-72486000D01*
G75*
G02*
X28905220Y-72704750I0J-218750D01*
G01*
X28905220Y-73142250D01*
G75*
G02*
X28686470Y-73361000I-218750J0D01*
G01*
G37*
G36*
G01*
X28686470Y-71786000D02*
X28173970Y-71786000D01*
G75*
G02*
X27955220Y-71567250I0J218750D01*
G01*
X27955220Y-71129750D01*
G75*
G02*
X28173970Y-70911000I218750J0D01*
G01*
X28686470Y-70911000D01*
G75*
G02*
X28905220Y-71129750I0J-218750D01*
G01*
X28905220Y-71567250D01*
G75*
G02*
X28686470Y-71786000I-218750J0D01*
G01*
G37*
%TD*%
D17*
%TO.C,J6*%
X31000000Y-64025000D03*
%TD*%
%TO.C,J4*%
X34556700Y-61887100D03*
%TD*%
%TO.C,J3*%
X36584466Y-61887100D03*
%TD*%
%TO.C,R24*%
G36*
G01*
X32844450Y-97630700D02*
X32331950Y-97630700D01*
G75*
G02*
X32113200Y-97411950I0J218750D01*
G01*
X32113200Y-96974450D01*
G75*
G02*
X32331950Y-96755700I218750J0D01*
G01*
X32844450Y-96755700D01*
G75*
G02*
X33063200Y-96974450I0J-218750D01*
G01*
X33063200Y-97411950D01*
G75*
G02*
X32844450Y-97630700I-218750J0D01*
G01*
G37*
G36*
G01*
X32844450Y-96055700D02*
X32331950Y-96055700D01*
G75*
G02*
X32113200Y-95836950I0J218750D01*
G01*
X32113200Y-95399450D01*
G75*
G02*
X32331950Y-95180700I218750J0D01*
G01*
X32844450Y-95180700D01*
G75*
G02*
X33063200Y-95399450I0J-218750D01*
G01*
X33063200Y-95836950D01*
G75*
G02*
X32844450Y-96055700I-218750J0D01*
G01*
G37*
%TD*%
%TO.C,R21*%
G36*
G01*
X27141682Y-87147500D02*
X27654182Y-87147500D01*
G75*
G02*
X27872932Y-87366250I0J-218750D01*
G01*
X27872932Y-87803750D01*
G75*
G02*
X27654182Y-88022500I-218750J0D01*
G01*
X27141682Y-88022500D01*
G75*
G02*
X26922932Y-87803750I0J218750D01*
G01*
X26922932Y-87366250D01*
G75*
G02*
X27141682Y-87147500I218750J0D01*
G01*
G37*
G36*
G01*
X27141682Y-88722500D02*
X27654182Y-88722500D01*
G75*
G02*
X27872932Y-88941250I0J-218750D01*
G01*
X27872932Y-89378750D01*
G75*
G02*
X27654182Y-89597500I-218750J0D01*
G01*
X27141682Y-89597500D01*
G75*
G02*
X26922932Y-89378750I0J218750D01*
G01*
X26922932Y-88941250D01*
G75*
G02*
X27141682Y-88722500I218750J0D01*
G01*
G37*
%TD*%
%TO.C,R28*%
G36*
G01*
X23637356Y-89597500D02*
X23124856Y-89597500D01*
G75*
G02*
X22906106Y-89378750I0J218750D01*
G01*
X22906106Y-88941250D01*
G75*
G02*
X23124856Y-88722500I218750J0D01*
G01*
X23637356Y-88722500D01*
G75*
G02*
X23856106Y-88941250I0J-218750D01*
G01*
X23856106Y-89378750D01*
G75*
G02*
X23637356Y-89597500I-218750J0D01*
G01*
G37*
G36*
G01*
X23637356Y-88022500D02*
X23124856Y-88022500D01*
G75*
G02*
X22906106Y-87803750I0J218750D01*
G01*
X22906106Y-87366250D01*
G75*
G02*
X23124856Y-87147500I218750J0D01*
G01*
X23637356Y-87147500D01*
G75*
G02*
X23856106Y-87366250I0J-218750D01*
G01*
X23856106Y-87803750D01*
G75*
G02*
X23637356Y-88022500I-218750J0D01*
G01*
G37*
%TD*%
%TO.C,R22*%
G36*
G01*
X26315240Y-89597500D02*
X25802740Y-89597500D01*
G75*
G02*
X25583990Y-89378750I0J218750D01*
G01*
X25583990Y-88941250D01*
G75*
G02*
X25802740Y-88722500I218750J0D01*
G01*
X26315240Y-88722500D01*
G75*
G02*
X26533990Y-88941250I0J-218750D01*
G01*
X26533990Y-89378750D01*
G75*
G02*
X26315240Y-89597500I-218750J0D01*
G01*
G37*
G36*
G01*
X26315240Y-88022500D02*
X25802740Y-88022500D01*
G75*
G02*
X25583990Y-87803750I0J218750D01*
G01*
X25583990Y-87366250D01*
G75*
G02*
X25802740Y-87147500I218750J0D01*
G01*
X26315240Y-87147500D01*
G75*
G02*
X26533990Y-87366250I0J-218750D01*
G01*
X26533990Y-87803750D01*
G75*
G02*
X26315240Y-88022500I-218750J0D01*
G01*
G37*
%TD*%
D20*
%TO.C,D15*%
X40336800Y-88988900D03*
X40336800Y-86448900D03*
X34186800Y-86448900D03*
X34186800Y-88988900D03*
%TD*%
%TO.C,R30*%
G36*
G01*
X32497450Y-87147500D02*
X33009950Y-87147500D01*
G75*
G02*
X33228700Y-87366250I0J-218750D01*
G01*
X33228700Y-87803750D01*
G75*
G02*
X33009950Y-88022500I-218750J0D01*
G01*
X32497450Y-88022500D01*
G75*
G02*
X32278700Y-87803750I0J218750D01*
G01*
X32278700Y-87366250D01*
G75*
G02*
X32497450Y-87147500I218750J0D01*
G01*
G37*
G36*
G01*
X32497450Y-88722500D02*
X33009950Y-88722500D01*
G75*
G02*
X33228700Y-88941250I0J-218750D01*
G01*
X33228700Y-89378750D01*
G75*
G02*
X33009950Y-89597500I-218750J0D01*
G01*
X32497450Y-89597500D01*
G75*
G02*
X32278700Y-89378750I0J218750D01*
G01*
X32278700Y-88941250D01*
G75*
G02*
X32497450Y-88722500I218750J0D01*
G01*
G37*
%TD*%
%TO.C,R23*%
G36*
G01*
X32733700Y-98600550D02*
X32733700Y-99113050D01*
G75*
G02*
X32514950Y-99331800I-218750J0D01*
G01*
X32077450Y-99331800D01*
G75*
G02*
X31858700Y-99113050I0J218750D01*
G01*
X31858700Y-98600550D01*
G75*
G02*
X32077450Y-98381800I218750J0D01*
G01*
X32514950Y-98381800D01*
G75*
G02*
X32733700Y-98600550I0J-218750D01*
G01*
G37*
G36*
G01*
X31158700Y-98600550D02*
X31158700Y-99113050D01*
G75*
G02*
X30939950Y-99331800I-218750J0D01*
G01*
X30502450Y-99331800D01*
G75*
G02*
X30283700Y-99113050I0J218750D01*
G01*
X30283700Y-98600550D01*
G75*
G02*
X30502450Y-98381800I218750J0D01*
G01*
X30939950Y-98381800D01*
G75*
G02*
X31158700Y-98600550I0J-218750D01*
G01*
G37*
%TD*%
D12*
%TO.C,Q1*%
X31226000Y-97266800D03*
X31226000Y-95366800D03*
X29226000Y-96316800D03*
%TD*%
D21*
%TO.C,D9*%
X31661100Y-93953600D03*
X31661100Y-90653600D03*
%TD*%
%TO.C,D6*%
X29210000Y-102157800D03*
X29210000Y-98857800D03*
%TD*%
%TO.C,C29*%
G36*
G01*
X24976298Y-89597500D02*
X24463798Y-89597500D01*
G75*
G02*
X24245048Y-89378750I0J218750D01*
G01*
X24245048Y-88941250D01*
G75*
G02*
X24463798Y-88722500I218750J0D01*
G01*
X24976298Y-88722500D01*
G75*
G02*
X25195048Y-88941250I0J-218750D01*
G01*
X25195048Y-89378750D01*
G75*
G02*
X24976298Y-89597500I-218750J0D01*
G01*
G37*
G36*
G01*
X24976298Y-88022500D02*
X24463798Y-88022500D01*
G75*
G02*
X24245048Y-87803750I0J218750D01*
G01*
X24245048Y-87366250D01*
G75*
G02*
X24463798Y-87147500I218750J0D01*
G01*
X24976298Y-87147500D01*
G75*
G02*
X25195048Y-87366250I0J-218750D01*
G01*
X25195048Y-87803750D01*
G75*
G02*
X24976298Y-88022500I-218750J0D01*
G01*
G37*
%TD*%
%TO.C,C19*%
G36*
G01*
X41026000Y-100199100D02*
X41026000Y-101299100D01*
G75*
G02*
X40776000Y-101549100I-250000J0D01*
G01*
X37776000Y-101549100D01*
G75*
G02*
X37526000Y-101299100I0J250000D01*
G01*
X37526000Y-100199100D01*
G75*
G02*
X37776000Y-99949100I250000J0D01*
G01*
X40776000Y-99949100D01*
G75*
G02*
X41026000Y-100199100I0J-250000D01*
G01*
G37*
G36*
G01*
X35626000Y-100199100D02*
X35626000Y-101299100D01*
G75*
G02*
X35376000Y-101549100I-250000J0D01*
G01*
X32376000Y-101549100D01*
G75*
G02*
X32126000Y-101299100I0J250000D01*
G01*
X32126000Y-100199100D01*
G75*
G02*
X32376000Y-99949100I250000J0D01*
G01*
X35376000Y-99949100D01*
G75*
G02*
X35626000Y-100199100I0J-250000D01*
G01*
G37*
%TD*%
%TO.C,R8*%
G36*
G01*
X42074810Y-81811580D02*
X41562310Y-81811580D01*
G75*
G02*
X41343560Y-81592830I0J218750D01*
G01*
X41343560Y-81155330D01*
G75*
G02*
X41562310Y-80936580I218750J0D01*
G01*
X42074810Y-80936580D01*
G75*
G02*
X42293560Y-81155330I0J-218750D01*
G01*
X42293560Y-81592830D01*
G75*
G02*
X42074810Y-81811580I-218750J0D01*
G01*
G37*
G36*
G01*
X42074810Y-80236580D02*
X41562310Y-80236580D01*
G75*
G02*
X41343560Y-80017830I0J218750D01*
G01*
X41343560Y-79580330D01*
G75*
G02*
X41562310Y-79361580I218750J0D01*
G01*
X42074810Y-79361580D01*
G75*
G02*
X42293560Y-79580330I0J-218750D01*
G01*
X42293560Y-80017830D01*
G75*
G02*
X42074810Y-80236580I-218750J0D01*
G01*
G37*
%TD*%
%TO.C,R7*%
G36*
G01*
X38158130Y-81811580D02*
X37645630Y-81811580D01*
G75*
G02*
X37426880Y-81592830I0J218750D01*
G01*
X37426880Y-81155330D01*
G75*
G02*
X37645630Y-80936580I218750J0D01*
G01*
X38158130Y-80936580D01*
G75*
G02*
X38376880Y-81155330I0J-218750D01*
G01*
X38376880Y-81592830D01*
G75*
G02*
X38158130Y-81811580I-218750J0D01*
G01*
G37*
G36*
G01*
X38158130Y-80236580D02*
X37645630Y-80236580D01*
G75*
G02*
X37426880Y-80017830I0J218750D01*
G01*
X37426880Y-79580330D01*
G75*
G02*
X37645630Y-79361580I218750J0D01*
G01*
X38158130Y-79361580D01*
G75*
G02*
X38376880Y-79580330I0J-218750D01*
G01*
X38376880Y-80017830D01*
G75*
G02*
X38158130Y-80236580I-218750J0D01*
G01*
G37*
%TD*%
%TO.C,R6*%
G36*
G01*
X34243990Y-81811580D02*
X33731490Y-81811580D01*
G75*
G02*
X33512740Y-81592830I0J218750D01*
G01*
X33512740Y-81155330D01*
G75*
G02*
X33731490Y-80936580I218750J0D01*
G01*
X34243990Y-80936580D01*
G75*
G02*
X34462740Y-81155330I0J-218750D01*
G01*
X34462740Y-81592830D01*
G75*
G02*
X34243990Y-81811580I-218750J0D01*
G01*
G37*
G36*
G01*
X34243990Y-80236580D02*
X33731490Y-80236580D01*
G75*
G02*
X33512740Y-80017830I0J218750D01*
G01*
X33512740Y-79580330D01*
G75*
G02*
X33731490Y-79361580I218750J0D01*
G01*
X34243990Y-79361580D01*
G75*
G02*
X34462740Y-79580330I0J-218750D01*
G01*
X34462740Y-80017830D01*
G75*
G02*
X34243990Y-80236580I-218750J0D01*
G01*
G37*
%TD*%
%TO.C,R5*%
G36*
G01*
X30301910Y-81811580D02*
X29789410Y-81811580D01*
G75*
G02*
X29570660Y-81592830I0J218750D01*
G01*
X29570660Y-81155330D01*
G75*
G02*
X29789410Y-80936580I218750J0D01*
G01*
X30301910Y-80936580D01*
G75*
G02*
X30520660Y-81155330I0J-218750D01*
G01*
X30520660Y-81592830D01*
G75*
G02*
X30301910Y-81811580I-218750J0D01*
G01*
G37*
G36*
G01*
X30301910Y-80236580D02*
X29789410Y-80236580D01*
G75*
G02*
X29570660Y-80017830I0J218750D01*
G01*
X29570660Y-79580330D01*
G75*
G02*
X29789410Y-79361580I218750J0D01*
G01*
X30301910Y-79361580D01*
G75*
G02*
X30520660Y-79580330I0J-218750D01*
G01*
X30520660Y-80017830D01*
G75*
G02*
X30301910Y-80236580I-218750J0D01*
G01*
G37*
%TD*%
%TO.C,R34*%
G36*
G01*
X21342900Y-100781830D02*
X21342900Y-100269330D01*
G75*
G02*
X21561650Y-100050580I218750J0D01*
G01*
X21999150Y-100050580D01*
G75*
G02*
X22217900Y-100269330I0J-218750D01*
G01*
X22217900Y-100781830D01*
G75*
G02*
X21999150Y-101000580I-218750J0D01*
G01*
X21561650Y-101000580D01*
G75*
G02*
X21342900Y-100781830I0J218750D01*
G01*
G37*
G36*
G01*
X22917900Y-100781830D02*
X22917900Y-100269330D01*
G75*
G02*
X23136650Y-100050580I218750J0D01*
G01*
X23574150Y-100050580D01*
G75*
G02*
X23792900Y-100269330I0J-218750D01*
G01*
X23792900Y-100781830D01*
G75*
G02*
X23574150Y-101000580I-218750J0D01*
G01*
X23136650Y-101000580D01*
G75*
G02*
X22917900Y-100781830I0J218750D01*
G01*
G37*
%TD*%
%TO.C,R27*%
G36*
G01*
X28993124Y-89597500D02*
X28480624Y-89597500D01*
G75*
G02*
X28261874Y-89378750I0J218750D01*
G01*
X28261874Y-88941250D01*
G75*
G02*
X28480624Y-88722500I218750J0D01*
G01*
X28993124Y-88722500D01*
G75*
G02*
X29211874Y-88941250I0J-218750D01*
G01*
X29211874Y-89378750D01*
G75*
G02*
X28993124Y-89597500I-218750J0D01*
G01*
G37*
G36*
G01*
X28993124Y-88022500D02*
X28480624Y-88022500D01*
G75*
G02*
X28261874Y-87803750I0J218750D01*
G01*
X28261874Y-87366250D01*
G75*
G02*
X28480624Y-87147500I218750J0D01*
G01*
X28993124Y-87147500D01*
G75*
G02*
X29211874Y-87366250I0J-218750D01*
G01*
X29211874Y-87803750D01*
G75*
G02*
X28993124Y-88022500I-218750J0D01*
G01*
G37*
%TD*%
%TO.C,R26*%
G36*
G01*
X29819566Y-87147500D02*
X30332066Y-87147500D01*
G75*
G02*
X30550816Y-87366250I0J-218750D01*
G01*
X30550816Y-87803750D01*
G75*
G02*
X30332066Y-88022500I-218750J0D01*
G01*
X29819566Y-88022500D01*
G75*
G02*
X29600816Y-87803750I0J218750D01*
G01*
X29600816Y-87366250D01*
G75*
G02*
X29819566Y-87147500I218750J0D01*
G01*
G37*
G36*
G01*
X29819566Y-88722500D02*
X30332066Y-88722500D01*
G75*
G02*
X30550816Y-88941250I0J-218750D01*
G01*
X30550816Y-89378750D01*
G75*
G02*
X30332066Y-89597500I-218750J0D01*
G01*
X29819566Y-89597500D01*
G75*
G02*
X29600816Y-89378750I0J218750D01*
G01*
X29600816Y-88941250D01*
G75*
G02*
X29819566Y-88722500I218750J0D01*
G01*
G37*
%TD*%
%TO.C,R19*%
G36*
G01*
X31158508Y-87147500D02*
X31671008Y-87147500D01*
G75*
G02*
X31889758Y-87366250I0J-218750D01*
G01*
X31889758Y-87803750D01*
G75*
G02*
X31671008Y-88022500I-218750J0D01*
G01*
X31158508Y-88022500D01*
G75*
G02*
X30939758Y-87803750I0J218750D01*
G01*
X30939758Y-87366250D01*
G75*
G02*
X31158508Y-87147500I218750J0D01*
G01*
G37*
G36*
G01*
X31158508Y-88722500D02*
X31671008Y-88722500D01*
G75*
G02*
X31889758Y-88941250I0J-218750D01*
G01*
X31889758Y-89378750D01*
G75*
G02*
X31671008Y-89597500I-218750J0D01*
G01*
X31158508Y-89597500D01*
G75*
G02*
X30939758Y-89378750I0J218750D01*
G01*
X30939758Y-88941250D01*
G75*
G02*
X31158508Y-88722500I218750J0D01*
G01*
G37*
%TD*%
%TO.C,C44*%
G36*
G01*
X21342900Y-102275350D02*
X21342900Y-101762850D01*
G75*
G02*
X21561650Y-101544100I218750J0D01*
G01*
X21999150Y-101544100D01*
G75*
G02*
X22217900Y-101762850I0J-218750D01*
G01*
X22217900Y-102275350D01*
G75*
G02*
X21999150Y-102494100I-218750J0D01*
G01*
X21561650Y-102494100D01*
G75*
G02*
X21342900Y-102275350I0J218750D01*
G01*
G37*
G36*
G01*
X22917900Y-102275350D02*
X22917900Y-101762850D01*
G75*
G02*
X23136650Y-101544100I218750J0D01*
G01*
X23574150Y-101544100D01*
G75*
G02*
X23792900Y-101762850I0J-218750D01*
G01*
X23792900Y-102275350D01*
G75*
G02*
X23574150Y-102494100I-218750J0D01*
G01*
X23136650Y-102494100D01*
G75*
G02*
X22917900Y-102275350I0J218750D01*
G01*
G37*
%TD*%
%TO.C,C33*%
G36*
G01*
X28124000Y-85982650D02*
X28124000Y-86495150D01*
G75*
G02*
X27905250Y-86713900I-218750J0D01*
G01*
X27467750Y-86713900D01*
G75*
G02*
X27249000Y-86495150I0J218750D01*
G01*
X27249000Y-85982650D01*
G75*
G02*
X27467750Y-85763900I218750J0D01*
G01*
X27905250Y-85763900D01*
G75*
G02*
X28124000Y-85982650I0J-218750D01*
G01*
G37*
G36*
G01*
X26549000Y-85982650D02*
X26549000Y-86495150D01*
G75*
G02*
X26330250Y-86713900I-218750J0D01*
G01*
X25892750Y-86713900D01*
G75*
G02*
X25674000Y-86495150I0J218750D01*
G01*
X25674000Y-85982650D01*
G75*
G02*
X25892750Y-85763900I218750J0D01*
G01*
X26330250Y-85763900D01*
G75*
G02*
X26549000Y-85982650I0J-218750D01*
G01*
G37*
%TD*%
%TO.C,D1*%
G36*
G01*
X60080440Y-86556250D02*
X60080440Y-86043750D01*
G75*
G02*
X60299190Y-85825000I218750J0D01*
G01*
X60736690Y-85825000D01*
G75*
G02*
X60955440Y-86043750I0J-218750D01*
G01*
X60955440Y-86556250D01*
G75*
G02*
X60736690Y-86775000I-218750J0D01*
G01*
X60299190Y-86775000D01*
G75*
G02*
X60080440Y-86556250I0J218750D01*
G01*
G37*
G36*
G01*
X61655440Y-86556250D02*
X61655440Y-86043750D01*
G75*
G02*
X61874190Y-85825000I218750J0D01*
G01*
X62311690Y-85825000D01*
G75*
G02*
X62530440Y-86043750I0J-218750D01*
G01*
X62530440Y-86556250D01*
G75*
G02*
X62311690Y-86775000I-218750J0D01*
G01*
X61874190Y-86775000D01*
G75*
G02*
X61655440Y-86556250I0J218750D01*
G01*
G37*
%TD*%
%TO.C,D2*%
G36*
G01*
X60080440Y-87898950D02*
X60080440Y-87386450D01*
G75*
G02*
X60299190Y-87167700I218750J0D01*
G01*
X60736690Y-87167700D01*
G75*
G02*
X60955440Y-87386450I0J-218750D01*
G01*
X60955440Y-87898950D01*
G75*
G02*
X60736690Y-88117700I-218750J0D01*
G01*
X60299190Y-88117700D01*
G75*
G02*
X60080440Y-87898950I0J218750D01*
G01*
G37*
G36*
G01*
X61655440Y-87898950D02*
X61655440Y-87386450D01*
G75*
G02*
X61874190Y-87167700I218750J0D01*
G01*
X62311690Y-87167700D01*
G75*
G02*
X62530440Y-87386450I0J-218750D01*
G01*
X62530440Y-87898950D01*
G75*
G02*
X62311690Y-88117700I-218750J0D01*
G01*
X61874190Y-88117700D01*
G75*
G02*
X61655440Y-87898950I0J218750D01*
G01*
G37*
%TD*%
%TO.C,L1*%
G36*
G01*
X47524350Y-93736100D02*
X48436850Y-93736100D01*
G75*
G02*
X48680600Y-93979850I0J-243750D01*
G01*
X48680600Y-94467350D01*
G75*
G02*
X48436850Y-94711100I-243750J0D01*
G01*
X47524350Y-94711100D01*
G75*
G02*
X47280600Y-94467350I0J243750D01*
G01*
X47280600Y-93979850D01*
G75*
G02*
X47524350Y-93736100I243750J0D01*
G01*
G37*
G36*
G01*
X47524350Y-95611100D02*
X48436850Y-95611100D01*
G75*
G02*
X48680600Y-95854850I0J-243750D01*
G01*
X48680600Y-96342350D01*
G75*
G02*
X48436850Y-96586100I-243750J0D01*
G01*
X47524350Y-96586100D01*
G75*
G02*
X47280600Y-96342350I0J243750D01*
G01*
X47280600Y-95854850D01*
G75*
G02*
X47524350Y-95611100I243750J0D01*
G01*
G37*
%TD*%
%TO.C,D13*%
X25184100Y-102030800D03*
X25184100Y-98730800D03*
%TD*%
D22*
%TO.C,D11*%
X27711400Y-91191100D03*
X26441400Y-91191100D03*
X25171400Y-91191100D03*
X23901400Y-91191100D03*
X23901400Y-96591100D03*
X25171400Y-96591100D03*
X27711400Y-96591100D03*
%TD*%
D23*
%TO.C,D8*%
X32300000Y-85750000D03*
X29000000Y-85750000D03*
%TD*%
D20*
%TO.C,D12*%
X40298700Y-94386400D03*
X40298700Y-91846400D03*
X34148700Y-91846400D03*
X34148700Y-94386400D03*
%TD*%
%TO.C,C24*%
G36*
G01*
X29045850Y-90675400D02*
X29958350Y-90675400D01*
G75*
G02*
X30202100Y-90919150I0J-243750D01*
G01*
X30202100Y-91406650D01*
G75*
G02*
X29958350Y-91650400I-243750J0D01*
G01*
X29045850Y-91650400D01*
G75*
G02*
X28802100Y-91406650I0J243750D01*
G01*
X28802100Y-90919150D01*
G75*
G02*
X29045850Y-90675400I243750J0D01*
G01*
G37*
G36*
G01*
X29045850Y-92550400D02*
X29958350Y-92550400D01*
G75*
G02*
X30202100Y-92794150I0J-243750D01*
G01*
X30202100Y-93281650D01*
G75*
G02*
X29958350Y-93525400I-243750J0D01*
G01*
X29045850Y-93525400D01*
G75*
G02*
X28802100Y-93281650I0J243750D01*
G01*
X28802100Y-92794150D01*
G75*
G02*
X29045850Y-92550400I243750J0D01*
G01*
G37*
%TD*%
%TO.C,C37*%
G36*
G01*
X28343750Y-61475000D02*
X29256250Y-61475000D01*
G75*
G02*
X29500000Y-61718750I0J-243750D01*
G01*
X29500000Y-62206250D01*
G75*
G02*
X29256250Y-62450000I-243750J0D01*
G01*
X28343750Y-62450000D01*
G75*
G02*
X28100000Y-62206250I0J243750D01*
G01*
X28100000Y-61718750D01*
G75*
G02*
X28343750Y-61475000I243750J0D01*
G01*
G37*
G36*
G01*
X28343750Y-63350000D02*
X29256250Y-63350000D01*
G75*
G02*
X29500000Y-63593750I0J-243750D01*
G01*
X29500000Y-64081250D01*
G75*
G02*
X29256250Y-64325000I-243750J0D01*
G01*
X28343750Y-64325000D01*
G75*
G02*
X28100000Y-64081250I0J243750D01*
G01*
X28100000Y-63593750D01*
G75*
G02*
X28343750Y-63350000I243750J0D01*
G01*
G37*
%TD*%
%TO.C,C23*%
G36*
G01*
X22825000Y-63831250D02*
X22825000Y-62918750D01*
G75*
G02*
X23068750Y-62675000I243750J0D01*
G01*
X23556250Y-62675000D01*
G75*
G02*
X23800000Y-62918750I0J-243750D01*
G01*
X23800000Y-63831250D01*
G75*
G02*
X23556250Y-64075000I-243750J0D01*
G01*
X23068750Y-64075000D01*
G75*
G02*
X22825000Y-63831250I0J243750D01*
G01*
G37*
G36*
G01*
X24700000Y-63831250D02*
X24700000Y-62918750D01*
G75*
G02*
X24943750Y-62675000I243750J0D01*
G01*
X25431250Y-62675000D01*
G75*
G02*
X25675000Y-62918750I0J-243750D01*
G01*
X25675000Y-63831250D01*
G75*
G02*
X25431250Y-64075000I-243750J0D01*
G01*
X24943750Y-64075000D01*
G75*
G02*
X24700000Y-63831250I0J243750D01*
G01*
G37*
%TD*%
%TO.C,C13*%
G36*
G01*
X41234300Y-65365950D02*
X41234300Y-64453450D01*
G75*
G02*
X41478050Y-64209700I243750J0D01*
G01*
X41965550Y-64209700D01*
G75*
G02*
X42209300Y-64453450I0J-243750D01*
G01*
X42209300Y-65365950D01*
G75*
G02*
X41965550Y-65609700I-243750J0D01*
G01*
X41478050Y-65609700D01*
G75*
G02*
X41234300Y-65365950I0J243750D01*
G01*
G37*
G36*
G01*
X43109300Y-65365950D02*
X43109300Y-64453450D01*
G75*
G02*
X43353050Y-64209700I243750J0D01*
G01*
X43840550Y-64209700D01*
G75*
G02*
X44084300Y-64453450I0J-243750D01*
G01*
X44084300Y-65365950D01*
G75*
G02*
X43840550Y-65609700I-243750J0D01*
G01*
X43353050Y-65609700D01*
G75*
G02*
X43109300Y-65365950I0J243750D01*
G01*
G37*
%TD*%
%TO.C,C11*%
G36*
G01*
X33562610Y-65608260D02*
X32650110Y-65608260D01*
G75*
G02*
X32406360Y-65364510I0J243750D01*
G01*
X32406360Y-64877010D01*
G75*
G02*
X32650110Y-64633260I243750J0D01*
G01*
X33562610Y-64633260D01*
G75*
G02*
X33806360Y-64877010I0J-243750D01*
G01*
X33806360Y-65364510D01*
G75*
G02*
X33562610Y-65608260I-243750J0D01*
G01*
G37*
G36*
G01*
X33562610Y-63733260D02*
X32650110Y-63733260D01*
G75*
G02*
X32406360Y-63489510I0J243750D01*
G01*
X32406360Y-63002010D01*
G75*
G02*
X32650110Y-62758260I243750J0D01*
G01*
X33562610Y-62758260D01*
G75*
G02*
X33806360Y-63002010I0J-243750D01*
G01*
X33806360Y-63489510D01*
G75*
G02*
X33562610Y-63733260I-243750J0D01*
G01*
G37*
%TD*%
%TO.C,C9*%
G36*
G01*
X33581400Y-72556050D02*
X33581400Y-73468550D01*
G75*
G02*
X33337650Y-73712300I-243750J0D01*
G01*
X32850150Y-73712300D01*
G75*
G02*
X32606400Y-73468550I0J243750D01*
G01*
X32606400Y-72556050D01*
G75*
G02*
X32850150Y-72312300I243750J0D01*
G01*
X33337650Y-72312300D01*
G75*
G02*
X33581400Y-72556050I0J-243750D01*
G01*
G37*
G36*
G01*
X31706400Y-72556050D02*
X31706400Y-73468550D01*
G75*
G02*
X31462650Y-73712300I-243750J0D01*
G01*
X30975150Y-73712300D01*
G75*
G02*
X30731400Y-73468550I0J243750D01*
G01*
X30731400Y-72556050D01*
G75*
G02*
X30975150Y-72312300I243750J0D01*
G01*
X31462650Y-72312300D01*
G75*
G02*
X31706400Y-72556050I0J-243750D01*
G01*
G37*
%TD*%
%TO.C,C8*%
G36*
G01*
X40925000Y-73481250D02*
X40925000Y-72568750D01*
G75*
G02*
X41168750Y-72325000I243750J0D01*
G01*
X41656250Y-72325000D01*
G75*
G02*
X41900000Y-72568750I0J-243750D01*
G01*
X41900000Y-73481250D01*
G75*
G02*
X41656250Y-73725000I-243750J0D01*
G01*
X41168750Y-73725000D01*
G75*
G02*
X40925000Y-73481250I0J243750D01*
G01*
G37*
G36*
G01*
X42800000Y-73481250D02*
X42800000Y-72568750D01*
G75*
G02*
X43043750Y-72325000I243750J0D01*
G01*
X43531250Y-72325000D01*
G75*
G02*
X43775000Y-72568750I0J-243750D01*
G01*
X43775000Y-73481250D01*
G75*
G02*
X43531250Y-73725000I-243750J0D01*
G01*
X43043750Y-73725000D01*
G75*
G02*
X42800000Y-73481250I0J243750D01*
G01*
G37*
%TD*%
D19*
%TO.C,U1*%
X33165800Y-66172900D03*
X33165800Y-66672900D03*
X33165800Y-67172900D03*
X33165800Y-67672900D03*
X33165800Y-68172900D03*
X33165800Y-68672900D03*
X33165800Y-69172900D03*
X33165800Y-69672900D03*
X33165800Y-70172900D03*
X33165800Y-70672900D03*
X33165800Y-71172900D03*
X33165800Y-71672900D03*
D18*
X34765800Y-73272900D03*
X35265800Y-73272900D03*
X35765800Y-73272900D03*
X36265800Y-73272900D03*
X36765800Y-73272900D03*
X37265800Y-73272900D03*
X37765800Y-73272900D03*
X38265800Y-73272900D03*
X38765800Y-73272900D03*
X39265800Y-73272900D03*
X39765800Y-73272900D03*
X40265800Y-73272900D03*
D19*
X41865800Y-71672900D03*
X41865800Y-71172900D03*
X41865800Y-70672900D03*
X41865800Y-70172900D03*
X41865800Y-69672900D03*
X41865800Y-69172900D03*
X41865800Y-68672900D03*
X41865800Y-68172900D03*
X41865800Y-67672900D03*
X41865800Y-67172900D03*
X41865800Y-66672900D03*
X41865800Y-66172900D03*
D18*
X40265800Y-64572900D03*
X39765800Y-64572900D03*
X39265800Y-64572900D03*
X38765800Y-64572900D03*
X38265800Y-64572900D03*
X37765800Y-64572900D03*
X37265800Y-64572900D03*
X36765800Y-64572900D03*
X36265800Y-64572900D03*
X35765800Y-64572900D03*
X35265800Y-64572900D03*
X34765800Y-64572900D03*
%TD*%
D17*
%TO.C,J9*%
X43776900Y-63004700D03*
%TD*%
%TO.C,J8*%
X46736000Y-65468500D03*
%TD*%
%TO.C,J2*%
X38612232Y-61887100D03*
%TD*%
%TO.C,J1*%
X40640000Y-61887100D03*
%TD*%
%TO.C,J5*%
X28402280Y-70571360D03*
%TD*%
M02*
