%TF.GenerationSoftware,KiCad,Pcbnew,5.1.9+dfsg1-1*%
%TF.CreationDate,2022-05-19T12:27:24+03:00*%
%TF.ProjectId,Anemometr,416e656d-6f6d-4657-9472-2e6b69636164,rev?*%
%TF.SameCoordinates,Original*%
%TF.FileFunction,Soldermask,Bot*%
%TF.FilePolarity,Negative*%
%FSLAX46Y46*%
G04 Gerber Fmt 4.6, Leading zero omitted, Abs format (unit mm)*
G04 Created by KiCad (PCBNEW 5.1.9+dfsg1-1) date 2022-05-19 12:27:24*
%MOMM*%
%LPD*%
G01*
G04 APERTURE LIST*
%ADD10C,1.524000*%
%ADD11R,1.550000X1.270000*%
%ADD12C,0.100000*%
%ADD13R,0.890000X0.775000*%
%ADD14R,0.870000X2.790000*%
%ADD15R,1.060000X0.650000*%
%ADD16R,0.700000X1.670000*%
%ADD17R,1.200000X0.900000*%
%ADD18R,0.650000X1.060000*%
%ADD19R,0.450000X1.450000*%
G04 APERTURE END LIST*
D10*
%TO.C,J25*%
X39350000Y-66000000D03*
%TD*%
D11*
%TO.C,D14*%
X21689300Y-98738700D03*
X21689300Y-96238700D03*
X21689300Y-93738700D03*
X21689300Y-91238700D03*
X21689300Y-88738700D03*
X38229300Y-88738700D03*
X38229300Y-91238700D03*
X38229300Y-93738700D03*
X38229300Y-96238700D03*
X38229300Y-98738700D03*
%TD*%
%TO.C,C38*%
G36*
G01*
X56723100Y-96739100D02*
X56383100Y-96739100D01*
G75*
G02*
X56243100Y-96599100I0J140000D01*
G01*
X56243100Y-96319100D01*
G75*
G02*
X56383100Y-96179100I140000J0D01*
G01*
X56723100Y-96179100D01*
G75*
G02*
X56863100Y-96319100I0J-140000D01*
G01*
X56863100Y-96599100D01*
G75*
G02*
X56723100Y-96739100I-140000J0D01*
G01*
G37*
G36*
G01*
X56723100Y-97699100D02*
X56383100Y-97699100D01*
G75*
G02*
X56243100Y-97559100I0J140000D01*
G01*
X56243100Y-97279100D01*
G75*
G02*
X56383100Y-97139100I140000J0D01*
G01*
X56723100Y-97139100D01*
G75*
G02*
X56863100Y-97279100I0J-140000D01*
G01*
X56863100Y-97559100D01*
G75*
G02*
X56723100Y-97699100I-140000J0D01*
G01*
G37*
%TD*%
%TO.C,C35*%
G36*
G01*
X54553940Y-96736560D02*
X54213940Y-96736560D01*
G75*
G02*
X54073940Y-96596560I0J140000D01*
G01*
X54073940Y-96316560D01*
G75*
G02*
X54213940Y-96176560I140000J0D01*
G01*
X54553940Y-96176560D01*
G75*
G02*
X54693940Y-96316560I0J-140000D01*
G01*
X54693940Y-96596560D01*
G75*
G02*
X54553940Y-96736560I-140000J0D01*
G01*
G37*
G36*
G01*
X54553940Y-97696560D02*
X54213940Y-97696560D01*
G75*
G02*
X54073940Y-97556560I0J140000D01*
G01*
X54073940Y-97276560D01*
G75*
G02*
X54213940Y-97136560I140000J0D01*
G01*
X54553940Y-97136560D01*
G75*
G02*
X54693940Y-97276560I0J-140000D01*
G01*
X54693940Y-97556560D01*
G75*
G02*
X54553940Y-97696560I-140000J0D01*
G01*
G37*
%TD*%
%TO.C,C31*%
G36*
G01*
X60241000Y-96739100D02*
X59901000Y-96739100D01*
G75*
G02*
X59761000Y-96599100I0J140000D01*
G01*
X59761000Y-96319100D01*
G75*
G02*
X59901000Y-96179100I140000J0D01*
G01*
X60241000Y-96179100D01*
G75*
G02*
X60381000Y-96319100I0J-140000D01*
G01*
X60381000Y-96599100D01*
G75*
G02*
X60241000Y-96739100I-140000J0D01*
G01*
G37*
G36*
G01*
X60241000Y-97699100D02*
X59901000Y-97699100D01*
G75*
G02*
X59761000Y-97559100I0J140000D01*
G01*
X59761000Y-97279100D01*
G75*
G02*
X59901000Y-97139100I140000J0D01*
G01*
X60241000Y-97139100D01*
G75*
G02*
X60381000Y-97279100I0J-140000D01*
G01*
X60381000Y-97559100D01*
G75*
G02*
X60241000Y-97699100I-140000J0D01*
G01*
G37*
%TD*%
%TO.C,C27*%
G36*
G01*
X57751800Y-96739100D02*
X57411800Y-96739100D01*
G75*
G02*
X57271800Y-96599100I0J140000D01*
G01*
X57271800Y-96319100D01*
G75*
G02*
X57411800Y-96179100I140000J0D01*
G01*
X57751800Y-96179100D01*
G75*
G02*
X57891800Y-96319100I0J-140000D01*
G01*
X57891800Y-96599100D01*
G75*
G02*
X57751800Y-96739100I-140000J0D01*
G01*
G37*
G36*
G01*
X57751800Y-97699100D02*
X57411800Y-97699100D01*
G75*
G02*
X57271800Y-97559100I0J140000D01*
G01*
X57271800Y-97279100D01*
G75*
G02*
X57411800Y-97139100I140000J0D01*
G01*
X57751800Y-97139100D01*
G75*
G02*
X57891800Y-97279100I0J-140000D01*
G01*
X57891800Y-97559100D01*
G75*
G02*
X57751800Y-97699100I-140000J0D01*
G01*
G37*
%TD*%
%TO.C,C59*%
G36*
G01*
X40538110Y-72027300D02*
X40025610Y-72027300D01*
G75*
G02*
X39806860Y-71808550I0J218750D01*
G01*
X39806860Y-71371050D01*
G75*
G02*
X40025610Y-71152300I218750J0D01*
G01*
X40538110Y-71152300D01*
G75*
G02*
X40756860Y-71371050I0J-218750D01*
G01*
X40756860Y-71808550D01*
G75*
G02*
X40538110Y-72027300I-218750J0D01*
G01*
G37*
G36*
G01*
X40538110Y-73602300D02*
X40025610Y-73602300D01*
G75*
G02*
X39806860Y-73383550I0J218750D01*
G01*
X39806860Y-72946050D01*
G75*
G02*
X40025610Y-72727300I218750J0D01*
G01*
X40538110Y-72727300D01*
G75*
G02*
X40756860Y-72946050I0J-218750D01*
G01*
X40756860Y-73383550D01*
G75*
G02*
X40538110Y-73602300I-218750J0D01*
G01*
G37*
%TD*%
D12*
%TO.C,L5*%
G36*
X56465150Y-81322821D02*
G01*
X55902395Y-80769804D01*
X56252850Y-80413179D01*
X56815605Y-80966196D01*
X56465150Y-81322821D01*
G37*
G36*
X56994768Y-80894474D02*
G01*
X56414385Y-80299733D01*
X56772232Y-79950526D01*
X57352615Y-80545267D01*
X56994768Y-80894474D01*
G37*
D13*
X56907500Y-80932500D03*
D12*
G36*
X55902395Y-77980196D02*
G01*
X56465150Y-77427179D01*
X56815605Y-77783804D01*
X56252850Y-78336821D01*
X55902395Y-77980196D01*
G37*
G36*
X56414385Y-78450267D02*
G01*
X56994768Y-77855526D01*
X57352615Y-78204733D01*
X56772232Y-78799474D01*
X56414385Y-78450267D01*
G37*
D13*
X56907500Y-77817500D03*
D14*
X56337500Y-79375000D03*
D12*
G36*
X58852385Y-80545267D02*
G01*
X59432768Y-79950526D01*
X59790615Y-80299733D01*
X59210232Y-80894474D01*
X58852385Y-80545267D01*
G37*
D13*
X59297500Y-80932500D03*
D12*
G36*
X59389395Y-80966196D02*
G01*
X59952150Y-80413179D01*
X60302605Y-80769804D01*
X59739850Y-81322821D01*
X59389395Y-80966196D01*
G37*
G36*
X59952150Y-78336821D02*
G01*
X59389395Y-77783804D01*
X59739850Y-77427179D01*
X60302605Y-77980196D01*
X59952150Y-78336821D01*
G37*
G36*
X59432768Y-78799474D02*
G01*
X58852385Y-78204733D01*
X59210232Y-77855526D01*
X59790615Y-78450267D01*
X59432768Y-78799474D01*
G37*
D13*
X59297500Y-77817500D03*
D14*
X59867500Y-79375000D03*
%TD*%
%TO.C,C54*%
G36*
G01*
X57304640Y-82772940D02*
X57304640Y-84922940D01*
G75*
G02*
X57054640Y-85172940I-250000J0D01*
G01*
X56304640Y-85172940D01*
G75*
G02*
X56054640Y-84922940I0J250000D01*
G01*
X56054640Y-82772940D01*
G75*
G02*
X56304640Y-82522940I250000J0D01*
G01*
X57054640Y-82522940D01*
G75*
G02*
X57304640Y-82772940I0J-250000D01*
G01*
G37*
G36*
G01*
X60104640Y-82772940D02*
X60104640Y-84922940D01*
G75*
G02*
X59854640Y-85172940I-250000J0D01*
G01*
X59104640Y-85172940D01*
G75*
G02*
X58854640Y-84922940I0J250000D01*
G01*
X58854640Y-82772940D01*
G75*
G02*
X59104640Y-82522940I250000J0D01*
G01*
X59854640Y-82522940D01*
G75*
G02*
X60104640Y-82772940I0J-250000D01*
G01*
G37*
%TD*%
%TO.C,R42*%
G36*
G01*
X57576200Y-66524850D02*
X57576200Y-66012350D01*
G75*
G02*
X57794950Y-65793600I218750J0D01*
G01*
X58232450Y-65793600D01*
G75*
G02*
X58451200Y-66012350I0J-218750D01*
G01*
X58451200Y-66524850D01*
G75*
G02*
X58232450Y-66743600I-218750J0D01*
G01*
X57794950Y-66743600D01*
G75*
G02*
X57576200Y-66524850I0J218750D01*
G01*
G37*
G36*
G01*
X56001200Y-66524850D02*
X56001200Y-66012350D01*
G75*
G02*
X56219950Y-65793600I218750J0D01*
G01*
X56657450Y-65793600D01*
G75*
G02*
X56876200Y-66012350I0J-218750D01*
G01*
X56876200Y-66524850D01*
G75*
G02*
X56657450Y-66743600I-218750J0D01*
G01*
X56219950Y-66743600D01*
G75*
G02*
X56001200Y-66524850I0J218750D01*
G01*
G37*
%TD*%
%TO.C,R41*%
G36*
G01*
X59590650Y-66604400D02*
X59078150Y-66604400D01*
G75*
G02*
X58859400Y-66385650I0J218750D01*
G01*
X58859400Y-65948150D01*
G75*
G02*
X59078150Y-65729400I218750J0D01*
G01*
X59590650Y-65729400D01*
G75*
G02*
X59809400Y-65948150I0J-218750D01*
G01*
X59809400Y-66385650D01*
G75*
G02*
X59590650Y-66604400I-218750J0D01*
G01*
G37*
G36*
G01*
X59590650Y-68179400D02*
X59078150Y-68179400D01*
G75*
G02*
X58859400Y-67960650I0J218750D01*
G01*
X58859400Y-67523150D01*
G75*
G02*
X59078150Y-67304400I218750J0D01*
G01*
X59590650Y-67304400D01*
G75*
G02*
X59809400Y-67523150I0J-218750D01*
G01*
X59809400Y-67960650D01*
G75*
G02*
X59590650Y-68179400I-218750J0D01*
G01*
G37*
%TD*%
%TO.C,D17*%
G36*
G01*
X57952500Y-73871700D02*
X58252500Y-73871700D01*
G75*
G02*
X58402500Y-74021700I0J-150000D01*
G01*
X58402500Y-75321700D01*
G75*
G02*
X58252500Y-75471700I-150000J0D01*
G01*
X57952500Y-75471700D01*
G75*
G02*
X57802500Y-75321700I0J150000D01*
G01*
X57802500Y-74021700D01*
G75*
G02*
X57952500Y-73871700I150000J0D01*
G01*
G37*
G36*
G01*
X59222500Y-73871700D02*
X59522500Y-73871700D01*
G75*
G02*
X59672500Y-74021700I0J-150000D01*
G01*
X59672500Y-75321700D01*
G75*
G02*
X59522500Y-75471700I-150000J0D01*
G01*
X59222500Y-75471700D01*
G75*
G02*
X59072500Y-75321700I0J150000D01*
G01*
X59072500Y-74021700D01*
G75*
G02*
X59222500Y-73871700I150000J0D01*
G01*
G37*
G36*
G01*
X60492500Y-73871700D02*
X60792500Y-73871700D01*
G75*
G02*
X60942500Y-74021700I0J-150000D01*
G01*
X60942500Y-75321700D01*
G75*
G02*
X60792500Y-75471700I-150000J0D01*
G01*
X60492500Y-75471700D01*
G75*
G02*
X60342500Y-75321700I0J150000D01*
G01*
X60342500Y-74021700D01*
G75*
G02*
X60492500Y-73871700I150000J0D01*
G01*
G37*
G36*
G01*
X61762500Y-73871700D02*
X62062500Y-73871700D01*
G75*
G02*
X62212500Y-74021700I0J-150000D01*
G01*
X62212500Y-75321700D01*
G75*
G02*
X62062500Y-75471700I-150000J0D01*
G01*
X61762500Y-75471700D01*
G75*
G02*
X61612500Y-75321700I0J150000D01*
G01*
X61612500Y-74021700D01*
G75*
G02*
X61762500Y-73871700I150000J0D01*
G01*
G37*
G36*
G01*
X61762500Y-68571700D02*
X62062500Y-68571700D01*
G75*
G02*
X62212500Y-68721700I0J-150000D01*
G01*
X62212500Y-70021700D01*
G75*
G02*
X62062500Y-70171700I-150000J0D01*
G01*
X61762500Y-70171700D01*
G75*
G02*
X61612500Y-70021700I0J150000D01*
G01*
X61612500Y-68721700D01*
G75*
G02*
X61762500Y-68571700I150000J0D01*
G01*
G37*
G36*
G01*
X60492500Y-68571700D02*
X60792500Y-68571700D01*
G75*
G02*
X60942500Y-68721700I0J-150000D01*
G01*
X60942500Y-70021700D01*
G75*
G02*
X60792500Y-70171700I-150000J0D01*
G01*
X60492500Y-70171700D01*
G75*
G02*
X60342500Y-70021700I0J150000D01*
G01*
X60342500Y-68721700D01*
G75*
G02*
X60492500Y-68571700I150000J0D01*
G01*
G37*
G36*
G01*
X59222500Y-68571700D02*
X59522500Y-68571700D01*
G75*
G02*
X59672500Y-68721700I0J-150000D01*
G01*
X59672500Y-70021700D01*
G75*
G02*
X59522500Y-70171700I-150000J0D01*
G01*
X59222500Y-70171700D01*
G75*
G02*
X59072500Y-70021700I0J150000D01*
G01*
X59072500Y-68721700D01*
G75*
G02*
X59222500Y-68571700I150000J0D01*
G01*
G37*
G36*
G01*
X57952500Y-68571700D02*
X58252500Y-68571700D01*
G75*
G02*
X58402500Y-68721700I0J-150000D01*
G01*
X58402500Y-70021700D01*
G75*
G02*
X58252500Y-70171700I-150000J0D01*
G01*
X57952500Y-70171700D01*
G75*
G02*
X57802500Y-70021700I0J150000D01*
G01*
X57802500Y-68721700D01*
G75*
G02*
X57952500Y-68571700I150000J0D01*
G01*
G37*
G36*
G01*
X58707497Y-70816700D02*
X61307503Y-70816700D01*
G75*
G02*
X61557500Y-71066697I0J-249997D01*
G01*
X61557500Y-72976703D01*
G75*
G02*
X61307503Y-73226700I-249997J0D01*
G01*
X58707497Y-73226700D01*
G75*
G02*
X58457500Y-72976703I0J249997D01*
G01*
X58457500Y-71066697D01*
G75*
G02*
X58707497Y-70816700I249997J0D01*
G01*
G37*
%TD*%
%TO.C,C57*%
G36*
G01*
X56876200Y-67434750D02*
X56876200Y-67947250D01*
G75*
G02*
X56657450Y-68166000I-218750J0D01*
G01*
X56219950Y-68166000D01*
G75*
G02*
X56001200Y-67947250I0J218750D01*
G01*
X56001200Y-67434750D01*
G75*
G02*
X56219950Y-67216000I218750J0D01*
G01*
X56657450Y-67216000D01*
G75*
G02*
X56876200Y-67434750I0J-218750D01*
G01*
G37*
G36*
G01*
X58451200Y-67434750D02*
X58451200Y-67947250D01*
G75*
G02*
X58232450Y-68166000I-218750J0D01*
G01*
X57794950Y-68166000D01*
G75*
G02*
X57576200Y-67947250I0J218750D01*
G01*
X57576200Y-67434750D01*
G75*
G02*
X57794950Y-67216000I218750J0D01*
G01*
X58232450Y-67216000D01*
G75*
G02*
X58451200Y-67434750I0J-218750D01*
G01*
G37*
%TD*%
%TO.C,C55*%
G36*
G01*
X27898410Y-81660580D02*
X26985910Y-81660580D01*
G75*
G02*
X26742160Y-81416830I0J243750D01*
G01*
X26742160Y-80929330D01*
G75*
G02*
X26985910Y-80685580I243750J0D01*
G01*
X27898410Y-80685580D01*
G75*
G02*
X28142160Y-80929330I0J-243750D01*
G01*
X28142160Y-81416830D01*
G75*
G02*
X27898410Y-81660580I-243750J0D01*
G01*
G37*
G36*
G01*
X27898410Y-83535580D02*
X26985910Y-83535580D01*
G75*
G02*
X26742160Y-83291830I0J243750D01*
G01*
X26742160Y-82804330D01*
G75*
G02*
X26985910Y-82560580I243750J0D01*
G01*
X27898410Y-82560580D01*
G75*
G02*
X28142160Y-82804330I0J-243750D01*
G01*
X28142160Y-83291830D01*
G75*
G02*
X27898410Y-83535580I-243750J0D01*
G01*
G37*
%TD*%
%TO.C,C53*%
G36*
G01*
X60332100Y-76621350D02*
X60332100Y-76108850D01*
G75*
G02*
X60550850Y-75890100I218750J0D01*
G01*
X60988350Y-75890100D01*
G75*
G02*
X61207100Y-76108850I0J-218750D01*
G01*
X61207100Y-76621350D01*
G75*
G02*
X60988350Y-76840100I-218750J0D01*
G01*
X60550850Y-76840100D01*
G75*
G02*
X60332100Y-76621350I0J218750D01*
G01*
G37*
G36*
G01*
X58757100Y-76621350D02*
X58757100Y-76108850D01*
G75*
G02*
X58975850Y-75890100I218750J0D01*
G01*
X59413350Y-75890100D01*
G75*
G02*
X59632100Y-76108850I0J-218750D01*
G01*
X59632100Y-76621350D01*
G75*
G02*
X59413350Y-76840100I-218750J0D01*
G01*
X58975850Y-76840100D01*
G75*
G02*
X58757100Y-76621350I0J218750D01*
G01*
G37*
%TD*%
%TO.C,C52*%
G36*
G01*
X61821350Y-67304400D02*
X62333850Y-67304400D01*
G75*
G02*
X62552600Y-67523150I0J-218750D01*
G01*
X62552600Y-67960650D01*
G75*
G02*
X62333850Y-68179400I-218750J0D01*
G01*
X61821350Y-68179400D01*
G75*
G02*
X61602600Y-67960650I0J218750D01*
G01*
X61602600Y-67523150D01*
G75*
G02*
X61821350Y-67304400I218750J0D01*
G01*
G37*
G36*
G01*
X61821350Y-65729400D02*
X62333850Y-65729400D01*
G75*
G02*
X62552600Y-65948150I0J-218750D01*
G01*
X62552600Y-66385650D01*
G75*
G02*
X62333850Y-66604400I-218750J0D01*
G01*
X61821350Y-66604400D01*
G75*
G02*
X61602600Y-66385650I0J218750D01*
G01*
X61602600Y-65948150D01*
G75*
G02*
X61821350Y-65729400I218750J0D01*
G01*
G37*
%TD*%
%TO.C,C32*%
G36*
G01*
X60449750Y-67304400D02*
X60962250Y-67304400D01*
G75*
G02*
X61181000Y-67523150I0J-218750D01*
G01*
X61181000Y-67960650D01*
G75*
G02*
X60962250Y-68179400I-218750J0D01*
G01*
X60449750Y-68179400D01*
G75*
G02*
X60231000Y-67960650I0J218750D01*
G01*
X60231000Y-67523150D01*
G75*
G02*
X60449750Y-67304400I218750J0D01*
G01*
G37*
G36*
G01*
X60449750Y-65729400D02*
X60962250Y-65729400D01*
G75*
G02*
X61181000Y-65948150I0J-218750D01*
G01*
X61181000Y-66385650D01*
G75*
G02*
X60962250Y-66604400I-218750J0D01*
G01*
X60449750Y-66604400D01*
G75*
G02*
X60231000Y-66385650I0J218750D01*
G01*
X60231000Y-65948150D01*
G75*
G02*
X60449750Y-65729400I218750J0D01*
G01*
G37*
%TD*%
%TO.C,C30*%
G36*
G01*
X40513420Y-87062630D02*
X40513420Y-86150130D01*
G75*
G02*
X40757170Y-85906380I243750J0D01*
G01*
X41244670Y-85906380D01*
G75*
G02*
X41488420Y-86150130I0J-243750D01*
G01*
X41488420Y-87062630D01*
G75*
G02*
X41244670Y-87306380I-243750J0D01*
G01*
X40757170Y-87306380D01*
G75*
G02*
X40513420Y-87062630I0J243750D01*
G01*
G37*
G36*
G01*
X38638420Y-87062630D02*
X38638420Y-86150130D01*
G75*
G02*
X38882170Y-85906380I243750J0D01*
G01*
X39369670Y-85906380D01*
G75*
G02*
X39613420Y-86150130I0J-243750D01*
G01*
X39613420Y-87062630D01*
G75*
G02*
X39369670Y-87306380I-243750J0D01*
G01*
X38882170Y-87306380D01*
G75*
G02*
X38638420Y-87062630I0J243750D01*
G01*
G37*
%TD*%
%TO.C,C22*%
G36*
G01*
X55129750Y-66707600D02*
X54217250Y-66707600D01*
G75*
G02*
X53973500Y-66463850I0J243750D01*
G01*
X53973500Y-65976350D01*
G75*
G02*
X54217250Y-65732600I243750J0D01*
G01*
X55129750Y-65732600D01*
G75*
G02*
X55373500Y-65976350I0J-243750D01*
G01*
X55373500Y-66463850D01*
G75*
G02*
X55129750Y-66707600I-243750J0D01*
G01*
G37*
G36*
G01*
X55129750Y-68582600D02*
X54217250Y-68582600D01*
G75*
G02*
X53973500Y-68338850I0J243750D01*
G01*
X53973500Y-67851350D01*
G75*
G02*
X54217250Y-67607600I243750J0D01*
G01*
X55129750Y-67607600D01*
G75*
G02*
X55373500Y-67851350I0J-243750D01*
G01*
X55373500Y-68338850D01*
G75*
G02*
X55129750Y-68582600I-243750J0D01*
G01*
G37*
%TD*%
%TO.C,C49*%
G36*
G01*
X46139260Y-96674640D02*
X44889260Y-96674640D01*
G75*
G02*
X44639260Y-96424640I0J250000D01*
G01*
X44639260Y-95674640D01*
G75*
G02*
X44889260Y-95424640I250000J0D01*
G01*
X46139260Y-95424640D01*
G75*
G02*
X46389260Y-95674640I0J-250000D01*
G01*
X46389260Y-96424640D01*
G75*
G02*
X46139260Y-96674640I-250000J0D01*
G01*
G37*
G36*
G01*
X46139260Y-99474640D02*
X44889260Y-99474640D01*
G75*
G02*
X44639260Y-99224640I0J250000D01*
G01*
X44639260Y-98474640D01*
G75*
G02*
X44889260Y-98224640I250000J0D01*
G01*
X46139260Y-98224640D01*
G75*
G02*
X46389260Y-98474640I0J-250000D01*
G01*
X46389260Y-99224640D01*
G75*
G02*
X46139260Y-99474640I-250000J0D01*
G01*
G37*
%TD*%
D15*
%TO.C,U2*%
X30091200Y-78229500D03*
X30091200Y-77279500D03*
X30091200Y-76329500D03*
X32291200Y-76329500D03*
X32291200Y-78229500D03*
%TD*%
%TO.C,R40*%
G36*
G01*
X45805224Y-92088420D02*
X45292724Y-92088420D01*
G75*
G02*
X45073974Y-91869670I0J218750D01*
G01*
X45073974Y-91432170D01*
G75*
G02*
X45292724Y-91213420I218750J0D01*
G01*
X45805224Y-91213420D01*
G75*
G02*
X46023974Y-91432170I0J-218750D01*
G01*
X46023974Y-91869670D01*
G75*
G02*
X45805224Y-92088420I-218750J0D01*
G01*
G37*
G36*
G01*
X45805224Y-90513420D02*
X45292724Y-90513420D01*
G75*
G02*
X45073974Y-90294670I0J218750D01*
G01*
X45073974Y-89857170D01*
G75*
G02*
X45292724Y-89638420I218750J0D01*
G01*
X45805224Y-89638420D01*
G75*
G02*
X46023974Y-89857170I0J-218750D01*
G01*
X46023974Y-90294670D01*
G75*
G02*
X45805224Y-90513420I-218750J0D01*
G01*
G37*
%TD*%
%TO.C,R36*%
G36*
G01*
X47280400Y-92088420D02*
X46767900Y-92088420D01*
G75*
G02*
X46549150Y-91869670I0J218750D01*
G01*
X46549150Y-91432170D01*
G75*
G02*
X46767900Y-91213420I218750J0D01*
G01*
X47280400Y-91213420D01*
G75*
G02*
X47499150Y-91432170I0J-218750D01*
G01*
X47499150Y-91869670D01*
G75*
G02*
X47280400Y-92088420I-218750J0D01*
G01*
G37*
G36*
G01*
X47280400Y-90513420D02*
X46767900Y-90513420D01*
G75*
G02*
X46549150Y-90294670I0J218750D01*
G01*
X46549150Y-89857170D01*
G75*
G02*
X46767900Y-89638420I218750J0D01*
G01*
X47280400Y-89638420D01*
G75*
G02*
X47499150Y-89857170I0J-218750D01*
G01*
X47499150Y-90294670D01*
G75*
G02*
X47280400Y-90513420I-218750J0D01*
G01*
G37*
%TD*%
%TO.C,R32*%
G36*
G01*
X50063676Y-92088420D02*
X49551176Y-92088420D01*
G75*
G02*
X49332426Y-91869670I0J218750D01*
G01*
X49332426Y-91432170D01*
G75*
G02*
X49551176Y-91213420I218750J0D01*
G01*
X50063676Y-91213420D01*
G75*
G02*
X50282426Y-91432170I0J-218750D01*
G01*
X50282426Y-91869670D01*
G75*
G02*
X50063676Y-92088420I-218750J0D01*
G01*
G37*
G36*
G01*
X50063676Y-90513420D02*
X49551176Y-90513420D01*
G75*
G02*
X49332426Y-90294670I0J218750D01*
G01*
X49332426Y-89857170D01*
G75*
G02*
X49551176Y-89638420I218750J0D01*
G01*
X50063676Y-89638420D01*
G75*
G02*
X50282426Y-89857170I0J-218750D01*
G01*
X50282426Y-90294670D01*
G75*
G02*
X50063676Y-90513420I-218750J0D01*
G01*
G37*
%TD*%
%TO.C,R35*%
G36*
G01*
X48655952Y-92088420D02*
X48143452Y-92088420D01*
G75*
G02*
X47924702Y-91869670I0J218750D01*
G01*
X47924702Y-91432170D01*
G75*
G02*
X48143452Y-91213420I218750J0D01*
G01*
X48655952Y-91213420D01*
G75*
G02*
X48874702Y-91432170I0J-218750D01*
G01*
X48874702Y-91869670D01*
G75*
G02*
X48655952Y-92088420I-218750J0D01*
G01*
G37*
G36*
G01*
X48655952Y-90513420D02*
X48143452Y-90513420D01*
G75*
G02*
X47924702Y-90294670I0J218750D01*
G01*
X47924702Y-89857170D01*
G75*
G02*
X48143452Y-89638420I218750J0D01*
G01*
X48655952Y-89638420D01*
G75*
G02*
X48874702Y-89857170I0J-218750D01*
G01*
X48874702Y-90294670D01*
G75*
G02*
X48655952Y-90513420I-218750J0D01*
G01*
G37*
%TD*%
D16*
%TO.C,D10*%
X60845700Y-101559700D03*
X59575700Y-101559700D03*
X58305700Y-101559700D03*
X57035700Y-101559700D03*
X55765700Y-101559700D03*
X54495700Y-101559700D03*
X53225700Y-101559700D03*
X51955700Y-101559700D03*
X51955700Y-93029700D03*
X53225700Y-93029700D03*
X54495700Y-93029700D03*
X55765700Y-93029700D03*
X58305700Y-93029700D03*
X59575700Y-93029700D03*
X60845700Y-93029700D03*
X57035700Y-93029700D03*
%TD*%
%TO.C,C48*%
G36*
G01*
X45292724Y-92584820D02*
X45805224Y-92584820D01*
G75*
G02*
X46023974Y-92803570I0J-218750D01*
G01*
X46023974Y-93241070D01*
G75*
G02*
X45805224Y-93459820I-218750J0D01*
G01*
X45292724Y-93459820D01*
G75*
G02*
X45073974Y-93241070I0J218750D01*
G01*
X45073974Y-92803570D01*
G75*
G02*
X45292724Y-92584820I218750J0D01*
G01*
G37*
G36*
G01*
X45292724Y-94159820D02*
X45805224Y-94159820D01*
G75*
G02*
X46023974Y-94378570I0J-218750D01*
G01*
X46023974Y-94816070D01*
G75*
G02*
X45805224Y-95034820I-218750J0D01*
G01*
X45292724Y-95034820D01*
G75*
G02*
X45073974Y-94816070I0J218750D01*
G01*
X45073974Y-94378570D01*
G75*
G02*
X45292724Y-94159820I218750J0D01*
G01*
G37*
%TD*%
%TO.C,C46*%
G36*
G01*
X46767900Y-92584820D02*
X47280400Y-92584820D01*
G75*
G02*
X47499150Y-92803570I0J-218750D01*
G01*
X47499150Y-93241070D01*
G75*
G02*
X47280400Y-93459820I-218750J0D01*
G01*
X46767900Y-93459820D01*
G75*
G02*
X46549150Y-93241070I0J218750D01*
G01*
X46549150Y-92803570D01*
G75*
G02*
X46767900Y-92584820I218750J0D01*
G01*
G37*
G36*
G01*
X46767900Y-94159820D02*
X47280400Y-94159820D01*
G75*
G02*
X47499150Y-94378570I0J-218750D01*
G01*
X47499150Y-94816070D01*
G75*
G02*
X47280400Y-95034820I-218750J0D01*
G01*
X46767900Y-95034820D01*
G75*
G02*
X46549150Y-94816070I0J218750D01*
G01*
X46549150Y-94378570D01*
G75*
G02*
X46767900Y-94159820I218750J0D01*
G01*
G37*
%TD*%
%TO.C,C45*%
G36*
G01*
X48143452Y-92551800D02*
X48655952Y-92551800D01*
G75*
G02*
X48874702Y-92770550I0J-218750D01*
G01*
X48874702Y-93208050D01*
G75*
G02*
X48655952Y-93426800I-218750J0D01*
G01*
X48143452Y-93426800D01*
G75*
G02*
X47924702Y-93208050I0J218750D01*
G01*
X47924702Y-92770550D01*
G75*
G02*
X48143452Y-92551800I218750J0D01*
G01*
G37*
G36*
G01*
X48143452Y-94126800D02*
X48655952Y-94126800D01*
G75*
G02*
X48874702Y-94345550I0J-218750D01*
G01*
X48874702Y-94783050D01*
G75*
G02*
X48655952Y-95001800I-218750J0D01*
G01*
X48143452Y-95001800D01*
G75*
G02*
X47924702Y-94783050I0J218750D01*
G01*
X47924702Y-94345550D01*
G75*
G02*
X48143452Y-94126800I218750J0D01*
G01*
G37*
%TD*%
%TO.C,C42*%
G36*
G01*
X49551176Y-92584820D02*
X50063676Y-92584820D01*
G75*
G02*
X50282426Y-92803570I0J-218750D01*
G01*
X50282426Y-93241070D01*
G75*
G02*
X50063676Y-93459820I-218750J0D01*
G01*
X49551176Y-93459820D01*
G75*
G02*
X49332426Y-93241070I0J218750D01*
G01*
X49332426Y-92803570D01*
G75*
G02*
X49551176Y-92584820I218750J0D01*
G01*
G37*
G36*
G01*
X49551176Y-94159820D02*
X50063676Y-94159820D01*
G75*
G02*
X50282426Y-94378570I0J-218750D01*
G01*
X50282426Y-94816070D01*
G75*
G02*
X50063676Y-95034820I-218750J0D01*
G01*
X49551176Y-95034820D01*
G75*
G02*
X49332426Y-94816070I0J218750D01*
G01*
X49332426Y-94378570D01*
G75*
G02*
X49551176Y-94159820I218750J0D01*
G01*
G37*
%TD*%
%TO.C,C50*%
G36*
G01*
X52752100Y-87616940D02*
X50702100Y-87616940D01*
G75*
G02*
X50452100Y-87366940I0J250000D01*
G01*
X50452100Y-85791940D01*
G75*
G02*
X50702100Y-85541940I250000J0D01*
G01*
X52752100Y-85541940D01*
G75*
G02*
X53002100Y-85791940I0J-250000D01*
G01*
X53002100Y-87366940D01*
G75*
G02*
X52752100Y-87616940I-250000J0D01*
G01*
G37*
G36*
G01*
X52752100Y-81391940D02*
X50702100Y-81391940D01*
G75*
G02*
X50452100Y-81141940I0J250000D01*
G01*
X50452100Y-79566940D01*
G75*
G02*
X50702100Y-79316940I250000J0D01*
G01*
X52752100Y-79316940D01*
G75*
G02*
X53002100Y-79566940I0J-250000D01*
G01*
X53002100Y-81141940D01*
G75*
G02*
X52752100Y-81391940I-250000J0D01*
G01*
G37*
%TD*%
%TO.C,R16*%
G36*
G01*
X22068750Y-67050000D02*
X22581250Y-67050000D01*
G75*
G02*
X22800000Y-67268750I0J-218750D01*
G01*
X22800000Y-67706250D01*
G75*
G02*
X22581250Y-67925000I-218750J0D01*
G01*
X22068750Y-67925000D01*
G75*
G02*
X21850000Y-67706250I0J218750D01*
G01*
X21850000Y-67268750D01*
G75*
G02*
X22068750Y-67050000I218750J0D01*
G01*
G37*
G36*
G01*
X22068750Y-68625000D02*
X22581250Y-68625000D01*
G75*
G02*
X22800000Y-68843750I0J-218750D01*
G01*
X22800000Y-69281250D01*
G75*
G02*
X22581250Y-69500000I-218750J0D01*
G01*
X22068750Y-69500000D01*
G75*
G02*
X21850000Y-69281250I0J218750D01*
G01*
X21850000Y-68843750D01*
G75*
G02*
X22068750Y-68625000I218750J0D01*
G01*
G37*
%TD*%
%TO.C,R39*%
G36*
G01*
X39064910Y-73602300D02*
X38552410Y-73602300D01*
G75*
G02*
X38333660Y-73383550I0J218750D01*
G01*
X38333660Y-72946050D01*
G75*
G02*
X38552410Y-72727300I218750J0D01*
G01*
X39064910Y-72727300D01*
G75*
G02*
X39283660Y-72946050I0J-218750D01*
G01*
X39283660Y-73383550D01*
G75*
G02*
X39064910Y-73602300I-218750J0D01*
G01*
G37*
G36*
G01*
X39064910Y-72027300D02*
X38552410Y-72027300D01*
G75*
G02*
X38333660Y-71808550I0J218750D01*
G01*
X38333660Y-71371050D01*
G75*
G02*
X38552410Y-71152300I218750J0D01*
G01*
X39064910Y-71152300D01*
G75*
G02*
X39283660Y-71371050I0J-218750D01*
G01*
X39283660Y-71808550D01*
G75*
G02*
X39064910Y-72027300I-218750J0D01*
G01*
G37*
%TD*%
%TO.C,R37*%
G36*
G01*
X37950860Y-67218850D02*
X37950860Y-67731350D01*
G75*
G02*
X37732110Y-67950100I-218750J0D01*
G01*
X37294610Y-67950100D01*
G75*
G02*
X37075860Y-67731350I0J218750D01*
G01*
X37075860Y-67218850D01*
G75*
G02*
X37294610Y-67000100I218750J0D01*
G01*
X37732110Y-67000100D01*
G75*
G02*
X37950860Y-67218850I0J-218750D01*
G01*
G37*
G36*
G01*
X36375860Y-67218850D02*
X36375860Y-67731350D01*
G75*
G02*
X36157110Y-67950100I-218750J0D01*
G01*
X35719610Y-67950100D01*
G75*
G02*
X35500860Y-67731350I0J218750D01*
G01*
X35500860Y-67218850D01*
G75*
G02*
X35719610Y-67000100I218750J0D01*
G01*
X36157110Y-67000100D01*
G75*
G02*
X36375860Y-67218850I0J-218750D01*
G01*
G37*
%TD*%
%TO.C,R31*%
G36*
G01*
X29600000Y-66468750D02*
X29600000Y-66981250D01*
G75*
G02*
X29381250Y-67200000I-218750J0D01*
G01*
X28943750Y-67200000D01*
G75*
G02*
X28725000Y-66981250I0J218750D01*
G01*
X28725000Y-66468750D01*
G75*
G02*
X28943750Y-66250000I218750J0D01*
G01*
X29381250Y-66250000D01*
G75*
G02*
X29600000Y-66468750I0J-218750D01*
G01*
G37*
G36*
G01*
X28025000Y-66468750D02*
X28025000Y-66981250D01*
G75*
G02*
X27806250Y-67200000I-218750J0D01*
G01*
X27368750Y-67200000D01*
G75*
G02*
X27150000Y-66981250I0J218750D01*
G01*
X27150000Y-66468750D01*
G75*
G02*
X27368750Y-66250000I218750J0D01*
G01*
X27806250Y-66250000D01*
G75*
G02*
X28025000Y-66468750I0J-218750D01*
G01*
G37*
%TD*%
%TO.C,R17*%
G36*
G01*
X22285240Y-75216730D02*
X22285240Y-74704230D01*
G75*
G02*
X22503990Y-74485480I218750J0D01*
G01*
X22941490Y-74485480D01*
G75*
G02*
X23160240Y-74704230I0J-218750D01*
G01*
X23160240Y-75216730D01*
G75*
G02*
X22941490Y-75435480I-218750J0D01*
G01*
X22503990Y-75435480D01*
G75*
G02*
X22285240Y-75216730I0J218750D01*
G01*
G37*
G36*
G01*
X23860240Y-75216730D02*
X23860240Y-74704230D01*
G75*
G02*
X24078990Y-74485480I218750J0D01*
G01*
X24516490Y-74485480D01*
G75*
G02*
X24735240Y-74704230I0J-218750D01*
G01*
X24735240Y-75216730D01*
G75*
G02*
X24516490Y-75435480I-218750J0D01*
G01*
X24078990Y-75435480D01*
G75*
G02*
X23860240Y-75216730I0J218750D01*
G01*
G37*
%TD*%
%TO.C,R13*%
G36*
G01*
X22285240Y-76588330D02*
X22285240Y-76075830D01*
G75*
G02*
X22503990Y-75857080I218750J0D01*
G01*
X22941490Y-75857080D01*
G75*
G02*
X23160240Y-76075830I0J-218750D01*
G01*
X23160240Y-76588330D01*
G75*
G02*
X22941490Y-76807080I-218750J0D01*
G01*
X22503990Y-76807080D01*
G75*
G02*
X22285240Y-76588330I0J218750D01*
G01*
G37*
G36*
G01*
X23860240Y-76588330D02*
X23860240Y-76075830D01*
G75*
G02*
X24078990Y-75857080I218750J0D01*
G01*
X24516490Y-75857080D01*
G75*
G02*
X24735240Y-76075830I0J-218750D01*
G01*
X24735240Y-76588330D01*
G75*
G02*
X24516490Y-76807080I-218750J0D01*
G01*
X24078990Y-76807080D01*
G75*
G02*
X23860240Y-76588330I0J218750D01*
G01*
G37*
%TD*%
%TO.C,R29*%
G36*
G01*
X29600000Y-70593750D02*
X29600000Y-71106250D01*
G75*
G02*
X29381250Y-71325000I-218750J0D01*
G01*
X28943750Y-71325000D01*
G75*
G02*
X28725000Y-71106250I0J218750D01*
G01*
X28725000Y-70593750D01*
G75*
G02*
X28943750Y-70375000I218750J0D01*
G01*
X29381250Y-70375000D01*
G75*
G02*
X29600000Y-70593750I0J-218750D01*
G01*
G37*
G36*
G01*
X28025000Y-70593750D02*
X28025000Y-71106250D01*
G75*
G02*
X27806250Y-71325000I-218750J0D01*
G01*
X27368750Y-71325000D01*
G75*
G02*
X27150000Y-71106250I0J218750D01*
G01*
X27150000Y-70593750D01*
G75*
G02*
X27368750Y-70375000I218750J0D01*
G01*
X27806250Y-70375000D01*
G75*
G02*
X28025000Y-70593750I0J-218750D01*
G01*
G37*
%TD*%
%TO.C,R20*%
G36*
G01*
X27717440Y-74704230D02*
X27717440Y-75216730D01*
G75*
G02*
X27498690Y-75435480I-218750J0D01*
G01*
X27061190Y-75435480D01*
G75*
G02*
X26842440Y-75216730I0J218750D01*
G01*
X26842440Y-74704230D01*
G75*
G02*
X27061190Y-74485480I218750J0D01*
G01*
X27498690Y-74485480D01*
G75*
G02*
X27717440Y-74704230I0J-218750D01*
G01*
G37*
G36*
G01*
X26142440Y-74704230D02*
X26142440Y-75216730D01*
G75*
G02*
X25923690Y-75435480I-218750J0D01*
G01*
X25486190Y-75435480D01*
G75*
G02*
X25267440Y-75216730I0J218750D01*
G01*
X25267440Y-74704230D01*
G75*
G02*
X25486190Y-74485480I218750J0D01*
G01*
X25923690Y-74485480D01*
G75*
G02*
X26142440Y-74704230I0J-218750D01*
G01*
G37*
%TD*%
%TO.C,R25*%
G36*
G01*
X27717440Y-73332630D02*
X27717440Y-73845130D01*
G75*
G02*
X27498690Y-74063880I-218750J0D01*
G01*
X27061190Y-74063880D01*
G75*
G02*
X26842440Y-73845130I0J218750D01*
G01*
X26842440Y-73332630D01*
G75*
G02*
X27061190Y-73113880I218750J0D01*
G01*
X27498690Y-73113880D01*
G75*
G02*
X27717440Y-73332630I0J-218750D01*
G01*
G37*
G36*
G01*
X26142440Y-73332630D02*
X26142440Y-73845130D01*
G75*
G02*
X25923690Y-74063880I-218750J0D01*
G01*
X25486190Y-74063880D01*
G75*
G02*
X25267440Y-73845130I0J218750D01*
G01*
X25267440Y-73332630D01*
G75*
G02*
X25486190Y-73113880I218750J0D01*
G01*
X25923690Y-73113880D01*
G75*
G02*
X26142440Y-73332630I0J-218750D01*
G01*
G37*
%TD*%
%TO.C,R38*%
G36*
G01*
X35246860Y-73420950D02*
X35246860Y-72908450D01*
G75*
G02*
X35465610Y-72689700I218750J0D01*
G01*
X35903110Y-72689700D01*
G75*
G02*
X36121860Y-72908450I0J-218750D01*
G01*
X36121860Y-73420950D01*
G75*
G02*
X35903110Y-73639700I-218750J0D01*
G01*
X35465610Y-73639700D01*
G75*
G02*
X35246860Y-73420950I0J218750D01*
G01*
G37*
G36*
G01*
X36821860Y-73420950D02*
X36821860Y-72908450D01*
G75*
G02*
X37040610Y-72689700I218750J0D01*
G01*
X37478110Y-72689700D01*
G75*
G02*
X37696860Y-72908450I0J-218750D01*
G01*
X37696860Y-73420950D01*
G75*
G02*
X37478110Y-73639700I-218750J0D01*
G01*
X37040610Y-73639700D01*
G75*
G02*
X36821860Y-73420950I0J218750D01*
G01*
G37*
%TD*%
%TO.C,R33*%
G36*
G01*
X23707640Y-65844130D02*
X23707640Y-65331630D01*
G75*
G02*
X23926390Y-65112880I218750J0D01*
G01*
X24363890Y-65112880D01*
G75*
G02*
X24582640Y-65331630I0J-218750D01*
G01*
X24582640Y-65844130D01*
G75*
G02*
X24363890Y-66062880I-218750J0D01*
G01*
X23926390Y-66062880D01*
G75*
G02*
X23707640Y-65844130I0J218750D01*
G01*
G37*
G36*
G01*
X25282640Y-65844130D02*
X25282640Y-65331630D01*
G75*
G02*
X25501390Y-65112880I218750J0D01*
G01*
X25938890Y-65112880D01*
G75*
G02*
X26157640Y-65331630I0J-218750D01*
G01*
X26157640Y-65844130D01*
G75*
G02*
X25938890Y-66062880I-218750J0D01*
G01*
X25501390Y-66062880D01*
G75*
G02*
X25282640Y-65844130I0J218750D01*
G01*
G37*
%TD*%
%TO.C,C21*%
G36*
G01*
X22285240Y-73845130D02*
X22285240Y-73332630D01*
G75*
G02*
X22503990Y-73113880I218750J0D01*
G01*
X22941490Y-73113880D01*
G75*
G02*
X23160240Y-73332630I0J-218750D01*
G01*
X23160240Y-73845130D01*
G75*
G02*
X22941490Y-74063880I-218750J0D01*
G01*
X22503990Y-74063880D01*
G75*
G02*
X22285240Y-73845130I0J218750D01*
G01*
G37*
G36*
G01*
X23860240Y-73845130D02*
X23860240Y-73332630D01*
G75*
G02*
X24078990Y-73113880I218750J0D01*
G01*
X24516490Y-73113880D01*
G75*
G02*
X24735240Y-73332630I0J-218750D01*
G01*
X24735240Y-73845130D01*
G75*
G02*
X24516490Y-74063880I-218750J0D01*
G01*
X24078990Y-74063880D01*
G75*
G02*
X23860240Y-73845130I0J218750D01*
G01*
G37*
%TD*%
%TO.C,C41*%
G36*
G01*
X29600000Y-69218750D02*
X29600000Y-69731250D01*
G75*
G02*
X29381250Y-69950000I-218750J0D01*
G01*
X28943750Y-69950000D01*
G75*
G02*
X28725000Y-69731250I0J218750D01*
G01*
X28725000Y-69218750D01*
G75*
G02*
X28943750Y-69000000I218750J0D01*
G01*
X29381250Y-69000000D01*
G75*
G02*
X29600000Y-69218750I0J-218750D01*
G01*
G37*
G36*
G01*
X28025000Y-69218750D02*
X28025000Y-69731250D01*
G75*
G02*
X27806250Y-69950000I-218750J0D01*
G01*
X27368750Y-69950000D01*
G75*
G02*
X27150000Y-69731250I0J218750D01*
G01*
X27150000Y-69218750D01*
G75*
G02*
X27368750Y-69000000I218750J0D01*
G01*
X27806250Y-69000000D01*
G75*
G02*
X28025000Y-69218750I0J-218750D01*
G01*
G37*
%TD*%
%TO.C,C34*%
G36*
G01*
X29600000Y-71968750D02*
X29600000Y-72481250D01*
G75*
G02*
X29381250Y-72700000I-218750J0D01*
G01*
X28943750Y-72700000D01*
G75*
G02*
X28725000Y-72481250I0J218750D01*
G01*
X28725000Y-71968750D01*
G75*
G02*
X28943750Y-71750000I218750J0D01*
G01*
X29381250Y-71750000D01*
G75*
G02*
X29600000Y-71968750I0J-218750D01*
G01*
G37*
G36*
G01*
X28025000Y-71968750D02*
X28025000Y-72481250D01*
G75*
G02*
X27806250Y-72700000I-218750J0D01*
G01*
X27368750Y-72700000D01*
G75*
G02*
X27150000Y-72481250I0J218750D01*
G01*
X27150000Y-71968750D01*
G75*
G02*
X27368750Y-71750000I218750J0D01*
G01*
X27806250Y-71750000D01*
G75*
G02*
X28025000Y-71968750I0J-218750D01*
G01*
G37*
%TD*%
%TO.C,C47*%
G36*
G01*
X35500860Y-66258150D02*
X35500860Y-65745650D01*
G75*
G02*
X35719610Y-65526900I218750J0D01*
G01*
X36157110Y-65526900D01*
G75*
G02*
X36375860Y-65745650I0J-218750D01*
G01*
X36375860Y-66258150D01*
G75*
G02*
X36157110Y-66476900I-218750J0D01*
G01*
X35719610Y-66476900D01*
G75*
G02*
X35500860Y-66258150I0J218750D01*
G01*
G37*
G36*
G01*
X37075860Y-66258150D02*
X37075860Y-65745650D01*
G75*
G02*
X37294610Y-65526900I218750J0D01*
G01*
X37732110Y-65526900D01*
G75*
G02*
X37950860Y-65745650I0J-218750D01*
G01*
X37950860Y-66258150D01*
G75*
G02*
X37732110Y-66476900I-218750J0D01*
G01*
X37294610Y-66476900D01*
G75*
G02*
X37075860Y-66258150I0J218750D01*
G01*
G37*
%TD*%
%TO.C,C18*%
G36*
G01*
X27717440Y-76075830D02*
X27717440Y-76588330D01*
G75*
G02*
X27498690Y-76807080I-218750J0D01*
G01*
X27061190Y-76807080D01*
G75*
G02*
X26842440Y-76588330I0J218750D01*
G01*
X26842440Y-76075830D01*
G75*
G02*
X27061190Y-75857080I218750J0D01*
G01*
X27498690Y-75857080D01*
G75*
G02*
X27717440Y-76075830I0J-218750D01*
G01*
G37*
G36*
G01*
X26142440Y-76075830D02*
X26142440Y-76588330D01*
G75*
G02*
X25923690Y-76807080I-218750J0D01*
G01*
X25486190Y-76807080D01*
G75*
G02*
X25267440Y-76588330I0J218750D01*
G01*
X25267440Y-76075830D01*
G75*
G02*
X25486190Y-75857080I218750J0D01*
G01*
X25923690Y-75857080D01*
G75*
G02*
X26142440Y-76075830I0J-218750D01*
G01*
G37*
%TD*%
%TO.C,C40*%
G36*
G01*
X29600000Y-67843750D02*
X29600000Y-68356250D01*
G75*
G02*
X29381250Y-68575000I-218750J0D01*
G01*
X28943750Y-68575000D01*
G75*
G02*
X28725000Y-68356250I0J218750D01*
G01*
X28725000Y-67843750D01*
G75*
G02*
X28943750Y-67625000I218750J0D01*
G01*
X29381250Y-67625000D01*
G75*
G02*
X29600000Y-67843750I0J-218750D01*
G01*
G37*
G36*
G01*
X28025000Y-67843750D02*
X28025000Y-68356250D01*
G75*
G02*
X27806250Y-68575000I-218750J0D01*
G01*
X27368750Y-68575000D01*
G75*
G02*
X27150000Y-68356250I0J218750D01*
G01*
X27150000Y-67843750D01*
G75*
G02*
X27368750Y-67625000I218750J0D01*
G01*
X27806250Y-67625000D01*
G75*
G02*
X28025000Y-67843750I0J-218750D01*
G01*
G37*
%TD*%
%TO.C,C51*%
G36*
G01*
X34543710Y-73589600D02*
X34031210Y-73589600D01*
G75*
G02*
X33812460Y-73370850I0J218750D01*
G01*
X33812460Y-72933350D01*
G75*
G02*
X34031210Y-72714600I218750J0D01*
G01*
X34543710Y-72714600D01*
G75*
G02*
X34762460Y-72933350I0J-218750D01*
G01*
X34762460Y-73370850D01*
G75*
G02*
X34543710Y-73589600I-218750J0D01*
G01*
G37*
G36*
G01*
X34543710Y-72014600D02*
X34031210Y-72014600D01*
G75*
G02*
X33812460Y-71795850I0J218750D01*
G01*
X33812460Y-71358350D01*
G75*
G02*
X34031210Y-71139600I218750J0D01*
G01*
X34543710Y-71139600D01*
G75*
G02*
X34762460Y-71358350I0J-218750D01*
G01*
X34762460Y-71795850D01*
G75*
G02*
X34543710Y-72014600I-218750J0D01*
G01*
G37*
%TD*%
%TO.C,C17*%
G36*
G01*
X22068750Y-70025000D02*
X22581250Y-70025000D01*
G75*
G02*
X22800000Y-70243750I0J-218750D01*
G01*
X22800000Y-70681250D01*
G75*
G02*
X22581250Y-70900000I-218750J0D01*
G01*
X22068750Y-70900000D01*
G75*
G02*
X21850000Y-70681250I0J218750D01*
G01*
X21850000Y-70243750D01*
G75*
G02*
X22068750Y-70025000I218750J0D01*
G01*
G37*
G36*
G01*
X22068750Y-71600000D02*
X22581250Y-71600000D01*
G75*
G02*
X22800000Y-71818750I0J-218750D01*
G01*
X22800000Y-72256250D01*
G75*
G02*
X22581250Y-72475000I-218750J0D01*
G01*
X22068750Y-72475000D01*
G75*
G02*
X21850000Y-72256250I0J218750D01*
G01*
X21850000Y-71818750D01*
G75*
G02*
X22068750Y-71600000I218750J0D01*
G01*
G37*
%TD*%
D15*
%TO.C,U4*%
X37855132Y-78229500D03*
X37855132Y-77279500D03*
X37855132Y-76329500D03*
X40055132Y-76329500D03*
X40055132Y-78229500D03*
%TD*%
D10*
%TO.C,J17*%
X39024560Y-83596480D03*
%TD*%
%TO.C,J13*%
X41816020Y-79796640D03*
%TD*%
%TO.C,J16*%
X42760900Y-83677760D03*
%TD*%
%TO.C,J12*%
X37905266Y-79796640D03*
%TD*%
%TO.C,J15*%
X31338520Y-83466940D03*
%TD*%
%TO.C,J11*%
X33994513Y-79796640D03*
%TD*%
%TO.C,J14*%
X35026600Y-83451700D03*
%TD*%
%TO.C,J10*%
X30083760Y-79796640D03*
%TD*%
%TO.C,J23*%
X45074840Y-88371680D03*
%TD*%
%TO.C,J22*%
X51968400Y-90970100D03*
%TD*%
%TO.C,J21*%
X47424340Y-88371680D03*
%TD*%
%TO.C,J20*%
X54495700Y-90987034D03*
%TD*%
%TO.C,J19*%
X58293000Y-90953168D03*
%TD*%
%TO.C,J18*%
X60833000Y-90944700D03*
%TD*%
D17*
%TO.C,D16*%
X41003220Y-90440240D03*
X41003220Y-93740240D03*
%TD*%
%TO.C,C6*%
G36*
G01*
X39578382Y-80683040D02*
X40490882Y-80683040D01*
G75*
G02*
X40734632Y-80926790I0J-243750D01*
G01*
X40734632Y-81414290D01*
G75*
G02*
X40490882Y-81658040I-243750J0D01*
G01*
X39578382Y-81658040D01*
G75*
G02*
X39334632Y-81414290I0J243750D01*
G01*
X39334632Y-80926790D01*
G75*
G02*
X39578382Y-80683040I243750J0D01*
G01*
G37*
G36*
G01*
X39578382Y-82558040D02*
X40490882Y-82558040D01*
G75*
G02*
X40734632Y-82801790I0J-243750D01*
G01*
X40734632Y-83289290D01*
G75*
G02*
X40490882Y-83533040I-243750J0D01*
G01*
X39578382Y-83533040D01*
G75*
G02*
X39334632Y-83289290I0J243750D01*
G01*
X39334632Y-82801790D01*
G75*
G02*
X39578382Y-82558040I243750J0D01*
G01*
G37*
%TD*%
%TO.C,C5*%
G36*
G01*
X43460350Y-80683040D02*
X44372850Y-80683040D01*
G75*
G02*
X44616600Y-80926790I0J-243750D01*
G01*
X44616600Y-81414290D01*
G75*
G02*
X44372850Y-81658040I-243750J0D01*
G01*
X43460350Y-81658040D01*
G75*
G02*
X43216600Y-81414290I0J243750D01*
G01*
X43216600Y-80926790D01*
G75*
G02*
X43460350Y-80683040I243750J0D01*
G01*
G37*
G36*
G01*
X43460350Y-82558040D02*
X44372850Y-82558040D01*
G75*
G02*
X44616600Y-82801790I0J-243750D01*
G01*
X44616600Y-83289290D01*
G75*
G02*
X44372850Y-83533040I-243750J0D01*
G01*
X43460350Y-83533040D01*
G75*
G02*
X43216600Y-83289290I0J243750D01*
G01*
X43216600Y-82801790D01*
G75*
G02*
X43460350Y-82558040I243750J0D01*
G01*
G37*
%TD*%
%TO.C,C2*%
G36*
G01*
X31814450Y-80683040D02*
X32726950Y-80683040D01*
G75*
G02*
X32970700Y-80926790I0J-243750D01*
G01*
X32970700Y-81414290D01*
G75*
G02*
X32726950Y-81658040I-243750J0D01*
G01*
X31814450Y-81658040D01*
G75*
G02*
X31570700Y-81414290I0J243750D01*
G01*
X31570700Y-80926790D01*
G75*
G02*
X31814450Y-80683040I243750J0D01*
G01*
G37*
G36*
G01*
X31814450Y-82558040D02*
X32726950Y-82558040D01*
G75*
G02*
X32970700Y-82801790I0J-243750D01*
G01*
X32970700Y-83289290D01*
G75*
G02*
X32726950Y-83533040I-243750J0D01*
G01*
X31814450Y-83533040D01*
G75*
G02*
X31570700Y-83289290I0J243750D01*
G01*
X31570700Y-82801790D01*
G75*
G02*
X31814450Y-82558040I243750J0D01*
G01*
G37*
%TD*%
%TO.C,C1*%
G36*
G01*
X35696416Y-80683040D02*
X36608916Y-80683040D01*
G75*
G02*
X36852666Y-80926790I0J-243750D01*
G01*
X36852666Y-81414290D01*
G75*
G02*
X36608916Y-81658040I-243750J0D01*
G01*
X35696416Y-81658040D01*
G75*
G02*
X35452666Y-81414290I0J243750D01*
G01*
X35452666Y-80926790D01*
G75*
G02*
X35696416Y-80683040I243750J0D01*
G01*
G37*
G36*
G01*
X35696416Y-82558040D02*
X36608916Y-82558040D01*
G75*
G02*
X36852666Y-82801790I0J-243750D01*
G01*
X36852666Y-83289290D01*
G75*
G02*
X36608916Y-83533040I-243750J0D01*
G01*
X35696416Y-83533040D01*
G75*
G02*
X35452666Y-83289290I0J243750D01*
G01*
X35452666Y-82801790D01*
G75*
G02*
X35696416Y-82558040I243750J0D01*
G01*
G37*
%TD*%
%TO.C,C36*%
G36*
G01*
X22793900Y-63689550D02*
X22793900Y-62777050D01*
G75*
G02*
X23037650Y-62533300I243750J0D01*
G01*
X23525150Y-62533300D01*
G75*
G02*
X23768900Y-62777050I0J-243750D01*
G01*
X23768900Y-63689550D01*
G75*
G02*
X23525150Y-63933300I-243750J0D01*
G01*
X23037650Y-63933300D01*
G75*
G02*
X22793900Y-63689550I0J243750D01*
G01*
G37*
G36*
G01*
X24668900Y-63689550D02*
X24668900Y-62777050D01*
G75*
G02*
X24912650Y-62533300I243750J0D01*
G01*
X25400150Y-62533300D01*
G75*
G02*
X25643900Y-62777050I0J-243750D01*
G01*
X25643900Y-63689550D01*
G75*
G02*
X25400150Y-63933300I-243750J0D01*
G01*
X24912650Y-63933300D01*
G75*
G02*
X24668900Y-63689550I0J243750D01*
G01*
G37*
%TD*%
D10*
%TO.C,J24*%
X34025000Y-69150000D03*
%TD*%
D15*
%TO.C,U5*%
X41737100Y-78229500D03*
X41737100Y-77279500D03*
X41737100Y-76329500D03*
X43937100Y-76329500D03*
X43937100Y-78229500D03*
%TD*%
D18*
%TO.C,U8*%
X35636160Y-69219900D03*
X36586160Y-69219900D03*
X37536160Y-69219900D03*
X37536160Y-71419900D03*
X35636160Y-71419900D03*
%TD*%
D19*
%TO.C,D7*%
X25882240Y-71864580D03*
X25232240Y-71864580D03*
X24582240Y-71864580D03*
X23932240Y-71864580D03*
X23932240Y-67464580D03*
X24582240Y-67464580D03*
X25232240Y-67464580D03*
X25882240Y-67464580D03*
%TD*%
D15*
%TO.C,U3*%
X33973166Y-78229500D03*
X33973166Y-77279500D03*
X33973166Y-76329500D03*
X36173166Y-76329500D03*
X36173166Y-78229500D03*
%TD*%
M02*
