M48
; DRILL file {KiCad 5.1.9+dfsg1-1} date Wed May 18 17:07:36 2022
; FORMAT={3:3/ absolute / metric / keep zeros}
; #@! TF.CreationDate,2022-05-18T17:07:36+03:00
; #@! TF.GenerationSoftware,Kicad,Pcbnew,5.1.9+dfsg1-1
FMAT,2
METRIC
T1C0.400
%
G90
G05
T1
X021770Y-088739
X021770Y-091262
X021770Y-093785
X021770Y-096308
X021770Y-098831
X022425Y-072125
X022750Y-069800
X025194Y-063330
X026317Y-068433
X027442Y-081173
X027675Y-066725
X027725Y-078550
X030051Y-079802
X030594Y-067272
X030645Y-074625
X030648Y-070091
X031466Y-082959
X031788Y-071196
X032309Y-075692
X033096Y-063157
X033150Y-073147
X033998Y-079802
X035361Y-082959
X035938Y-067475
X036170Y-075692
X037899Y-079802
X039050Y-069450
X039256Y-082959
X040030Y-075692
X041816Y-079802
X043078Y-082921
X043152Y-073284
X043597Y-064910
X043917Y-075679
X045657Y-090066
X047000Y-090066
X047625Y-070739
X047625Y-072166
X047625Y-073592
X047625Y-075019
X047993Y-096088
X048161Y-098692
X048397Y-090079
X049797Y-090079
X050482Y-098501
X051765Y-097511
X051940Y-101077
X053114Y-063195
X053224Y-101077
X053226Y-070714
X053226Y-072140
X053226Y-073567
X053226Y-074994
X053978Y-095418
X054150Y-080825
X054508Y-101077
X054734Y-068115
X055466Y-096479
X056358Y-061237
X056400Y-079050
X056439Y-063861
X056744Y-103528
X057036Y-095466
X058308Y-101077
X058669Y-096383
X059560Y-101077
X059685Y-083701
X059868Y-071986
X060813Y-101077
X061867Y-096774
T0
M30
