M48
; DRILL file {KiCad 5.1.9+dfsg1-1} date Sun Jun  5 14:53:13 2022
; FORMAT={-:-/ absolute / inch / decimal}
; #@! TF.CreationDate,2022-06-05T14:53:13+03:00
; #@! TF.GenerationSoftware,Kicad,Pcbnew,5.1.9+dfsg1-1
; #@! TF.FileFunction,Plated,1,2,PTH
FMAT,2
INCH
T1C0.0157
%
G90
G05
T1
X0.8571Y-3.4936
X0.8571Y-3.593
X0.8571Y-3.6923
X0.8571Y-3.7916
X0.8571Y-3.891
X0.8829Y-2.8396
X0.8957Y-2.748
X0.9919Y-2.4933
X1.0361Y-2.6942
X1.0804Y-3.1958
X1.0896Y-2.627
X1.0915Y-3.0925
X1.1831Y-3.1418
X1.2045Y-2.6485
X1.2065Y-2.938
X1.2066Y-2.7595
X1.2388Y-3.2661
X1.249Y-2.8051
X1.272Y-2.98
X1.303Y-2.4865
X1.3385Y-3.1418
X1.3922Y-3.2661
X1.3996Y-2.7756
X1.4016Y-2.6555
X1.424Y-2.98
X1.4921Y-3.1418
X1.5315Y-2.7146
X1.5455Y-3.2661
X1.576Y-2.98
X1.6398Y-2.873
X1.6463Y-3.1418
X1.696Y-3.2646
X1.6989Y-2.8852
X1.7164Y-2.5555
X1.729Y-2.9795
X1.7975Y-3.5459
X1.8504Y-3.5459
X1.875Y-2.785
X1.875Y-2.8412
X1.875Y-2.8973
X1.875Y-2.9535
X1.8895Y-3.783
X1.8961Y-3.8855
X1.9054Y-3.5464
X1.9605Y-3.5464
X1.9875Y-3.878
X2.038Y-3.839
X2.0449Y-3.9794
X2.0911Y-2.488
X2.0955Y-3.9794
X2.0955Y-2.784
X2.0955Y-2.8402
X2.0955Y-2.8963
X2.0955Y-2.9525
X2.1251Y-3.7566
X2.1319Y-3.1821
X2.146Y-3.9794
X2.1549Y-2.6817
X2.1837Y-3.7984
X2.2188Y-2.4109
X2.2205Y-3.1122
X2.222Y-2.5142
X2.234Y-4.0759
X2.2455Y-3.7585
X2.2956Y-3.9794
X2.3098Y-3.7946
X2.3449Y-3.9794
X2.3498Y-3.2953
X2.357Y-2.8341
X2.3942Y-3.9794
X2.4357Y-3.81
T0
M30
